<?xml version="1.0" encoding="UTF-8" standalone="no"?><!-- Generator: Gravit.io --><svg xmlns="http://www.w3.org/2000/svg" xmlns:xlink="http://www.w3.org/1999/xlink" style="isolation:isolate" viewBox="0 0 79 49" width="79pt" height="49pt"><g><path d=" M 20.997 32.192 L 17 32.192 L 22.191 16.808 L 27.141 16.808 L 32.332 32.192 L 28.335 32.192 L 24.722 20.684 L 24.602 20.684 L 20.997 32.192 Z  M 20.463 26.138 L 28.816 26.138 L 28.816 28.962 L 20.463 28.962 L 20.463 26.138 Z " fill="rgb(102,88,234)"/><path d=" M 33.988 32.192 L 33.988 16.808 L 40.403 16.808 C 41.555 16.808 42.519 16.97 43.295 17.296 C 44.077 17.622 44.663 18.077 45.053 18.664 C 45.449 19.249 45.647 19.928 45.647 20.699 C 45.647 21.285 45.524 21.808 45.279 22.269 C 45.033 22.725 44.695 23.103 44.265 23.403 C 43.833 23.704 43.336 23.914 42.77 24.034 L 42.77 24.185 C 43.39 24.215 43.964 24.382 44.49 24.688 C 45.021 24.994 45.446 25.419 45.767 25.965 C 46.087 26.506 46.247 27.147 46.247 27.888 C 46.247 28.714 46.038 29.453 45.617 30.104 C 45.196 30.75 44.587 31.261 43.791 31.637 C 42.995 32.007 42.028 32.192 40.892 32.192 L 33.988 32.192 Z  M 37.707 29.195 L 40.005 29.195 C 40.811 29.195 41.405 29.043 41.785 28.736 C 42.171 28.431 42.364 28.006 42.364 27.46 C 42.364 27.064 42.272 26.723 42.086 26.438 C 41.901 26.147 41.638 25.925 41.297 25.769 C 40.957 25.609 40.549 25.529 40.073 25.529 L 37.707 25.529 L 37.707 29.195 Z  M 37.707 23.133 L 39.765 23.133 C 40.17 23.133 40.531 23.065 40.846 22.93 C 41.162 22.795 41.407 22.6 41.583 22.344 C 41.763 22.089 41.853 21.781 41.853 21.42 C 41.853 20.904 41.67 20.498 41.305 20.203 C 40.939 19.908 40.446 19.76 39.825 19.76 L 37.707 19.76 L 37.707 23.133 Z " fill="rgb(102,88,234)" fill-opacity="0.5"/><path d=" M 62 22.381 L 58.244 22.381 C 58.194 21.996 58.091 21.648 57.936 21.338 C 57.781 21.027 57.575 20.761 57.32 20.542 C 57.064 20.321 56.762 20.153 56.411 20.038 C 56.066 19.918 55.682 19.858 55.262 19.858 C 54.516 19.858 53.873 20.041 53.332 20.406 C 52.796 20.771 52.383 21.3 52.092 21.991 C 51.806 22.682 51.663 23.519 51.663 24.5 C 51.663 25.522 51.809 26.378 52.1 27.069 C 52.395 27.755 52.808 28.274 53.339 28.624 C 53.875 28.969 54.508 29.142 55.24 29.142 C 55.65 29.142 56.024 29.09 56.358 28.985 C 56.7 28.879 56.997 28.726 57.253 28.527 C 57.513 28.321 57.726 28.073 57.891 27.783 C 58.062 27.487 58.179 27.155 58.244 26.784 L 62 26.806 C 61.935 27.487 61.737 28.158 61.407 28.819 C 61.081 29.481 60.633 30.084 60.062 30.63 C 59.491 31.17 58.795 31.602 57.974 31.922 C 57.157 32.242 56.221 32.403 55.164 32.403 C 53.772 32.403 52.525 32.097 51.424 31.486 C 50.326 30.87 49.46 29.974 48.824 28.797 C 48.188 27.62 47.87 26.188 47.87 24.5 C 47.87 22.807 48.194 21.373 48.839 20.196 C 49.485 19.019 50.359 18.125 51.461 17.514 C 52.563 16.903 53.797 16.597 55.164 16.597 C 56.096 16.597 56.957 16.727 57.748 16.988 C 58.539 17.243 59.236 17.619 59.837 18.115 C 60.437 18.605 60.926 19.209 61.302 19.925 C 61.677 20.641 61.91 21.46 62 22.381 Z " fill="rgb(102,88,234)" fill-opacity="0.3"/></g></svg>