<?xml version="1.0" encoding="UTF-8" standalone="no"?><!-- Generator: Gravit.io --><svg xmlns="http://www.w3.org/2000/svg" xmlns:xlink="http://www.w3.org/1999/xlink" style="isolation:isolate" viewBox="0 0 79 49" width="79pt" height="49pt"><g><path d=" M 21.705 33.477 L 17 33.477 L 23.111 15.365 L 28.94 15.365 L 35.051 33.477 L 30.346 33.477 L 26.092 19.928 L 25.95 19.928 L 21.705 33.477 Z  M 21.077 26.349 L 30.912 26.349 L 30.912 29.675 L 21.077 29.675 L 21.077 26.349 Z  M 36.877 33.477 L 36.877 17.012 L 43.743 17.012 C 44.975 17.012 46.008 17.185 46.838 17.534 C 47.674 17.883 48.301 18.37 48.719 18.997 C 49.143 19.624 49.354 20.351 49.354 21.176 C 49.354 21.803 49.223 22.363 48.961 22.856 C 48.698 23.345 48.336 23.749 47.875 24.071 C 47.414 24.392 46.881 24.617 46.275 24.746 L 46.275 24.907 C 46.94 24.939 47.554 25.119 48.116 25.445 C 48.685 25.772 49.14 26.228 49.483 26.812 C 49.826 27.391 49.998 28.078 49.998 28.871 C 49.998 29.755 49.773 30.546 49.322 31.243 C 48.872 31.934 48.221 32.481 47.369 32.883 C 46.517 33.279 45.482 33.477 44.265 33.477 L 36.877 33.477 Z  M 40.856 30.269 L 43.316 30.269 C 44.18 30.269 44.814 30.107 45.222 29.779 C 45.635 29.452 45.841 28.997 45.841 28.412 C 45.841 27.989 45.742 27.624 45.543 27.319 C 45.346 27.008 45.064 26.77 44.7 26.604 C 44.335 26.432 43.898 26.346 43.389 26.346 L 40.856 26.346 L 40.856 30.269 Z  M 40.856 23.782 L 43.059 23.782 C 43.494 23.782 43.879 23.709 44.217 23.564 C 44.554 23.42 44.818 23.21 45.005 22.937 C 45.198 22.664 45.294 22.334 45.294 21.948 C 45.294 21.396 45.099 20.962 44.707 20.646 C 44.316 20.329 43.789 20.171 43.123 20.171 L 40.856 20.171 L 40.856 23.782 Z " fill="rgb(102,88,234)"/><path d=" M 62 26.128 L 59.186 26.128 C 59.149 25.839 59.072 25.578 58.955 25.345 C 58.839 25.112 58.685 24.914 58.494 24.748 C 58.303 24.583 58.075 24.458 57.813 24.371 C 57.554 24.282 57.267 24.236 56.952 24.236 C 56.393 24.236 55.91 24.373 55.506 24.647 C 55.104 24.921 54.794 25.317 54.576 25.835 C 54.363 26.353 54.256 26.979 54.256 27.715 C 54.256 28.48 54.365 29.122 54.582 29.639 C 54.804 30.153 55.113 30.542 55.511 30.804 C 55.913 31.063 56.387 31.193 56.935 31.193 C 57.242 31.193 57.522 31.153 57.774 31.074 C 58.029 30.996 58.252 30.881 58.443 30.731 C 58.638 30.577 58.798 30.391 58.921 30.174 C 59.049 29.953 59.137 29.703 59.186 29.426 L 62 29.442 C 61.951 29.953 61.803 30.455 61.556 30.95 C 61.312 31.446 60.976 31.898 60.548 32.307 C 60.121 32.713 59.599 33.035 58.984 33.275 C 58.372 33.515 57.67 33.635 56.878 33.635 C 55.835 33.635 54.901 33.406 54.076 32.948 C 53.254 32.487 52.605 31.816 52.128 30.934 C 51.652 30.052 51.414 28.979 51.414 27.715 C 51.414 26.447 51.656 25.371 52.14 24.489 C 52.624 23.608 53.278 22.938 54.104 22.48 C 54.929 22.023 55.855 21.793 56.878 21.793 C 57.576 21.793 58.222 21.891 58.814 22.087 C 59.407 22.278 59.929 22.559 60.379 22.93 C 60.83 23.298 61.195 23.75 61.477 24.287 C 61.758 24.824 61.933 25.437 62 26.128 Z " fill="rgb(102,88,234)" fill-opacity="0.5"/></g></svg>