<?xml version="1.0" encoding="UTF-8" standalone="no"?><!-- Generator: Gravit.io --><svg xmlns="http://www.w3.org/2000/svg" xmlns:xlink="http://www.w3.org/1999/xlink" style="isolation:isolate" viewBox="0 0 79 49" width="79pt" height="49pt"><g><path d=" M 20.653 34.089 L 17 34.089 L 21.745 20.025 L 26.27 20.025 L 31.016 34.089 L 27.362 34.089 L 24.059 23.569 L 23.95 23.569 L 20.653 34.089 Z  M 20.165 28.554 L 27.802 28.554 L 27.802 31.136 L 20.165 31.136 L 20.165 28.554 Z  M 32.434 34.089 L 32.434 21.304 L 37.765 21.304 C 38.723 21.304 39.523 21.439 40.168 21.709 C 40.817 21.98 41.305 22.359 41.63 22.846 C 41.958 23.332 42.122 23.896 42.122 24.538 C 42.122 25.025 42.02 25.459 41.817 25.842 C 41.613 26.221 41.331 26.535 40.974 26.785 C 40.616 27.035 40.202 27.209 39.731 27.309 L 39.731 27.434 C 40.248 27.459 40.724 27.599 41.161 27.852 C 41.602 28.107 41.956 28.46 42.223 28.913 C 42.489 29.363 42.622 29.896 42.622 30.512 C 42.622 31.199 42.447 31.813 42.097 32.353 C 41.748 32.891 41.242 33.315 40.581 33.627 C 39.919 33.935 39.116 34.089 38.171 34.089 L 32.434 34.089 Z  M 35.524 31.598 L 37.434 31.598 C 38.104 31.598 38.597 31.471 38.913 31.218 C 39.234 30.963 39.394 30.61 39.394 30.157 C 39.394 29.827 39.317 29.544 39.163 29.308 C 39.009 29.066 38.791 28.88 38.508 28.751 C 38.225 28.618 37.885 28.552 37.49 28.552 L 35.524 28.552 L 35.524 31.598 Z  M 35.524 26.56 L 37.234 26.56 C 37.572 26.56 37.871 26.504 38.133 26.391 C 38.396 26.28 38.599 26.117 38.745 25.904 C 38.895 25.692 38.97 25.437 38.97 25.137 C 38.97 24.708 38.818 24.371 38.514 24.126 C 38.21 23.88 37.8 23.757 37.284 23.757 L 35.524 23.757 L 35.524 26.56 Z " fill="rgb(102,88,234)"/><path d=" M 62 21.859 L 57.318 21.859 C 57.256 21.379 57.128 20.944 56.935 20.558 C 56.74 20.171 56.485 19.839 56.166 19.565 C 55.848 19.29 55.47 19.081 55.033 18.937 C 54.602 18.788 54.125 18.713 53.6 18.713 C 52.67 18.713 51.868 18.94 51.194 19.396 C 50.526 19.852 50.011 20.511 49.649 21.373 C 49.292 22.234 49.115 23.277 49.115 24.5 C 49.115 25.774 49.296 26.841 49.658 27.703 C 50.026 28.558 50.542 29.205 51.203 29.641 C 51.871 30.071 52.661 30.287 53.572 30.287 C 54.084 30.287 54.55 30.222 54.968 30.09 C 55.392 29.96 55.764 29.769 56.082 29.52 C 56.407 29.264 56.672 28.955 56.878 28.592 C 57.09 28.224 57.237 27.809 57.318 27.347 L 62 27.375 C 61.919 28.224 61.672 29.06 61.26 29.884 C 60.855 30.708 60.296 31.461 59.585 32.141 C 58.873 32.816 58.005 33.353 56.981 33.752 C 55.964 34.152 54.796 34.352 53.478 34.352 C 51.743 34.352 50.189 33.971 48.815 33.209 C 47.447 32.441 46.367 31.324 45.575 29.857 C 44.782 28.39 44.385 26.604 44.385 24.5 C 44.385 22.39 44.788 20.601 45.594 19.134 C 46.399 17.667 47.489 16.553 48.862 15.791 C 50.235 15.029 51.774 14.648 53.478 14.648 C 54.64 14.648 55.714 14.811 56.7 15.136 C 57.687 15.454 58.555 15.922 59.303 16.54 C 60.053 17.152 60.661 17.904 61.129 18.797 C 61.598 19.69 61.888 20.711 62 21.859 Z " fill="rgb(102,88,234)" fill-opacity="0.5"/></g></svg>