<?xml version="1.0" encoding="UTF-8" standalone="no"?><!-- Generator: Gravit.io --><svg xmlns="http://www.w3.org/2000/svg" xmlns:xlink="http://www.w3.org/1999/xlink" style="isolation:isolate" viewBox="0 0 79 49" width="79pt" height="49pt"><g><path d=" M 20.582 31.394 L 17 31.394 L 21.652 17.606 L 26.089 17.606 L 30.741 31.394 L 27.159 31.394 L 23.921 21.08 L 23.813 21.08 L 20.582 31.394 Z  M 20.104 25.968 L 27.59 25.968 L 27.59 28.499 L 20.104 28.499 L 20.104 25.968 Z  M 32.226 31.394 L 32.226 17.606 L 37.975 17.606 C 39.007 17.606 39.871 17.752 40.567 18.044 C 41.267 18.335 41.792 18.744 42.142 19.269 C 42.497 19.794 42.674 20.402 42.674 21.093 C 42.674 21.618 42.564 22.088 42.344 22.501 C 42.125 22.909 41.822 23.248 41.436 23.517 C 41.05 23.786 40.603 23.975 40.096 24.083 L 40.096 24.217 C 40.652 24.244 41.166 24.395 41.638 24.668 C 42.113 24.942 42.495 25.324 42.782 25.813 C 43.069 26.298 43.213 26.872 43.213 27.536 C 43.213 28.277 43.024 28.939 42.647 29.522 C 42.27 30.101 41.725 30.559 41.011 30.896 C 40.298 31.228 39.432 31.394 38.413 31.394 L 32.226 31.394 Z  M 35.558 28.708 L 37.618 28.708 C 38.341 28.708 38.873 28.571 39.214 28.297 C 39.559 28.023 39.732 27.642 39.732 27.153 C 39.732 26.798 39.649 26.493 39.483 26.237 C 39.317 25.977 39.081 25.777 38.776 25.638 C 38.471 25.494 38.105 25.422 37.679 25.422 L 35.558 25.422 L 35.558 28.708 Z  M 35.558 23.275 L 37.403 23.275 C 37.766 23.275 38.09 23.214 38.372 23.093 C 38.655 22.972 38.875 22.797 39.032 22.568 C 39.194 22.339 39.274 22.063 39.274 21.74 C 39.274 21.277 39.111 20.914 38.783 20.649 C 38.455 20.384 38.013 20.252 37.457 20.252 L 35.558 20.252 L 35.558 23.275 Z " fill="rgb(102,88,234)"/><g opacity="0.5"><path d=" M 62 22.602 L 58.634 22.602 C 58.589 22.256 58.497 21.944 58.358 21.666 C 58.219 21.387 58.035 21.15 57.806 20.952 C 57.577 20.754 57.305 20.604 56.991 20.501 C 56.681 20.393 56.338 20.339 55.961 20.339 C 55.292 20.339 54.715 20.503 54.231 20.831 C 53.75 21.158 53.38 21.632 53.12 22.251 C 52.864 22.871 52.736 23.62 52.736 24.5 C 52.736 25.416 52.866 26.183 53.127 26.803 C 53.391 27.417 53.762 27.882 54.237 28.196 C 54.718 28.506 55.285 28.661 55.941 28.661 C 56.309 28.661 56.643 28.614 56.944 28.519 C 57.249 28.425 57.516 28.288 57.745 28.109 C 57.978 27.925 58.169 27.702 58.317 27.442 C 58.47 27.177 58.575 26.879 58.634 26.547 L 62 26.567 C 61.942 27.177 61.764 27.779 61.468 28.371 C 61.176 28.964 60.775 29.505 60.263 29.994 C 59.751 30.478 59.127 30.864 58.391 31.152 C 57.66 31.439 56.82 31.583 55.873 31.583 C 54.626 31.583 53.508 31.309 52.521 30.761 C 51.538 30.209 50.761 29.406 50.191 28.351 C 49.621 27.296 49.336 26.013 49.336 24.5 C 49.336 22.983 49.626 21.697 50.205 20.642 C 50.784 19.588 51.567 18.786 52.554 18.239 C 53.542 17.691 54.648 17.417 55.873 17.417 C 56.708 17.417 57.48 17.534 58.189 17.768 C 58.899 17.996 59.522 18.333 60.061 18.777 C 60.6 19.217 61.037 19.758 61.374 20.4 C 61.71 21.042 61.919 21.776 62 22.602 Z " fill="rgb(102,88,234)"/></g></g></svg>