<?xml version="1.0" encoding="UTF-8" standalone="no"?><!-- Generator: Gravit.io --><svg xmlns="http://www.w3.org/2000/svg" xmlns:xlink="http://www.w3.org/1999/xlink" style="isolation:isolate" viewBox="0 0 79 49" width="79pt" height="49pt"><g><path d=" M 20.961 36.04 L 17 36.04 L 22.145 20.792 L 27.051 20.792 L 32.196 36.04 L 28.235 36.04 L 24.654 24.634 L 24.535 24.634 L 20.961 36.04 Z  M 20.432 30.039 L 28.712 30.039 L 28.712 32.839 L 20.432 32.839 L 20.432 30.039 Z  M 33.838 36.04 L 33.838 20.792 L 40.196 20.792 C 41.338 20.792 42.293 20.954 43.063 21.276 C 43.837 21.599 44.418 22.05 44.805 22.631 C 45.197 23.212 45.393 23.885 45.393 24.649 C 45.393 25.23 45.271 25.748 45.028 26.205 C 44.785 26.657 44.45 27.031 44.023 27.329 C 43.596 27.627 43.102 27.836 42.541 27.955 L 42.541 28.104 C 43.157 28.133 43.725 28.3 44.246 28.602 C 44.773 28.905 45.195 29.327 45.512 29.868 C 45.83 30.404 45.989 31.04 45.989 31.774 C 45.989 32.593 45.78 33.325 45.363 33.971 C 44.946 34.611 44.343 35.117 43.554 35.489 C 42.765 35.857 41.807 36.04 40.68 36.04 L 33.838 36.04 Z  M 37.523 33.07 L 39.802 33.07 C 40.601 33.07 41.189 32.918 41.566 32.615 C 41.948 32.313 42.139 31.891 42.139 31.35 C 42.139 30.958 42.048 30.62 41.864 30.337 C 41.68 30.049 41.42 29.828 41.082 29.675 C 40.745 29.516 40.34 29.436 39.869 29.436 L 37.523 29.436 L 37.523 33.07 Z  M 37.523 27.061 L 39.563 27.061 C 39.965 27.061 40.323 26.994 40.635 26.86 C 40.948 26.726 41.191 26.533 41.365 26.279 C 41.544 26.026 41.633 25.721 41.633 25.364 C 41.633 24.852 41.452 24.45 41.09 24.157 C 40.727 23.865 40.238 23.718 39.623 23.718 L 37.523 23.718 L 37.523 27.061 Z " fill="rgb(102,88,234)"/><g opacity="0.5"><path d=" M 62 18.693 L 58.277 18.693 C 58.228 18.31 58.126 17.965 57.972 17.658 C 57.818 17.35 57.615 17.087 57.362 16.868 C 57.108 16.65 56.808 16.484 56.461 16.37 C 56.118 16.251 55.738 16.191 55.321 16.191 C 54.582 16.191 53.944 16.372 53.408 16.734 C 52.877 17.097 52.467 17.621 52.18 18.305 C 51.897 18.99 51.755 19.819 51.755 20.792 C 51.755 21.805 51.899 22.654 52.187 23.339 C 52.48 24.019 52.889 24.532 53.415 24.88 C 53.947 25.222 54.574 25.393 55.299 25.393 C 55.706 25.393 56.076 25.341 56.408 25.237 C 56.746 25.133 57.041 24.981 57.295 24.783 C 57.553 24.579 57.764 24.334 57.927 24.046 C 58.096 23.753 58.213 23.423 58.277 23.056 L 62 23.078 C 61.935 23.753 61.739 24.418 61.412 25.073 C 61.089 25.729 60.645 26.327 60.079 26.868 C 59.513 27.404 58.823 27.831 58.009 28.148 C 57.2 28.466 56.272 28.625 55.225 28.625 C 53.845 28.625 52.609 28.322 51.517 27.716 C 50.43 27.106 49.571 26.217 48.941 25.051 C 48.31 23.885 47.995 22.465 47.995 20.792 C 47.995 19.115 48.315 17.692 48.956 16.526 C 49.596 15.36 50.462 14.474 51.554 13.868 C 52.646 13.262 53.87 12.96 55.225 12.96 C 56.148 12.96 57.002 13.089 57.786 13.347 C 58.57 13.6 59.26 13.972 59.856 14.464 C 60.451 14.95 60.935 15.548 61.308 16.258 C 61.68 16.968 61.911 17.779 62 18.693 Z " fill="rgb(102,88,234)"/></g></g></svg>