<?xml version="1.0" encoding="UTF-8" standalone="no"?><!-- Generator: Gravit.io --><svg xmlns="http://www.w3.org/2000/svg" xmlns:xlink="http://www.w3.org/1999/xlink" style="isolation:isolate" viewBox="0 0 79 49" width="79pt" height="49pt"><g><path d=" M 21.769 33.679 L 17 33.679 L 23.194 15.321 L 29.102 15.321 L 35.296 33.679 L 30.527 33.679 L 26.215 19.946 L 26.072 19.946 L 21.769 33.679 Z  M 21.132 26.455 L 31.1 26.455 L 31.1 29.825 L 21.132 29.825 L 21.132 26.455 Z  M 37.273 33.679 L 37.273 15.321 L 44.928 15.321 C 46.303 15.321 47.452 15.515 48.379 15.903 C 49.311 16.292 50.011 16.836 50.477 17.535 C 50.948 18.234 51.185 19.044 51.185 19.964 C 51.185 20.664 51.038 21.288 50.745 21.838 C 50.453 22.382 50.049 22.833 49.536 23.191 C 49.021 23.55 48.427 23.8 47.752 23.944 L 47.752 24.124 C 48.492 24.16 49.177 24.359 49.805 24.724 C 50.438 25.089 50.946 25.596 51.328 26.248 C 51.711 26.894 51.902 27.658 51.902 28.543 C 51.902 29.529 51.651 30.41 51.149 31.187 C 50.647 31.959 49.921 32.568 48.971 33.016 C 48.021 33.458 46.867 33.679 45.511 33.679 L 37.273 33.679 Z  M 41.709 30.102 L 44.453 30.102 C 45.415 30.102 46.123 29.921 46.577 29.556 C 47.037 29.191 47.267 28.684 47.267 28.032 C 47.267 27.56 47.157 27.153 46.936 26.813 C 46.715 26.466 46.401 26.2 45.995 26.015 C 45.589 25.824 45.101 25.729 44.533 25.729 L 41.709 25.729 L 41.709 30.102 Z  M 41.709 22.869 L 44.165 22.869 C 44.65 22.869 45.08 22.788 45.457 22.627 C 45.833 22.466 46.126 22.232 46.335 21.927 C 46.55 21.623 46.658 21.255 46.658 20.825 C 46.658 20.209 46.44 19.725 46.004 19.372 C 45.567 19.02 44.978 18.843 44.237 18.843 L 41.709 18.843 L 41.709 22.869 Z " fill="rgb(102,88,234)"/><g style="opacity:0.5;"><g opacity="0.5"><path d=" M 62 21.972 L 57.518 21.972 C 57.458 21.512 57.336 21.096 57.15 20.726 C 56.965 20.356 56.72 20.039 56.416 19.776 C 56.111 19.513 55.749 19.312 55.331 19.175 C 54.919 19.032 54.462 18.96 53.959 18.96 C 53.069 18.96 52.301 19.179 51.656 19.614 C 51.016 20.051 50.523 20.682 50.176 21.506 C 49.836 22.331 49.665 23.329 49.665 24.5 C 49.665 25.719 49.839 26.741 50.185 27.566 C 50.538 28.384 51.031 29.003 51.664 29.422 C 52.304 29.833 53.06 30.04 53.933 30.04 C 54.422 30.04 54.867 29.977 55.268 29.852 C 55.675 29.726 56.03 29.544 56.335 29.305 C 56.645 29.06 56.9 28.764 57.097 28.418 C 57.3 28.065 57.44 27.668 57.518 27.225 L 62 27.252 C 61.923 28.065 61.686 28.865 61.292 29.654 C 60.904 30.444 60.369 31.164 59.688 31.815 C 59.006 32.46 58.176 32.974 57.196 33.357 C 56.221 33.739 55.104 33.93 53.843 33.93 C 52.181 33.93 50.693 33.566 49.379 32.836 C 48.07 32.102 47.036 31.032 46.277 29.628 C 45.518 28.223 45.139 26.514 45.139 24.5 C 45.139 22.48 45.524 20.768 46.295 19.364 C 47.066 17.96 48.109 16.892 49.423 16.164 C 50.738 15.434 52.211 15.07 53.843 15.07 C 54.955 15.07 55.983 15.225 56.926 15.536 C 57.87 15.84 58.701 16.289 59.419 16.88 C 60.135 17.466 60.718 18.186 61.167 19.041 C 61.615 19.895 61.893 20.873 62 21.972 Z " fill="rgb(102,88,234)"/></g></g></g></svg>