<?xml version="1.0" encoding="UTF-8" standalone="no"?><!-- Generator: Gravit.io --><svg xmlns="http://www.w3.org/2000/svg" xmlns:xlink="http://www.w3.org/1999/xlink" style="isolation:isolate" viewBox="0 0 79 49" width="79pt" height="49pt"><g><path d=" M 20.961 28.748 L 17 28.748 L 22.145 13.5 L 27.051 13.5 L 32.196 28.748 L 28.235 28.748 L 24.654 17.342 L 24.535 17.342 L 20.961 28.748 Z  M 20.432 22.747 L 28.712 22.747 L 28.712 25.547 L 20.432 25.547 L 20.432 22.747 Z  M 33.837 28.748 L 33.837 13.5 L 40.196 13.5 C 41.338 13.5 42.293 13.661 43.063 13.984 C 43.837 14.307 44.417 14.758 44.805 15.339 C 45.197 15.92 45.393 16.592 45.393 17.356 C 45.393 17.938 45.271 18.457 45.028 18.913 C 44.786 19.365 44.45 19.739 44.023 20.037 C 43.597 20.334 43.103 20.544 42.542 20.662 L 42.542 20.811 C 43.157 20.841 43.725 21.007 44.246 21.31 C 44.772 21.613 45.195 22.035 45.512 22.576 C 45.83 23.113 45.988 23.747 45.988 24.482 C 45.988 25.301 45.78 26.033 45.363 26.678 C 44.946 27.319 44.343 27.825 43.554 28.197 C 42.765 28.565 41.807 28.748 40.68 28.748 L 33.837 28.748 Z  M 37.524 25.778 L 39.802 25.778 C 40.6 25.778 41.189 25.626 41.566 25.323 C 41.948 25.021 42.139 24.599 42.139 24.058 C 42.139 23.666 42.048 23.328 41.864 23.045 C 41.681 22.757 41.42 22.536 41.082 22.382 C 40.744 22.223 40.34 22.144 39.868 22.144 L 37.524 22.144 L 37.524 25.778 Z  M 37.524 19.769 L 39.563 19.769 C 39.966 19.769 40.323 19.702 40.636 19.568 C 40.948 19.434 41.192 19.24 41.365 18.988 C 41.544 18.734 41.633 18.428 41.633 18.071 C 41.633 17.56 41.452 17.158 41.089 16.865 C 40.727 16.573 40.238 16.426 39.623 16.426 L 37.524 16.426 L 37.524 19.769 Z " fill="rgb(102,88,234)"/><g style="opacity:0.5;"><g opacity="0.5"><path d=" M 62 25.695 L 58.277 25.695 C 58.228 25.313 58.126 24.968 57.972 24.66 C 57.819 24.353 57.615 24.09 57.361 23.872 C 57.109 23.653 56.808 23.487 56.461 23.373 C 56.118 23.253 55.739 23.194 55.321 23.194 C 54.582 23.194 53.944 23.375 53.408 23.737 C 52.877 24.1 52.468 24.623 52.179 25.308 C 51.897 25.993 51.755 26.822 51.755 27.796 C 51.755 28.807 51.9 29.656 52.187 30.341 C 52.48 31.021 52.889 31.535 53.415 31.883 C 53.946 32.225 54.574 32.396 55.299 32.396 C 55.707 32.396 56.076 32.345 56.409 32.24 C 56.747 32.136 57.041 31.985 57.295 31.786 C 57.552 31.582 57.764 31.337 57.927 31.049 C 58.096 30.756 58.213 30.426 58.277 30.059 L 62 30.081 C 61.936 30.756 61.739 31.422 61.412 32.076 C 61.09 32.732 60.645 33.33 60.079 33.871 C 59.514 34.407 58.824 34.833 58.009 35.151 C 57.2 35.469 56.272 35.628 55.225 35.628 C 53.845 35.628 52.609 35.325 51.517 34.72 C 50.43 34.109 49.571 33.221 48.941 32.054 C 48.311 30.887 47.995 29.468 47.995 27.796 C 47.995 26.118 48.315 24.696 48.956 23.529 C 49.596 22.362 50.462 21.476 51.555 20.871 C 52.646 20.265 53.87 19.962 55.225 19.962 C 56.148 19.962 57.002 20.092 57.786 20.35 C 58.57 20.603 59.26 20.975 59.856 21.467 C 60.451 21.953 60.936 22.551 61.308 23.261 C 61.68 23.97 61.91 24.782 62 25.695 Z " fill="rgb(102,88,234)"/></g></g></g></svg>