<?xml version="1.0" encoding="UTF-8" standalone="no"?><!-- Generator: Gravit.io --><svg xmlns="http://www.w3.org/2000/svg" xmlns:xlink="http://www.w3.org/1999/xlink" style="isolation:isolate" viewBox="59.145 65.256 338.942 271.665" width="338.942pt" height="271.665pt"><g><path d=" M 94.408 336.406 C 91.287 336.024 88.939 333.581 88.678 330.462 C 88.42 327.341 90.31 324.292 93.276 323.049 C 125.59 309.502 138.053 292.921 142.762 280.97 C 121.01 266.283 103.175 246.479 92.454 225.081 C 80.147 200.517 78.201 175.85 86.826 153.751 C 111.768 89.852 230.527 58.837 298.132 66.364 C 299.383 66.503 300.628 66.657 301.843 66.822 C 331.729 70.894 354.461 85.343 367.579 108.608 C 382.478 135.025 383.116 170.428 369.335 205.742 C 357.475 236.122 333.84 263.064 302.783 281.606 C 271.858 300.07 236.883 308.241 204.302 304.615 C 203.213 304.494 202.126 304.359 201.053 304.213 C 200.778 304.176 200.504 304.137 200.232 304.098 C 155.494 342.707 97.07 336.702 94.594 336.427 L 94.408 336.406 Z " fill="rgb(0,0,0)"/><path d=" M 301.988 71.949 C 237.022 63.095 118.409 93.639 94.719 154.433 C 77.425 198.814 108.887 249.188 152.408 276.601 C 148.27 291.919 135.067 312.415 96.987 328.428 C 96.987 328.428 156.071 335.644 199.788 295.499 C 201.121 295.733 202.454 295.951 203.785 296.132 C 268.751 304.986 340.62 262.881 364.31 202.087 C 387.999 141.294 366.954 80.803 301.988 71.949 Z " fill="rgb(255,255,255)"/><path d=" M 248.697 264.556 C 223.642 267.513 202.391 266.388 184.484 262.888 C 181.916 294.463 155.994 307.969 138.764 316.148 C 130.797 319.968 125.06 321.628 125.06 321.628 C 174.867 312.439 191.907 289.784 196.465 281.832 C 213.07 285.074 230.025 284.76 246.045 281.908 C 283.712 275.203 313.744 251.188 325.199 230.358 C 308.356 245.621 283.543 260.444 248.697 264.556 Z " fill="rgb(178,178,178)"/><path d=" M 359.127 121.972 C 355.708 122.049 353.023 124.554 352.742 127.922 C 352.483 131.072 352.223 134.225 351.965 137.379 C 351.807 137.194 351.642 137.017 351.47 136.846 C 345.808 131.336 339.169 126.877 331.747 123.62 C 323.793 120.128 315.779 118.169 307.934 117.833 C 306.117 117.757 304.279 117.756 302.473 117.832 C 298.509 117.997 294.488 118.537 290.523 119.435 C 284.511 120.798 279.062 123.23 274.328 126.658 C 271.782 128.499 269.491 130.648 267.479 133.075 C 267.518 130.887 267.556 128.701 267.595 126.514 C 267.631 124.526 266.831 122.582 265.399 121.178 C 263.949 119.757 259.974 114.184 257.903 114.301 C 257.891 114.478 259.867 118.713 197.431 125.337 C 197.249 124.944 197.032 124.564 196.776 124.203 C 195.336 122.156 193.024 121.053 190.592 121.255 C 190.336 121.275 190.076 121.314 189.818 121.365 C 177.142 123.921 164.476 126.576 151.821 129.325 C 149.232 129.89 147.133 131.973 146.473 134.619 C 144.169 143.776 141.866 152.939 139.563 162.106 C 134.214 155.933 128.866 149.77 123.52 143.623 C 122.079 141.967 119.928 141.125 117.767 141.367 C 117.465 141.402 117.166 141.457 116.868 141.532 C 110.774 143.07 104.683 144.631 98.594 146.209 C 97.111 148.886 95.812 151.626 94.719 154.433 C 91.882 161.713 90.365 169.155 89.99 176.631 C 102.131 187.869 114.284 199.197 126.445 210.587 C 129.245 223.701 132.046 236.818 134.847 249.937 C 135.783 253.143 143.179 259.512 146.416 259.174 C 146.792 259.136 147.17 259.063 147.551 258.955 C 156.426 256.45 165.305 253.965 174.187 251.506 C 177.818 250.499 180.04 246.754 179.246 242.973 C 176.167 228.315 173.088 213.654 170.008 198.991 C 174.881 186.928 179.757 174.887 184.637 162.876 C 186.508 187.111 188.381 211.348 190.253 235.584 C 190.743 239.368 198.408 246.387 202.106 246.039 C 224.11 243.904 246.128 241.909 268.156 240.053 C 270.044 239.891 271.805 238.934 272.991 237.423 C 273.433 236.852 273.787 236.22 274.039 235.548 C 275.69 236.307 277.376 237.012 279.073 237.656 C 282.941 239.126 287.006 240.258 291.157 241.022 C 295.288 241.778 299.532 242.159 303.774 242.163 C 305.149 242.165 306.541 242.113 307.913 242.01 C 311.956 241.706 316.001 240.938 319.937 239.731 C 325.325 238.08 330.27 235.519 334.635 232.13 C 337.336 230.028 339.757 227.581 341.866 224.818 C 341.885 224.985 341.904 225.153 341.926 225.32 C 342.294 228.185 339.582 227.554 340.94 230.183 C 341.625 231.512 343.302 233.578 345.125 235.575 C 353.106 225.3 359.645 214.058 364.309 202.087 C 375.388 173.657 376.681 145.295 368.276 122.248 C 365.609 122.18 362.941 122.101 360.274 122.04 C 359.884 121.984 359.503 121.964 359.127 121.972 Z  M 275.826 194.466 C 273.872 196.9 271.872 199.427 269.791 202.093 C 268.49 199.754 265.944 198.258 263.174 198.464 C 263.172 198.45 243.066 200.041 243.067 200.057 C 245.988 199.669 248.91 199.286 251.832 198.906 C 255.224 198.465 257.753 195.61 257.844 192.115 C 258.053 183.904 258.262 175.696 258.472 167.493 C 258.523 165.551 257.784 163.655 256.438 162.261 C 257.35 162.207 258.262 162.154 259.174 162.101 C 259.602 166.901 260.701 171.159 262.454 174.783 C 264.385 178.773 266.926 182.241 270.002 185.095 C 272.942 187.828 276.297 190.149 279.973 192.006 C 279.981 192.009 279.993 192.015 280.003 192.021 C 278.356 192.287 276.892 193.14 275.826 194.466 Z  M 347.945 186.488 C 347.51 185.403 347.016 184.361 346.456 183.361 C 343.952 178.887 340.661 174.989 336.686 171.785 C 334.433 169.971 332.029 168.328 329.5 166.876 C 330.253 166.553 330.946 166.094 331.539 165.516 C 337.888 159.332 344.486 153.162 351.158 147.178 C 350.084 160.252 349.013 173.355 347.945 186.488 Z " fill="rgb(178,178,178)"/><path d=" M 351.461 232.549 C 348.927 232.718 346.365 232.465 343.845 231.798 C 340.917 231.023 338.181 229.619 335.713 227.618 C 333.251 225.617 331.292 223.224 329.892 220.508 C 328.534 217.878 327.657 215.087 327.288 212.218 C 327.265 212.051 327.247 211.884 327.228 211.716 C 325.118 214.48 322.698 216.929 319.997 219.031 C 315.631 222.42 310.686 224.98 305.299 226.629 C 301.362 227.834 297.316 228.599 293.273 228.901 C 291.901 229.005 290.509 229.055 289.134 229.052 C 284.893 229.046 280.648 228.66 276.517 227.903 C 272.365 227.136 268.3 226 264.431 224.528 C 262.734 223.884 261.048 223.177 259.397 222.416 C 259.145 223.09 258.791 223.723 258.349 224.293 C 257.162 225.804 255.402 226.764 253.514 226.923 C 231.485 228.775 209.467 230.773 187.464 232.915 C 183.766 233.266 180.489 230.579 179.999 226.794 C 176.664 201.113 173.328 175.425 169.992 149.732 C 165.114 161.752 160.239 173.802 155.366 185.872 C 158.446 200.537 161.526 215.199 164.605 229.858 C 165.4 233.64 163.177 237.387 159.546 238.396 C 150.665 240.862 141.787 243.353 132.912 245.866 C 132.533 245.974 132.154 246.046 131.777 246.085 C 128.541 246.428 125.513 244.349 124.576 241.14 C 120.32 226.594 116.064 212.053 111.809 197.52 C 94.975 181.773 78.155 166.148 61.364 150.734 C 59.467 148.991 58.713 146.287 59.389 143.667 C 60.07 141.051 62.056 139.005 64.576 138.329 C 77.118 134.962 89.67 131.677 102.234 128.481 C 102.533 128.406 102.831 128.349 103.133 128.315 C 105.294 128.069 107.446 128.91 108.885 130.56 C 114.23 136.699 119.577 142.853 124.925 149.018 C 127.227 139.847 129.53 130.679 131.833 121.517 C 132.493 118.87 134.592 116.785 137.18 116.214 C 149.833 113.444 162.497 110.77 175.171 108.197 C 175.429 108.144 175.69 108.107 175.945 108.086 C 178.377 107.879 180.689 108.982 182.128 111.028 C 182.383 111.39 182.601 111.771 182.784 112.163 C 245.214 105.475 245.274 106.107 245.287 105.927 C 247.357 105.808 249.296 106.523 250.747 107.945 C 252.18 109.35 252.98 111.294 252.944 113.285 C 252.905 115.474 252.867 117.663 252.829 119.852 C 254.84 117.422 257.131 115.271 259.677 113.426 C 264.41 109.99 269.859 107.558 275.871 106.191 C 279.836 105.29 283.857 104.749 287.821 104.583 C 289.627 104.508 291.466 104.506 293.282 104.583 C 301.128 104.918 309.143 106.881 317.097 110.378 C 324.521 113.639 331.159 118.106 336.823 123.628 C 336.996 123.797 337.16 123.978 337.318 124.162 C 337.576 121.003 337.835 117.847 338.094 114.692 C 338.375 111.316 341.06 108.809 344.479 108.734 C 344.855 108.727 345.237 108.746 345.626 108.803 C 359.35 110.729 373.075 112.726 386.801 114.785 C 388.86 115.098 390.718 116.259 391.903 117.972 C 393.087 119.687 393.461 121.752 392.934 123.644 C 386.947 145.189 380.976 166.978 375.021 188.982 C 374.273 191.759 371.794 193.72 368.854 193.862 C 368.31 193.889 367.762 193.852 367.225 193.751 C 367.202 193.747 367.179 193.743 367.156 193.739 C 368.417 195.158 369.483 196.711 370.342 198.378 C 371.734 201.082 372.594 203.952 372.897 206.909 C 373.198 209.871 372.916 212.843 372.061 215.749 C 371.206 218.654 369.772 221.362 367.803 223.803 C 365.786 226.31 363.42 228.324 360.777 229.788 C 358.127 231.253 355.303 232.162 352.388 232.468 C 352.083 232.504 351.773 232.527 351.461 232.549 Z  M 248.528 185.3 C 251.298 185.097 253.844 186.589 255.146 188.932 C 257.228 186.262 259.226 183.734 261.181 181.298 C 262.246 179.971 263.711 179.12 265.357 178.852 C 265.347 178.845 265.336 178.843 265.327 178.836 C 261.651 176.978 258.296 174.653 255.356 171.919 C 252.28 169.062 249.738 165.592 247.806 161.598 C 246.055 157.973 244.953 153.711 244.526 148.907 C 243.613 148.96 242.701 149.014 241.789 149.068 C 243.135 150.463 243.875 152.36 243.824 154.303 C 243.615 162.513 243.406 170.728 243.198 178.946 C 243.107 182.444 240.578 185.301 237.187 185.743 C 234.265 186.124 231.343 186.508 228.421 186.896 C 228.42 186.88 248.526 185.284 248.528 185.3 Z  M 314.854 153.69 C 317.383 155.144 319.789 156.791 322.041 158.61 C 326.018 161.821 329.307 165.722 331.814 170.207 C 332.373 171.206 332.868 172.252 333.303 173.338 C 334.37 160.188 335.44 147.067 336.512 133.975 C 329.84 139.963 323.242 146.141 316.894 152.33 C 316.301 152.91 315.607 153.366 314.854 153.69 Z " fill="rgb(0,0,0)"/><path d=" M 356.373 237.874 C 353.84 238.043 351.276 237.796 348.757 237.134 C 345.831 236.363 343.094 234.962 340.627 232.968 C 338.165 230.974 332.618 225.178 331.218 222.46 C 329.86 219.831 332.573 220.462 332.204 217.597 C 332.182 217.43 332.164 217.262 332.144 217.095 C 330.035 219.858 327.614 222.305 324.913 224.407 C 320.549 227.796 315.604 230.357 310.216 232.008 C 306.279 233.215 302.234 233.983 298.191 234.287 C 296.819 234.391 295.427 234.442 294.052 234.44 C 289.811 234.436 285.567 234.055 281.436 233.299 C 277.284 232.535 273.22 231.404 269.351 229.933 C 267.654 229.289 265.969 228.584 264.318 227.825 C 264.065 228.498 263.712 229.13 263.269 229.7 C 262.083 231.211 260.322 232.168 258.435 232.33 C 236.406 234.186 214.389 236.182 192.384 238.316 C 188.686 238.664 181.022 231.645 180.531 227.861 C 178.659 203.625 176.787 179.389 174.915 155.153 C 170.036 167.164 165.16 179.205 160.286 191.268 C 163.366 205.931 166.446 220.592 169.525 235.25 C 170.319 239.031 168.096 242.776 164.465 243.783 C 155.583 246.242 146.705 248.727 137.829 251.232 C 137.449 251.34 137.07 251.413 136.694 251.451 C 133.457 251.79 126.061 245.42 125.125 242.214 C 122.325 229.095 119.524 215.978 116.724 202.865 C 99.886 187.094 83.062 171.437 66.265 155.982 C 64.369 154.234 63.613 151.525 64.29 148.909 C 64.971 146.293 66.958 144.253 69.479 143.581 C 82.023 140.24 94.58 136.981 107.146 133.809 C 107.444 133.734 107.744 133.679 108.045 133.644 C 110.206 133.402 112.358 134.244 113.798 135.9 C 119.144 142.048 124.492 148.21 129.842 154.383 C 132.144 145.216 134.448 136.053 136.751 126.896 C 137.411 124.25 139.511 122.168 142.099 121.602 C 154.755 118.853 167.421 116.198 180.097 113.642 C 180.355 113.591 180.614 113.552 180.871 113.532 C 183.302 113.329 185.615 114.433 187.054 116.48 C 187.31 116.841 187.528 117.221 187.71 117.614 C 250.146 110.99 248.17 106.755 248.182 106.578 C 250.252 106.461 254.227 112.034 255.677 113.455 C 257.109 114.859 257.909 116.803 257.874 118.791 C 257.835 120.978 257.796 123.164 257.758 125.352 C 259.769 122.925 262.061 120.776 264.607 118.935 C 269.34 115.507 274.789 113.075 280.802 111.712 C 284.766 110.814 288.787 110.275 292.751 110.108 C 294.558 110.033 296.396 110.034 298.212 110.11 C 306.057 110.446 314.072 112.405 322.025 115.897 C 329.448 119.154 336.086 123.613 341.748 129.123 C 341.921 129.294 342.086 129.471 342.243 129.656 C 342.502 126.502 342.761 123.35 343.021 120.2 C 343.301 116.831 345.986 114.326 349.405 114.249 C 349.782 114.241 350.162 114.261 350.553 114.317 C 363.206 114.606 375.862 114.974 388.521 115.419 C 390.58 115.732 395.639 121.738 396.823 123.443 C 398.007 125.153 398.382 127.214 397.853 129.104 C 391.864 150.614 385.892 172.371 379.935 194.346 C 379.187 197.118 376.707 199.077 373.768 199.225 C 373.224 199.252 372.675 199.215 372.139 199.116 C 372.116 199.112 372.093 199.107 372.07 199.104 C 373.33 200.521 374.396 202.07 375.255 203.732 C 376.647 206.429 377.506 209.291 377.808 212.246 C 378.109 215.201 377.827 218.17 376.972 221.073 C 376.117 223.973 374.683 226.679 372.714 229.119 C 370.696 231.625 368.332 233.64 365.688 235.104 C 363.038 236.573 360.214 237.481 357.3 237.792 C 356.995 237.827 356.685 237.852 356.373 237.874 Z  M 253.453 190.741 C 256.223 190.535 258.768 192.031 260.07 194.37 C 262.151 191.704 264.15 189.177 266.105 186.743 C 267.171 185.417 268.635 184.564 270.281 184.299 C 270.272 184.292 270.26 184.286 270.252 184.283 C 266.575 182.426 263.221 180.105 260.281 177.372 C 257.205 174.519 254.664 171.05 252.732 167.06 C 250.98 163.436 249.88 159.178 249.453 154.378 C 248.541 154.431 247.628 154.485 246.716 154.538 C 248.063 155.932 248.802 157.828 248.75 159.77 C 248.54 167.973 248.331 176.181 248.122 184.392 C 248.032 187.887 245.502 190.742 242.111 191.184 C 239.189 191.563 236.267 191.947 233.346 192.334 C 233.344 192.318 253.45 190.727 253.453 190.741 Z  M 319.778 159.153 C 322.307 160.605 324.711 162.248 326.964 164.063 C 330.939 167.267 334.23 171.164 336.735 175.639 C 337.294 176.638 337.789 177.68 338.223 178.765 C 339.292 165.632 340.363 152.529 341.436 139.455 C 334.765 145.44 328.166 151.609 321.818 157.793 C 321.225 158.371 320.532 158.83 319.778 159.153 Z " fill="rgb(0,0,0)"/><path d=" M 318.749 162.756 C 315.309 159.983 311.525 157.683 307.403 155.879 C 303.281 154.071 299.335 152.502 295.579 151.17 C 291.921 149.838 289.264 148.764 287.619 147.916 C 285.976 147.073 285.133 145.839 285.1 144.214 C 285.064 142.489 285.828 141.258 287.407 140.537 C 288.982 139.813 291.069 139.493 293.658 139.575 C 296.442 139.668 299.592 140.568 303.078 142.292 C 306.064 143.768 308.641 145.776 310.802 148.303 C 311.395 148.995 312.445 149.023 313.075 148.407 C 319.635 142.008 326.323 135.746 333.137 129.636 C 333.792 129.048 333.807 128.001 333.147 127.356 C 327.983 122.325 321.966 118.276 315.125 115.285 C 307.746 112.056 300.437 110.285 293.278 109.991 C 287.957 109.774 282.597 110.271 277.226 111.495 C 271.854 112.72 267.066 114.864 262.883 117.897 C 258.695 120.93 255.371 124.847 252.902 129.617 C 250.43 134.388 249.401 140.167 249.763 146.929 C 250.02 151.75 250.978 155.848 252.614 159.234 C 254.255 162.624 256.364 165.509 258.944 167.903 C 261.525 170.303 264.431 172.32 267.67 173.96 C 270.909 175.609 274.268 177.038 277.756 178.255 C 281.336 179.48 284.306 180.573 286.669 181.512 C 289.03 182.454 290.881 183.325 292.23 184.108 C 293.577 184.894 294.515 185.648 295.049 186.371 C 295.58 187.096 295.851 187.964 295.863 188.977 C 295.885 190.906 295.119 192.211 293.567 192.892 C 292.017 193.579 290.296 193.907 288.406 193.889 C 284.246 193.849 280.189 192.777 276.192 190.662 C 272.826 188.881 269.99 186.898 267.69 184.695 C 267.008 184.041 265.942 184.065 265.357 184.794 C 261.608 189.46 257.93 194.175 254.291 198.926 C 253.439 200.039 251.694 199.551 251.498 198.145 C 251.222 196.15 250.946 194.155 250.67 192.16 C 250.554 191.314 249.811 190.704 248.979 190.769 C 237.325 191.673 225.674 192.631 214.028 193.64 C 213.168 193.713 212.408 193.063 212.329 192.178 C 212.116 189.836 211.903 187.493 211.691 185.151 C 211.613 184.285 212.21 183.516 213.045 183.402 C 220.851 182.339 228.659 181.302 236.469 180.292 C 237.234 180.193 237.811 179.539 237.831 178.75 C 238.039 170.524 238.246 162.3 238.455 154.08 C 238.479 153.111 237.664 152.329 236.72 152.414 C 227.991 153.22 219.265 154.063 210.542 154.943 C 209.672 155.031 208.895 154.371 208.814 153.475 C 208.629 151.432 208.443 149.39 208.258 147.347 C 208.176 146.446 208.83 145.655 209.707 145.596 C 221.67 144.778 233.64 144.029 245.615 143.351 C 246.426 143.305 247.06 142.635 247.073 141.805 C 247.238 132.214 247.403 122.629 247.568 113.049 C 247.584 112.084 246.764 111.301 245.82 111.385 C 223.718 113.336 201.638 115.573 179.586 118.09 C 178.393 118.226 177.497 116.991 177.963 115.849 L 177.963 115.849 C 178.451 114.654 177.444 113.379 176.21 113.629 C 163.538 116.203 150.877 118.877 138.226 121.644 C 137.636 121.773 137.166 122.238 137.013 122.844 C 134.11 134.38 131.207 145.926 128.305 157.479 C 127.988 158.744 126.445 159.153 125.615 158.195 C 118.702 150.224 111.791 142.273 104.883 134.348 C 104.507 133.917 103.93 133.735 103.376 133.876 C 90.811 137.066 78.256 140.343 65.713 143.701 C 64.478 144.031 64.057 145.657 64.986 146.511 C 82.032 162.178 99.106 178.06 116.196 194.064 C 116.401 194.257 116.552 194.503 116.633 194.78 C 120.988 209.659 125.344 224.546 129.7 239.438 C 129.942 240.268 130.775 240.737 131.588 240.508 C 140.464 237.993 149.343 235.501 158.225 233.036 C 159.043 232.807 159.549 231.953 159.37 231.1 C 156.207 216.037 153.043 200.972 149.879 185.905 C 149.81 185.58 149.84 185.239 149.966 184.93 C 156.789 168.01 163.616 151.129 170.45 134.309 C 171.071 132.782 173.242 133.077 173.455 134.713 C 177.408 165.156 181.36 195.589 185.311 226.014 C 185.422 226.874 186.167 227.482 187.002 227.401 C 209.005 225.268 231.022 223.286 253.052 221.457 C 253.951 221.382 254.601 220.55 254.474 219.637 C 254.172 217.452 253.869 215.267 253.566 213.082 C 254.363 213.592 255.176 214.084 256.012 214.563 C 259.254 216.416 262.679 218.03 266.285 219.406 C 269.888 220.783 273.604 221.821 277.439 222.534 C 281.271 223.241 285.155 223.599 289.104 223.611 C 294.06 223.625 298.912 222.899 303.694 221.44 C 308.473 219.984 312.794 217.757 316.673 214.745 C 320.546 211.734 323.731 207.927 326.212 203.297 C 328.693 198.671 330.027 193.17 330.17 186.759 C 330.291 181.254 329.293 176.575 327.138 172.711 C 324.982 168.851 322.187 165.526 318.749 162.756 Z  M 361.017 195.119 C 359.075 193.529 356.968 192.428 354.712 191.804 C 352.452 191.182 350.188 191.011 347.929 191.291 C 345.668 191.569 343.531 192.294 341.515 193.474 C 339.499 194.649 337.754 196.238 336.277 198.22 C 334.738 200.286 333.673 202.473 333.073 204.78 C 332.474 207.083 332.319 209.367 332.615 211.626 C 332.906 213.887 333.59 216.044 334.654 218.104 C 335.718 220.165 337.187 221.948 339.06 223.472 C 340.934 224.992 342.967 226.043 345.157 226.626 C 347.351 227.21 349.543 227.388 351.746 227.159 C 353.944 226.93 356.063 226.254 358.105 225.127 C 360.143 224 361.971 222.441 363.579 220.443 C 365.124 218.526 366.234 216.434 366.9 214.168 C 367.563 211.9 367.785 209.612 367.549 207.305 C 367.314 204.993 366.652 202.784 365.565 200.671 C 364.479 198.561 362.961 196.706 361.017 195.119 Z  M 343.464 115.408 C 341.65 137.372 339.842 159.423 338.041 181.555 C 337.975 182.373 338.555 183.121 339.37 183.269 C 348.933 185.016 358.497 186.776 368.059 188.545 C 368.857 188.692 369.618 188.226 369.823 187.465 C 375.776 165.413 381.744 143.572 387.728 121.972 C 387.978 121.068 387.314 120.11 386.337 119.965 C 372.614 117.938 358.891 115.971 345.17 114.073 C 344.299 113.952 343.535 114.552 343.464 115.408 Z " fill="rgb(0,243,255)"/></g></svg>