<?xml version="1.0" encoding="UTF-8" standalone="no"?><!-- Generator: Gravit.io --><svg xmlns="http://www.w3.org/2000/svg" xmlns:xlink="http://www.w3.org/1999/xlink" style="isolation:isolate" viewBox="199.738 121.727 96.445 96.023" width="96.445pt" height="96.023pt"><g><path d=" M 241.611 217.75 C 241.597 217.75 241.583 217.75 241.568 217.75 C 241.235 217.746 240.901 217.692 240.578 217.588 C 239.161 217.132 238.22 215.826 238.236 214.336 L 238.37 203.928 C 237.462 204.088 236.53 204.179 235.585 204.179 C 230.565 204.179 225.202 201.598 221.359 192.926 C 221.262 192.707 221.194 192.55 221.138 192.434 C 220.5 191.55 216.965 188.391 215.055 186.683 C 210.625 182.721 208.285 180.589 207.487 179.033 C 207.411 178.885 207.163 178.536 206.982 178.282 C 205.48 176.159 201.498 170.529 210.05 164.476 C 211.764 163.262 213.659 162.759 215.624 162.759 C 219.543 162.759 223.742 164.76 227.335 167.126 C 225.963 159.371 224.632 148.292 226.201 139.996 C 227.554 132.842 229.985 128.665 233.632 127.227 C 234.482 126.892 235.376 126.728 236.286 126.728 C 238.09 126.728 239.957 127.375 241.665 128.631 C 245.18 131.21 245.977 138.032 246.513 148.142 C 247.867 147.141 249.439 146.495 251.208 146.223 C 251.675 146.152 252.132 146.117 252.58 146.117 C 254.545 146.117 256.316 146.797 257.76 148.121 C 258.27 148.589 258.733 149.136 259.147 149.759 C 261.553 146.209 264.303 145.447 266.22 145.447 C 266.431 145.447 266.633 145.456 266.822 145.472 C 268.673 145.626 270.44 146.465 271.977 147.861 C 273.25 142.964 275.31 137.63 278.636 133.616 C 281.364 130.323 284.436 129.144 287.133 129.144 C 288.761 129.144 290.253 129.573 291.45 130.227 C 295.159 132.261 297.033 136.66 295.811 140.459 L 295.711 140.717 C 289.803 153.889 289.253 165.66 289.237 166.03 C 289.518 167.58 289.99 171.365 291.017 182.302 C 291.435 186.751 290.361 190.523 287.828 193.512 C 284.808 197.078 280.438 198.563 277.532 199.179 L 276.22 212.228 C 276.135 213.119 275.701 213.93 275.002 214.503 C 274.392 215.002 273.647 215.267 272.871 215.267 C 272.756 215.267 272.64 215.261 272.524 215.25 C 271.882 215.18 271.296 214.935 270.813 214.563 L 244.055 216.689 C 243.439 217.348 242.569 217.75 241.611 217.75 Z " fill="rgb(0,0,0)"/><path d=" M 286.017 177.302 C 284.99 166.365 284.518 162.58 284.237 161.03 C 284.253 160.66 284.803 148.889 290.711 135.717 L 290.811 135.459 C 292.033 131.66 290.159 127.261 286.45 125.227 C 283.271 123.491 278.011 123.334 273.636 128.616 C 270.31 132.63 268.25 137.964 266.977 142.861 C 265.44 141.465 263.673 140.626 261.822 140.472 C 259.914 140.312 256.818 140.818 254.147 144.759 C 253.733 144.136 253.27 143.589 252.76 143.121 C 250.986 141.496 248.722 140.84 246.208 141.223 C 244.439 141.495 242.867 142.141 241.513 143.142 C 240.977 133.032 240.18 126.21 236.665 123.631 C 234.095 121.741 231.166 121.229 228.632 122.227 C 224.985 123.665 222.554 127.842 221.201 134.996 C 219.632 143.292 220.963 154.371 222.335 162.126 C 216.939 158.574 210.18 155.843 205.05 159.476 C 196.498 165.529 200.48 171.159 201.982 173.282 C 202.163 173.536 202.411 173.885 202.487 174.033 C 203.285 175.589 205.625 177.721 210.055 181.683 C 211.965 183.391 215.5 186.55 216.138 187.434 C 216.194 187.55 216.262 187.707 216.359 187.926 C 220.925 198.23 227.637 199.934 233.37 198.928 L 233.236 209.336 C 233.22 210.826 234.161 212.132 235.578 212.588 C 235.901 212.692 236.235 212.746 236.568 212.75 C 237.543 212.762 238.43 212.357 239.055 211.689 L 265.813 209.563 C 266.296 209.935 266.882 210.18 267.524 210.25 C 268.423 210.341 269.302 210.076 270.002 209.503 C 270.701 208.93 271.135 208.119 271.22 207.229 L 272.532 194.179 C 275.438 193.563 279.808 192.078 282.828 188.512 C 285.361 185.523 286.435 181.751 286.017 177.302 Z " fill="rgb(254,254,254)"/><path d=" M 283.154 177.571 C 281.962 164.867 281.373 160.938 281.364 160.935 C 281.368 160.794 281.847 148.457 288.073 134.579 C 288.882 132.067 287.59 129.131 285.069 127.749 C 282.744 126.475 279.106 126.518 275.85 130.451 C 271.28 135.967 269.263 144.411 268.375 150.524 C 267.259 146.935 264.643 143.591 261.584 143.336 C 259.537 143.166 256.029 144.338 253.734 153.103 C 253.478 150.358 252.749 147.013 250.817 145.24 C 249.692 144.208 248.288 143.813 246.644 144.065 C 241.738 144.818 239.898 149.417 239.208 152.806 C 239.006 150.722 238.883 148.17 238.755 145.531 C 238.36 137.366 237.912 128.112 234.962 125.947 C 233.927 125.188 231.866 124.043 229.686 124.902 C 227.069 125.933 225.165 129.509 224.026 135.531 C 221.887 146.839 225.467 163.861 226.702 169.147 C 223.134 165.957 212.747 157.55 206.711 161.822 C 200.504 166.216 202.805 169.466 204.327 171.618 C 204.61 172.017 204.877 172.394 205.044 172.72 C 205.637 173.875 208.711 176.624 211.965 179.533 C 214.867 182.128 218.157 185.069 218.665 186.06 C 218.75 186.226 218.856 186.466 218.987 186.761 C 220.412 189.976 224.692 199.628 236.294 195.119 L 236.112 209.369 C 236.109 209.594 236.255 209.786 236.459 209.852 L 236.605 209.875 C 236.882 209.879 237.108 209.658 237.112 209.382 L 237.113 209.335 L 267.374 206.931 C 267.393 207.166 267.566 207.362 267.813 207.389 C 268.088 207.417 268.333 207.216 268.36 206.941 L 269.895 191.692 C 271.75 191.502 277.28 190.615 280.635 186.654 C 282.649 184.277 283.497 181.221 283.154 177.571 Z " fill="rgb(236,174,113)"/><path d=" M 267.694 164.182 C 267.647 165.62 266.905 166.934 265.76 167.612 L 265.643 167.681 C 263.832 168.704 261.666 168.794 259.695 167.932 C 257.589 167.007 256.021 165.14 255.511 162.971 L 254.527 155.784 C 256.027 148.5 258.556 144.463 261.469 144.707 C 264.293 144.94 267.276 149.271 267.547 153.469 L 267.694 164.182 Z  M 249.887 146.253 C 252.286 148.454 252.502 153.992 252.486 156.219 L 251.5 162.925 C 251.073 166.551 249.913 168.413 247.949 168.616 L 247.826 168.628 C 246.112 168.775 244.421 168.215 243.065 167.056 C 241.605 165.805 240.691 163.983 240.557 162.057 L 240.17 156.479 C 240.17 156.379 240.189 146.447 246.853 145.424 C 247.523 145.321 248.123 145.355 248.663 145.528 C 249.111 145.673 249.517 145.914 249.887 146.253 Z  M 281.666 160.945 L 281.738 160.947 C 281.743 160.825 282.196 148.592 288.431 134.693 C 289.293 132.014 287.925 128.888 285.25 127.42 C 282.792 126.076 278.963 126.104 275.561 130.211 C 271.284 135.373 269.221 143.039 268.228 149.034 C 266.941 146.006 264.576 143.211 261.615 142.963 C 259.701 142.803 256.269 143.729 253.874 151.266 C 253.486 148.968 252.689 146.449 251.07 144.963 C 249.857 143.852 248.349 143.425 246.587 143.694 C 242.496 144.322 240.438 147.452 239.406 150.584 C 239.299 149.017 239.216 147.298 239.13 145.513 C 238.73 137.264 238.277 127.915 235.184 125.646 C 234.089 124.84 231.899 123.627 229.548 124.553 C 226.804 125.635 224.822 129.305 223.658 135.461 C 221.635 146.15 224.71 161.979 226.079 168.103 C 221.546 164.21 212.256 157.436 206.495 161.516 C 199.982 166.126 202.51 169.699 204.021 171.834 C 204.295 172.221 204.555 172.587 204.71 172.892 C 205.335 174.109 208.292 176.751 211.715 179.813 C 214.45 182.259 217.855 185.302 218.332 186.23 C 218.412 186.387 218.511 186.611 218.645 186.913 C 220.07 190.13 224.366 199.818 235.913 195.662 L 235.736 209.364 C 235.732 209.751 235.976 210.09 236.344 210.208 L 236.6 210.25 C 237.082 210.256 237.48 209.87 237.487 209.387 L 237.679 194.384 C 237.684 194.087 237.539 193.811 237.29 193.642 C 237.042 193.479 236.733 193.45 236.46 193.566 C 225.572 198.22 221.702 189.492 220.244 186.205 C 220.1 185.878 219.982 185.614 219.888 185.432 C 219.263 184.214 216.306 181.57 212.877 178.504 C 210.144 176.061 206.743 173.02 206.268 172.093 C 206.058 171.682 205.765 171.269 205.45 170.823 C 204.03 168.817 202.42 166.543 207.505 162.944 C 213.795 158.491 226.836 171.14 226.967 171.269 C 227.086 171.384 227.239 171.459 227.502 171.509 C 227.654 171.522 227.795 171.502 227.918 171.45 C 241.571 165.723 252.2 180.962 252.306 181.118 C 252.569 181.501 253.144 181.607 253.521 181.346 C 253.714 181.215 253.845 181.016 253.888 180.786 C 253.932 180.557 253.884 180.324 253.752 180.131 C 253.644 179.97 242.759 164.234 228.193 169.48 C 227.13 165.06 223.192 147.339 225.377 135.786 C 226.407 130.337 228.072 127.016 230.19 126.181 C 231.757 125.564 233.342 126.463 234.148 127.056 C 236.57 128.833 237.039 138.521 237.382 145.597 C 237.61 150.316 237.807 154.39 238.425 156.598 L 238.812 162.178 C 238.977 164.569 240.113 166.831 241.927 168.385 C 243.634 169.845 245.795 170.557 247.98 170.371 L 248.129 170.357 C 250.989 170.061 252.708 167.634 253.235 163.155 L 253.514 161.26 L 253.793 163.289 C 254.438 166.054 256.382 168.389 258.992 169.534 C 261.467 170.625 264.205 170.504 266.507 169.202 L 266.647 169.121 C 268.306 168.139 269.378 166.259 269.444 164.198 L 269.29 154.281 L 269.322 154.139 C 269.884 148.362 271.616 137.717 276.909 131.327 C 279.219 128.538 282.021 127.65 284.407 128.954 C 286.36 130.025 287.382 132.24 286.799 134.067 C 280.413 148.293 279.994 160.883 280 161.055 C 280.005 161.089 280.588 164.943 281.785 177.699 C 282.093 180.966 281.352 183.68 279.586 185.766 C 276.2 189.762 270.064 190.308 269.376 190.358 C 268.95 190.388 268.609 190.718 268.567 191.143 L 266.993 206.803 C 266.943 207.279 267.286 207.71 267.776 207.762 C 268.009 207.786 268.236 207.717 268.418 207.569 C 268.599 207.421 268.71 207.211 268.732 206.979 L 270.236 192.031 C 272.24 191.788 277.624 190.788 280.921 186.896 C 283.003 184.439 283.88 181.29 283.527 177.536 C 282.369 165.197 281.902 161.866 281.666 160.945 Z " fill="rgb(0,0,0)"/><path d=" M 256.008 182.501 C 256.416 182.633 256.855 182.451 257.053 182.069 C 261.585 173.287 271.451 169.425 271.55 169.387 C 272 169.215 272.227 168.709 272.055 168.257 C 271.884 167.808 271.376 167.582 270.928 167.751 L 270.927 167.751 C 270.497 167.915 260.352 171.863 255.497 181.268 C 255.277 181.696 255.445 182.225 255.872 182.445 L 256.008 182.501 Z " fill="rgb(0,0,0)"/></g></svg>