<?xml version="1.0" encoding="UTF-8" standalone="no"?><!-- Generator: Gravit.io --><svg xmlns="http://www.w3.org/2000/svg" xmlns:xlink="http://www.w3.org/1999/xlink" style="isolation:isolate" viewBox="325.736 127.432 98.139 87.219" width="98.139pt" height="87.219pt"><g><path d=" M 408.451 214.651 C 407.916 214.651 407.383 214.522 406.908 214.277 L 392.903 207.183 C 387.925 211.025 382.554 213.044 377.378 213.044 C 376.236 213.044 375.103 212.945 373.986 212.747 C 369.066 211.872 364.782 209.111 362.056 205.098 L 353.273 203.806 C 348.927 203.167 345.648 199.157 345.48 194.271 C 345.464 193.796 345.478 193.311 345.523 192.828 C 345.569 192.329 345.682 191.798 345.856 191.261 C 346.292 189.902 347.057 188.688 348.061 187.703 C 346.019 185.866 344.953 183.945 344.886 181.966 C 344.869 181.475 344.884 180.977 344.93 180.484 C 345.185 177.805 346.368 175.369 348.209 173.692 C 346.698 171.572 345.986 168.798 346.322 165.918 C 346.383 165.407 346.476 164.9 346.598 164.41 C 347.157 162.173 348.346 160.207 349.955 158.789 L 336.275 152.663 C 332.03 150.766 329.844 145.729 331.078 140.687 C 331.2 140.189 331.355 139.695 331.539 139.22 C 332.63 136.402 334.738 134.176 337.322 133.113 C 338.428 132.659 339.576 132.432 340.715 132.432 C 341.903 132.432 343.08 132.679 344.187 133.173 C 351.538 136.423 388.348 152.703 390.092 153.616 C 390.455 153.807 390.846 153.958 391.253 154.068 C 391.506 149.358 393.205 141.432 401.28 137.51 C 405.296 135.56 408.408 134.902 410.781 134.902 C 414.152 134.902 416.032 136.231 416.886 137.078 C 418.732 138.911 419.188 141.645 418.047 144.044 C 417.347 145.516 416.164 146.924 414.796 148.554 C 412.89 150.827 410.521 153.648 410.217 156.132 C 410.174 156.64 410.993 158.225 411.535 159.273 C 414.022 164.088 417.698 171.205 410.852 182.126 C 413.425 183.475 417.618 185.495 421.89 187.424 L 421.893 187.426 C 423.583 188.192 424.339 190.192 423.578 191.885 C 423.169 192.79 422.407 193.427 421.528 193.71 L 411.751 210.569 C 411.914 211.329 411.814 212.106 411.463 212.8 C 410.882 213.944 409.728 214.651 408.451 214.651 Z " fill="rgb(0,0,0)"/><path d=" M 416.893 182.426 L 416.89 182.424 C 412.618 180.495 408.425 178.475 405.853 177.126 C 412.698 166.205 409.022 159.088 406.535 154.273 C 405.993 153.225 405.174 151.64 405.217 151.132 C 405.521 148.648 407.89 145.827 409.796 143.554 C 411.164 141.924 412.347 140.516 413.047 139.044 C 414.188 136.645 413.732 133.911 411.886 132.078 C 410.432 130.635 405.999 127.791 396.28 132.51 C 388.205 136.432 386.506 144.358 386.253 149.068 C 385.846 148.958 385.455 148.807 385.092 148.616 C 383.348 147.703 346.538 131.423 339.187 128.173 C 337.02 127.205 334.582 127.185 332.322 128.113 C 329.738 129.176 327.63 131.402 326.539 134.22 C 326.354 134.695 326.2 135.189 326.078 135.687 C 324.844 140.729 327.03 145.766 331.275 147.663 L 344.955 153.789 C 343.346 155.207 342.157 157.173 341.598 159.41 C 341.476 159.9 341.383 160.407 341.322 160.918 C 340.986 163.798 341.698 166.572 343.209 168.692 C 341.368 170.369 340.185 172.805 339.93 175.484 C 339.884 175.977 339.869 176.475 339.886 176.966 C 339.953 178.945 341.019 180.866 343.061 182.703 C 342.057 183.688 341.292 184.902 340.856 186.261 C 340.682 186.798 340.569 187.329 340.523 187.828 C 340.479 188.311 340.464 188.796 340.48 189.271 C 340.648 194.157 343.927 198.167 348.273 198.806 L 357.056 200.098 C 359.782 204.111 364.066 206.872 368.986 207.747 C 375.164 208.846 381.827 206.873 387.903 202.183 L 401.908 209.277 C 402.383 209.522 402.916 209.651 403.451 209.651 C 404.729 209.651 405.882 208.944 406.463 207.8 C 406.814 207.106 406.914 206.329 406.751 205.569 L 416.528 188.71 C 417.407 188.427 418.169 187.79 418.578 186.885 C 419.339 185.192 418.583 183.192 416.893 182.426 Z " fill="rgb(254,254,254)"/><path d=" M 415.706 185.044 C 410.497 182.691 403.052 179.114 401.738 178.046 C 409.904 167.057 406.484 160.438 403.981 155.594 C 403.023 153.74 402.196 152.139 402.363 150.781 C 402.772 147.453 405.443 144.269 407.59 141.71 C 408.835 140.228 409.909 138.946 410.45 137.809 C 411.069 136.508 410.844 135.094 409.86 134.119 C 409.066 133.331 405.829 131.07 397.536 135.096 C 388.639 139.417 388.954 149.707 389.151 152.068 C 387.278 152.331 385.38 152.014 383.757 151.163 C 382.015 150.25 339.807 131.591 338.013 130.798 C 336.572 130.154 334.94 130.144 333.416 130.771 C 331.557 131.537 330.027 133.172 329.22 135.258 C 329.08 135.62 328.963 135.994 328.871 136.371 C 327.967 140.063 329.473 143.708 332.45 145.039 L 355.588 155.4 L 352.562 154.59 C 351.051 154.129 349.43 154.321 347.996 155.133 C 346.245 156.123 344.931 157.935 344.388 160.103 C 344.294 160.479 344.224 160.865 344.178 161.251 C 343.753 164.901 345.558 168.23 348.497 169.307 C 347.43 169.402 346.396 169.814 345.502 170.516 C 343.983 171.706 342.995 173.614 342.792 175.75 C 342.758 176.12 342.746 176.496 342.759 176.868 C 342.847 179.422 346.339 181.798 348.54 183.045 C 346.23 183.399 344.296 184.953 343.59 187.151 C 343.481 187.486 343.413 187.806 343.386 188.099 C 343.353 188.457 343.341 188.818 343.354 189.172 C 343.474 192.669 345.72 195.524 348.692 195.961 L 358.79 197.447 C 361.02 201.385 364.905 204.101 369.489 204.916 C 375.331 205.954 381.728 203.774 387.535 198.773 L 403.226 206.722 L 403.451 206.776 C 403.633 206.776 403.81 206.676 403.897 206.502 C 404.018 206.265 403.927 205.98 403.699 205.848 L 415.248 185.935 L 415.294 185.956 C 415.546 186.068 415.842 185.958 415.956 185.706 C 416.069 185.454 415.957 185.158 415.706 185.044 Z " fill="rgb(236,174,113)"/><path d=" M 415.86 184.703 C 410.329 182.204 404.006 179.126 402.265 177.964 C 410.281 166.97 406.836 160.302 404.314 155.421 C 403.385 153.623 402.583 152.07 402.735 150.827 C 403.131 147.608 405.763 144.472 407.877 141.952 C 409.137 140.451 410.226 139.155 410.789 137.97 C 411.479 136.521 411.224 134.943 410.125 133.853 C 409.285 133.02 405.89 130.624 397.372 134.759 C 388.626 139.007 388.583 148.971 388.752 151.739 C 387.071 151.907 385.373 151.587 383.931 150.831 C 382.177 149.911 339.961 131.249 338.166 130.456 C 336.63 129.769 334.893 129.759 333.273 130.425 C 331.319 131.229 329.715 132.941 328.87 135.123 C 328.725 135.499 328.603 135.889 328.507 136.281 C 327.56 140.149 329.153 143.976 332.297 145.381 L 351.55 154.003 C 350.276 153.868 348.985 154.142 347.812 154.806 C 345.973 155.846 344.592 157.743 344.023 160.012 C 343.927 160.401 343.854 160.803 343.806 161.208 C 343.412 164.583 344.823 167.683 347.309 169.156 C 346.583 169.374 345.892 169.733 345.271 170.221 C 343.671 171.475 342.632 173.477 342.419 175.715 C 342.383 176.105 342.371 176.497 342.384 176.88 C 342.465 179.235 345.066 181.378 347.534 182.888 C 345.483 183.503 343.877 185.029 343.233 187.036 C 343.116 187.396 343.042 187.742 343.013 188.064 C 342.977 188.445 342.966 188.822 342.979 189.185 C 343.105 192.863 345.485 195.869 348.638 196.333 L 358.556 197.792 C 360.852 201.737 364.803 204.464 369.424 205.285 C 375.306 206.33 381.749 204.177 387.589 199.221 L 403.055 207.056 C 403.176 207.118 403.313 207.151 403.451 207.151 C 403.783 207.151 404.082 206.968 404.232 206.672 C 404.338 206.463 404.355 206.226 404.283 206.003 C 404.21 205.781 404.055 205.601 403.847 205.496 L 387.858 197.396 C 387.537 197.229 387.153 197.279 386.884 197.518 C 381.328 202.395 375.232 204.541 369.73 203.562 C 365.475 202.806 361.883 200.258 359.876 196.57 C 359.745 196.33 359.506 196.163 359.235 196.123 L 348.893 194.601 C 346.614 194.266 344.824 191.912 344.729 189.123 C 344.717 188.829 344.727 188.531 344.755 188.228 C 344.773 188.033 344.821 187.812 344.898 187.572 C 345.557 185.525 347.616 184.212 349.918 184.357 C 350.45 184.395 350.672 184.409 350.931 184.261 C 351.219 184.099 351.389 183.793 351.375 183.461 C 351.359 183.131 351.163 182.841 350.864 182.705 C 348.109 181.444 344.2 178.786 344.134 176.82 C 344.122 176.506 344.132 176.189 344.161 175.879 C 344.328 174.117 345.126 172.557 346.351 171.597 C 347.297 170.855 348.441 170.539 349.558 170.705 L 353.874 171.34 C 354.323 171.399 354.747 171.117 354.85 170.664 C 354.948 170.22 354.686 169.769 354.251 169.637 L 349.204 168.095 C 346.761 167.349 345.188 164.475 345.544 161.411 C 345.583 161.082 345.643 160.754 345.723 160.437 C 346.173 158.632 347.248 157.135 348.673 156.33 C 349.774 155.707 351.02 155.559 352.189 155.914 L 361.272 158.345 C 361.708 158.462 362.171 158.222 362.324 157.794 C 362.477 157.367 362.271 156.887 361.857 156.701 L 333.012 143.783 C 330.678 142.741 329.472 139.694 330.206 136.697 C 330.285 136.376 330.385 136.059 330.503 135.753 C 331.174 134.018 332.427 132.666 333.939 132.043 C 335.113 131.561 336.36 131.564 337.455 132.055 C 337.89 132.247 381.433 151.497 383.118 152.38 C 385.134 153.438 387.527 153.781 389.854 153.345 C 390.318 153.261 390.631 152.828 390.563 152.358 C 390.547 152.243 389.01 140.766 398.138 136.333 C 404.084 133.444 407.647 133.861 408.893 135.095 C 409.465 135.664 409.581 136.437 409.209 137.218 C 408.744 138.196 407.723 139.413 406.535 140.829 C 404.272 143.526 401.457 146.882 400.999 150.613 C 400.779 152.392 401.697 154.168 402.761 156.225 C 405.118 160.788 408.347 167.036 400.42 177.513 C 400.346 177.611 400.295 177.72 400.269 177.833 C 400.089 178.57 399.885 179.406 415.141 186.298 C 415.582 186.495 416.1 186.298 416.298 185.86 C 416.495 185.421 416.3 184.902 415.86 184.703 Z " fill="rgb(0,0,0)"/></g></svg>