<?xml version="1.0" encoding="UTF-8" standalone="no"?><!-- Generator: Gravit.io --><svg xmlns="http://www.w3.org/2000/svg" xmlns:xlink="http://www.w3.org/1999/xlink" style="isolation:isolate" viewBox="318.753 239.215 89.161 100.453" width="89.161pt" height="100.453pt"><g><path d=" M 388.573 339.668 C 387.666 339.668 386.842 339.287 386.262 338.676 L 358.683 338.454 L 358.645 338.494 C 358.049 339.085 357.265 339.41 356.43 339.41 C 356.425 339.41 356.42 339.41 356.415 339.41 C 356.403 339.41 356.392 339.41 356.38 339.41 C 356.038 339.41 355.67 339.342 355.317 339.209 C 354.099 338.748 353.283 337.564 353.287 336.263 L 353.309 326.641 C 352.957 326.669 352.608 326.684 352.264 326.684 C 350.451 326.684 348.741 326.287 347.151 325.495 C 341.394 322.617 339.312 315.629 338.311 312.27 C 338.202 311.903 338.112 311.588 338.042 311.393 C 337.458 310.517 334.358 307.454 332.677 305.793 C 328.743 301.906 326.665 299.816 325.995 298.334 C 325.932 298.194 325.712 297.847 325.565 297.618 C 324.783 296.388 323.604 294.533 323.768 292.113 C 323.95 289.42 325.679 287.07 329.049 284.929 C 330.56 283.967 332.178 283.558 333.84 283.558 C 338.536 283.558 343.568 286.827 347.437 290.11 C 347.579 289.223 347.642 288.693 347.646 288.516 L 347.428 258.531 C 347.126 254.378 348.355 250.433 350.727 247.961 C 352.389 246.226 354.543 245.281 356.816 245.281 C 356.913 245.281 357.01 245.282 357.106 245.286 C 362.73 245.493 367.576 251.398 368.142 258.727 L 369.277 273.896 L 376.339 253.059 L 376.36 253.004 C 377.93 249.045 380.797 245.973 384.032 244.786 C 385.068 244.405 386.103 244.215 387.118 244.215 C 388.441 244.215 389.73 244.538 390.939 245.182 C 395.9 247.841 397.662 255.271 394.956 262.102 L 390.73 272.764 C 392.293 272.77 393.855 273.162 395.239 273.938 C 397.409 275.163 398.969 277.156 399.636 279.555 C 399.85 280.321 399.965 281.101 399.981 281.877 C 401.234 281.954 402.468 282.314 403.597 282.948 C 405.572 284.063 406.992 285.876 407.6 288.056 C 408.205 290.233 407.928 292.518 406.816 294.489 L 403.239 300.83 C 403.304 302.154 403.371 303.609 403.443 305.232 C 403.782 312.977 401.314 320.085 396.842 324.246 C 395.176 325.797 393.259 326.855 391.28 327.344 L 391.677 336.393 C 391.751 338.121 390.407 339.589 388.683 339.666 C 388.646 339.667 388.609 339.668 388.573 339.668 Z " fill="rgb(0,0,0)"/><path d=" M 391.842 319.246 C 396.314 315.085 398.782 307.978 398.443 300.232 C 398.371 298.609 398.304 297.154 398.239 295.83 L 401.816 289.489 C 402.928 287.518 403.205 285.233 402.6 283.056 C 401.992 280.876 400.572 279.063 398.597 277.948 C 397.468 277.313 396.234 276.954 394.981 276.877 C 394.965 276.101 394.85 275.321 394.636 274.555 C 393.969 272.156 392.409 270.163 390.239 268.938 C 388.855 268.162 387.293 267.771 385.73 267.764 L 389.956 257.103 C 392.662 250.271 390.9 242.841 385.939 240.182 C 383.803 239.044 381.418 238.909 379.032 239.786 C 375.797 240.973 372.93 244.045 371.36 248.004 L 371.339 248.058 L 364.277 268.896 L 363.142 253.727 C 362.576 246.398 357.73 240.493 352.106 240.286 C 349.727 240.202 347.46 241.153 345.727 242.961 C 343.355 245.433 342.126 249.378 342.428 253.531 L 342.646 283.516 C 342.643 283.693 342.579 284.223 342.438 285.11 C 337.199 280.666 329.832 276.248 324.049 279.929 C 320.679 282.07 318.95 284.42 318.768 287.113 C 318.604 289.533 319.783 291.388 320.565 292.618 C 320.712 292.847 320.932 293.194 320.995 293.334 C 321.665 294.816 323.743 296.906 327.677 300.793 C 329.358 302.454 332.458 305.517 333.042 306.393 C 333.112 306.588 333.202 306.903 333.312 307.27 C 334.313 310.629 336.394 317.617 342.151 320.495 C 344.043 321.438 346.105 321.82 348.309 321.641 L 348.287 331.263 C 348.283 332.564 349.099 333.748 350.317 334.209 C 350.683 334.347 351.063 334.415 351.415 334.41 C 352.255 334.414 353.046 334.089 353.645 333.494 L 353.683 333.454 L 381.262 333.676 C 381.865 334.312 382.732 334.698 383.683 334.666 C 385.407 334.589 386.751 333.121 386.677 331.393 L 386.28 322.344 C 388.259 321.855 390.176 320.797 391.842 319.246 Z " fill="rgb(254,254,254)"/><path d=" M 394.868 300.205 C 394.781 298.208 394.698 296.466 394.621 294.914 L 398.645 287.782 C 400.091 285.219 399.186 281.967 396.622 280.52 C 394.055 279.076 390.806 279.979 389.359 282.544 L 388.664 283.776 L 388.449 283.742 L 390.606 279.919 C 392.281 276.95 391.233 273.185 388.265 271.51 C 385.292 269.838 381.53 270.884 379.855 273.854 L 378.453 276.338 L 386.6 255.78 C 388.696 250.49 387.544 244.672 384.025 242.788 C 380.502 240.91 375.954 243.665 373.856 248.957 L 361.861 284.352 L 359.574 253.803 C 359.136 248.129 355.547 243.407 351.559 243.258 C 347.568 243.118 344.69 247.589 345.129 253.265 L 345.343 283.2 C 345.435 284.39 344.024 291.18 344.024 291.18 C 344.024 291.18 331.988 278.157 325.296 282.412 C 318.604 286.666 322.494 289.831 323.418 291.875 C 324.342 293.919 334.531 302.853 335.454 304.896 C 336.307 306.782 338.878 322.046 351.02 317.556 L 350.988 331.106 L 383.103 331.365 L 382.573 319.298 C 389.068 320.055 395.371 311.65 394.868 300.205 Z " fill="rgb(236,174,113)"/><path d=" M 385.193 303.128 C 384.976 303.046 384.764 302.947 384.563 302.832 C 382.394 301.609 381.625 298.85 382.85 296.68 L 390.506 283.109 C 391.591 281.186 393.97 280.323 396.038 281.104 C 396.249 281.185 396.457 281.281 396.659 281.395 C 397.711 281.987 398.468 282.954 398.79 284.115 C 399.114 285.278 398.967 286.497 398.373 287.548 L 390.716 301.118 C 389.632 303.043 387.258 303.907 385.193 303.128 Z  M 381.002 274.418 C 382.289 272.136 385.111 271.113 387.566 272.04 C 387.821 272.137 388.068 272.252 388.303 272.384 C 389.546 273.086 390.443 274.232 390.828 275.613 C 391.213 276.994 391.037 278.439 390.335 279.684 L 381.469 295.397 C 380.182 297.681 377.364 298.706 374.917 297.781 C 374.661 297.685 374.409 297.567 374.169 297.431 C 372.923 296.729 372.023 295.582 371.641 294.203 C 371.257 292.824 371.433 291.378 372.136 290.132 L 381.002 274.418 Z  M 335.54 306.605 C 336.447 309.651 338.337 315.989 343.189 318.414 C 345.369 319.502 347.873 319.648 350.641 318.846 L 350.613 331.271 C 350.611 331.607 350.823 331.914 351.139 332.033 C 351.232 332.068 351.331 332.086 351.424 332.085 C 351.642 332.086 351.847 332.002 352 331.849 C 352.155 331.694 352.239 331.49 352.24 331.273 L 352.271 317.724 C 352.273 317.457 352.143 317.206 351.926 317.056 C 351.706 316.897 351.427 316.863 351.175 316.957 C 348.402 317.982 345.962 317.981 343.917 316.958 C 339.694 314.848 337.941 308.967 337.1 306.142 C 336.906 305.489 336.766 305.019 336.634 304.727 C 336.109 303.567 333.485 300.976 330.444 297.972 C 328.018 295.573 324.996 292.589 324.598 291.704 C 324.417 291.308 324.152 290.891 323.894 290.485 C 323.305 289.557 322.636 288.504 322.712 287.381 C 322.803 286.031 323.935 284.685 326.17 283.264 C 332.184 279.44 343.749 291.772 343.864 291.897 L 343.936 291.963 C 344.006 292.021 344.073 292.055 344.201 292.109 L 344.303 292.135 L 344.57 292.143 L 344.739 292.11 L 344.742 292.108 L 344.763 292.102 C 357.674 287.445 366.857 302.069 366.948 302.216 C 367.171 302.587 367.696 302.714 368.067 302.486 C 368.253 302.374 368.383 302.195 368.434 301.983 C 368.485 301.771 368.451 301.553 368.337 301.367 C 368.242 301.216 358.966 286.457 345.532 290.163 C 346.006 287.789 346.665 284.256 346.594 283.359 L 346.379 253.367 C 346.138 250.253 346.96 247.387 348.578 245.698 C 349.538 244.697 350.709 244.192 351.966 244.236 C 355.546 244.372 358.794 248.767 359.2 254.029 L 361.486 284.576 C 361.515 284.961 361.807 285.271 362.196 285.323 C 362.578 285.371 362.945 285.143 363.07 284.777 L 375.051 249.421 C 376.202 246.517 378.199 244.303 380.395 243.497 C 381.692 243.021 382.961 243.081 384.078 243.67 C 387.238 245.363 388.227 250.736 386.28 255.646 L 378.166 276.13 L 370.718 289.332 C 369.801 290.957 369.572 292.842 370.072 294.64 C 370.573 296.438 371.744 297.933 373.369 298.85 C 375.645 300.135 378.488 300.008 380.651 298.584 C 380.531 300.89 381.715 303.095 383.762 304.25 C 384.033 304.403 384.321 304.538 384.618 304.65 C 387.427 305.711 390.658 304.537 392.134 301.918 L 394.382 297.936 C 394.417 298.716 394.454 299.538 394.492 300.405 C 394.778 306.91 392.73 313.02 389.149 316.352 C 387.27 318.101 385.181 318.896 383.104 318.655 C 382.867 318.627 382.632 318.705 382.455 318.868 C 382.281 319.032 382.187 319.262 382.197 319.499 L 382.728 331.567 C 382.748 332.013 383.13 332.358 383.577 332.344 C 384.024 332.323 384.373 331.942 384.354 331.494 L 383.864 320.323 C 386.083 320.306 388.34 319.328 390.258 317.544 C 394.238 313.841 396.43 307.407 396.119 300.335 C 396.036 298.437 395.958 296.77 395.883 295.273 L 399.791 288.348 C 400.598 286.918 400.799 285.26 400.358 283.68 C 399.918 282.098 398.888 280.782 397.458 279.976 C 395.83 279.062 393.877 278.944 392.162 279.629 C 392.725 278.219 392.812 276.668 392.396 275.178 C 391.895 273.377 390.724 271.882 389.102 270.965 C 386.831 269.691 384.019 269.811 381.869 271.195 L 387.794 256.245 C 390.034 250.592 388.712 244.307 384.846 242.234 C 383.305 241.414 381.577 241.328 379.833 241.969 C 377.209 242.932 374.853 245.502 373.522 248.86 L 362.812 280.467 L 360.824 253.906 C 360.355 247.841 356.409 242.771 352.024 242.61 C 350.29 242.548 348.693 243.227 347.404 244.572 C 345.469 246.588 344.479 249.911 344.753 253.436 L 344.968 283.427 C 345.015 284.03 344.52 286.898 343.97 289.675 C 340.593 286.333 331.288 278.079 325.296 281.891 C 322.593 283.609 321.217 285.369 321.087 287.27 C 320.975 288.93 321.833 290.278 322.526 291.369 C 322.763 291.74 322.985 292.09 323.113 292.375 C 323.638 293.534 326.262 296.126 329.303 299.13 C 331.729 301.528 334.751 304.513 335.149 305.397 C 335.237 305.59 335.377 306.06 335.54 306.605 Z " fill="rgb(0,0,0)"/></g></svg>