<?xml version="1.0" encoding="UTF-8" standalone="no"?><!-- Generator: Gravit.io --><svg xmlns="http://www.w3.org/2000/svg" xmlns:xlink="http://www.w3.org/1999/xlink" style="isolation:isolate" viewBox="211.43 245.146 70.869 86.003" width="70.869pt" height="86.003pt"><g><path d=" M 236.011 331.149 C 235.128 331.149 234.29 330.805 233.655 330.179 C 233.013 329.549 232.654 328.703 232.649 327.798 L 232.498 312.064 C 222.954 307.414 219.156 298.851 217.722 294.008 C 217.215 292.296 216.853 290.555 216.646 288.831 C 215.879 282.401 217.178 276.39 220.135 272.431 L 219.593 269.69 C 218.738 265.38 221.418 260.947 225.966 259.152 C 226.415 258.976 226.877 258.826 227.342 258.709 C 228.23 258.486 229.124 258.375 230.003 258.375 C 230.743 258.375 231.472 258.453 232.178 258.608 C 233.364 256.79 235.163 255.337 237.36 254.47 C 237.824 254.286 238.301 254.133 238.78 254.013 C 239.686 253.784 240.603 253.672 241.506 253.672 C 243.197 253.672 244.84 254.066 246.273 254.831 C 247.762 252.697 250.135 251.097 252.962 250.447 C 253.467 250.332 253.975 250.25 254.478 250.201 C 254.855 250.164 255.231 250.146 255.604 250.146 C 258.208 250.146 260.686 251.023 262.533 252.625 C 263.246 253.244 263.845 253.95 264.315 254.72 C 265.613 254.028 267.07 253.581 268.595 253.426 C 268.999 253.385 269.404 253.364 269.804 253.364 C 269.914 253.364 270.023 253.366 270.133 253.369 C 273.151 253.451 275.956 254.691 277.824 256.772 C 279.456 258.589 280.253 260.894 280.066 263.26 L 278.722 280.266 C 280.017 281.713 280.97 283.351 281.564 285.146 C 283.853 292.131 280.283 299.434 277.794 303.36 C 277.704 303.588 277.588 303.806 277.448 304.01 C 277.205 304.367 271.637 312.423 261.081 315.802 L 261.616 324.547 C 261.728 326.399 260.312 328.002 258.459 328.119 C 258.386 328.124 258.312 328.126 258.24 328.126 C 257.554 328.126 256.895 327.92 256.334 327.533 L 238.607 329.945 L 238.439 330.132 C 237.801 330.781 236.957 331.14 236.055 331.148 C 236.04 331.149 236.025 331.149 236.011 331.149 Z " fill="rgb(0,0,0)"/><path d=" M 256.616 319.547 L 256.081 310.802 C 266.637 307.423 272.205 299.367 272.448 299.01 C 272.588 298.806 272.704 298.588 272.794 298.36 C 275.283 294.434 278.854 287.131 276.563 280.146 C 275.97 278.351 275.017 276.713 273.722 275.266 L 275.066 258.26 C 275.253 255.894 274.456 253.589 272.824 251.771 C 270.956 249.691 268.151 248.451 265.133 248.369 C 264.626 248.355 264.11 248.374 263.595 248.426 C 262.07 248.581 260.613 249.029 259.315 249.72 C 258.845 248.95 258.246 248.244 257.533 247.625 C 255.421 245.793 252.485 244.91 249.478 245.201 C 248.975 245.25 248.467 245.332 247.961 245.447 C 245.135 246.097 242.762 247.697 241.273 249.831 C 239.075 248.657 236.382 248.357 233.78 249.013 C 233.301 249.133 232.824 249.287 232.36 249.47 C 230.163 250.337 228.364 251.79 227.178 253.608 C 225.631 253.269 223.977 253.298 222.342 253.709 C 221.877 253.826 221.415 253.976 220.966 254.152 C 216.418 255.947 213.738 260.38 214.593 264.69 L 215.135 267.431 C 212.178 271.39 210.879 277.401 211.646 283.831 C 211.853 285.555 212.215 287.296 212.722 289.008 C 214.156 293.851 217.954 302.414 227.498 307.063 L 227.649 322.798 C 227.654 323.703 228.013 324.549 228.655 325.179 C 229.3 325.815 230.156 326.16 231.055 326.148 C 231.957 326.14 232.801 325.781 233.439 325.132 L 233.607 324.945 L 251.334 322.533 C 251.954 322.961 252.695 323.168 253.459 323.119 C 255.313 323.002 256.729 321.399 256.616 319.547 Z " fill="rgb(254,254,254)"/><path d=" M 252.789 308.188 C 261.594 306.265 267.125 300.476 269.089 298.09 L 269.092 298.091 L 269.123 298.049 C 269.633 297.427 269.905 297.034 269.905 297.034 C 269.905 297.034 269.912 296.985 269.922 296.893 C 272.201 293.4 277.907 283.03 270.412 276.429 C 270.475 276.164 270.525 275.896 270.548 275.62 L 271.946 257.922 C 272.211 254.577 269.228 251.778 265.283 251.67 C 264.91 251.66 264.542 251.674 264.182 251.711 C 260.722 252.063 257.9 254.501 257.662 257.529 L 257.622 258.03 L 257.435 253.867 C 257.283 250.516 253.977 248.107 250.049 248.487 C 249.677 248.523 249.314 248.583 248.961 248.665 C 245.572 249.442 243.073 252.21 243.211 255.245 L 243.449 260.517 L 242.603 256.243 C 241.979 253.096 238.507 251.291 234.847 252.214 C 234.5 252.301 234.166 252.409 233.843 252.537 C 231.281 253.548 229.498 255.763 229.279 258.112 C 227.853 256.862 225.671 256.34 223.409 256.91 C 223.078 256.993 222.758 257.098 222.449 257.22 C 219.488 258.388 217.607 261.235 218.147 263.963 L 219.009 268.313 C 211.579 275.771 214.083 298.145 231.097 304.777 L 231.268 322.701 L 253.491 319.678 L 252.789 308.188 Z " fill="rgb(236,174,113)"/><path d=" M 258.533 257.599 C 258.734 255.052 261.201 252.895 264.271 252.581 C 264.6 252.548 264.933 252.536 265.259 252.545 C 267.119 252.596 268.813 253.322 269.907 254.54 C 270.382 255.067 270.72 255.664 270.911 256.312 C 271.061 256.814 271.115 257.333 271.074 257.853 L 269.735 274.778 C 268.849 274.155 267.844 273.584 266.736 273.076 L 266.735 273.076 C 266.412 272.928 266.077 272.784 265.733 272.646 C 264.818 272.276 263.86 271.947 262.885 271.668 C 261.511 271.274 260.131 270.937 258.783 270.665 C 258.438 270.596 258.102 270.535 257.766 270.476 L 257.52 270.43 L 258.533 257.599 Z  M 228.381 258.52 C 228.375 258.945 228.412 259.359 228.49 259.754 L 231.789 276.415 C 231.969 277.327 232.37 278.174 233.002 278.941 C 232.419 280.814 230.679 282.36 228.511 282.91 C 226.879 283.321 225.227 283.104 223.979 282.314 C 223.02 281.707 222.377 280.789 222.163 279.732 L 219.006 263.793 C 218.559 261.532 220.176 259.057 222.771 258.033 C 223.045 257.925 223.33 257.833 223.622 257.759 C 225.255 257.348 226.908 257.564 228.156 258.354 L 228.381 258.52 Z  M 241.655 256.053 C 241.69 256.171 241.721 256.29 241.745 256.413 L 242.576 260.594 L 243.073 271.586 C 238.071 273.927 236.811 277.837 236.798 277.877 C 236.765 277.987 236.753 278.101 236.763 278.211 C 236.763 278.217 236.808 278.724 237.119 279.484 C 236.497 279.346 235.919 279.113 235.421 278.798 C 235.189 278.652 234.97 278.482 234.75 278.278 C 234.417 277.97 234.13 277.585 233.897 277.135 C 233.694 276.744 233.571 276.407 233.505 276.075 L 230.206 259.414 C 230.123 258.993 230.119 258.528 230.196 257.993 C 230.48 256.012 232.038 254.19 234.164 253.351 C 234.457 253.235 234.758 253.139 235.061 253.062 C 236.777 252.63 238.515 252.858 239.829 253.69 C 240.736 254.265 241.368 255.082 241.655 256.053 Z  M 255.785 270.173 C 252.066 269.699 248.752 269.832 245.927 270.568 C 245.586 270.658 245.257 270.753 244.942 270.855 L 244.794 270.904 L 244.653 267.779 L 244.76 267.784 L 244.667 267.314 L 244.085 255.205 C 243.969 252.652 246.149 250.207 249.156 249.517 C 249.48 249.443 249.809 249.39 250.134 249.358 C 251.985 249.179 253.757 249.691 254.993 250.764 C 255.942 251.588 256.507 252.72 256.56 253.906 L 256.748 257.987 L 255.785 270.173 Z  M 217.29 264.133 L 218.062 268.029 C 214.997 271.404 213.62 277.152 214.373 283.461 C 214.563 285.045 214.896 286.647 215.363 288.226 C 216.75 292.908 220.521 301.328 230.227 305.37 L 230.393 322.709 C 230.395 322.944 230.488 323.162 230.654 323.326 C 230.821 323.49 231.042 323.58 231.275 323.577 C 231.51 323.574 231.73 323.48 231.893 323.314 C 232.057 323.146 232.146 322.927 232.143 322.694 L 231.971 304.772 C 231.973 304.41 231.752 304.093 231.415 303.963 C 221.486 300.093 216.996 290.727 216.112 283.253 C 215.5 278.139 216.393 273.368 218.506 270.278 L 220.446 280.073 C 220.753 281.601 221.686 282.933 223.044 283.793 C 224.696 284.838 226.844 285.135 228.94 284.606 C 231.384 283.987 233.424 282.324 234.38 280.206 L 234.486 280.277 C 235.566 280.96 236.868 281.34 238.262 281.378 C 238.636 281.838 239.044 282.245 239.503 282.621 C 241.35 284.135 243.952 285.137 247.251 285.611 C 242.621 287.467 240.111 290.667 239.966 294.94 C 239.946 295.408 240.337 295.828 240.811 295.845 C 241.292 295.861 241.697 295.482 241.714 294.999 C 241.924 288.799 247.99 286.634 252.997 285.915 C 254.397 285.882 255.901 285.779 257.469 285.61 C 257.921 285.561 258.265 285.165 258.248 284.71 C 258.235 284.248 257.864 283.88 257.406 283.865 C 257.389 283.864 255.48 283.806 252.941 284.167 C 245.92 284.334 242.381 282.699 240.65 281.298 C 240.387 281.086 240.167 280.873 239.963 280.662 C 239.68 280.368 239.439 280.075 239.248 279.79 C 238.775 279.089 238.601 278.505 238.534 278.216 C 238.816 277.494 240.052 274.864 243.666 273.146 C 243.968 273.001 244.283 272.861 244.62 272.732 C 244.855 272.642 245.1 272.557 245.352 272.475 C 245.654 272.376 245.965 272.283 246.293 272.199 C 249.02 271.499 252.283 271.415 255.996 271.949 C 256.317 271.995 256.646 272.047 256.978 272.104 C 257.203 272.142 257.433 272.184 257.664 272.226 C 257.988 272.286 258.315 272.35 258.651 272.42 C 259.884 272.678 261.146 272.99 262.402 273.351 C 263.476 273.657 264.487 274.011 265.412 274.401 C 265.746 274.542 266.067 274.689 266.381 274.84 C 267.611 275.436 268.697 276.125 269.609 276.889 C 269.882 277.117 270.142 277.351 270.384 277.593 C 271.503 278.712 272.306 279.995 272.771 281.404 L 272.86 281.688 C 274.186 286.163 272.175 291.195 270.256 294.63 C 269.891 295.285 269.499 295.933 269.124 296.505 C 268.784 297.024 268.543 297.361 268.462 297.473 C 266.535 299.815 261.134 305.47 252.601 307.334 C 252.178 307.427 251.89 307.81 251.916 308.243 L 252.618 319.727 C 252.631 319.962 252.732 320.177 252.906 320.331 C 253.082 320.488 253.309 320.566 253.546 320.552 C 254.026 320.521 254.395 320.105 254.365 319.625 L 253.708 308.873 C 264.646 306.18 270.388 297.882 270.627 297.528 C 270.692 297.433 270.739 297.325 270.763 297.207 C 272.606 294.356 276.555 287.225 274.434 280.858 C 273.845 279.074 272.813 277.476 271.369 276.105 C 271.391 275.968 271.408 275.83 271.419 275.689 L 272.818 257.99 C 272.951 256.313 272.38 254.673 271.209 253.37 C 269.796 251.798 267.645 250.859 265.308 250.796 C 264.904 250.785 264.497 250.8 264.093 250.84 C 261.743 251.08 259.655 252.172 258.308 253.824 C 258.233 252.144 257.462 250.589 256.141 249.442 C 254.543 248.057 252.292 247.391 249.964 247.617 C 249.567 247.655 249.164 247.721 248.766 247.811 C 245.45 248.573 243.004 250.945 242.455 253.788 C 242.005 253.17 241.434 252.635 240.765 252.211 C 239.046 251.124 236.811 250.816 234.633 251.365 C 234.259 251.459 233.885 251.58 233.522 251.723 C 231.153 252.658 229.379 254.475 228.688 256.641 C 227.099 255.788 225.124 255.576 223.195 256.062 C 222.833 256.153 222.474 256.269 222.128 256.405 C 218.705 257.757 216.669 261.006 217.29 264.133 Z " fill="rgb(0,0,0)"/></g></svg>