<?xml version="1.0" encoding="UTF-8" standalone="no"?><!-- Generator: Gravit.io --><svg xmlns="http://www.w3.org/2000/svg" xmlns:xlink="http://www.w3.org/1999/xlink" style="isolation:isolate" viewBox="75.348 253.652 99.816 72.348" width="99.816pt" height="72.348pt"><g><path d=" M 119.772 326 L 119.662 326 C 115.477 325.976 109.341 324.67 103.244 318.781 L 87.908 323.065 C 87.626 323.153 87.323 323.197 87.014 323.197 C 86.457 323.197 85.879 323.054 85.365 322.769 C 84.569 322.326 83.996 321.601 83.751 320.725 C 83.506 319.853 83.617 318.938 84.064 318.15 L 84.196 317.936 L 81.581 300.235 C 81.018 299.776 80.603 299.133 80.43 298.369 C 80.024 296.553 81.168 294.745 82.977 294.335 L 91.53 292.415 C 91.844 281.374 98.025 273.751 98.304 273.413 C 98.465 273.222 98.637 273.056 98.819 272.911 C 101.318 270.086 107.398 264.206 114.773 264.206 C 114.938 264.206 115.104 264.209 115.27 264.215 C 118.947 264.35 122.334 265.919 125.362 268.887 L 154.847 259.277 C 156.144 258.854 157.468 258.653 158.766 258.653 C 163.099 258.653 167.134 260.897 168.843 264.608 C 169.896 266.896 169.918 269.435 168.904 271.755 C 168.713 272.191 168.488 272.612 168.232 273.016 C 171.18 274.071 173.582 276.226 174.628 279.09 L 174.629 279.093 C 175.492 281.46 175.306 283.991 174.106 286.219 C 172.87 288.515 170.654 290.27 167.948 291.121 C 168.393 291.699 168.76 292.319 169.037 292.973 C 169.945 295.118 169.847 297.432 168.76 299.49 C 168.591 299.814 168.387 300.145 168.157 300.466 C 166.683 302.52 164.275 303.971 161.376 304.556 L 161.106 304.61 C 161.765 305.422 162.269 306.314 162.588 307.259 C 163.334 309.462 163.064 311.762 161.828 313.734 C 160.3 316.171 157.478 317.812 154.086 318.237 L 134.727 319.923 C 132.093 322.672 127.185 325.642 120.864 325.973 C 120.515 325.991 120.149 326 119.772 326 Z " fill="rgb(0,0,0)"/><path d=" M 169.629 274.093 L 169.628 274.09 C 168.582 271.226 166.18 269.071 163.232 268.016 C 163.488 267.612 163.713 267.191 163.904 266.755 C 164.918 264.435 164.896 261.896 163.843 259.608 C 161.622 254.785 155.475 252.44 149.847 254.277 L 120.362 263.887 C 117.334 260.919 113.947 259.35 110.27 259.215 C 102.672 258.941 96.374 265.022 93.819 267.911 C 93.637 268.056 93.465 268.222 93.304 268.413 C 93.024 268.751 86.844 276.374 86.53 287.415 L 77.977 289.335 C 76.168 289.745 75.024 291.553 75.43 293.369 C 75.603 294.133 76.018 294.776 76.581 295.235 L 79.196 312.937 L 79.064 313.15 C 78.617 313.938 78.506 314.853 78.751 315.725 C 78.996 316.601 79.569 317.326 80.365 317.769 C 81.164 318.212 82.115 318.312 82.908 318.065 L 98.244 313.781 C 104.341 319.67 110.477 320.976 114.662 321 L 114.772 321 C 115.149 321 115.515 320.991 115.864 320.973 C 122.185 320.642 127.093 317.672 129.727 314.923 L 149.086 313.237 C 152.478 312.812 155.3 311.171 156.828 308.734 C 158.064 306.762 158.334 304.462 157.588 302.259 C 157.269 301.314 156.765 300.422 156.106 299.61 L 156.376 299.556 C 159.275 298.971 161.683 297.52 163.157 295.466 C 163.387 295.145 163.591 294.813 163.76 294.49 C 164.847 292.432 164.945 290.118 164.037 287.973 C 163.76 287.319 163.393 286.699 162.948 286.121 C 165.654 285.27 167.87 283.515 169.106 281.219 C 170.306 278.991 170.492 276.46 169.629 274.093 Z " fill="rgb(254,254,254)"/><path d=" M 166.787 276.751 C 166.793 276.13 166.687 275.495 166.458 274.866 C 166.151 274.027 165.654 273.277 165.017 272.639 C 164.698 272.319 164.344 272.028 163.962 271.768 C 163.58 271.507 163.169 271.277 162.737 271.082 C 162.304 270.886 161.85 270.724 161.379 270.599 C 161.144 270.535 160.904 270.481 160.662 270.438 C 160.178 270.35 159.681 270.3 159.178 270.291 C 158.423 270.277 157.655 270.356 156.895 270.537 L 147.88 272.681 L 146.589 272.987 L 139.748 274.614 L 135.596 275.601 L 156.306 268.851 C 157.792 268.366 159.003 267.547 159.857 266.54 C 160.71 265.533 161.207 264.34 161.267 263.108 C 161.306 262.287 161.151 261.449 160.777 260.639 C 160.252 259.5 159.362 258.571 158.261 257.895 C 158.087 257.787 157.909 257.688 157.725 257.594 C 157.415 257.436 157.095 257.29 156.76 257.17 C 156.488 257.072 156.207 256.993 155.922 256.923 C 154.334 256.529 152.573 256.557 150.893 257.104 L 133.887 262.647 L 119.352 267.385 C 109.787 255.946 99.168 266.488 96.038 270.125 L 95.906 270.181 C 95.906 270.181 95.605 270.552 95.149 271.214 L 95.118 271.256 L 95.12 271.259 C 93.375 273.808 89.353 280.731 89.954 289.725 L 78.723 292.245 L 82.001 314.433 L 99.265 309.611 C 111.135 322.591 124.499 316.118 128.06 311.298 L 148.666 309.507 C 152.873 308.978 155.435 306.044 154.392 302.957 C 153.346 299.869 149.087 297.796 144.883 298.327 L 141.418 298.764 L 155.708 295.867 C 156.487 295.709 157.203 295.472 157.842 295.17 C 158.055 295.069 158.26 294.961 158.456 294.847 C 158.808 294.642 159.127 294.412 159.419 294.167 C 159.615 294.004 159.801 293.835 159.968 293.656 C 161.218 292.321 161.645 290.597 160.93 288.909 C 160.854 288.729 160.765 288.555 160.667 288.384 L 160.55 288.201 C 160.483 288.097 160.418 287.992 160.344 287.892 L 160.16 287.663 L 159.969 287.436 L 159.715 287.177 L 159.552 287.02 C 159.444 286.921 159.331 286.826 159.215 286.733 L 159.104 286.646 C 158.962 286.536 158.815 286.433 158.664 286.332 L 158.638 286.315 C 156.94 285.203 154.629 284.633 152.289 284.836 L 161.331 282.687 C 161.584 282.626 161.831 282.557 162.07 282.477 C 163.267 282.08 164.281 281.451 165.059 280.673 C 165.214 280.518 165.36 280.355 165.497 280.189 C 165.682 279.961 165.842 279.721 165.99 279.475 C 166.134 279.234 166.26 278.987 166.367 278.733 C 166.63 278.103 166.78 277.436 166.787 276.751 Z " fill="rgb(236,174,113)"/><path d=" M 159.988 288.255 L 159.989 288.255 L 159.988 288.255 Z  M 90.826 289.666 C 90.243 280.943 94.188 274.167 95.898 271.675 C 96.013 271.526 96.264 271.209 96.627 270.785 C 96.929 270.432 97.431 269.866 98.106 269.18 C 100.944 266.299 105.314 262.893 110.119 263.079 C 113.008 263.186 115.729 264.637 118.205 267.392 C 118.437 267.651 118.668 267.919 118.896 268.2 C 119.527 268.979 120.148 269.853 120.743 270.798 C 131.252 287.533 123.954 294.126 122.71 295.078 C 122.197 295.104 120.814 295.057 119.16 293.904 C 117.354 292.645 114.824 289.743 113.042 283.117 C 112.67 280.465 112.039 278.544 112.033 278.526 C 111.891 278.09 111.431 277.837 110.99 277.949 C 110.546 278.061 110.261 278.499 110.34 278.949 C 110.611 280.492 110.931 281.965 111.282 283.284 C 111.993 288.337 111.602 294.765 105.702 296.692 C 105.245 296.843 104.993 297.337 105.143 297.797 C 105.26 298.154 105.592 298.396 105.971 298.399 C 106.063 298.399 106.154 298.386 106.246 298.356 C 110.319 297.024 112.705 293.744 113.208 288.822 C 114.576 291.829 116.254 294.028 118.208 295.373 C 120.894 297.223 123.115 296.8 123.204 296.78 C 123.314 296.758 123.419 296.716 123.519 296.651 C 123.628 296.578 134.323 289.132 122.225 269.868 C 121.784 269.165 121.312 268.48 120.819 267.827 L 151.164 257.937 C 154.716 256.779 158.67 258.155 159.982 261.004 C 160.522 262.177 160.532 263.479 160.01 264.671 C 159.344 266.192 157.895 267.413 156.035 268.019 L 127.684 277.26 C 127.462 277.331 127.281 277.485 127.175 277.692 C 127.068 277.901 127.049 278.14 127.122 278.363 C 127.239 278.721 127.571 278.963 127.951 278.967 C 128.043 278.967 128.135 278.953 128.225 278.924 L 135.823 276.446 L 157.097 271.389 C 160.729 270.525 164.561 272.222 165.635 275.166 C 166.077 276.377 165.981 277.676 165.364 278.822 C 164.577 280.284 163.033 281.383 161.128 281.835 L 152.195 283.963 C 151.75 284.002 151.314 284.064 150.882 284.153 L 145.823 285.474 L 128.896 289.498 C 128.428 289.61 128.137 290.082 128.248 290.55 C 128.358 291.016 128.831 291.306 129.302 291.2 L 152.274 285.734 C 154.16 285.553 156.042 285.903 157.584 286.716 L 157.801 286.837 C 158.013 286.959 158.216 287.087 158.41 287.228 C 158.557 287.333 158.697 287.442 158.831 287.557 C 158.927 287.639 159.02 287.723 159.107 287.809 C 159.292 287.991 159.467 288.182 159.618 288.384 L 159.918 288.159 L 159.918 288.159 L 159.683 288.473 C 159.866 288.729 160.014 288.99 160.124 289.25 C 160.53 290.209 160.488 291.204 160.001 292.126 C 159.911 292.299 159.806 292.467 159.688 292.628 C 159.586 292.771 159.473 292.908 159.352 293.04 C 158.479 293.988 157.124 294.688 155.534 295.01 L 128.514 300.487 C 128.284 300.533 128.087 300.666 127.958 300.861 C 127.829 301.056 127.783 301.29 127.83 301.52 C 127.912 301.922 128.27 302.216 128.684 302.22 L 128.861 302.201 L 141.531 299.632 L 144.994 299.195 C 148.8 298.707 152.642 300.52 153.563 303.238 C 153.896 304.225 153.78 305.212 153.227 306.096 C 152.381 307.444 150.685 308.371 148.589 308.635 L 127.983 310.427 C 127.734 310.448 127.506 310.576 127.356 310.778 C 125.522 313.261 121.074 316.062 115.642 316.347 C 111.712 316.539 105.789 315.447 99.911 309.021 C 99.69 308.776 99.34 308.677 99.029 308.769 L 81.766 313.591 C 81.541 313.652 81.354 313.799 81.239 314.002 C 81.123 314.206 81.094 314.442 81.158 314.669 C 81.222 314.897 81.371 315.086 81.579 315.201 C 81.783 315.314 82.019 315.343 82.236 315.275 L 98.986 310.597 C 104.819 316.766 110.722 318.095 114.662 318.118 L 114.772 318.118 C 115.103 318.118 115.424 318.11 115.733 318.094 C 121.504 317.792 126.28 314.907 128.518 312.137 L 148.774 310.375 C 151.42 310.043 153.583 308.821 154.709 307.025 C 155.539 305.701 155.721 304.157 155.22 302.678 C 154.508 300.571 152.47 298.819 149.831 297.951 L 155.881 296.724 C 158.159 296.264 160.021 295.165 161.124 293.629 C 161.283 293.407 161.425 293.179 161.549 292.941 C 162.279 291.56 162.345 290.006 161.735 288.566 C 160.985 286.798 159.306 285.37 157.116 284.588 L 161.533 283.538 C 163.923 282.97 165.881 281.554 166.905 279.651 C 167.762 278.061 167.895 276.254 167.28 274.566 L 167.28 274.565 C 165.908 270.81 161.158 268.625 156.692 269.687 L 156.218 269.8 L 156.577 269.683 C 158.911 268.924 160.747 267.353 161.613 265.372 C 162.338 263.714 162.323 261.903 161.572 260.272 C 159.901 256.645 154.988 254.85 150.622 256.272 L 119.636 266.371 C 116.795 263.152 113.617 261.457 110.184 261.331 C 103.474 261.101 97.723 266.84 95.5 269.405 C 95.399 269.459 95.308 269.532 95.232 269.622 C 94.958 269.954 88.587 277.803 89.041 289.032 L 78.53 291.392 C 78.06 291.498 77.764 291.967 77.869 292.437 C 77.975 292.906 78.443 293.2 78.914 293.1 L 90.145 290.578 C 90.569 290.483 90.856 290.1 90.826 289.666 Z " fill="rgb(0,0,0)"/><path d=" M 118.77 308.223 L 118.77 308.223 C 118.918 308.522 119.217 308.709 119.552 308.711 C 119.691 308.711 119.823 308.68 119.941 308.621 C 120.151 308.518 120.308 308.339 120.383 308.117 C 120.458 307.896 120.442 307.658 120.339 307.449 C 116.768 300.198 111.305 300.091 111.075 300.09 L 111.069 300.09 C 110.592 300.09 110.2 300.478 110.195 300.957 C 110.191 301.437 110.579 301.833 111.059 301.84 C 111.247 301.843 115.695 301.979 118.77 308.223 Z " fill="rgb(0,0,0)"/></g></svg>