<?xml version="1.0" encoding="UTF-8" standalone="no"?><!-- Generator: Gravit.io --><svg xmlns="http://www.w3.org/2000/svg" xmlns:xlink="http://www.w3.org/1999/xlink" style="isolation:isolate" viewBox="231.936 147.998 112.607 69.544" width="112.607pt" height="69.544pt"><g><path d=" M 302.94 147.998 L 344.543 147.998 L 328.978 161.3 L 302.94 161.3 L 302.94 147.998 Z " fill-rule="evenodd" fill="rgb(43,127,118)"/><path d=" M 273.539 217.542 L 231.936 217.542 L 247.501 204.24 L 273.539 204.24 L 273.539 217.542 Z " fill-rule="evenodd" fill="rgb(43,127,118)"/><path d=" M 302.94 148.243 L 318.506 154.802 L 318.506 161.3 L 302.94 161.3 L 302.94 148.243 Z " fill-rule="evenodd" fill="rgb(41,89,85)"/><path d=" M 273.539 217.297 L 257.974 210.738 L 257.974 204.24 L 273.539 204.24 L 273.539 217.297 Z " fill-rule="evenodd" fill="rgb(41,89,85)"/><path d=" M 257.657 176.246 L 317.939 198.163 L 317.939 211.464 L 257.657 189.548 L 257.657 176.246 Z " fill-rule="evenodd" fill="rgb(41,89,85)"/><path d=" M 258.989 154.8 L 319.271 176.716 L 319.271 190.018 L 258.989 168.102 L 258.989 154.8 Z " fill-rule="evenodd" fill="rgb(41,89,85)"/><path d=" M 257.94 168.117 L 318.506 168.117 L 318.506 154.816 L 257.94 154.816 L 257.94 168.117 Z " fill-rule="evenodd" fill="rgb(39,163,154)"/><path d=" M 257.94 211.764 L 318.506 211.764 L 318.506 198.462 L 257.94 198.462 L 257.94 211.764 Z " fill-rule="evenodd" fill="rgb(39,163,154)"/><path d=" M 242.374 189.893 L 334.071 189.893 L 334.071 176.591 L 242.374 176.591 L 242.374 189.893 Z " fill-rule="evenodd" fill="rgb(39,163,154)"/></g></svg>