<?xml version="1.0" encoding="UTF-8" standalone="no"?><!-- Generator: Gravit.io --><svg xmlns="http://www.w3.org/2000/svg" xmlns:xlink="http://www.w3.org/1999/xlink" style="isolation:isolate" viewBox="484.679 670.341 316.787 273.705" width="316.787pt" height="273.705pt"><g><path d=" M 607.61 944.006 C 597.774 944.565 588.791 939.125 587.158 931.624 C 586.479 928.502 587.193 925.323 589.169 922.674 C 591.912 918.994 596.717 916.64 602.351 916.215 L 602.792 916.187 C 612.628 915.627 621.611 921.066 623.243 928.568 C 623.923 931.691 623.209 934.87 621.233 937.519 C 618.489 941.199 613.685 943.553 608.051 943.978 L 607.61 944.006 Z  M 642.607 921.041 C 641.307 921.115 639.979 921.121 638.663 921.058 C 622.003 920.273 608.878 908.753 609.406 895.381 C 609.487 893.335 609.884 891.325 610.588 889.386 C 598.277 884.177 587.258 875.868 578.596 865.261 C 572.554 869.526 565.315 872.004 557.584 872.443 C 533.426 873.817 510.537 855.175 506.562 830.889 C 504.721 819.644 507.171 808.741 513.464 800.065 C 500.788 786.12 494.784 765.831 495.614 739.738 C 496.227 720.42 503.076 705.112 517.164 691.564 C 530.216 679.011 547.595 671.519 566.1 670.468 C 568.532 670.329 570.999 670.304 573.434 670.393 C 574.058 670.416 574.689 670.447 575.314 670.483 C 594.821 671.639 613.43 679.686 627.812 693.167 C 635.029 689.811 642.823 687.876 650.991 687.412 C 653.028 687.296 655.098 687.275 657.142 687.349 C 657.652 687.368 658.162 687.392 658.673 687.422 C 678.477 688.596 697.379 698.724 709.435 714.567 C 712.905 713.074 716.602 712.208 720.439 711.99 C 721.465 711.932 722.508 711.922 723.538 711.959 C 723.793 711.969 724.05 711.981 724.304 711.996 C 742.388 713.069 757.016 728.184 756.915 745.69 C 756.913 745.906 756.909 746.123 756.904 746.342 C 782.497 750.745 801.578 768.797 801.466 788.68 C 801.376 804.354 789.424 817.916 770.922 823.461 C 771.118 825.1 771.213 826.732 771.203 828.326 C 771.141 838.671 767.042 848.276 759.66 855.375 C 752.809 861.96 744.024 865.736 734.254 866.291 L 734.253 866.291 C 732.915 866.366 731.551 866.38 730.198 866.331 L 729.203 866.282 C 721.253 865.812 713.604 863.204 706.994 858.722 C 698.261 873.306 684.711 884.524 668.618 890.495 C 669.541 893.008 669.957 895.6 669.854 898.216 C 669.374 910.373 657.661 920.185 642.607 921.041 Z " fill="rgb(0,0,0)"/><path d=" M 639.976 887.184 C 639.399 887.163 638.815 887.136 638.233 887.102 C 599.995 884.838 568.296 854.261 566.067 817.489 L 565.915 814.975 C 565.915 814.975 499.907 817.722 502.212 741.801 C 502.751 724.065 509.357 707.585 522.047 695.418 C 535.501 682.52 553.671 675.809 573.21 676.524 C 573.788 676.545 574.372 676.573 574.954 676.606 C 593.683 677.715 611.447 685.623 624.973 698.874 L 626.654 700.521 L 628.754 699.461 C 637.288 695.158 647.028 693.075 656.919 693.436 C 657.383 693.453 657.848 693.475 658.315 693.502 C 677.161 694.619 694.932 704.495 705.852 719.921 L 707.513 722.268 L 710.06 720.936 C 714.083 718.83 718.667 717.807 723.318 717.977 L 723.948 718.007 C 738.829 718.89 750.868 731.199 750.788 745.447 C 750.785 746.32 750.727 747.231 750.618 748.159 L 750.239 751.376 L 753.449 751.803 C 777.038 754.94 795.441 770.976 795.344 788.308 C 795.266 801.858 784.118 813.417 766.939 817.757 L 763.949 818.512 L 764.512 821.545 C 764.904 823.657 765.098 825.772 765.085 827.828 C 765.036 836.465 761.609 844.482 755.434 850.402 C 748.871 856.694 739.995 859.967 730.442 859.618 C 730.442 859.618 729.868 859.594 729.583 859.577 C 721.77 859.115 714.361 856.288 708.155 851.402 L 705.088 848.986 L 703.229 852.421 C 691.096 874.845 666.857 888.167 639.976 887.184 Z " fill="rgb(255,255,255)"/><path d=" M 710.235 822.936 C 710.235 822.936 709.64 842.434 730.233 844.725 C 747.085 846.599 755.326 833.518 755.326 833.518 C 755.326 833.518 745.789 862.961 708.155 851.402 C 708.155 851.402 712.386 833.442 710.235 822.936 Z " fill="rgb(178,178,178)"/><path d=" M 637.989 914.403 C 625.286 913.511 614.798 902.99 615.083 891.43 C 615.212 886.254 616.635 880.178 618.524 878.007 C 622.804 873.091 636.291 871.274 643.448 871.776 C 656.15 872.668 662.82 883.656 662.535 895.217 C 662.406 900.393 660.831 904.943 656.395 908.957 C 651.561 913.331 645.146 914.906 637.989 914.403 Z " fill="rgb(255,255,255)"/><path d=" M 607.59 937.86 C 600.169 938.419 593.988 933.822 593.079 929.346 C 592.763 927.783 593.065 926.297 593.979 924.925 C 595.619 922.465 598.87 920.825 602.677 920.538 C 610.096 919.978 616.279 924.577 617.189 929.054 C 617.504 930.615 617.201 932.102 616.287 933.473 C 614.648 935.933 611.397 937.573 607.59 937.86 Z " fill="rgb(255,255,255)"/><path d=" M 638.507 723.927 C 640.079 716.224 635.852 704.277 628.746 696.205 C 621.834 688.353 612.175 682.441 602.264 679.266 C 601.766 679.106 599.418 681.904 599.922 682.127 C 634.999 697.667 638.528 724.088 638.507 723.927 L 638.507 723.927 Z " fill="rgb(0,0,0)"/><path d=" M 555.526 792.653 C 555.526 792.653 513.885 770.629 514.212 716.494 C 514.212 716.494 499.96 759.167 528.94 795.98 C 528.94 795.98 538.91 789.741 555.526 792.653 Z " fill="rgb(178,178,178)"/><path d=" M 697.321 862.796 C 697 863.311 697.051 867.666 697.484 867.345 C 709.811 858.208 713.002 837.306 710.235 822.936 C 709.227 834.871 709.175 843.78 697.321 862.796 Z " fill="rgb(0,0,0)"/><path d=" M 587.696 825.309 C 591.041 845.58 577.219 862.952 556.824 864.111 C 536.43 865.271 517.185 849.778 513.841 829.507 C 510.497 809.237 524.318 791.865 544.713 790.706 C 565.108 789.546 584.352 805.039 587.696 825.309 Z " fill="rgb(255,255,255)"/><path d=" M 522.713 800.096 C 522.713 800.096 532.8 790.494 549.111 791.573 C 549.111 791.573 528.928 785.9 514.925 800.739 L 522.713 800.096 Z " fill="rgb(0,0,0)"/><path d=" M 701.838 714.882 C 701.838 714.882 710.971 723.792 712.464 735.945 C 712.464 735.945 713.184 726.633 709.049 716.056 L 701.838 714.882 Z " fill="rgb(0,0,0)"/><path d=" M 760.709 810.464 C 760.709 810.464 746.529 804.243 751.618 789.106 C 751.618 789.106 750.575 789.404 758.143 793.282 C 766.755 801.634 784.459 799.328 790.461 789.933 C 790.461 789.933 783.847 810.914 760.709 810.464 Z " fill="rgb(178,178,178)"/><path d=" M 622.761 881.077 C 622.761 881.077 619.057 891.113 622.623 898.94 C 626.519 907.496 639.062 912.851 649.433 908.249 C 649.433 908.249 625.873 904.072 622.761 881.077 Z " fill="rgb(178,178,178)"/><path d=" M 597.538 926.216 C 597.538 926.216 598.126 932.973 603.776 934.286 C 609.425 935.6 610.96 932.624 610.96 932.624 C 610.96 932.624 603.631 931.205 597.538 926.216 Z " fill="rgb(178,178,178)"/><path d=" M 758.654 793.943 C 761.223 793.659 763.593 791.616 764.42 788.983 C 767.624 778.751 770.923 768.599 774.314 758.542 C 768.206 755.204 761.104 752.821 753.449 751.803 L 750.239 751.376 L 750.618 748.159 C 750.728 747.231 750.785 746.32 750.788 745.447 C 750.832 737.602 747.197 730.349 741.441 725.264 C 741.306 725.4 741.173 725.54 741.048 725.687 C 741.058 725.626 741.069 725.562 741.079 725.501 C 741.106 725.329 741.12 725.159 741.134 724.989 C 738.214 722.481 734.766 720.529 730.988 719.324 C 714.39 721.164 697.875 723.617 681.458 726.608 C 680.695 723.945 678.072 722.292 675.084 722.823 C 674.743 722.004 606.456 740.984 606.411 741.801 C 605.199 742.12 604.075 742.9 603.335 743.937 C 602.194 745.532 602.188 746.377 602.718 749.977 C 600.016 750.894 597.317 751.814 594.625 752.748 C 591.857 753.708 589.88 756.253 589.811 758.926 C 589.611 766.815 589.428 774.644 589.272 782.41 C 586.006 775.888 582.692 769.457 579.335 763.124 C 578.261 761.09 582.077 773.489 579.499 774.1 C 571.46 776.008 557.201 764.653 549.23 766.748 C 549.163 766.765 548.987 766.816 548.917 766.837 C 545.976 767.751 543.824 770.401 543.906 772.969 C 544.169 781.352 544.834 788.199 545.139 796.368 C 540.472 790.62 535.055 783.601 530.264 778.256 C 528.928 776.753 522.368 772.072 519.989 772.824 C 519.522 772.973 523.544 780.286 523.113 780.514 C 519.36 782.52 515.624 784.506 511.904 786.471 C 528.44 814.249 560.64 815.023 565.32 814.986 L 565.32 830.689 C 563.258 833.305 556.767 838.683 546.528 841.086 C 538.065 843.071 528.782 841.608 519.213 832.039 C 519.213 832.039 525.651 844.566 534.952 850.408 C 540.519 853.905 547.94 856.444 557.224 855.762 C 572.279 854.657 579.065 843.522 579.065 843.522 C 579.065 843.522 585.597 853.549 600.987 865.27 C 612.24 873.841 622.604 875.669 622.604 875.669 C 640.458 866.83 650.466 873.483 650.466 873.483 C 681.945 871.393 691.652 851.582 691.652 851.582 C 691.652 851.582 675.796 867.329 638.706 860.71 C 622.384 857.797 611.474 849.896 604.37 841.96 C 607.181 841.912 609.995 841.864 612.806 841.816 C 612.992 841.811 613.175 841.799 613.359 841.778 C 615.978 841.465 618.039 839.272 618.266 836.555 C 619.954 815.935 621.854 794.843 623.983 773.361 C 624.85 773.147 625.71 772.935 626.574 772.722 C 629.251 794.259 626.758 810.859 629.373 832.425 C 629.765 835.621 637.537 842.759 640.574 842.433 C 647.103 841.709 653.643 840.963 660.186 840.201 C 663.249 839.8 665.527 836.866 665.366 833.524 C 664.286 810.706 663.212 787.817 662.143 764.862 C 665.859 764.128 669.581 763.413 673.303 762.713 C 673.997 785.871 669.448 804.401 670.23 827.51 C 670.287 829.164 676.176 835.188 677.282 836.242 C 678.392 837.294 679.825 837.781 681.33 837.615 C 681.328 837.626 700.305 835.498 700.319 835.488 C 703.256 835.081 705.646 832.202 705.765 828.932 C 706.109 819.209 706.468 809.477 706.843 799.737 C 711.145 799.034 715.452 798.347 719.767 797.671 C 722.504 797.245 724.844 794.805 725.332 791.878 C 726.716 783.585 728.134 775.296 729.588 767.016 C 729.914 765.157 734.602 756.718 735.725 755.074 C 734.223 765.674 732.767 776.293 731.356 786.919 C 731.134 788.594 731.539 790.183 732.487 791.398 C 733.434 792.606 734.809 793.292 736.368 793.333 C 738.5 793.385 740.631 793.443 742.76 793.502 C 740.915 794.073 739.095 794.916 737.347 796.018 C 735.003 797.486 732.862 799.395 730.992 801.684 C 729.053 804.055 727.572 806.566 726.586 809.15 C 725.561 811.81 725.044 814.45 725.039 816.986 C 725.025 819.534 722.521 819.182 723.466 821.384 C 726.387 828.194 734.823 832.25 737.213 832.591 C 738.901 832.829 740.642 832.823 742.389 832.577 C 742.954 832.497 743.521 832.392 744.095 832.262 C 746.444 831.731 748.789 830.739 751.077 829.326 C 753.368 827.907 755.512 826.072 757.458 823.87 C 759.383 821.685 760.913 819.327 762.005 816.845 C 763.117 814.31 763.754 811.754 763.898 809.241 C 764.041 806.711 763.693 804.288 762.852 802.037 C 761.987 799.723 760.576 797.729 758.655 796.108 C 757.559 795.184 756.358 794.439 755.074 793.879 C 755.999 793.91 756.926 793.942 757.852 793.974 C 758.122 793.982 758.389 793.974 758.654 793.943 Z  M 573.975 817.227 C 573.744 817.106 573.513 816.988 573.287 816.871 C 573.285 816.561 573.283 816.255 573.281 815.945 C 573.533 816.392 573.761 816.816 573.975 817.227 Z " fill="rgb(178,178,178)"/><path d=" M 729.932 821.082 C 728.183 821.335 726.442 821.342 724.749 821.102 C 722.353 820.765 720.178 819.847 718.277 818.375 C 716.314 816.852 714.838 814.898 713.889 812.559 C 712.978 810.315 712.516 807.867 712.522 805.282 C 712.521 802.709 713.031 800.032 714.053 797.331 C 715.037 794.71 716.509 792.16 718.449 789.751 C 720.316 787.428 722.455 785.487 724.8 783.996 C 726.548 782.876 728.367 782.019 730.216 781.436 C 728.082 781.379 725.947 781.324 723.813 781.273 C 722.253 781.236 720.872 780.536 719.922 779.313 C 718.968 778.082 718.561 776.47 718.779 774.77 C 720.169 763.987 721.601 753.213 723.081 742.455 C 721.964 744.13 720.181 745.307 718.18 745.536 C 710.655 746.316 703.143 747.185 695.644 748.138 C 695.625 748.651 695.603 749.167 695.582 749.678 C 700.712 749.014 705.853 748.389 710.994 747.805 C 712.798 747.597 714.504 748.236 715.659 749.551 C 716.815 750.866 717.287 752.698 716.963 754.579 C 715.525 762.982 714.121 771.391 712.757 779.808 C 712.273 782.78 709.935 785.251 707.197 785.691 C 702.88 786.379 698.565 787.082 694.257 787.798 C 693.904 797.68 693.569 807.55 693.248 817.417 C 693.134 820.734 690.749 823.659 687.809 824.073 C 687.795 824.083 668.793 826.252 668.798 826.243 C 667.291 826.414 665.855 825.917 664.74 824.851 C 663.629 823.784 662.981 822.27 662.921 820.597 C 662.122 797.219 661.338 773.771 660.57 750.262 C 656.842 750.972 653.114 751.702 649.397 752.449 C 650.527 775.737 651.659 798.954 652.799 822.1 C 652.968 825.488 650.692 828.47 647.628 828.875 C 641.076 829.649 634.529 830.408 627.992 831.144 C 624.947 831.477 622.255 829.204 621.862 825.965 C 619.229 804.14 616.536 782.297 613.784 760.435 C 612.919 760.651 612.054 760.866 611.19 761.083 C 609.114 782.875 607.267 804.27 605.633 825.184 C 605.414 827.94 603.354 830.166 600.731 830.481 C 600.548 830.501 600.366 830.516 600.178 830.52 C 592.966 830.647 585.745 830.769 578.527 830.889 C 576.296 830.921 574.194 829.664 573.169 827.704 C 569.022 819.74 564.803 811.922 560.513 804.273 C 560.57 811.606 560.647 818.87 560.74 826.057 C 560.769 828.38 559.23 830.362 556.908 830.986 C 550.853 832.626 544.825 834.189 538.817 835.656 C 538.533 835.728 538.242 835.774 537.947 835.802 C 535.837 835.993 533.708 835.131 532.385 833.582 C 517.483 816.09 501.986 800.524 486.002 787.433 C 484.86 786.495 484.426 785.161 484.822 783.74 C 485.219 782.319 486.39 781 488.034 780.133 C 495.342 776.287 502.709 772.338 510.142 768.316 C 510.571 768.084 511.028 767.886 511.501 767.738 C 513.875 766.979 516.283 767.461 517.627 768.984 C 522.439 774.401 527.195 780.031 531.887 785.861 C 531.554 777.575 531.246 769.178 530.956 760.675 C 530.865 758.07 533.015 755.386 535.959 754.459 C 536.029 754.439 536.208 754.385 536.272 754.369 C 544.258 752.242 552.267 750.217 560.302 748.285 C 562.876 747.663 565.343 748.635 566.428 750.702 C 569.812 757.127 573.15 763.65 576.438 770.263 C 576.573 762.387 576.733 754.447 576.913 746.445 C 576.976 743.734 578.947 741.151 581.719 740.178 C 584.413 739.232 587.117 738.296 589.821 737.367 C 589.28 733.717 589.282 732.86 590.422 731.241 C 591.163 730.189 592.286 729.398 593.499 729.074 C 593.541 728.254 661.911 708.968 662.254 709.793 C 665.247 709.255 667.882 710.928 668.65 713.628 C 686.342 710.347 704.153 707.688 722.055 705.759 C 723.973 705.581 725.753 706.224 726.952 707.515 C 728.15 708.809 728.667 710.604 728.376 712.444 C 728.367 712.507 728.356 712.568 728.346 712.633 C 729.515 711.22 731.223 710.262 733.077 710.115 C 744.112 709.395 755.171 708.947 766.242 708.786 C 768.243 708.758 770.036 709.629 771.143 711.156 C 772.255 712.684 772.503 714.624 771.836 716.483 C 764.819 736.192 758.178 756.359 751.898 776.823 C 751.077 779.501 748.706 781.573 746.135 781.865 C 745.869 781.895 745.602 781.905 745.332 781.896 C 744.404 781.863 743.476 781.834 742.549 781.804 C 743.838 782.372 745.039 783.127 746.141 784.061 C 748.068 785.706 749.485 787.725 750.357 790.071 C 751.204 792.353 751.558 794.811 751.42 797.379 C 751.283 799.93 750.645 802.524 749.541 805.097 C 748.454 807.616 746.928 810.012 745.003 812.229 C 743.061 814.467 740.916 816.334 738.625 817.773 C 736.338 819.21 733.992 820.219 731.64 820.76 C 731.068 820.893 730.496 820.999 729.932 821.082 Z " fill="rgb(0,0,0)"/><path d=" M 735.777 827.357 C 734.031 827.603 732.289 827.61 730.602 827.372 C 728.211 827.03 719.775 822.974 716.855 816.164 C 715.91 813.962 718.414 814.314 718.428 811.766 C 718.433 809.23 718.949 806.59 719.974 803.931 C 720.96 801.347 722.441 798.835 724.381 796.465 C 726.251 794.176 728.391 792.267 730.735 790.798 C 732.483 789.696 734.303 788.853 736.148 788.282 C 734.019 788.223 731.889 788.166 729.756 788.114 C 728.197 788.073 726.822 787.386 725.875 786.178 C 724.927 784.964 724.522 783.375 724.745 781.699 C 726.156 771.074 727.612 760.455 729.113 749.854 C 727.99 751.499 723.303 759.937 722.977 761.796 C 721.523 770.076 720.104 778.365 718.72 786.658 C 718.233 789.585 715.892 792.025 713.155 792.451 C 708.841 793.128 704.533 793.814 700.231 794.517 C 699.857 804.257 699.497 813.99 699.154 823.712 C 699.035 826.983 696.644 829.861 693.708 830.268 C 693.693 830.278 674.717 832.406 674.719 832.396 C 673.213 832.562 671.781 832.074 670.67 831.022 C 669.564 829.968 663.676 823.944 663.618 822.29 C 662.836 799.181 667.385 780.652 666.691 757.493 C 662.969 758.193 659.247 758.909 655.532 759.642 C 656.601 782.597 657.674 805.486 658.755 828.304 C 658.915 831.647 656.637 834.581 653.574 834.981 C 647.031 835.744 640.491 836.489 633.962 837.213 C 630.926 837.539 623.153 830.402 622.761 827.206 C 620.146 805.64 622.64 789.039 619.962 767.502 C 619.099 767.716 618.239 767.927 617.371 768.141 C 615.242 789.623 613.342 810.715 611.654 831.336 C 611.427 834.052 609.367 836.246 606.747 836.558 C 606.564 836.579 606.38 836.592 606.194 836.597 C 598.992 836.72 591.789 836.842 584.578 836.964 C 582.354 836.995 574.561 830.192 573.534 828.257 C 569.392 820.389 570.926 818.265 566.669 810.726 C 566.708 817.958 566.763 825.117 566.835 832.204 C 566.858 834.496 565.315 836.451 562.996 837.066 C 556.947 838.687 550.923 840.231 544.923 841.68 C 544.636 841.752 544.347 841.796 544.054 841.825 C 541.948 842.016 539.826 841.167 538.508 839.638 C 537.337 838.275 534.647 836.22 533.402 834.802 C 518.932 818.301 501.409 799.22 486.697 787.333 C 485.558 786.409 485.128 785.091 485.524 783.687 C 485.926 782.28 492.764 787.818 494.404 786.963 C 501.706 783.164 509.072 779.265 516.501 775.295 C 516.933 775.066 512.91 767.754 513.378 767.605 C 515.756 766.852 522.317 771.534 523.652 773.036 C 528.443 778.382 533.86 785.401 538.527 791.149 C 538.223 782.979 537.557 776.132 537.295 767.749 C 537.212 765.182 539.364 762.531 542.305 761.617 C 542.375 761.596 542.551 761.545 542.618 761.528 C 550.589 759.433 554.607 750.096 562.646 748.188 C 565.224 747.577 571.649 755.87 572.723 757.905 C 576.081 764.238 579.394 770.669 582.66 777.19 C 582.817 769.424 582.999 761.595 583.199 753.706 C 583.268 751.034 585.246 748.488 588.013 747.528 C 590.705 746.594 593.404 745.674 596.107 744.757 C 595.577 741.158 595.583 740.313 596.724 738.717 C 597.464 737.68 598.587 736.901 599.8 736.582 C 599.844 735.764 668.131 716.785 668.472 717.604 C 671.461 717.073 674.084 718.726 674.846 721.388 C 692.516 718.17 710.296 715.564 728.173 713.686 C 730.089 713.512 731.863 714.149 733.057 715.423 C 734.25 716.699 734.761 718.469 734.467 720.281 C 734.458 720.342 734.446 720.406 734.437 720.467 C 735.61 719.076 737.315 718.133 739.165 717.992 C 750.178 717.299 757.874 709.938 768.949 709.798 C 770.957 709.776 776.061 717.571 777.163 719.075 C 778.268 720.582 778.512 722.496 777.843 724.326 C 770.797 743.738 764.122 763.6 757.808 783.763 C 756.981 786.397 754.611 788.44 752.043 788.724 C 751.777 788.754 751.511 788.762 751.24 788.754 C 750.315 788.722 749.388 788.69 748.462 788.659 C 749.746 789.219 750.947 789.964 752.044 790.888 C 753.964 792.509 755.376 794.503 756.241 796.817 C 757.082 799.069 757.43 801.491 757.286 804.021 C 757.143 806.534 756.505 809.09 755.394 811.626 C 754.301 814.107 752.772 816.465 750.846 818.65 C 748.901 820.853 746.757 822.687 744.465 824.106 C 742.177 825.519 739.833 826.512 737.483 827.043 C 736.909 827.172 736.343 827.277 735.777 827.357 Z " fill="rgb(0,0,0)"/><path d=" M 692.819 743.816 C 701.246 742.726 709.689 741.745 718.142 740.882 C 718.939 740.801 719.616 740.133 719.735 739.31 C 721.05 730.245 722.398 721.188 723.782 712.148 C 723.937 711.126 723.149 710.294 722.128 710.405 C 703.342 712.465 684.652 715.305 666.094 718.797 C 665.185 718.969 664.399 718.359 664.347 717.444 C 664.315 716.887 664.282 716.335 664.252 715.778 C 664.198 714.828 663.356 714.219 662.414 714.45 C 651.35 716.495 594.317 733.537 594.07 733.42 C 593.931 733.233 594.223 735.477 594.702 738.726 C 594.82 739.534 594.267 740.381 593.44 740.659 C 589.844 741.863 586.257 743.082 582.678 744.313 C 581.958 744.559 581.44 745.238 581.422 745.947 C 581.101 758.139 580.834 770.195 580.612 782.106 C 580.581 783.716 578.352 784.312 577.663 782.913 C 572.671 772.734 567.569 762.769 562.36 753.04 C 562.074 752.506 561.433 752.254 560.761 752.407 C 552.753 754.267 544.77 756.223 536.809 758.267 C 536.001 758.474 535.398 759.186 535.422 759.909 C 535.767 771.524 536.153 782.954 536.576 794.182 C 536.627 795.553 534.623 796.217 533.766 795.13 C 527.276 786.896 520.669 779.039 513.95 771.605 C 513.523 771.129 512.694 771.052 511.999 771.422 C 504.585 775.349 497.238 779.203 489.946 782.947 C 489.045 783.413 488.783 784.346 489.411 784.868 C 505.372 798.184 520.836 813.941 535.698 831.59 C 536.092 832.058 536.775 832.279 537.382 832.121 C 543.408 830.585 549.46 828.953 555.538 827.249 C 556.143 827.08 556.548 826.561 556.538 825.963 C 556.357 815.359 556.214 804.59 556.113 793.653 C 556.1 792.156 558.262 791.537 559.005 792.838 C 565.113 803.554 571.08 814.607 576.9 825.949 C 577.167 826.467 577.716 826.794 578.303 826.779 C 585.548 826.593 592.786 826.41 600.027 826.229 C 600.781 826.212 601.399 825.61 601.458 824.831 C 603.066 803.336 604.901 781.308 606.976 758.837 C 607.045 758.107 607.592 757.47 608.307 757.285 C 610.884 756.623 613.463 755.967 616.048 755.316 C 616.924 755.097 617.736 755.637 617.841 756.519 C 620.625 779.479 623.347 802.42 626.005 825.343 C 626.106 826.189 626.815 826.79 627.608 826.695 C 634.151 825.925 640.699 825.14 647.256 824.339 C 648.063 824.241 648.673 823.45 648.627 822.566 C 647.341 798.562 646.059 774.479 644.784 750.313 C 644.74 749.444 645.368 748.62 646.216 748.445 C 651.881 747.279 657.554 746.153 663.243 745.077 C 664.147 744.906 664.931 745.55 664.958 746.49 C 665.65 771.107 666.366 795.661 667.102 820.144 C 667.127 821.052 667.819 821.715 668.638 821.62 C 674.957 820.895 681.28 820.164 687.608 819.43 C 688.396 819.338 689.04 818.568 689.064 817.685 C 689.37 806.911 689.693 796.121 690.034 785.325 C 690.062 784.467 690.687 783.713 691.477 783.579 C 696.651 782.714 701.832 781.868 707.021 781.045 C 707.745 780.93 708.353 780.286 708.476 779.505 C 709.807 771.076 711.175 762.653 712.576 754.237 C 712.749 753.202 712 752.359 711.014 752.471 C 704.87 753.179 698.734 753.94 692.609 754.75 C 691.7 754.87 690.961 754.164 690.993 753.205 C 691.081 750.663 691.17 748.121 691.262 745.578 C 691.292 744.7 691.974 743.927 692.819 743.816 Z  M 743.191 787.83 C 741.739 786.599 740.087 785.791 738.227 785.42 C 736.368 785.046 734.441 785.073 732.463 785.495 C 730.476 785.921 728.539 786.737 726.648 787.946 C 724.756 789.157 723.05 790.71 721.528 792.599 C 719.944 794.564 718.756 796.601 717.965 798.69 C 717.167 800.782 716.768 802.813 716.758 804.765 C 716.746 806.72 717.08 808.544 717.762 810.227 C 718.441 811.916 719.497 813.303 720.935 814.417 C 722.37 815.526 723.99 816.204 725.8 816.46 C 727.606 816.718 729.458 816.628 731.358 816.194 C 733.256 815.76 735.132 814.965 736.992 813.799 C 738.85 812.641 740.578 811.141 742.175 809.301 C 743.707 807.532 744.902 805.665 745.745 803.686 C 746.587 801.708 747.062 799.747 747.159 797.798 C 747.255 795.849 746.98 794.009 746.334 792.28 C 745.685 790.549 744.638 789.066 743.191 787.83 Z  M 747.756 775.955 C 753.955 755.413 760.512 735.151 767.446 715.321 C 767.805 714.293 767.075 713.293 765.981 713.312 C 754.99 713.521 744.014 714.004 733.057 714.745 C 732.231 714.8 731.517 715.464 731.396 716.288 C 728.479 735.754 725.719 755.303 723.105 774.897 C 722.982 775.815 723.573 776.577 724.419 776.599 C 731.64 776.782 738.845 777.012 746.037 777.281 C 746.789 777.307 747.521 776.747 747.756 775.955 Z " fill="rgb(130,255,0)"/></g></svg>