<?xml version="1.0" encoding="UTF-8" standalone="no"?><!-- Generator: Gravit.io --><svg xmlns="http://www.w3.org/2000/svg" xmlns:xlink="http://www.w3.org/1999/xlink" style="isolation:isolate" viewBox="11.835 597.083 114.714 29.458" width="114.714pt" height="29.458pt"><g><path d=" M 40.014 626.541 C 30.592 625.816 21.192 624.741 11.835 623.314 C 13.86 621.021 15.888 618.49 17.917 615.759 C 15.888 612.869 13.86 610.171 11.835 607.7 C 21.192 607.091 30.592 606.632 40.014 606.323 C 40.014 613.063 40.014 619.802 40.014 626.541 Z " fill-rule="evenodd" fill="rgb(188,153,63)"/><path d=" M 40.014 626.541 C 35.492 623.486 30.974 620.551 26.464 617.872 C 26.464 611.744 26.464 605.616 26.464 599.488 C 30.974 601.44 35.492 603.765 40.014 606.323 C 40.014 613.063 40.014 619.802 40.014 626.541 Z " fill-rule="evenodd" fill="rgb(128,106,58)"/><path d=" M 98.368 626.541 C 107.791 625.816 117.191 624.741 126.548 623.314 C 124.522 621.021 122.495 618.49 120.465 615.759 C 122.495 612.869 124.522 610.171 126.548 607.7 C 117.191 607.091 107.791 606.632 98.368 606.323 C 98.368 613.063 98.368 619.802 98.368 626.541 Z " fill-rule="evenodd" fill="rgb(188,153,63)"/><path d=" M 98.368 626.541 C 102.891 623.486 107.409 620.551 111.919 617.872 C 111.919 611.744 111.919 605.616 111.919 599.488 C 107.409 601.44 102.891 603.765 98.368 606.323 C 98.368 613.063 98.368 619.802 98.368 626.541 Z " fill-rule="evenodd" fill="rgb(128,106,58)"/><path d=" M 111.919 617.872 C 83.531 619.241 54.851 619.241 26.464 617.872 C 26.464 611.744 26.464 605.616 26.464 599.488 C 54.851 596.281 83.531 596.281 111.919 599.488 C 111.919 605.616 111.919 611.744 111.919 617.872 Z " fill-rule="evenodd" fill="rgb(247,199,47)"/></g></svg>