<?xml version="1.0" encoding="UTF-8" standalone="no"?><!-- Generator: Gravit.io --><svg xmlns="http://www.w3.org/2000/svg" xmlns:xlink="http://www.w3.org/1999/xlink" style="isolation:isolate" viewBox="289.476 528.193 53.912 27.671" width="53.912pt" height="27.671pt"><g><path d=" M 336.123 528.193 L 336.123 534.96 L 343.247 531.937 C 343.247 531.937 343.54 530.785 343.149 530.209 C 342.76 529.634 341.588 529.201 340.125 529.058 C 338.661 528.913 336.318 528.626 336.123 528.193 Z " fill-rule="evenodd" fill="rgb(41,89,85)"/><path d=" M 290.842 532.225 L 297.966 544.317 L 289.476 553.531 C 289.476 553.531 298.259 554.971 301.968 555.259 C 305.676 555.547 313.093 555.979 317.874 555.835 C 322.656 555.69 328.512 555.403 332.024 555.115 C 335.538 554.827 339.734 554.251 341.296 553.675 C 342.857 553.1 343.247 552.812 343.345 552.38 C 343.442 551.947 343.345 530.354 343.345 530.354 C 343.345 530.354 343.247 531.505 341.783 532.081 C 340.319 532.656 336.318 533.521 334.367 533.521 C 332.415 533.521 304.992 535.68 290.842 532.225 Z " fill-rule="evenodd" fill="rgb(39,163,154)"/></g></svg>