<?xml version="1.0" encoding="UTF-8" standalone="no"?><!-- Generator: Gravit.io --><svg xmlns="http://www.w3.org/2000/svg" xmlns:xlink="http://www.w3.org/1999/xlink" style="isolation:isolate" viewBox="291.727 558.696 53.92 20.917" width="53.92pt" height="20.917pt"><g><path d=" M 297.438 579.613 C 297.438 579.613 295.292 578.693 293.861 578.182 C 292.43 577.671 292.226 576.649 292.226 576.649 L 292.532 574.4 L 297.541 573.787 L 297.438 579.613 Z " fill-rule="evenodd" fill="rgb(112,44,66)"/><path d=" M 338.333 567.809 L 345.168 559.168 C 345.168 559.168 329.214 559.96 321.618 559.923 C 314.022 559.886 303.676 559.005 300.495 558.806 C 297.895 558.644 294.717 558.447 292.488 559.938 C 291.824 560.381 291.727 560.805 291.727 560.805 L 292.314 576.936 C 292.314 576.936 293.069 575.859 294.752 575.378 C 296.435 574.897 297.228 574.869 298.929 574.911 C 300.631 574.954 306.657 575.469 308.929 575.596 C 321.322 576.287 333.249 575.861 345.647 575.409 L 338.333 567.809 Z " fill-rule="evenodd" fill="rgb(214,50,108)"/></g></svg>