<?xml version="1.0" encoding="UTF-8" standalone="no"?><!-- Generator: Gravit.io --><svg xmlns="http://www.w3.org/2000/svg" xmlns:xlink="http://www.w3.org/1999/xlink" style="isolation:isolate" viewBox="244.754 75.011 98.516 71.941" width="98.516pt" height="71.941pt"><g><path d=" M 335.073 141.229 L 253.188 118.296 L 253.188 103.62 L 335.073 126.552 L 335.073 141.229 Z " fill-rule="evenodd" fill="rgb(188,153,63)"/><path d=" M 335.073 118.735 L 253.188 95.803 L 253.188 81.126 L 335.073 104.059 L 335.073 118.735 Z " fill-rule="evenodd" fill="rgb(188,153,63)"/><path d=" M 244.754 146.952 L 265.623 146.952 L 265.623 132.276 L 244.754 132.276 L 249.729 139.614 L 244.754 146.952 Z " fill-rule="evenodd" fill="rgb(188,153,63)"/><path d=" M 265.623 146.952 L 252.869 141.106 L 265.623 141.106 L 265.623 146.952 Z " fill-rule="evenodd" fill="rgb(100,86,52)"/><path d=" M 343.27 75.011 L 322.401 75.011 L 322.401 89.688 L 343.27 89.688 L 338.294 82.349 L 343.27 75.011 Z " fill-rule="evenodd" fill="rgb(188,153,63)"/><path d=" M 322.401 75.011 L 335.154 80.857 L 322.401 80.857 L 322.401 75.011 Z " fill-rule="evenodd" fill="rgb(100,86,52)"/><path d=" M 335.073 95.357 L 253.188 95.357 L 253.188 80.682 L 335.073 80.682 L 335.073 95.357 Z " fill-rule="evenodd" fill="rgb(247,199,47)"/><path d=" M 335.073 118.288 L 253.188 118.288 L 253.188 103.611 L 335.073 103.611 L 335.073 118.288 Z " fill-rule="evenodd" fill="rgb(247,199,47)"/><path d=" M 335.073 141.218 L 253.188 141.218 L 253.188 126.541 L 335.073 126.541 L 335.073 141.218 Z " fill-rule="evenodd" fill="rgb(247,199,47)"/></g></svg>