<?xml version="1.0" encoding="UTF-8" standalone="no"?><!-- Generator: Gravit.io --><svg xmlns="http://www.w3.org/2000/svg" xmlns:xlink="http://www.w3.org/1999/xlink" style="isolation:isolate" viewBox="145.775 212.379 74.561 78.855" width="74.561pt" height="78.855pt"><g><path d=" M 203.671 216.674 L 204.015 246.051 L 207.107 242.615 L 210.371 212.379 L 203.671 216.674 Z " fill-rule="evenodd" fill="rgb(188,153,63)"/><path d=" M 203.671 216.674 L 204.187 254.641 L 207.622 257.562 L 213.808 221.828 L 203.671 216.674 Z " fill-rule="evenodd" fill="rgb(128,106,58)"/><path d=" M 199.72 230.246 L 199.548 282.128 L 205.732 271.306 L 213.808 221.828 L 199.72 230.246 Z " fill-rule="evenodd" fill="rgb(188,153,63)"/><path d=" M 199.72 230.246 L 219.648 241.241 L 211.918 289.859 L 199.548 282.128 L 199.72 230.246 Z " fill-rule="evenodd" fill="rgb(128,106,58)"/><path d=" M 146.635 281.785 L 154.366 291.234 L 155.74 253.095 L 146.12 254.641 L 146.635 281.785 Z " fill-rule="evenodd" fill="rgb(128,106,58)"/><path d=" M 145.775 254.813 L 146.635 281.957 L 212.09 289.688 L 220.336 241.069 L 145.775 254.813 Z " fill-rule="evenodd" fill="rgb(247,199,47)"/></g></svg>