<?xml version="1.0" encoding="UTF-8" standalone="no"?><!-- Generator: Gravit.io --><svg xmlns="http://www.w3.org/2000/svg" xmlns:xlink="http://www.w3.org/1999/xlink" style="isolation:isolate" viewBox="24.548 318.267 396.681 342.912" width="396.681pt" height="342.912pt"><g><path d=" M 146.474 588.823 C 146.67 586.859 146.036 585.038 144.687 583.694 C 143.314 582.329 141.443 581.665 139.553 581.874 C 138.872 581.949 138.19 582.139 137.528 582.436 L 89.7 603.928 L 101.702 560.899 C 102.21 559.078 101.939 557.219 100.936 555.668 C 99.934 554.114 98.367 553.121 96.52 552.872 L 24.548 543.176 L 93.645 504.726 C 95.246 503.835 96.398 502.373 96.886 500.61 C 97.372 498.848 97.125 497.038 96.192 495.516 L 79.746 463.374 L 127.323 463.785 C 127.69 463.808 128.062 463.798 128.428 463.757 C 131.661 463.4 134.218 460.667 134.375 457.4 L 136.988 403.603 L 182.765 430.236 C 183.943 430.919 185.286 431.2 186.65 431.049 C 188.554 430.838 190.285 429.809 191.4 428.226 L 242.736 355.387 L 268.069 400.161 C 269.3 402.339 271.73 403.566 274.258 403.286 C 275.397 403.16 276.502 402.725 277.454 402.025 L 391.497 318.267 L 351.089 414.118 C 350.256 416.093 350.403 418.248 351.494 420.027 C 352.583 421.809 354.415 422.892 356.519 422.999 L 403.845 425.394 L 375.707 467.27 C 373.755 470.175 374.358 474.04 377.08 476.067 L 421.229 508.946 L 351.611 529.203 C 348.71 530.047 346.712 532.737 346.752 535.745 L 347.287 575.884 L 286.426 561.282 C 285.699 561.109 284.959 561.061 284.225 561.142 C 281.789 561.412 279.69 563.005 278.749 565.299 L 258.385 614.901 L 215.654 584.086 C 214.391 583.174 212.828 582.768 211.255 582.942 C 209.621 583.123 208.107 583.91 206.993 585.157 L 139.181 661.179 L 146.474 588.823 Z " fill="rgb(0,0,0)"/><path d=" M 406.441 505.425 L 373.827 481.107 C 368.051 476.8 366.772 468.6 370.913 462.429 L 373.19 459.036 L 378.563 451.03 L 378.563 451.03 L 392.044 430.943 L 357.03 429.164 C 347.667 428.689 341.81 419.102 345.512 410.308 L 376.029 337.822 L 282.424 406.642 C 275.752 411.547 266.501 409.705 262.531 402.68 L 253.148 386.078 L 253.148 386.078 L 242.64 367.485 L 218.884 401.231 L 197.785 431.203 C 193.579 437.179 185.606 439.037 179.48 435.468 L 163.72 426.288 L 163.72 426.288 L 143.95 414.772 L 141.927 456.553 C 141.546 464.403 134.755 470.561 126.977 470.109 L 123.191 469.889 L 93.438 470.504 L 102.576 490.756 L 102.577 490.756 L 102.577 490.756 L 102.577 490.757 C 106.674 497.446 104.204 506.4 97.182 510.311 L 95.925 511.011 L 83.417 517.978 C 83.417 517.978 83.416 517.978 83.416 517.978 L 47.019 538.252 L 97.897 545.12 C 105.984 546.213 111.111 554.165 108.884 562.163 L 100.912 590.784 L 130.919 577.288 L 135.086 575.414 C 144.699 571.09 155.101 578.526 154.051 588.97 L 153.724 592.212 L 153.094 598.483 L 153.094 598.483 L 148.932 639.869 L 176.886 608.494 L 176.886 608.494 L 202.254 580.021 C 207.034 574.656 214.967 573.676 220.613 577.753 L 235.054 588.179 L 256.056 603.344 L 262.858 586.753 C 262.858 586.752 262.858 586.752 262.858 586.752 L 272.904 562.25 C 275.56 555.772 282.52 552.126 289.178 553.726 L 309.063 558.504 L 340.998 566.179 L 340.752 547.889 L 340.752 547.888 L 340.585 535.486 C 340.499 529.122 344.755 523.388 350.889 521.601 L 406.441 505.425 Z " fill="rgb(255,255,0)"/><path d=" M 92.012 564.981 C 89.442 564.981 81.156 557.458 80.577 555.625 L 80.439 555.176 L 80.425 555.158 C 80.364 555.023 80.306 554.887 80.259 554.741 C 71.239 526.082 61.828 497.064 52.286 468.491 C 51.751 466.899 51.903 465.087 52.704 463.521 C 53.498 461.974 54.884 460.767 56.507 460.21 C 68.574 456.045 80.901 452.253 93.146 448.941 C 97.04 447.889 101.262 447.108 105.694 446.62 L 106.45 446.545 C 107.829 446.416 109.212 446.351 110.564 446.351 C 113.612 446.351 116.606 446.68 119.464 447.328 C 124.135 448.384 128.322 450.591 131.907 453.887 C 132.896 454.796 133.84 455.871 134.714 457.084 C 138.169 461.152 142.647 471.33 143.719 476.457 C 143.738 476.548 143.757 476.64 143.774 476.733 C 145.9 464.393 148.186 452.337 150.587 440.804 C 151.109 438.247 153.233 436.26 155.871 435.862 C 165.696 434.408 175.784 433.206 185.857 432.289 C 185.852 432.29 185.851 432.29 185.852 432.29 C 185.869 432.29 186.12 432.271 186.157 432.271 C 186.216 432.267 186.315 432.265 186.415 432.265 C 188.818 432.265 190.974 433.555 192.042 435.632 C 193.45 438.342 194.849 441.088 196.245 443.838 C 196.334 443.973 196.405 444.086 196.468 444.205 C 201.102 453.121 205.812 462.56 210.499 472.323 C 209.6 460.549 208.697 448.768 207.793 436.976 C 207.667 435.336 208.243 433.7 209.374 432.487 C 210.499 431.282 212.106 430.564 213.784 430.517 C 222.753 430.589 231.766 430.727 240.609 430.926 C 242.902 430.978 245.01 432.229 246.107 434.191 L 257.772 455.078 L 257.315 436.828 C 257.276 435.289 257.837 433.832 258.897 432.725 C 260.017 431.555 261.566 430.894 263.26 430.862 C 271.398 430.719 279.601 430.631 287.64 430.601 C 289.462 430.622 291.137 431.313 292.37 432.544 C 292.844 433.017 293.238 433.562 293.543 434.163 C 294.889 436.301 296.905 440.562 297.856 443.017 C 301.923 440.108 306.515 438.034 311.526 436.845 C 314.719 436.088 318.052 435.704 321.432 435.704 C 321.877 435.704 322.323 435.711 322.769 435.724 C 325.162 435.794 327.606 436.055 330.032 436.5 C 336.542 437.686 342.635 440.024 348.142 443.448 C 352.438 446.118 356.049 449.242 358.902 452.757 C 359.195 451.191 359.49 449.629 359.785 448.069 C 360.278 445.457 362.615 443.633 365.469 443.633 C 365.581 443.633 365.909 443.648 365.909 443.648 L 366.075 443.656 C 366.181 443.659 366.296 443.675 366.417 443.696 L 366.797 443.769 C 375.619 445.614 384.633 447.614 393.604 449.715 C 395.338 450.129 396.876 451.189 397.827 452.623 C 398.069 452.987 398.275 453.384 398.438 453.803 C 399.319 455.372 400.314 457.437 401.114 459.101 C 401.57 460.049 402.088 461.124 402.222 461.326 C 402.981 462.463 403.203 463.814 402.834 465.033 C 398.143 480.555 393.461 496.502 388.919 512.433 C 388.41 514.25 386.625 515.524 384.579 515.524 L 383.867 515.498 L 383.253 515.35 C 383.03 515.29 382.81 515.231 382.59 515.173 C 383.885 516.803 384.799 518.588 385.311 520.486 C 385.831 522.411 385.957 524.382 385.687 526.344 C 385.408 528.282 384.745 530.134 383.714 531.854 C 382.686 533.56 381.305 535.071 379.608 536.352 C 377.858 537.663 375.966 538.618 373.981 539.194 C 372.433 539.641 370.86 539.866 369.306 539.866 L 369.298 539.873 L 368.882 539.862 C 368.543 539.853 368.205 539.833 367.867 539.803 C 365.869 539.629 363.916 539.106 362.065 538.252 C 360.124 537.352 358.413 536.063 356.981 534.421 C 356.14 533.454 355.435 532.4 354.878 531.28 C 353.237 532 351.411 532.639 349.439 533.181 C 347.191 533.799 344.868 534.271 342.335 534.623 C 339.913 534.962 337.354 535.177 334.727 535.261 C 334.12 535.279 333.522 535.288 332.923 535.288 L 332.569 535.287 C 330.562 535.274 328.584 535.155 326.691 534.937 C 320.985 534.29 315.681 532.68 310.926 530.151 C 307.214 528.178 300.147 523.525 295.141 517.682 L 294.775 525.854 C 294.666 528.279 292.676 530.138 290.146 530.178 L 289.966 530.178 C 288.018 530.115 277.873 529.874 270.377 529.874 C 269.312 529.874 268.305 529.879 267.391 529.891 C 265.296 529.891 258.465 523.009 257.236 521.555 C 256.751 521.072 256.359 520.536 256.069 519.959 C 254.908 517.648 253.396 514.728 251.557 511.243 C 251.932 517.279 252.448 525.628 252.448 525.628 C 252.613 528.151 250.604 530.349 247.972 530.521 C 241.21 530.99 234.292 531.512 227.414 532.071 C 219.513 532.833 212.218 533.701 205.126 534.727 L 204.918 534.754 L 204.64 534.77 C 202.425 534.77 194.783 527.673 193.894 526.029 C 193.564 525.618 193.3 525.187 193.106 524.743 L 192.755 523.954 C 187.676 524.757 183.089 525.547 178.78 526.359 C 178.361 529.613 177.948 532.878 177.554 536.141 C 177.314 538.195 175.759 539.882 173.683 540.333 C 165.148 542.15 156.622 544.2 148.337 546.429 L 147.994 546.521 L 147.56 546.573 C 147.378 546.592 147.216 546.6 147.056 546.6 C 145.795 546.6 144.623 546.114 143.755 545.234 C 143.585 545.063 143.431 544.879 143.293 544.686 C 141.904 545.742 140.414 546.72 138.85 547.601 C 135.283 549.606 131.43 551.274 127.396 552.556 C 116.019 556.154 104.581 560.227 93.399 564.659 L 92.912 564.854 L 92.18 564.975 L 92.012 564.981 Z " fill="rgb(0,0,0)"/><path d=" M 321.263 473.342 C 321.399 479.908 321.535 486.475 321.671 493.04 C 321.675 493.302 321.894 493.531 322.175 493.566 C 325.064 493.921 327.953 494.281 330.842 494.649 C 331.151 494.686 331.378 494.943 331.345 495.228 C 331.214 496.346 330.898 499.034 330.72 500.547 C 330.109 500.824 329.289 500.975 328.261 501.014 C 327.231 501.051 326.241 501.001 325.289 500.872 C 319.897 500.14 316.116 497.991 313.92 494.298 C 311.724 490.599 310.807 486.025 311.251 480.586 C 311.475 477.863 312.11 475.456 313.168 473.364 C 314.226 471.273 315.538 469.544 317.1 468.163 C 318.665 466.791 320.413 465.826 322.36 465.269 C 324.298 464.717 326.25 464.599 328.203 464.923 C 331.153 465.405 333.57 466.401 335.429 467.865 C 337.102 469.182 338.512 470.779 339.651 472.635 C 339.838 472.937 340.257 473.018 340.502 472.782 C 345.575 467.94 350.74 463.234 356.01 458.658 C 356.195 458.499 356.226 458.229 356.083 458.015 C 353.495 454.162 349.882 450.763 345.226 447.883 C 340.4 444.89 335.06 442.84 329.281 441.799 C 323.679 440.789 318.284 440.892 313.175 442.103 C 308.045 443.323 303.509 445.559 299.608 448.773 C 295.694 452.006 292.575 456.132 290.243 461.123 C 288.555 464.729 287.452 468.723 286.861 473.064 C 287.4 460.908 287.94 448.757 288.481 436.612 C 288.495 436.305 288.225 436.044 287.901 436.045 C 279.785 436.086 271.666 436.184 263.546 436.338 C 263.25 436.345 263.02 436.571 263.027 436.854 C 263.345 449.77 263.663 462.684 263.98 475.594 C 263.993 476.142 263.222 476.32 262.947 475.83 C 255.678 462.83 248.391 449.79 241.084 436.713 C 240.986 436.541 240.799 436.431 240.598 436.426 C 231.747 436.237 222.894 436.111 214.04 436.048 C 213.719 436.047 213.47 436.302 213.493 436.612 C 215.16 458.418 216.821 480.197 218.474 501.947 C 218.521 502.545 217.673 502.749 217.437 502.199 C 208.199 480.948 198.092 459.585 186.93 438.131 C 186.826 437.932 186.608 437.815 186.381 437.835 C 176.533 438.74 166.62 439.923 156.658 441.408 C 156.424 441.443 156.233 441.619 156.185 441.847 C 151.719 463.235 147.95 484.802 144.768 506.465 C 144.22 504.111 143.424 501.988 142.285 500.18 C 141.017 498.169 139.486 496.494 137.693 495.156 C 135.896 493.82 133.959 492.815 131.882 492.16 C 129.802 491.498 127.734 491.17 125.692 491.163 C 125.665 491.042 125.639 490.917 125.609 490.795 C 128.899 488.398 131.329 485.45 132.899 481.896 C 134.466 478.35 134.784 474.244 133.803 469.553 C 132.752 464.535 130.818 460.699 127.96 458.075 C 125.099 455.449 121.779 453.691 118.035 452.851 C 114.272 452.008 110.296 451.803 106.127 452.266 C 101.938 452.731 98.037 453.461 94.433 454.437 C 82.343 457.715 70.216 461.445 58.073 465.646 C 57.77 465.75 57.598 466.091 57.695 466.384 C 67.39 495.438 76.707 524.2 85.663 552.682 C 85.752 552.966 86.055 553.097 86.341 552.985 C 97.764 548.447 109.183 544.383 120.58 540.77 C 124.298 539.587 127.823 538.066 131.179 536.174 C 134.515 534.293 137.353 532.003 139.695 529.268 C 140.603 528.213 141.384 527.068 142.099 525.876 C 141.746 528.592 141.358 531.308 141.017 534.026 C 140.969 534.398 141.311 534.686 141.679 534.586 C 150.209 532.287 158.72 530.244 167.2 528.434 C 167.434 528.385 167.614 528.192 167.641 527.958 C 168.143 523.776 168.671 519.597 169.213 515.421 C 169.245 515.184 169.433 514.986 169.674 514.938 C 177.412 513.432 185.118 512.122 192.794 511.007 C 193.038 510.972 193.276 511.098 193.375 511.316 C 195.054 515.036 196.71 518.757 198.336 522.469 C 198.432 522.685 198.662 522.809 198.904 522.773 C 206.453 521.682 213.959 520.808 221.433 520.087 C 228.3 519.528 235.167 519.01 242.035 518.534 C 242.334 518.513 242.561 518.282 242.543 517.996 C 242.314 514.313 240.872 491.163 240.088 479.055 C 240.227 479.051 240.514 479.044 240.513 479.045 C 240.518 479.057 254.663 504.612 261.191 517.607 C 261.283 517.792 261.456 517.894 261.67 517.894 C 268.797 517.806 281.629 518.099 284.35 518.184 C 284.644 518.191 284.875 517.978 284.888 517.698 C 285.396 506.166 285.906 494.64 286.415 483.118 C 286.627 487.648 287.396 491.883 288.698 495.807 C 290.455 501.101 292.928 505.66 296.093 509.505 C 299.249 513.338 302.985 516.383 307.308 518.685 C 311.614 520.981 316.312 522.397 321.461 522.981 C 323.9 523.263 326.356 523.356 328.829 523.279 C 331.296 523.199 333.672 523 335.959 522.68 C 338.241 522.361 340.419 521.924 342.498 521.348 C 344.472 520.804 346.256 520.165 347.855 519.421 C 348.011 519.348 348.107 519.222 348.133 519.06 C 350.017 506.421 353.701 482.674 354.289 478.987 C 354.333 478.706 354.135 478.451 353.831 478.395 C 349.94 477.63 325.989 473.488 321.856 472.851 C 321.529 472.796 321.256 473.03 321.263 473.342 Z  M 92.396 480.468 C 92.313 480.173 92.497 479.854 92.796 479.764 C 94.996 479.1 97.194 478.456 99.392 477.824 C 101.65 477.179 103.577 477.079 105.156 477.532 C 106.732 477.988 107.731 479.041 108.147 480.69 C 108.648 482.673 108.383 484.312 107.364 485.617 C 106.338 486.923 104.842 487.86 102.867 488.436 C 100.503 489.129 98.143 489.836 95.778 490.561 C 95.491 490.649 95.199 490.498 95.119 490.216 C 94.219 486.969 93.308 483.719 92.396 480.468 Z  M 116.426 515.787 C 115.373 517.199 113.799 518.228 111.703 518.871 C 109.217 519.641 106.729 520.43 104.241 521.242 C 103.952 521.337 103.655 521.185 103.577 520.9 C 102.598 517.315 101.619 513.733 100.631 510.14 C 100.552 509.852 100.729 509.534 101.025 509.44 C 103.184 508.75 105.341 508.078 107.498 507.422 C 108.338 507.168 109.259 506.979 110.255 506.857 C 111.254 506.733 112.229 506.779 113.182 506.984 C 114.134 507.188 114.987 507.577 115.739 508.149 C 116.488 508.719 117.005 509.585 117.288 510.729 C 117.772 512.694 117.478 514.377 116.426 515.787 Z  M 172.16 491.125 C 173.119 484.528 174.126 477.943 175.191 471.368 C 175.276 470.838 176.026 470.733 176.251 471.215 C 179.06 477.226 181.805 483.23 184.482 489.226 C 184.626 489.55 184.41 489.922 184.047 489.975 C 180.3 490.512 176.546 491.089 172.784 491.716 C 172.421 491.776 172.108 491.481 172.16 491.125 Z  M 373.455 509.233 C 372.413 507.992 371.188 507.024 369.78 506.337 C 368.374 505.646 366.895 505.239 365.34 505.113 C 363.785 504.985 362.244 505.15 360.719 505.623 C 359.187 506.088 357.778 506.854 356.491 507.902 C 355.151 508.992 354.109 510.222 353.37 511.585 C 352.624 512.947 352.186 514.353 352.056 515.802 C 351.917 517.25 352.062 518.678 352.469 520.097 C 352.884 521.513 353.597 522.808 354.622 523.986 C 355.647 525.16 356.834 526.065 358.201 526.697 C 359.566 527.329 360.988 527.711 362.475 527.844 C 363.954 527.975 365.449 527.821 366.96 527.386 C 368.467 526.951 369.9 526.221 371.257 525.197 C 372.559 524.212 373.607 523.069 374.393 521.76 C 375.177 520.452 375.671 519.07 375.876 517.62 C 376.078 516.166 375.987 514.714 375.595 513.269 C 375.204 511.82 374.494 510.471 373.455 509.233 Z  M 365.399 449.37 C 362.387 465.293 359.443 481.275 356.563 497.314 C 356.515 497.581 356.707 497.85 356.997 497.923 C 364.205 499.708 371.398 501.56 378.572 503.48 C 378.856 503.556 379.138 503.418 379.211 503.16 C 383.745 487.185 388.386 471.314 393.134 455.552 C 393.217 455.27 393.009 454.955 392.686 454.88 C 383.814 452.815 374.924 450.856 366.016 449.003 C 365.723 448.941 365.45 449.104 365.399 449.37 Z " fill="rgb(255,0,0)"/><path d=" M 274.24 393.337 L 289.549 331.827 L 300.769 334.954 L 274.24 393.337 Z " fill="rgb(0,0,0)"/><path d=" M 362.313 413.552 L 394.43 383.219 L 400.854 391.784 L 362.313 413.552 Z " fill="rgb(0,0,0)"/><path d=" M 187.543 419.303 L 187.263 382.183 L 177.361 383.73 L 187.543 419.303 Z " fill="rgb(0,0,0)"/><path d=" M 124.25 443.219 L 98.542 407.295 L 91.583 414.552 L 124.25 443.219 Z " fill="rgb(0,0,0)"/><path d=" M 61.583 514.219 L 28.917 512.219 C 28.917 512.219 32.917 504.219 33.917 505.552 C 34.917 506.885 61.583 514.219 61.583 514.219 Z " fill="rgb(0,0,0)"/><path d=" M 79.917 563.552 L 59.25 573.219 L 62.917 580.219 L 79.917 563.552 Z " fill="rgb(0,0,0)"/><path d=" M 138.5 588.969 L 104.25 638.552 L 110.917 644.885 L 138.5 588.969 Z " fill="rgb(0,0,0)"/><path d=" M 402.187 478.747 C 403.215 478.67 419.757 482.782 419.757 482.782 L 416.627 475.902 L 402.187 478.747 Z " fill="rgb(0,0,0)"/><path d=" M 212.25 591.219 L 205.917 658.552 L 215.583 657.885 L 212.25 591.219 Z " fill="rgb(0,0,0)"/><path d=" M 284.75 567.219 L 306.583 613.552 L 315.25 607.719 L 284.75 567.219 Z " fill="rgb(0,0,0)"/><path d=" M 353.75 542.385 L 373.583 564.885 L 380.25 557.552 L 353.75 542.385 Z " fill="rgb(0,0,0)"/></g></svg>