<?xml version="1.0" encoding="UTF-8" standalone="no"?><!-- Generator: Gravit.io --><svg xmlns="http://www.w3.org/2000/svg" xmlns:xlink="http://www.w3.org/1999/xlink" style="isolation:isolate" viewBox="236.598 355.556 112.506 53.927" width="112.506pt" height="53.927pt"><g><path d=" M 349.104 358.341 C 340.82 357.163 332.512 356.234 324.187 355.556 C 323.77 360.669 323.354 365.782 322.937 370.895 C 330.954 371.548 338.958 372.442 346.936 373.578 C 345.395 370.768 343.816 367.966 342.2 365.174 C 344.467 362.877 346.768 360.6 349.104 358.341 Z " fill-rule="evenodd" fill="rgb(164,51,87)"/><path d=" M 324.187 355.556 C 329.108 358.007 333.949 360.545 338.708 363.167 C 333.709 362.574 328.701 362.074 323.688 361.666 C 323.854 359.629 324.021 357.592 324.187 355.556 Z " fill-rule="evenodd" fill="rgb(112,44,66)"/><path d=" M 334.215 402.438 C 306.154 391.026 275.896 382.824 244.066 378.496 C 243.467 373.401 242.867 368.307 242.269 363.212 C 275.3 367.398 306.771 375.602 336.033 387.155 C 335.428 392.25 334.821 397.344 334.215 402.438 Z " fill-rule="evenodd" fill="rgb(112,44,66)"/><path d=" M 238.767 409.483 C 246.023 408.451 253.305 407.638 260.6 407.043 C 260.183 401.93 259.767 396.817 259.35 391.704 C 251.748 392.323 244.161 393.171 236.598 394.248 C 238.762 396.53 240.892 398.831 242.986 401.15 C 241.542 403.92 240.135 406.698 238.767 409.483 Z " fill-rule="evenodd" fill="rgb(164,51,87)"/><path d=" M 260.6 407.043 C 255.976 405.37 251.282 403.784 246.521 402.291 C 251.042 401.755 255.569 401.303 260.102 400.934 C 260.268 402.97 260.434 405.007 260.6 407.043 Z " fill-rule="evenodd" fill="rgb(112,44,66)"/><path d=" M 337.058 378.55 C 306.17 374.875 274.956 374.854 244.064 378.486 C 243.466 373.392 242.866 368.298 242.267 363.202 C 274.36 359.428 306.787 359.45 338.876 363.269 C 338.27 368.362 337.664 373.456 337.058 378.55 Z " fill-rule="evenodd" fill="rgb(214,50,108)"/><path d=" M 334.217 402.426 C 305.205 398.974 275.889 398.954 246.873 402.367 C 246.274 397.271 245.675 392.177 245.076 387.082 C 275.292 383.528 305.822 383.549 336.035 387.144 C 335.429 392.237 334.822 397.332 334.217 402.426 Z " fill-rule="evenodd" fill="rgb(214,50,108)"/></g></svg>