<?xml version="1.0" encoding="UTF-8" standalone="no"?><!-- Generator: Gravit.io --><svg xmlns="http://www.w3.org/2000/svg" xmlns:xlink="http://www.w3.org/1999/xlink" style="isolation:isolate" viewBox="198.866 97.941 122.336 100.761" width="122.336pt" height="100.761pt"><g><path d=" M 288.492 198.702 C 281.263 196.266 270.953 190.958 266.487 179.861 C 266.447 179.758 266.274 179.266 266.274 179.266 L 265.742 177.825 L 229.352 177.988 C 217.934 178.211 211.265 171.412 207.733 155.942 L 199.178 119.935 C 197.144 107.496 205.392 100.835 213.802 98.748 C 215.775 98.259 217.831 97.987 219.914 97.941 L 299.216 102.204 L 299.292 102.202 C 307.085 102.051 313.974 104.641 317.719 109.134 C 320.718 112.734 321.789 117.493 320.897 123.279 L 313.092 153.751 C 309.424 167.16 304.104 174.317 296.359 176.239 C 295.071 176.559 293.689 176.736 292.252 176.762 L 283.026 177.488 L 282.906 179.515 C 282.727 182.528 282.798 191.224 288.492 198.702 Z " fill-rule="evenodd" fill="rgb(254,254,254)"/><path d=" M 279.518 188.5 C 277.495 183.952 276.912 178.435 277.996 174.941 L 291.228 173.881 L 291.368 173.879 C 292.379 173.86 293.397 173.741 294.379 173.493 C 302.161 171.531 305.628 161.262 307.487 154.362 L 315.099 124.161 C 315.61 120.571 315.322 116.841 312.957 113.957 C 309.661 109.937 303.36 108.617 298.52 108.712 L 298.25 108.721 L 220.21 104.457 C 218.582 104.505 216.956 104.724 215.375 105.123 C 207.622 107.078 203.149 112.578 204.41 120.835 L 212.797 156.71 C 214.095 162.491 216.532 170.389 222.018 173.487 C 224.284 174.767 226.908 175.156 229.471 175.105 L 229.541 175.104 L 268.581 174.927 C 270.562 182.161 273.727 185.219 279.518 188.5 Z " fill-rule="evenodd" fill="rgb(70,86,124)"/><path d=" M 279.621 188.5 C 279.003 185.504 278.776 182.43 278.95 179.425 L 279.298 173.438 L 292.221 172.4 L 292.358 172.398 C 293.345 172.38 294.339 172.263 295.298 172.02 C 302.898 170.097 306.284 160.037 308.1 153.276 L 315.534 123.688 C 316.033 120.171 315.752 116.517 313.442 113.691 C 310.223 109.752 304.069 108.459 299.343 108.552 L 299.079 108.56 L 222.862 104.383 C 221.271 104.431 219.683 104.645 218.139 105.036 C 210.567 106.951 206.199 112.339 207.43 120.429 L 215.621 155.577 C 216.889 161.241 219.269 168.979 224.626 172.014 C 226.84 173.267 229.403 173.649 231.906 173.599 L 231.974 173.598 L 270.102 173.425 L 271.709 177.857 C 271.772 178.03 271.828 178.206 271.868 178.318 C 273.521 182.508 276.268 185.863 279.621 188.5 Z " fill-rule="evenodd" fill="rgb(118,140,195)"/></g></svg>