<?xml version="1.0" encoding="UTF-8" standalone="no"?><!-- Generator: Gravit.io --><svg xmlns="http://www.w3.org/2000/svg" xmlns:xlink="http://www.w3.org/1999/xlink" style="isolation:isolate" viewBox="203.484 208.439 110.716 88.836" width="110.716pt" height="88.836pt"><g><path d=" M 237.293 283.994 C 235.889 287.586 232.789 293.756 227.148 297.161 C 233.381 297.617 241.931 296.883 250.16 291.73 C 252.347 290.36 253.84 288.892 254.477 287.483 L 254.707 286.975 C 256.072 287.047 257.451 287.085 258.842 287.085 C 289.415 287.085 314.2 269.479 314.2 247.762 C 314.2 226.045 289.415 208.439 258.842 208.439 C 228.269 208.439 203.484 226.045 203.484 247.762 C 203.484 264.05 217.425 278.024 237.293 283.994 Z " fill-rule="evenodd" fill="rgb(254,254,254)"/><path d=" M 238.813 292.306 C 241.818 292.451 249.794 291.102 252.656 284.847 L 254.245 284.93 C 255.55 284.997 256.855 285.032 258.162 285.032 C 269.755 285.032 281.848 282.342 291.835 276.371 C 299.529 271.772 306.461 264.818 308.643 255.942 C 309.101 254.075 309.335 252.167 309.335 250.246 C 309.335 248.325 309.101 246.416 308.643 244.549 C 306.461 235.673 299.529 228.72 291.835 224.12 C 281.848 218.149 269.755 215.459 258.162 215.459 C 246.567 215.459 234.475 218.149 224.488 224.12 C 216.794 228.72 209.862 235.673 207.68 244.549 C 207.222 246.416 206.988 248.325 206.988 250.246 C 206.988 252.167 207.222 254.076 207.68 255.942 C 211.027 269.562 225.09 278.362 237.818 282.148 L 243.524 283.61 C 242.006 287.452 240.933 290.243 238.813 292.306 Z " fill-rule="evenodd" fill="rgb(145,115,66)"/><path d=" M 238.813 292.306 C 245.459 290.881 250.119 289.039 252.938 282.863 L 255.747 283.008 C 257.033 283.075 258.319 283.109 259.605 283.109 C 271.027 283.109 282.939 280.453 292.777 274.556 C 300.356 270.013 307.185 263.146 309.333 254.38 C 309.785 252.537 310.015 250.652 310.015 248.755 C 310.015 246.858 309.785 244.972 309.333 243.129 C 307.185 234.363 300.355 227.496 292.777 222.953 C 282.938 217.056 271.027 214.4 259.605 214.4 C 248.184 214.4 236.273 217.056 226.434 222.953 C 218.856 227.496 212.027 234.363 209.878 243.129 C 209.426 244.972 209.196 246.858 209.196 248.755 C 209.196 250.652 209.426 252.537 209.878 254.38 C 213.175 267.831 227.027 276.522 239.565 280.26 L 243.846 281.537 C 242.351 285.332 241.08 288.839 238.813 292.306 Z " fill-rule="evenodd" fill="rgb(243,187,102)"/></g></svg>