<?xml version="1.0" encoding="UTF-8" standalone="no"?><!-- Generator: Gravit.io --><svg xmlns="http://www.w3.org/2000/svg" xmlns:xlink="http://www.w3.org/1999/xlink" style="isolation:isolate" viewBox="332.759 212.605 129.395 110.115" width="129.395pt" height="110.115pt"><g><path d=" M 355.009 297.729 C 338.501 285.792 325.795 254.469 337.01 235.808 C 354.18 207.241 408.566 206.987 439.491 224.532 C 448.857 229.845 457.327 238.067 460.837 248.798 C 472.115 283.27 408.232 304.876 374.145 303.402 C 374.308 311.046 380.306 322.032 380.942 322.72 C 376.497 321.068 358.974 311.265 355.009 297.729 Z " fill-rule="evenodd" fill="rgb(254,254,254)"/><path d=" M 400.254 218.501 C 380.398 216.713 352.222 220.352 340.899 239.192 C 334.999 249.009 337.148 262.523 341.175 272.616 C 344.514 280.987 350.343 290.072 357.732 295.415 L 358.925 296.278 L 359.339 297.69 C 360.344 301.123 362.44 304.261 364.784 306.926 C 366.82 309.241 369.177 311.362 371.665 313.264 C 370.799 310.52 370.112 307.547 370.051 304.664 L 369.953 300.079 L 374.535 300.277 C 387.38 300.832 402.06 298.095 414.289 294.294 C 428.878 289.759 453.65 278.979 457.554 262.299 C 463.97 234.883 420.88 220.358 400.254 218.501 Z " fill-rule="evenodd" fill="rgb(113,95,102)"/><path d=" M 443.575 237.837 C 431.851 227.609 413.603 222.467 398.318 221.109 C 379.009 219.392 351.607 222.886 340.595 240.975 C 334.857 250.401 336.947 263.376 340.863 273.067 C 344.111 281.104 349.779 289.827 356.965 294.957 L 358.126 295.785 L 358.528 297.141 C 359.506 300.437 361.544 303.451 363.823 306.008 C 365.803 308.231 368.095 310.268 370.515 312.094 C 369.673 309.459 369.005 306.605 368.945 303.837 L 368.85 299.435 L 373.306 299.625 C 385.798 300.158 400.074 297.529 411.968 293.88 C 426.156 289.526 450.246 279.176 454.043 263.161 C 456.345 253.449 450.113 244.455 443.575 237.837 Z " fill-rule="evenodd" fill="rgb(177,157,168)"/></g></svg>