<?xml version="1.0" encoding="UTF-8" standalone="no"?><!-- Generator: Gravit.io --><svg xmlns="http://www.w3.org/2000/svg" xmlns:xlink="http://www.w3.org/1999/xlink" style="isolation:isolate" viewBox="36.198 194.367 138.107 119.194" width="138.107pt" height="119.194pt"><g><path d=" M 138.57 313.414 C 127.433 305.56 122.575 294.331 123.89 288.229 C 130.221 291.282 137.745 291.193 144.007 287.986 C 148.765 285.549 152.607 281.476 154.856 276.475 C 166.007 273.839 174.305 263.823 174.305 251.867 C 174.305 243.429 170.172 235.958 163.821 231.364 C 165.421 222.414 161.961 215.454 156.246 209.948 C 148.858 202.83 134.665 199.802 125.746 207.844 C 121.258 199.714 114.304 194.367 105.528 194.367 C 96.753 194.367 87.597 200.928 86.002 207.571 C 77.243 196.908 58.537 206.397 58.13 215.211 C 57.785 215.194 57.44 215.184 57.092 215.184 C 45.553 215.184 36.198 224.904 36.198 236.895 C 36.198 242.958 38.591 248.44 42.449 252.379 C 37.682 266.174 47.293 281.086 61.644 281.418 C 69.668 292.649 84.158 296.364 96.238 290.705 L 98.455 289.666 C 104.77 304.002 124.658 314.968 138.57 313.414 Z " fill-rule="evenodd" fill="rgb(254,254,254)"/><path d=" M 126.883 306.082 C 120.004 297.19 118.595 293.923 120.963 282.993 C 134.112 289.3 144.542 289.37 151.503 273.973 C 161.874 271.535 169.449 264.722 169.449 253.475 C 169.449 244.897 165.248 239.943 158.706 235.237 C 162.735 212.82 141.092 202.293 124.682 217.011 C 118.999 197.747 94.107 193.15 88.339 217.035 C 80.737 205.571 63.872 207.166 63.184 221.965 C 43.876 220.985 33.747 237.857 48.547 252.886 C 43.855 266.39 49.644 277.928 64.822 278.279 C 75.303 292.867 85.791 291.991 101.038 284.878 C 106.369 296.913 114.327 301.949 126.883 306.082 Z " fill-rule="evenodd" fill="rgb(79,125,70)"/><path d=" M 127.348 306.649 C 120.528 298.01 119.717 292.88 122.063 282.261 C 135.097 288.388 145.436 288.456 152.336 273.498 C 162.616 271.129 170.125 264.51 170.125 253.583 C 170.125 245.248 165.96 240.436 159.476 235.864 C 163.469 214.084 142.016 203.857 125.749 218.156 C 120.116 199.44 95.443 194.974 89.725 218.179 C 82.19 207.042 65.473 208.591 64.79 222.97 C 45.652 222.017 35.611 238.409 50.282 253.01 C 45.631 266.13 51.369 277.34 66.414 277.681 C 76.803 291.854 87.2 291.003 102.313 284.092 C 107.597 295.785 114.901 302.634 127.348 306.649 Z " fill-rule="evenodd" fill="rgb(150,200,102)"/></g></svg>