<?xml version="1.0" encoding="UTF-8" standalone="no"?><!-- Generator: Gravit.io --><svg xmlns="http://www.w3.org/2000/svg" xmlns:xlink="http://www.w3.org/1999/xlink" style="isolation:isolate" viewBox="40.411 80.856 137.464 113.25" width="137.464pt" height="113.25pt"><g><path d=" M 157.752 163.031 C 169.812 151.298 184.373 130.702 174.745 110.493 C 168.429 97.798 146.432 88.321 129.169 83.804 C 105.45 77.601 70.362 80.708 51.639 97.727 C 44.66 104.073 40.794 111.712 40.458 119.815 C 38.73 161.586 84.483 187.644 123.067 182.313 C 124.482 183.552 126.102 184.762 127.959 185.894 C 140.486 193.53 157.054 194.13 157.964 194.106 C 158.749 194.085 146.305 186.285 141.528 175.921 C 147.432 172.422 152.811 167.839 157.752 163.031 Z " fill-rule="evenodd" fill="rgb(254,254,254)"/><path d=" M 144.793 184.724 C 141.13 181.713 138.606 178.706 136.567 174.639 L 139.951 172.659 C 145.486 169.42 150.487 165.18 155.087 160.76 C 166.911 149.399 179.119 131.429 170.913 114.704 C 165.053 102.761 141.369 94.291 128.917 91.074 C 107.121 85.443 74.018 88.081 56.716 103.615 C 51.309 108.468 47.452 114.721 47.145 122.057 C 45.538 160.407 88.941 183.01 123.425 178.306 L 125.397 178.037 C 131.936 183.693 136.246 184.73 144.793 184.724 Z " fill-rule="evenodd" fill="rgb(146,87,55)"/><path d=" M 144.793 184.724 C 143.314 183.147 141.936 181.482 140.717 179.728 C 139.729 178.306 138.84 176.815 138.1 175.256 L 136.454 171.785 L 139.838 169.836 C 145.373 166.649 150.373 162.475 154.974 158.124 C 166.798 146.943 179.006 129.256 170.8 112.795 C 164.94 101.04 141.256 92.704 128.804 89.538 C 107.008 83.996 73.904 86.592 56.602 101.881 C 51.196 106.658 47.339 112.812 47.031 120.032 C 45.425 157.777 88.827 180.024 123.311 175.394 L 125.283 175.129 L 126.78 176.404 C 128.09 177.519 129.501 178.515 130.987 179.396 C 135.156 181.865 139.978 183.572 144.793 184.724 Z " fill-rule="evenodd" fill="rgb(241,157,72)"/></g></svg>