<?xml version="1.0" encoding="UTF-8" standalone="no"?><!-- Generator: Gravit.io --><svg xmlns="http://www.w3.org/2000/svg" xmlns:xlink="http://www.w3.org/1999/xlink" style="isolation:isolate" viewBox="49.856 334.664 123.783 115.897" width="123.783pt" height="115.897pt"><g><path d=" M 126.794 426.03 C 132.055 426.11 145.909 427.246 150.226 425.334 C 170.696 416.302 185.319 335.044 160.846 334.667 C 149.209 334.49 63.482 341.879 57.904 344.342 C 39.709 352.372 56.812 401.058 65.752 416.219 C 69.159 421.997 73.636 425.217 78.362 425.291 L 106.685 425.722 C 107.424 434.847 105.819 443.349 99.875 450.561 C 112.356 446.915 122.618 439.781 126.794 426.03 Z " fill-rule="evenodd" fill="rgb(254,254,254)"/><path d=" M 59.569 349.115 C 58.893 349.419 58.278 349.817 57.728 350.314 C 50.591 356.761 55.273 377.495 57.418 385.38 C 59.018 391.267 61.001 397.104 63.285 402.761 C 64.99 406.984 66.951 411.439 69.266 415.365 C 71.179 418.609 74.431 422.436 78.542 422.499 L 110.444 422.984 L 110.733 426.552 C 111.221 432.582 110.734 438.405 108.871 443.814 C 115.587 439.999 120.615 434.362 123.144 426.033 L 124.007 423.192 L 126.975 423.238 C 131.215 423.303 145.437 424.342 148.755 422.878 C 153.231 420.901 157.189 413.912 159.213 409.724 C 163.018 401.854 165.661 392.85 167.393 384.297 C 169.254 375.109 170.419 364.664 169.524 355.303 C 169.113 351.013 167.747 342.612 163.408 340.353 C 162.624 339.945 161.787 339.768 160.907 339.755 C 158.649 339.72 156.285 339.871 154.029 339.992 C 150.06 340.205 146.091 340.474 142.126 340.757 C 131.488 341.517 120.852 342.401 110.228 343.348 C 99.094 344.341 87.949 345.397 76.841 346.65 C 72.895 347.096 68.938 347.56 65.008 348.13 C 63.745 348.314 62.478 348.507 61.224 348.743 C 60.733 348.836 60.045 348.95 59.569 349.115 Z " fill-rule="evenodd" fill="rgb(56,116,112)"/><path d=" M 59.358 352.342 C 58.693 352.626 58.087 352.997 57.546 353.463 C 50.524 359.495 55.131 378.892 57.241 386.269 C 58.816 391.777 60.766 397.238 63.014 402.53 C 64.691 406.481 66.621 410.649 68.899 414.322 C 70.781 417.357 73.98 420.938 78.025 420.996 L 109.414 421.45 L 109.698 424.788 C 110.179 430.429 110.704 438.753 108.871 443.814 C 116.833 439.514 120.242 429.526 122.759 421.645 L 125.679 421.687 C 129.85 421.748 143.844 422.721 147.108 421.351 C 151.513 419.501 155.407 412.962 157.398 409.045 C 161.142 401.681 163.742 393.258 165.446 385.256 C 167.277 376.66 168.423 366.888 167.543 358.131 C 167.139 354.117 165.795 346.257 161.526 344.144 C 160.755 343.762 159.931 343.597 159.064 343.584 C 156.843 343.552 154.517 343.693 152.297 343.806 C 148.392 344.005 144.487 344.257 140.586 344.522 C 130.119 345.233 119.654 346.06 109.201 346.946 C 98.246 347.875 87.281 348.863 76.351 350.035 C 72.469 350.452 68.576 350.886 64.709 351.42 C 63.467 351.591 62.22 351.772 60.986 351.994 C 60.502 352.08 59.826 352.186 59.358 352.342 Z " fill-rule="evenodd" fill="rgb(105,193,185)"/></g></svg>