<?xml version="1.0" encoding="UTF-8" standalone="no"?><!-- Generator: Gravit.io --><svg xmlns="http://www.w3.org/2000/svg" xmlns:xlink="http://www.w3.org/1999/xlink" style="isolation:isolate" viewBox="346.765 325.419 113.391 129.456" width="113.391pt" height="129.456pt"><g><path d=" M 400.45 432.198 C 388.69 430.942 377.254 425.927 368.834 417.552 C 352.789 401.595 336.07 368.642 355.562 349.244 C 365.217 339.637 384.969 331.885 397.965 328.583 C 413.433 324.652 434.221 322.678 447.662 333.133 C 455.426 339.172 458.941 347.973 459.729 357.577 C 461.047 373.619 459.557 390.783 451.833 405.188 C 446.351 415.411 438.108 423.409 427.581 428.078 C 427.057 429.714 426.449 431.324 425.76 432.898 C 423.395 438.305 419.043 445.319 414.344 449.111 L 407.203 454.875 L 405.838 445.8 C 405.213 441.648 402.783 436.251 400.45 432.198 Z " fill-rule="evenodd" fill="rgb(254,254,254)"/><path d=" M 359.273 352.973 C 342.712 369.454 357.799 399.158 372.543 413.822 C 380.564 421.798 391.873 426.524 403.547 427.173 C 409.827 436.883 410.619 444.165 410.619 444.165 C 417.1 439.761 421.814 432.561 423.236 424.18 C 442.322 416.896 457.627 396.248 454.486 358.007 C 450.544 309.995 375.834 336.492 359.273 352.973 Z " fill-rule="evenodd" fill="rgb(164,114,59)"/><path d=" M 360.453 356.573 C 344.746 372.449 359.388 400.728 373.59 414.635 C 381.316 422.199 392.161 426.632 403.325 427.165 C 409.4 436.399 410.619 444.165 410.619 444.165 C 410.619 444.165 416.021 439.73 419.976 430.493 C 420.94 428.241 421.63 426.103 422.122 424.158 C 440.311 417.053 454.785 397.202 451.498 360.674 C 447.372 314.813 376.159 340.696 360.453 356.573 Z " fill-rule="evenodd" fill="rgb(243,174,74)"/></g></svg>