<?xml version="1.0" encoding="UTF-8" standalone="no"?><!-- Generator: Gravit.io --><svg xmlns="http://www.w3.org/2000/svg" xmlns:xlink="http://www.w3.org/1999/xlink" style="isolation:isolate" viewBox="187.116 329.571 144.163 112.639" width="144.163pt" height="112.639pt"><g><path d=" M 192.759 339.851 C 177.647 358.226 196.63 412.502 206.097 417.898 C 215.564 423.294 236.403 419.369 244.982 421.887 C 253.561 424.404 254.596 442.21 254.596 442.21 C 260.326 439.296 269.792 429.717 270.275 422.066 C 281.578 422.43 302.903 426.451 310.741 415.78 C 320.055 403.101 341.082 371.59 325.978 353.224 C 305.91 328.824 207.87 321.477 192.759 339.851 Z " fill-rule="evenodd" fill="rgb(254,254,254)"/><path d=" M 258.301 433.045 C 264.398 427.004 265.773 422.538 265.531 416.848 L 270.438 417.006 C 279.219 417.288 300.693 420.907 306.66 412.783 C 312.325 405.071 317.694 396.682 321.523 387.901 C 325.631 378.479 329.372 365.322 322.067 356.44 C 317.131 350.438 306.588 346.154 299.407 343.765 C 287.531 339.815 274.587 337.441 262.165 336.054 C 248.416 334.518 233.585 333.99 219.817 335.532 C 214.018 336.182 200.637 338.243 196.669 343.067 C 189.965 351.219 192.242 369.032 194.221 378.527 C 195.887 386.527 198.427 394.765 201.74 402.242 C 202.753 404.526 206.459 412.205 208.604 413.499 C 212.589 415.77 220.52 415.883 225.039 415.906 C 228.801 415.925 232.565 415.824 236.325 415.89 C 239.588 415.948 243.268 416.107 246.408 417.029 C 252.963 418.952 256.548 426.015 258.301 433.045 Z " fill-rule="evenodd" fill="rgb(151,106,90)"/><path d=" M 258.301 433.045 C 264.125 427.231 266.788 422.639 266.557 417.162 L 271.244 417.314 C 279.631 417.586 300.144 421.069 305.845 413.25 C 311.256 405.827 316.384 397.753 320.042 389.302 C 323.966 380.234 327.54 367.57 320.562 359.022 C 315.847 353.245 305.775 349.122 298.916 346.823 C 287.572 343.021 275.207 340.736 263.341 339.401 C 250.208 337.923 236.04 337.415 222.889 338.899 C 217.35 339.524 204.568 341.508 200.777 346.152 C 194.374 353.997 196.548 371.142 198.438 380.28 C 200.031 387.98 202.456 395.908 205.622 403.104 C 206.589 405.303 210.186 412.013 212.235 413.259 C 216.041 415.444 223.673 414.986 227.991 415.008 C 231.584 415.027 235.18 414.93 238.771 414.993 C 251.553 415.22 255.302 420.923 258.301 433.045 Z " fill-rule="evenodd" fill="rgb(240,159,131)"/></g></svg>