<?xml version="1.0" encoding="UTF-8" standalone="no"?><!-- Generator: Gravit.io --><svg xmlns="http://www.w3.org/2000/svg" xmlns:xlink="http://www.w3.org/1999/xlink" style="isolation:isolate" viewBox="465.398 47.071 359.89 278.61" width="359.89pt" height="278.61pt"><g><path d=" M 612.931 296.538 C 612.83 296.273 602.586 269.927 586.782 268.117 C 585.019 267.914 583.186 267.864 581.332 267.968 C 562.736 269.012 545.905 285.173 545.738 285.336 L 535.031 295.806 L 538.403 281.638 C 541.501 268.625 542.29 252.421 538.163 248.933 C 537.53 248.399 534.602 246.705 523.461 247.33 C 509.529 248.112 492.154 252.064 491.421 252.232 L 476.204 255.767 L 487.878 244.77 C 491.47 241.385 497.415 235.107 502.348 228.554 C 508.334 220.605 511.439 214.171 511.327 209.947 C 511.19 204.72 504.368 200.763 498.671 198.363 C 491.76 195.453 483.532 193.59 478.585 192.879 L 467.532 188.427 L 479.061 184.089 C 493.861 180.899 515.648 172.596 517.746 164.124 C 519.328 157.733 515.782 150.398 512.527 145.371 C 508.793 139.601 504.563 135.499 504.521 135.458 L 493.048 124.443 L 509.059 127.724 C 509.185 127.749 521.762 130.284 534.517 129.568 C 543.676 129.054 550.413 127.078 554.542 123.696 C 565.659 114.586 564.889 90.296 564.881 90.052 L 564.491 79.954 L 572.263 85.821 C 572.457 85.967 591.943 100.499 609.736 99.501 C 610.764 99.443 611.775 99.332 612.743 99.173 C 631.347 96.098 643.716 70.635 643.839 70.378 L 648.17 61.278 L 651.979 69.874 C 652.092 70.127 654.816 76.196 659.154 82.621 C 664.629 90.728 670.056 95.61 674.846 96.737 C 676.487 97.124 678.384 97.26 680.488 97.142 C 696.985 96.215 719.726 80.858 719.954 80.703 L 730.455 73.571 L 726.47 85.391 C 723.682 93.655 719.952 112.513 726.213 118.055 C 727.875 119.524 732.714 121.875 746.457 121.104 C 758.261 120.441 769.967 117.82 770.46 117.708 L 786.16 114.128 L 773.91 125.241 C 773.736 125.398 756.692 141.079 757.725 155.071 C 758.784 169.409 786.157 173.693 786.433 173.735 L 809.437 177.193 L 785.979 182.51 C 781.242 183.584 773.032 185.981 765.486 189.206 C 756.345 193.11 750.361 197.251 748.179 201.181 C 743.715 209.225 754.625 224.94 760.607 231.29 L 770.69 241.992 L 755.911 238.882 C 755.46 238.789 744.681 236.615 733.398 237.248 C 724.519 237.746 717.896 239.756 713.716 243.22 C 709.757 246.502 706.152 253.324 703.295 262.95 C 701.045 270.525 700.112 277.066 700.073 277.341 L 698.811 286.469 L 692.425 280.532 C 692.261 280.381 675.554 265.18 658.66 266.127 C 656.563 266.245 654.521 266.613 652.593 267.22 C 633.335 273.287 621.199 296.15 621.079 296.38 L 616.356 305.525 L 612.931 296.538 Z " fill="rgb(0,0,0)"/><path d=" M 544.445 280.424 C 544.445 280.424 565.782 259.557 588.535 262.164 C 606.676 264.242 617.428 292.531 617.428 292.531 C 617.428 292.531 630.017 268.158 651.25 261.47 C 672.385 254.812 694.447 275.371 694.447 275.371 C 694.447 275.371 698.176 248.267 709.569 238.825 C 723.849 226.992 754.867 233.542 754.867 233.542 C 754.867 233.542 734.821 212.3 742.202 199 C 749.583 185.7 782.498 178.252 782.498 178.252 C 782.498 178.252 752.269 173.709 750.985 156.32 C 749.791 140.148 768.458 123.214 768.458 123.214 C 768.458 123.214 731.499 131.642 721.37 122.678 C 711.241 113.715 720.547 86.186 720.547 86.186 C 720.547 86.186 690.238 106.773 672.676 102.64 C 658.75 99.362 647.565 74.079 647.565 74.079 C 647.565 74.079 634.46 101.606 613.44 105.08 C 593.255 108.416 570.545 91.239 570.545 91.239 C 570.545 91.239 571.557 117.491 558.605 128.103 C 544.042 140.034 510.125 133.068 510.125 133.068 C 510.125 133.068 527.891 150.125 524.167 165.161 C 520.445 180.19 482.494 188.358 482.494 188.358 C 482.494 188.358 517.592 193.4 518.001 208.93 C 518.378 223.206 493.456 246.669 493.456 246.669 C 493.456 246.669 534.528 237.128 542.952 244.245 C 551.376 251.363 544.445 280.424 544.445 280.424 Z " fill="rgb(255,0,0)"/><path d=" M 746.48 183.025 L 744.027 189.001 C 744.027 189.001 752.466 184.235 763.962 180.671 L 746.48 183.025 Z " fill="rgb(178,178,178)"/><path d=" M 767.106 230.189 C 765.699 230.27 764.294 230.226 762.92 230.059 C 760.117 229.707 757.448 228.895 754.981 227.638 C 752.424 226.331 750.227 224.525 748.451 222.261 C 746.67 219.992 745.465 217.475 744.863 214.78 C 744.281 212.168 744.191 209.506 744.596 206.865 C 745.021 204.132 746.003 201.482 747.514 198.986 C 749.025 196.475 751.081 194.206 753.619 192.247 C 755.021 191.165 756.494 190.251 758.027 189.51 C 757.127 189.34 756.226 189.171 755.326 189.001 C 752.023 188.367 750.041 185.264 750.88 182.076 C 756.721 159.715 762.367 137.504 767.815 115.437 C 768.488 112.732 770.911 110.677 773.714 110.45 L 773.716 110.45 C 774.191 110.419 774.923 110.445 775.41 110.54 C 787.726 112.938 800.061 115.416 812.412 117.975 C 814.107 118.316 815.584 119.338 816.453 120.774 C 817.325 122.222 817.518 123.978 816.978 125.593 C 809.772 147.143 802.299 168.893 794.563 190.847 C 793.708 193.289 791.289 195.029 788.551 195.183 C 788.073 195.208 787.31 195.156 786.842 195.065 C 786.265 194.951 785.689 194.838 785.113 194.725 C 785.256 194.89 785.397 195.062 785.535 195.234 C 787.439 197.608 788.742 200.225 789.4 203.013 C 790.064 205.72 790.158 208.501 789.676 211.265 C 789.2 214.039 788.144 216.688 786.538 219.143 C 784.939 221.602 782.802 223.766 780.192 225.577 C 777.535 227.423 774.68 228.733 771.714 229.472 C 770.217 229.85 768.692 230.089 767.189 230.183 C 767.161 230.185 767.134 230.187 767.106 230.189 Z  M 479.031 262.903 C 476.61 263.354 474.648 261.831 474.376 259.268 C 471.252 229.177 468.268 198.99 465.424 168.706 C 465.287 167.279 465.679 165.655 466.494 164.251 C 467.328 162.817 468.511 161.721 469.83 161.165 C 469.905 161.132 469.981 161.1 470.056 161.068 C 477.24 157.986 495.093 150.545 505.043 146.823 C 507.932 145.733 510.853 144.878 513.728 144.282 C 513.983 144.232 514.238 144.18 514.493 144.13 C 515.95 143.851 517.43 143.63 518.894 143.476 C 523.69 142.974 528.104 143.536 532.022 145.133 C 535.459 146.542 538.386 148.873 540.746 152.071 C 541.394 151.016 542.062 149.996 542.743 149.019 C 547.034 142.872 552.25 137.558 558.255 133.246 C 564.296 128.902 570.947 125.765 578.049 123.936 C 579.496 123.567 580.892 123.263 582.206 123.029 C 582.482 122.982 582.757 122.936 583.032 122.889 C 588.364 122.032 593.494 122.073 598.293 123.005 C 603.356 123.985 607.951 125.89 612 128.671 C 611.863 127.97 611.726 127.269 611.588 126.568 C 611.269 124.937 611.669 123.11 612.68 121.558 C 613.696 120.004 615.207 118.902 616.833 118.542 C 646.049 112.063 645.986 112.249 646.071 112.189 C 648.954 111.812 651.243 113.441 651.712 116.133 C 653.446 126.021 655.198 135.899 656.968 145.766 C 659.474 136.138 661.95 126.534 664.396 116.954 C 665.094 114.241 667.395 112.102 669.996 111.754 C 680.936 111.05 691.86 110.43 702.769 109.893 C 705.476 109.759 707.698 111.532 708.172 114.19 C 709.868 123.789 711.578 133.379 713.304 142.961 C 717.379 132.501 721.396 122.089 725.354 111.726 C 726.271 109.346 728.442 107.642 730.894 107.389 C 730.896 107.389 730.896 107.389 730.897 107.388 C 731.233 107.359 731.765 107.355 732.038 107.382 C 741.897 108.281 751.758 109.239 761.621 110.255 C 763.395 110.434 764.945 111.385 765.869 112.862 C 766.795 114.356 766.972 116.204 766.353 117.931 C 754.617 150.192 742.296 182.913 729.404 216.112 C 728.494 218.455 726.165 220.17 723.619 220.382 C 713.532 220.554 703.44 220.79 693.344 221.091 C 690.605 221.17 688.367 219.432 687.896 216.858 C 685.702 204.614 683.535 192.355 681.393 180.082 C 677.458 192.708 673.461 205.385 669.401 218.116 C 668.603 220.663 666.297 222.573 663.676 222.863 C 654.282 223.017 644.889 223.225 635.495 223.487 C 633.041 223.551 631.061 222.019 630.566 219.663 C 628.753 211.094 626.956 202.517 625.177 193.929 C 622.584 200.922 619.063 207.241 614.704 212.75 C 610.2 218.444 604.842 223.281 598.797 227.146 C 592.831 230.951 586.305 233.649 579.424 235.159 C 578.145 235.443 576.84 235.682 575.553 235.876 C 570.077 236.681 564.972 236.606 560.254 235.658 C 554.363 234.474 549.159 232.028 544.788 228.368 C 540.435 224.72 536.923 219.842 534.339 213.859 C 533.367 211.609 532.552 209.18 531.903 206.615 C 529.021 209.483 525.805 212.012 522.312 214.162 C 517.918 216.862 513.343 219.04 508.724 220.63 C 507.534 221.046 506.343 221.463 505.152 221.882 C 505.665 230.416 506.185 238.946 506.712 247.469 C 506.891 250.452 504.838 253.566 502.041 254.571 C 494.675 257.223 487.297 259.92 479.905 262.661 C 479.667 262.744 479.273 262.858 479.058 262.898 C 479.049 262.9 479.04 262.901 479.031 262.903 Z  M 579.907 157.103 C 578.273 157.396 576.721 158.039 575.295 159.01 C 573.829 160.011 572.606 161.212 571.556 162.683 C 570.475 164.193 569.587 166.031 568.912 168.149 C 568.204 170.362 567.804 172.8 567.723 175.394 C 567.641 178.06 567.892 180.439 568.474 182.461 C 569.039 184.444 569.834 186.076 570.841 187.31 C 571.783 188.488 572.883 189.287 574.212 189.762 C 575.467 190.219 576.808 190.326 578.312 190.094 C 580.031 189.804 581.445 189.235 582.794 188.303 C 584.206 187.329 585.475 186.06 586.567 184.523 C 587.76 182.862 588.73 180.917 589.46 178.74 C 590.229 176.456 590.685 173.926 590.82 171.217 C 590.95 168.591 590.736 166.257 590.185 164.272 C 589.667 162.377 588.898 160.852 587.898 159.731 C 586.918 158.634 585.718 157.827 584.333 157.343 C 583.072 156.908 581.71 156.814 580.182 157.054 C 580.168 157.057 580.153 157.059 580.139 157.062 C 580.061 157.075 579.984 157.089 579.907 157.103 Z  M 503.445 190.368 C 504.068 190.125 504.703 189.881 505.338 189.637 C 506.79 189.078 508.089 188.099 509.302 186.649 C 510.136 185.647 510.513 184.126 510.452 182 C 510.403 180.38 510.145 179.751 510.037 179.555 C 509.812 179.163 509.605 179.046 509.449 178.987 C 509.02 178.833 508.523 178.794 507.934 178.867 C 507.764 178.889 507.584 178.918 507.405 178.951 C 507.439 178.384 507.474 177.817 507.509 177.249 C 507.438 177.824 507.368 178.398 507.298 178.973 C 506.711 179.09 506.129 179.262 505.564 179.484 C 504.734 179.809 503.904 180.135 503.074 180.461 C 503.196 183.764 503.321 187.066 503.445 190.368 Z " fill="rgb(0,0,0)"/><path d=" M 775.715 238.927 C 774.424 238.984 773.129 238.927 771.86 238.756 C 769.261 238.396 766.781 237.61 764.488 236.414 C 762.136 235.182 750.093 224.347 748.458 222.236 C 746.82 220.119 755.746 226.938 755.208 224.458 C 754.68 222.022 754.62 219.555 755.013 217.134 C 755.425 214.639 756.355 212.218 757.769 209.946 C 759.192 207.655 761.121 205.592 763.495 203.82 C 765.822 202.084 768.353 200.833 771.024 200.109 C 772.028 199.831 773.053 199.627 774.074 199.495 C 770.935 198.857 767.798 198.223 764.662 197.595 C 762.291 197.108 760.883 194.875 761.502 192.617 C 767.565 170.337 773.429 148.204 779.093 126.214 C 779.592 124.291 781.352 122.853 783.374 122.719 C 783.688 122.698 784.293 122.736 784.594 122.799 C 796.985 125.365 802.466 116.602 814.892 119.332 C 816.115 119.597 824.101 131.75 824.715 132.78 C 825.33 133.814 825.456 135.063 825.061 136.205 C 817.621 157.66 809.912 179.312 801.936 201.168 C 801.307 202.898 799.558 204.117 797.588 204.2 C 797.583 204.2 797.589 204.2 797.583 204.2 C 797.267 204.212 796.658 204.162 796.351 204.098 C 793.478 203.495 790.606 202.896 787.736 202.302 C 789.765 203.512 791.551 205.087 793.051 206.984 C 794.799 209.195 795.985 211.616 796.571 214.18 C 797.166 216.694 797.232 219.264 796.765 221.796 C 796.302 224.335 795.305 226.76 793.8 228.999 C 792.303 231.239 790.305 233.203 787.876 234.836 C 785.399 236.503 782.745 237.68 779.99 238.326 C 778.567 238.66 777.131 238.863 775.72 238.927 C 775.72 238.927 775.721 238.925 775.715 238.927 Z  M 485.552 267.867 C 483.848 268.161 475.528 263.175 475.35 261.373 C 472.445 231.222 476.644 204.868 474.023 174.526 C 473.933 173.512 474.221 172.363 474.812 171.374 C 475.404 170.383 476.237 169.63 477.159 169.256 C 479.573 168.242 501.283 159.455 512.691 155.392 C 515.539 154.366 518.406 153.573 521.222 153.03 C 522.919 152.704 524.607 152.464 526.29 152.31 C 530.909 151.892 535.146 152.481 538.893 154.052 C 542.716 155.665 545.866 158.479 548.253 162.416 C 548.274 162.447 548.291 162.474 548.309 162.505 C 549.362 160.674 550.478 158.936 551.645 157.312 C 555.865 151.436 560.981 146.369 566.864 142.276 C 572.794 138.147 579.313 135.194 586.271 133.511 C 587.649 133.178 589.007 132.901 590.347 132.683 C 595.845 131.787 601.116 131.852 606.026 132.864 C 612.163 134.126 617.566 136.765 622.101 140.686 C 622.381 140.926 622.655 141.177 622.927 141.427 C 622.474 139.045 622.022 136.662 621.572 134.279 C 621.352 133.118 621.649 131.827 622.381 130.735 C 623.111 129.648 624.194 128.882 625.351 128.643 C 625.374 128.577 649.145 112.907 649.126 112.974 C 651.261 112.693 658.47 123.628 658.785 125.522 C 660.849 137.863 662.941 150.188 665.063 162.497 C 668.366 150.369 671.621 138.279 674.826 126.227 C 675.342 124.304 676.998 122.814 678.858 122.592 C 689.846 122.04 693.984 110.553 704.941 110.169 C 706.87 110.102 715.28 122.394 715.599 124.277 C 717.55 135.845 719.523 147.401 721.519 158.945 C 726.51 146.595 731.419 134.313 736.243 122.098 C 736.915 120.411 738.483 119.221 740.249 119.063 C 740.456 119.046 740.854 119.046 741.056 119.069 C 750.986 120.102 760.918 121.195 770.851 122.347 C 772.123 122.492 773.231 123.186 773.882 124.245 C 774.533 125.311 774.648 126.62 774.195 127.845 C 762.106 159.951 749.426 192.515 736.169 225.551 C 735.502 227.211 733.828 228.407 732.001 228.529 C 721.89 228.563 711.775 228.661 701.655 228.823 C 699.691 228.853 688.87 220.493 688.546 218.655 C 686.044 204.127 692.804 196.676 690.375 182.107 C 685.591 196.966 680.717 211.897 675.754 226.901 C 675.169 228.698 673.517 230.033 671.647 230.208 C 662.248 230.236 652.849 230.316 643.449 230.45 C 641.702 230.472 631.023 222.271 630.683 220.597 C 628.517 210.017 635.657 206.512 633.543 195.904 C 633.049 197.691 632.486 199.447 631.852 201.172 C 629.231 208.281 625.633 214.672 621.152 220.187 C 616.714 225.65 611.463 230.26 605.569 233.912 C 599.742 237.516 593.368 240.044 586.653 241.423 C 585.327 241.697 584.023 241.915 582.735 242.088 C 577.537 242.78 572.578 242.643 567.998 241.668 C 562.28 240.446 548.429 231.532 544.219 227.949 C 540.01 224.36 545.443 226.074 542.966 220.231 C 541.738 217.334 540.783 214.164 540.111 210.766 C 536.845 214.309 533.06 217.376 528.856 219.883 C 524.531 222.461 520.039 224.519 515.52 226.007 C 513.808 226.579 512.095 227.153 510.381 227.73 C 510.848 236.803 511.323 245.87 511.807 254.932 C 511.917 257.042 510.458 259.216 508.484 259.896 C 501.053 262.457 493.609 265.061 486.151 267.71 C 485.998 267.76 485.704 267.84 485.552 267.867 Z  M 587.869 163.306 C 585.975 163.621 584.175 164.339 582.509 165.439 C 580.816 166.561 579.392 167.921 578.162 169.597 C 576.921 171.286 575.905 173.321 575.138 175.648 C 574.344 178.039 573.888 180.654 573.779 183.419 C 573.665 186.275 573.92 188.822 574.528 191.001 C 575.127 193.166 575.992 194.967 577.11 196.362 C 578.187 197.729 579.465 198.668 581.019 199.245 C 582.515 199.805 584.11 199.948 585.903 199.689 C 587.893 199.38 589.566 198.722 591.151 197.663 C 592.78 196.575 594.255 195.145 595.528 193.408 C 596.865 191.594 597.961 189.473 598.785 187.098 C 599.639 184.648 600.153 181.951 600.32 179.069 C 600.483 176.277 600.271 173.756 599.685 171.582 C 599.12 169.476 598.262 167.749 597.124 166.454 C 596.003 165.18 594.625 164.24 593.038 163.664 C 591.52 163.122 589.884 162.992 588.04 163.276 C 587.983 163.286 587.926 163.296 587.869 163.306 Z  M 509.076 199.537 C 510.206 199.108 511.429 198.654 512.658 198.204 C 514.445 197.547 516.044 196.385 517.528 194.66 C 518.759 193.223 519.329 191.234 519.273 188.578 C 519.233 186.77 518.941 185.873 518.703 185.439 C 518.388 184.881 518.01 184.523 517.522 184.34 C 516.899 184.108 516.207 184.041 515.408 184.129 C 515.162 184.158 514.908 184.196 514.657 184.243 C 513.98 184.369 513.307 184.557 512.637 184.809 C 511.322 185.303 512.754 187.372 511.438 187.868 C 511.565 192.283 508.946 195.124 509.076 199.537 Z " fill="rgb(0,0,0)"/><path d=" M 729.987 113.117 C 724.354 127.858 718.602 142.695 712.731 157.632 C 712.349 158.604 710.966 158.606 710.791 157.631 C 708.273 143.643 705.788 129.636 703.336 115.611 C 703.258 115.167 702.884 114.868 702.429 114.89 C 691.636 115.409 680.827 116.008 670.003 116.69 C 669.54 116.718 669.115 117.09 668.992 117.572 C 665.103 132.837 661.138 148.162 657.095 163.55 C 656.819 164.602 655.391 164.745 655.21 163.74 C 652.456 148.433 649.747 133.101 647.081 117.744 C 646.999 117.27 646.587 116.991 646.115 117.09 C 636.424 119.115 626.706 121.215 616.964 123.391 C 616.391 123.519 615.97 124.165 616.085 124.74 C 617.56 132.2 619.048 139.653 620.549 147.099 C 618.294 142.211 615.373 138.124 611.687 134.978 C 607.461 131.376 602.468 128.989 596.711 127.874 C 590.99 126.764 584.802 127.035 578.183 128.731 C 571.61 130.414 565.546 133.264 560.016 137.22 C 554.516 141.154 549.827 145.92 545.947 151.462 C 543.697 154.676 541.793 158.146 540.159 161.805 C 539.626 160.091 539.001 158.506 538.188 157.187 C 536.022 153.665 533.223 151.189 529.786 149.784 C 526.364 148.388 522.518 147.894 518.258 148.334 C 514.015 148.776 509.725 149.804 505.386 151.43 C 494.613 155.431 474.453 163.863 470.216 165.689 C 469.765 165.88 469.458 166.439 469.506 166.941 C 472.396 197.257 475.425 227.476 478.596 257.598 C 478.648 258.084 479.052 258.337 479.508 258.168 C 486.89 255.419 494.259 252.715 501.614 250.053 C 502.075 249.887 502.417 249.36 502.387 248.865 C 501.799 239.153 501.22 229.435 500.651 219.711 C 500.621 219.209 500.945 218.681 501.408 218.516 C 502.968 217.958 506.412 216.738 508.378 216.055 C 512.661 214.571 516.83 212.577 520.906 210.064 C 524.991 207.539 528.6 204.48 531.726 200.849 C 532.838 199.56 533.839 198.172 534.788 196.741 C 535.378 202.092 536.585 206.867 538.406 211.069 C 540.81 216.611 543.993 221.017 547.95 224.332 C 551.926 227.656 556.571 229.832 561.91 230.905 C 567.276 231.98 573.066 231.813 579.31 230.432 C 585.595 229.04 591.447 226.624 596.891 223.13 C 602.367 219.619 607.155 215.278 611.273 210.062 C 615.405 204.822 618.691 198.82 621.114 192.01 C 623.545 185.18 624.827 177.852 624.926 169.998 C 624.932 169.452 624.888 168.948 624.882 168.41 C 628.278 184.965 631.736 201.485 635.257 217.97 C 635.341 218.368 635.675 218.625 636.086 218.614 C 645.283 218.36 654.481 218.16 663.678 218.01 C 664.144 218.003 664.584 217.666 664.731 217.206 C 670.488 199.155 676.12 181.209 681.625 163.366 C 681.943 162.334 683.37 162.257 683.546 163.26 C 686.586 180.691 689.679 198.093 692.824 215.466 C 692.903 215.903 693.283 216.2 693.747 216.186 C 703.686 215.891 713.62 215.658 723.55 215.487 C 724.008 215.48 724.434 215.186 724.598 214.762 C 737.478 181.558 749.791 148.829 761.526 116.558 C 761.748 115.948 761.367 115.328 760.73 115.262 C 750.859 114.244 740.989 113.285 731.122 112.383 C 730.643 112.339 730.167 112.649 729.987 113.117 Z  M 512.066 189.503 C 510.182 191.743 508.083 193.305 505.772 194.188 C 503.934 194.891 502.098 195.601 500.265 196.32 C 499.782 196.51 499.359 196.22 499.339 195.685 C 499.127 189.913 498.917 184.136 498.71 178.357 C 498.693 177.865 499.024 177.34 499.465 177.164 C 501.346 176.408 503.23 175.665 505.116 174.928 C 506.233 174.491 507.364 174.199 508.489 174.049 C 509.619 173.902 510.654 173.994 511.583 174.332 C 512.511 174.666 513.252 175.329 513.812 176.323 C 514.368 177.318 514.673 178.784 514.734 180.704 C 514.845 184.331 513.951 187.256 512.066 189.503 Z  M 593.741 179.586 C 592.803 182.377 591.558 184.839 590.014 186.992 C 588.47 189.143 586.701 190.897 584.718 192.26 C 582.733 193.62 580.605 194.489 578.337 194.875 C 576.073 195.259 573.984 195.112 572.063 194.418 C 570.147 193.727 568.528 192.56 567.204 190.911 C 565.879 189.268 564.863 187.21 564.159 184.725 C 563.454 182.245 563.152 179.414 563.253 176.224 C 563.35 173.13 563.835 170.201 564.717 167.439 C 565.597 164.673 566.773 162.259 568.25 160.19 C 569.726 158.122 571.478 156.393 573.511 154.997 C 575.551 153.603 577.729 152.687 580.046 152.265 C 582.369 151.841 584.501 151.971 586.441 152.642 C 588.378 153.319 590.05 154.438 591.446 155.997 C 592.842 157.563 593.889 159.593 594.581 162.1 C 595.274 164.607 595.539 167.426 595.386 170.561 C 595.229 173.791 594.681 176.794 593.741 179.586 Z  M 781.2 198.326 C 779.734 196.495 777.994 195.067 775.979 194.041 C 773.97 193.019 771.849 192.403 769.619 192.191 C 767.391 191.978 765.159 192.198 762.94 192.842 C 760.715 193.479 758.648 194.544 756.732 196.016 C 754.735 197.548 753.154 199.281 751.986 201.215 C 750.813 203.143 750.072 205.153 749.756 207.225 C 749.436 209.299 749.517 211.368 749.98 213.43 C 750.447 215.495 751.368 217.4 752.75 219.155 C 754.135 220.912 755.793 222.284 757.735 223.273 C 759.685 224.271 761.736 224.895 763.915 225.166 C 766.089 225.433 768.312 225.285 770.577 224.713 C 772.842 224.142 775.017 223.132 777.101 221.682 C 779.1 220.286 780.725 218.638 781.962 216.736 C 783.199 214.836 784.006 212.814 784.377 210.683 C 784.748 208.549 784.676 206.416 784.164 204.279 C 783.659 202.147 782.665 200.16 781.2 198.326 Z  M 772.815 116.315 C 767.38 138.381 761.746 160.593 755.915 182.954 C 755.774 183.499 756.111 184.022 756.674 184.127 C 767.155 186.095 777.653 188.118 788.168 190.196 C 788.726 190.304 789.298 189.995 789.479 189.48 C 797.215 167.517 804.691 145.756 811.902 124.196 C 812.093 123.625 811.739 123.034 811.129 122.908 C 798.771 120.354 786.431 117.88 774.11 115.487 C 773.538 115.376 772.955 115.749 772.815 116.315 Z " fill="rgb(255,255,0)"/><path d=" M 679.45 89.836 L 689.778 47.071 L 700.132 49.026 L 679.45 89.836 Z " fill="rgb(0,0,0)"/><path d=" M 735.716 100.709 L 754.208 80.775 L 760.182 86.117 L 735.716 100.709 Z " fill="rgb(0,0,0)"/><path d=" M 611.292 91.177 L 607.265 48.62 L 594.636 50.388 L 611.292 91.177 Z " fill="rgb(0,0,0)"/><path d=" M 542.54 116.178 L 529.546 91.474 L 520.569 97.352 L 542.54 116.178 Z " fill="rgb(0,0,0)"/><path d=" M 493.725 145.667 L 479.98 135.92 L 475.732 141.168 L 493.725 145.667 Z " fill="rgb(0,0,0)"/><path d=" M 532.627 256.874 L 504.304 282.864 L 510.302 289.195 L 532.627 256.874 Z " fill="rgb(0,0,0)"/><path d=" M 584.773 274.867 L 567.447 320.516 L 575.777 323.182 L 584.773 274.867 Z " fill="rgb(0,0,0)"/><path d=" M 655.579 272.201 L 660.744 325.681 L 670.074 322.682 L 655.579 272.201 Z " fill="rgb(0,0,0)"/><path d=" M 723.175 248.057 L 744.928 288.981 L 753.414 283.686 L 723.175 248.057 Z " fill="rgb(0,0,0)"/><path d=" M 774.867 247.211 L 783.53 258.54 L 789.861 253.209 L 774.867 247.211 Z " fill="rgb(0,0,0)"/></g></svg>