<?xml version="1.0" encoding="UTF-8" standalone="no"?><!-- Generator: Gravit.io --><svg xmlns="http://www.w3.org/2000/svg" xmlns:xlink="http://www.w3.org/1999/xlink" style="isolation:isolate" viewBox="334.529 103.838 129.273 93.033" width="129.273pt" height="93.033pt"><g><path d=" M 454.368 146.852 C 455.554 144.507 456.226 141.838 456.226 139.005 C 456.226 129.68 448.95 122.12 439.975 122.12 C 437.92 122.12 435.955 122.516 434.145 123.24 C 432.677 112.277 423.621 103.838 412.667 103.838 C 403.742 103.838 396.077 109.44 392.749 117.444 C 389.749 114.37 385.629 112.471 381.082 112.471 C 371.904 112.471 364.464 120.202 364.464 129.738 C 364.464 129.887 364.466 130.035 364.47 130.183 C 362.995 129.569 361.386 129.23 359.699 129.23 C 352.614 129.23 346.87 135.199 346.87 142.561 C 346.87 144.139 347.134 145.652 347.619 147.056 C 340.21 148.212 334.529 154.854 334.529 162.875 C 334.529 188.93 399.968 185.676 411.798 185.314 C 419.023 194.468 432.066 198.394 443.177 196.336 C 437.567 193.706 432.818 188.723 429.445 183.922 C 441.438 182.28 463.802 177.868 463.802 161.605 C 463.802 154.966 459.91 149.273 454.368 146.852 Z " fill-rule="evenodd" fill="rgb(254,254,254)"/><path d=" M 433.179 193.094 C 429.732 189.769 427.287 185.951 424.558 182.066 L 430.168 181.298 C 440.45 179.891 461.543 176.097 461.543 162.399 C 461.543 157.453 458.746 152.802 454.177 150.807 L 450.832 149.346 L 452.48 146.088 C 453.468 144.136 453.967 141.986 453.967 139.799 C 453.967 132.644 448.479 126.363 441.166 126.363 C 439.604 126.363 438.067 126.657 436.617 127.237 L 432.505 128.881 L 431.917 124.491 C 430.696 115.376 423.208 108.081 413.858 108.081 C 406.413 108.081 399.952 112.763 397.125 119.562 L 395.12 124.386 L 391.471 120.647 C 389.037 118.153 385.775 116.715 382.273 116.715 C 374.751 116.715 369.105 123.172 369.105 130.532 C 369.105 130.652 369.107 130.772 369.11 130.892 L 369.241 136.205 L 364.335 134.162 C 363.24 133.705 362.076 133.473 360.89 133.473 C 355.518 133.473 351.51 138.108 351.51 143.355 C 351.51 144.502 351.696 145.64 352.07 146.725 L 353.415 150.623 L 349.341 151.258 C 343.317 152.199 339.169 157.67 339.169 163.669 C 339.169 165.251 339.481 166.76 340.167 168.188 C 344.828 177.893 365.073 180.87 374.48 181.868 C 382.183 182.685 389.981 182.971 397.725 182.975 C 402.795 182.978 407.82 182.815 412.883 182.66 L 414.053 182.706 L 415.129 184.07 C 419.473 189.573 426.127 192.072 433.179 193.094 Z " fill-rule="evenodd" fill="rgb(150,53,55)"/><path d=" M 433.179 193.094 C 430.923 190.985 428.907 188.632 427.174 186.241 L 423.972 181.825 L 429.49 181.093 C 439.604 179.752 460.352 176.135 460.352 163.078 C 460.352 158.363 457.601 153.93 453.107 152.028 L 449.817 150.635 L 451.438 147.53 C 452.41 145.669 452.9 143.62 452.9 141.535 C 452.9 134.715 447.502 128.728 440.309 128.728 C 438.773 128.728 437.26 129.008 435.833 129.561 L 431.789 131.128 L 431.211 126.943 C 430.01 118.255 422.644 111.301 413.447 111.301 C 406.124 111.301 399.769 115.764 396.988 122.245 L 395.015 126.843 L 391.426 123.279 C 389.032 120.902 385.823 119.531 382.378 119.531 C 374.98 119.531 369.426 125.686 369.426 132.701 C 369.426 132.816 369.428 132.93 369.431 133.045 L 369.56 138.109 L 364.734 136.162 C 363.657 135.727 362.512 135.506 361.346 135.506 C 356.062 135.506 352.119 139.923 352.119 144.924 C 352.119 146.018 352.302 147.103 352.67 148.137 L 353.993 151.853 L 349.986 152.459 C 344.06 153.355 339.98 158.57 339.98 164.288 C 339.98 165.796 340.287 167.235 340.962 168.597 C 345.546 177.847 365.46 180.685 374.713 181.636 C 382.29 182.415 389.961 182.688 397.578 182.692 C 402.565 182.694 407.508 182.539 412.489 182.392 L 414.197 182.341 L 415.256 183.641 C 419.528 188.887 426.242 192.12 433.179 193.094 Z " fill-rule="evenodd" fill="rgb(232,84,94)"/></g></svg>