<?xml version="1.0" encoding="UTF-8" standalone="no"?><!-- Generator: Gravit.io --><svg xmlns="http://www.w3.org/2000/svg" xmlns:xlink="http://www.w3.org/1999/xlink" style="isolation:isolate" viewBox="353.012 147.23 119.988 66.722" width="119.988pt" height="66.722pt"><g><path d=" M 356.26 167.432 C 357.527 167.432 358.509 167.463 359.488 167.426 C 363.898 167.259 368.306 167.055 372.715 166.898 C 382.038 166.567 391.361 166.237 400.686 165.961 C 401.73 165.93 402.789 166.221 403.833 166.408 C 404.734 166.571 405.021 167.251 405.026 168.067 C 405.041 170.04 405.011 172.012 405.031 173.984 C 405.07 177.955 405.089 181.925 405.197 185.894 C 405.307 189.953 405.499 194.011 405.69 198.068 C 405.735 199.028 405.92 199.981 406.059 201.079 C 408.297 201.152 410.291 201.111 412.263 201.305 C 416.736 201.747 421.209 201.858 425.703 201.755 C 432.655 201.595 439.611 201.569 446.564 201.489 C 447.522 201.478 448.225 201.874 448.973 202.533 C 450.424 203.814 449.917 205.433 450.037 206.94 C 450.138 208.217 450.091 209.505 450.111 210.903 C 451.744 210.244 467.99 197.274 468.686 196.227 C 462.451 192.664 456.215 189.101 449.831 185.454 C 449.215 188.324 450.014 191.189 448.522 193.772 C 447.84 193.772 447.185 193.785 446.53 193.769 C 441.546 193.65 436.559 193.421 431.574 193.429 C 426.422 193.437 421.27 193.68 416.116 193.803 C 414.834 193.833 414.352 193.226 414.542 191.914 C 414.647 191.182 414.855 190.45 414.859 189.718 C 414.869 187.809 414.732 185.899 414.76 183.992 C 414.883 175.36 415.098 166.73 415.154 158.1 C 415.17 155.554 414.779 153.007 414.57 150.424 C 413.698 150.221 413.062 149.964 412.416 149.942 C 409.672 149.845 406.926 149.822 404.18 149.764 C 401.938 149.716 399.695 149.632 397.454 149.604 C 392.207 149.536 386.954 149.328 381.713 149.478 C 375.148 149.666 368.594 150.148 362.035 150.517 C 360.005 150.63 357.978 150.787 355.595 150.948 C 355.819 156.517 356.035 161.856 356.26 167.432 Z  M 446.99 203.94 C 441.352 203.94 435.804 203.975 430.256 203.932 C 422.19 203.869 414.125 203.791 406.063 203.599 C 405.112 203.576 404.18 202.797 403.514 202.494 C 403.116 190.966 402.73 179.819 402.335 168.297 C 398.772 168.444 395.477 168.632 392.18 168.702 C 386.612 168.821 381.037 168.746 375.475 168.974 C 369.084 169.234 362.697 169.68 356.318 170.165 C 354.195 170.326 353.344 169.287 353.799 167.226 C 354.145 165.658 354.027 163.956 353.92 162.327 C 353.686 158.791 353.304 155.265 353.024 151.731 C 352.869 149.764 354.283 148.34 356.295 148.296 C 362.026 148.172 367.76 148.082 373.488 147.878 C 377.721 147.729 381.944 147.277 386.174 147.233 C 390.072 147.191 393.975 147.567 397.878 147.655 C 400.039 147.703 402.205 147.45 404.367 147.489 C 408.018 147.555 411.668 147.736 415.316 147.884 C 416.38 147.928 417.016 148.427 417.035 149.578 C 417.091 152.772 417.165 155.966 417.241 159.16 C 417.29 161.212 417.383 163.264 417.404 165.316 C 417.426 167.42 417.375 169.525 417.373 171.629 C 417.367 177.92 417.371 184.212 417.371 190.474 C 419.472 191.34 438.012 191.748 446.632 191.123 C 446.752 189.283 446.825 187.402 447.018 185.532 C 447.098 184.746 447.24 183.847 447.687 183.244 C 448.518 182.122 449.45 182.127 450.737 182.926 C 454.27 185.12 457.74 187.423 461.361 189.461 C 464.611 191.29 468.007 192.864 471.377 194.471 C 473.358 195.415 473.559 196.276 471.795 197.646 C 468.711 200.042 465.52 202.302 462.454 204.721 C 459.264 207.239 456.188 209.905 453.014 212.444 C 452.256 213.048 451.346 213.582 450.42 213.827 C 448.643 214.297 447.666 213.42 447.54 211.535 C 447.375 209.068 447.184 206.602 446.99 203.94 Z " fill-rule="evenodd" fill="rgb(78,46,80)"/><path d=" M 356.26 167.432 C 356.035 161.856 355.819 156.517 355.595 150.948 C 357.978 150.787 360.005 150.63 362.035 150.517 C 368.594 150.148 375.148 149.666 381.713 149.478 C 386.954 149.328 392.207 149.536 397.454 149.604 C 399.695 149.632 401.938 149.716 404.18 149.764 C 406.926 149.822 409.672 149.845 412.416 149.942 C 413.062 149.964 413.698 150.221 414.57 150.424 C 414.779 153.007 415.17 155.554 415.154 158.1 C 415.098 166.73 414.883 175.36 414.76 183.992 C 414.732 185.899 414.869 187.809 414.859 189.718 C 414.855 190.45 414.647 191.182 414.542 191.914 C 414.352 193.226 414.834 193.833 416.116 193.803 C 421.27 193.68 426.422 193.437 431.574 193.429 C 436.559 193.421 441.546 193.65 446.53 193.769 C 447.185 193.785 447.84 193.772 448.522 193.772 C 450.014 191.189 449.215 188.324 449.831 185.454 C 456.215 189.101 462.451 192.664 468.686 196.227 C 467.99 197.274 451.744 210.244 450.111 210.903 C 450.091 209.505 450.138 208.217 450.037 206.94 C 449.917 205.433 450.424 203.814 448.973 202.533 C 448.225 201.874 447.522 201.478 446.564 201.489 C 439.611 201.569 432.655 201.595 425.703 201.755 C 421.209 201.858 416.736 201.747 412.263 201.305 C 410.291 201.111 408.297 201.152 406.059 201.079 C 405.92 199.981 405.735 199.028 405.69 198.068 C 405.499 194.011 405.307 189.953 405.197 185.894 C 405.089 181.925 405.07 177.955 405.031 173.984 C 405.011 172.012 405.041 170.04 405.026 168.067 C 405.021 167.251 404.734 166.571 403.833 166.408 C 402.789 166.221 401.73 165.93 400.686 165.961 C 391.361 166.237 382.038 166.567 372.715 166.898 C 368.306 167.055 363.898 167.259 359.488 167.426 C 358.509 167.463 357.527 167.432 356.26 167.432 Z " fill-rule="evenodd" fill="rgb(114,204,234)"/></g></svg>