<?xml version="1.0" encoding="UTF-8" standalone="no"?><!-- Generator: Gravit.io --><svg xmlns="http://www.w3.org/2000/svg" xmlns:xlink="http://www.w3.org/1999/xlink" style="isolation:isolate" viewBox="207.563 44.208 73.396 79.994" width="73.396pt" height="79.994pt"><g><path d=" M 257.938 69.301 C 263.693 64.687 269.663 60.921 276.826 58.441 C 270.212 54.549 263.989 50.887 257.735 47.207 C 257.479 48.924 257.282 50.39 257.037 51.848 C 256.809 53.2 256.094 53.767 254.605 53.699 C 252.874 53.619 251.102 53.758 249.388 54.047 C 245.044 54.779 240.676 55.457 236.408 56.519 C 232.716 57.438 228.904 58.393 225.572 60.14 C 216.346 64.977 211.849 73.254 209.992 83.187 C 209.949 83.416 210.059 83.67 210.067 83.914 C 210.238 89.161 210.821 94.361 212.662 99.302 C 213.755 102.236 214.809 105.349 216.648 107.81 C 222.32 115.4 229.811 120.189 239.521 120.85 C 245.331 121.245 251.146 121.635 256.967 121.791 C 260.586 121.887 264.259 121.956 267.759 120.829 C 268.214 116.842 267.304 108.291 266.185 106.246 C 263.923 106.415 261.592 106.466 259.3 106.782 C 251.627 107.838 244.014 107.411 236.519 105.653 C 229.513 104.01 224.377 99.998 222.102 92.909 C 221.064 89.677 221.24 86.336 221.411 83.02 C 221.744 76.552 224.965 71.639 230.201 68.14 C 236.029 64.244 242.588 62.091 249.558 61.383 C 252.074 61.128 254.637 61.342 257.304 61.342 C 257.517 64.009 257.718 66.535 257.938 69.301 Z  M 254.723 50.822 C 254.815 49.514 255.035 48.104 254.976 46.706 C 254.925 45.508 255.496 44.663 256.384 44.305 C 256.992 44.06 258.027 44.312 258.633 44.707 C 265.316 49.069 272.082 53.286 279.17 56.974 C 279.807 57.306 280.389 57.741 280.959 58.103 C 280.705 59.566 279.828 60.097 278.738 60.417 C 274.074 61.787 269.727 63.855 265.732 66.602 C 263.413 68.198 261.189 69.946 259.024 71.748 C 258.348 72.312 257.766 73.036 256.936 72.49 C 256.318 72.083 255.664 71.316 255.557 70.627 C 255.25 68.671 255.219 66.671 255.072 64.688 C 255.055 64.449 255 64.212 254.943 63.86 C 252.042 63.46 249.172 63.491 246.336 64.222 C 240.768 65.658 235.262 67.264 230.611 70.862 C 226.347 74.16 223.99 78.478 223.938 83.897 C 223.914 86.29 223.974 88.721 224.366 91.073 C 225.236 96.278 228.146 100.025 233.08 102.077 C 239.521 104.756 246.311 105.257 253.156 104.939 C 257.877 104.719 262.577 104.079 267.283 103.608 C 269.049 103.431 269.352 103.557 269.475 105.323 C 269.851 110.688 270.12 116.061 270.475 121.427 C 270.561 122.726 269.836 123.291 268.766 123.452 C 266.718 123.761 264.654 124.116 262.592 124.159 C 253.756 124.345 244.936 123.955 236.192 122.644 C 228.225 121.449 221.825 117.413 216.443 111.486 C 212.507 107.149 210.39 102.083 209.154 96.462 C 208.367 92.883 207.606 89.322 207.565 85.654 C 207.549 84.168 207.633 82.655 207.896 81.195 C 210.025 69.301 216.73 60.917 227.87 56.37 C 231.674 54.817 235.891 54.205 239.964 53.386 C 244.756 52.422 249.596 51.701 254.723 50.822 Z " fill-rule="evenodd" fill="rgb(78,46,80)"/><path d=" M 257.938 69.301 C 257.718 66.535 257.517 64.009 257.304 61.342 C 254.637 61.342 252.074 61.128 249.558 61.383 C 242.588 62.091 236.029 64.244 230.201 68.14 C 224.965 71.639 221.744 76.552 221.411 83.02 C 221.24 86.336 221.064 89.677 222.102 92.909 C 224.377 99.998 229.513 104.01 236.519 105.653 C 244.014 107.411 251.627 107.838 259.3 106.782 C 261.592 106.466 263.923 106.415 266.185 106.246 C 267.304 108.291 268.214 116.842 267.759 120.829 C 264.259 121.956 260.586 121.887 256.967 121.791 C 251.146 121.635 245.331 121.245 239.521 120.85 C 229.811 120.189 222.32 115.4 216.648 107.81 C 214.809 105.349 213.755 102.236 212.662 99.302 C 210.821 94.361 210.238 89.161 210.067 83.914 C 210.059 83.67 209.949 83.416 209.992 83.187 C 211.849 73.254 216.346 64.977 225.572 60.14 C 228.904 58.393 232.716 57.438 236.408 56.519 C 240.676 55.457 245.044 54.779 249.388 54.047 C 251.102 53.758 252.874 53.619 254.605 53.699 C 256.094 53.767 256.809 53.2 257.037 51.848 C 257.282 50.39 257.479 48.924 257.735 47.207 C 263.989 50.887 270.212 54.549 276.826 58.441 C 269.663 60.921 263.693 64.687 257.938 69.301 Z " fill-rule="evenodd" fill="rgb(253,213,136)"/></g></svg>