<?xml version="1.0" encoding="UTF-8" standalone="no"?><!-- Generator: Gravit.io --><svg xmlns="http://www.w3.org/2000/svg" xmlns:xlink="http://www.w3.org/1999/xlink" style="isolation:isolate" viewBox="247.041 146.866 122.188 48.355" width="122.188pt" height="48.355pt"><g><path d=" M 341.053 162.432 C 340.976 165.214 341.027 167.553 340.812 169.867 C 340.592 172.222 339.165 172.825 337.19 171.593 C 336.562 171.202 335.937 170.776 335.258 170.496 C 329.432 168.083 323.594 165.7 317.76 163.305 C 315.761 162.487 313.749 161.696 311.766 160.837 C 303.764 157.376 295.772 153.888 287.769 150.427 C 287.201 150.18 286.571 150.078 285.699 149.833 C 285.568 151.393 285.44 152.696 285.354 154.004 C 285.294 154.917 285.388 155.848 285.245 156.744 C 284.62 160.632 284.505 164.526 284.955 168.439 C 285.068 169.429 285.202 170.444 285.111 171.427 C 284.983 172.779 283.982 173.188 282.803 172.597 C 278.879 170.624 274.957 168.643 270.993 166.749 C 266.649 164.67 262.277 162.645 257.885 160.67 C 255.278 159.499 252.61 158.466 249.822 157.31 C 248.702 163.001 250.442 168.372 249.535 173.607 C 251.109 174.311 252.386 174.912 253.686 175.458 C 259.572 177.93 265.47 180.374 271.353 182.851 C 274.706 184.262 278.031 185.742 281.39 187.142 C 283.369 187.968 285.361 188.779 287.397 189.444 C 289.56 190.148 291.584 191.366 294.166 191.502 C 294.124 188.872 294.166 186.405 294.026 183.949 C 293.817 180.212 293.469 176.482 293.212 172.749 C 293.136 171.668 293.172 170.581 293.148 169.497 C 293.124 168.381 293.791 168.04 294.755 168.102 C 295.163 168.127 295.571 168.261 295.967 168.384 C 298.817 169.284 301.661 170.202 304.513 171.099 C 314.259 174.167 323.984 177.304 333.772 180.237 C 336.111 180.938 338.265 182.452 340.921 182.132 C 341.261 182.09 341.923 182.939 342.065 183.473 C 342.272 184.254 342.135 185.126 342.162 185.96 C 342.206 187.417 342.262 188.873 342.319 190.476 C 349.974 185.733 357.325 181.176 364.722 176.592 C 356.955 171.946 349.168 167.286 341.053 162.432 Z  M 339.322 184.613 C 325.107 179.199 310.679 175.142 296.273 170.994 C 296.342 175.332 296.355 179.472 296.491 183.607 C 296.594 186.765 296.901 189.915 296.997 193.072 C 297.016 193.712 296.502 194.367 296.147 195.222 C 294.762 194.708 293.613 194.313 292.487 193.859 C 289.721 192.742 286.969 191.587 284.205 190.465 C 282.21 189.655 280.18 188.926 278.206 188.066 C 271.962 185.348 265.771 182.505 259.49 179.873 C 256.051 178.433 252.467 177.337 248.958 176.059 C 247.121 175.388 247.086 175.359 247.217 173.389 C 247.417 170.399 247.418 167.432 247.148 164.429 C 246.905 161.714 247.134 158.949 247.254 156.21 C 247.34 154.242 247.977 153.884 249.748 154.695 C 254.484 156.865 259.192 159.094 263.939 161.238 C 268.476 163.286 273.055 165.238 277.6 167.27 C 279.003 167.896 280.352 168.641 281.939 169.44 C 282.08 168.696 282.203 168.316 282.218 167.932 C 282.379 163.612 282.523 159.291 282.675 154.972 C 282.737 153.225 282.905 151.475 282.84 149.734 C 282.799 148.674 282.67 147.5 283.758 147.16 C 284.774 146.843 286.228 146.689 287.05 147.19 C 292.603 150.58 298.656 152.855 304.592 155.402 C 304.972 155.567 305.38 155.677 305.746 155.866 C 311.733 158.956 318.153 161.002 324.347 163.589 C 328.246 165.216 332.116 166.912 336.007 168.556 C 336.612 168.811 337.266 168.954 338.067 169.203 C 338.649 167.023 338.322 164.871 338.477 162.761 C 338.565 161.563 337.904 160.08 339.167 159.265 C 340.504 158.401 341.456 159.709 342.47 160.326 C 348.818 164.194 355.137 168.114 361.504 171.953 C 363.633 173.236 365.894 174.302 368.051 175.543 C 368.561 175.836 369.298 176.517 369.223 176.868 C 369.093 177.476 368.515 178.246 367.942 178.46 C 361.978 180.691 356.712 184.139 351.515 187.713 C 348.444 189.825 345.413 191.994 342.345 194.109 C 341.427 194.74 340.305 194.314 339.989 193.218 C 339.831 192.669 339.863 192.066 339.819 191.485 C 339.656 189.254 339.496 187.023 339.322 184.613 Z " fill-rule="evenodd" fill="rgb(78,46,80)"/><path d=" M 341.053 162.432 C 349.168 167.286 356.955 171.946 364.722 176.592 C 357.325 181.176 349.974 185.733 342.319 190.476 C 342.262 188.873 342.206 187.417 342.162 185.96 C 342.135 185.126 342.272 184.254 342.065 183.473 C 341.923 182.939 341.261 182.09 340.921 182.132 C 338.265 182.452 336.111 180.938 333.772 180.237 C 323.984 177.304 314.259 174.167 304.513 171.099 C 301.661 170.202 298.817 169.284 295.967 168.384 C 295.571 168.261 295.163 168.127 294.755 168.102 C 293.791 168.04 293.124 168.381 293.148 169.497 C 293.172 170.581 293.136 171.668 293.212 172.749 C 293.469 176.482 293.817 180.212 294.026 183.949 C 294.166 186.405 294.124 188.872 294.166 191.502 C 291.584 191.366 289.56 190.148 287.397 189.444 C 285.361 188.779 283.369 187.968 281.39 187.142 C 278.031 185.742 274.706 184.262 271.353 182.851 C 265.47 180.374 259.572 177.93 253.686 175.458 C 252.386 174.912 251.109 174.311 249.535 173.607 C 250.442 168.372 248.702 163.001 249.822 157.31 C 252.61 158.466 255.278 159.499 257.885 160.67 C 262.277 162.645 266.649 164.67 270.993 166.749 C 274.957 168.643 278.879 170.624 282.803 172.597 C 283.982 173.188 284.983 172.779 285.111 171.427 C 285.202 170.444 285.068 169.429 284.955 168.439 C 284.505 164.526 284.62 160.632 285.245 156.744 C 285.388 155.848 285.294 154.917 285.354 154.004 C 285.44 152.696 285.568 151.393 285.699 149.833 C 286.571 150.078 287.201 150.18 287.769 150.427 C 295.772 153.888 303.764 157.376 311.766 160.837 C 313.749 161.696 315.761 162.487 317.76 163.305 C 323.594 165.7 329.432 168.083 335.258 170.496 C 335.937 170.776 336.562 171.202 337.19 171.593 C 339.165 172.825 340.592 172.222 340.812 169.867 C 341.027 167.553 340.976 165.214 341.053 162.432 Z " fill-rule="evenodd" fill="rgb(235,219,235)"/></g></svg>