<?xml version="1.0" encoding="UTF-8" standalone="no"?><!-- Generator: Gravit.io --><svg xmlns="http://www.w3.org/2000/svg" xmlns:xlink="http://www.w3.org/1999/xlink" style="isolation:isolate" viewBox="59.147 410.208 125.059 44.402" width="125.059pt" height="44.402pt"><g><path d=" M 180.798 431.332 C 179.907 430.906 179.429 430.6 178.906 430.438 C 170.303 427.766 162.15 423.973 153.896 420.438 C 148.932 418.313 144.046 416 139.115 413.797 C 138.573 413.555 137.956 413.477 136.973 413.217 C 138.492 416.453 139.746 419.338 141.2 422.117 C 141.742 423.15 141.781 423.98 141.239 424.906 C 140.733 425.77 139.886 425.717 139.029 425.681 C 133.375 425.44 127.717 425.296 122.068 424.971 C 113.114 424.454 104.165 423.85 95.217 423.225 C 91.655 422.977 88.105 422.574 84.55 422.242 C 78.097 421.643 71.645 421.033 65.19 420.453 C 64.345 420.377 63.487 420.441 62.028 420.441 C 64.727 424.305 67.023 427.738 69.494 431.04 C 70.267 432.073 70.482 432.717 69.715 433.851 C 67.997 436.393 66.457 439.055 64.826 441.657 C 64.049 442.895 63.23 444.105 62.241 445.617 C 63.555 445.617 64.453 445.693 65.334 445.604 C 68.146 445.313 70.952 444.969 73.759 444.635 C 78.877 444.023 83.985 443.318 89.113 442.809 C 96.81 442.041 104.523 441.432 112.226 440.713 C 121.421 439.855 130.614 438.963 139.807 438.068 C 141.762 437.878 142.198 438.377 141.569 440.248 C 140.802 442.53 139.976 444.797 139.241 447.09 C 138.824 448.387 138.538 449.727 138.094 451.43 C 138.895 451.119 139.273 451.012 139.615 450.835 C 143.375 448.887 147.122 446.914 150.886 444.977 C 153.618 443.57 156.313 442.072 159.129 440.857 C 163.777 438.852 168.504 437.026 173.208 435.152 C 175.736 434.145 178.123 432.896 180.798 431.332 Z  M 59.147 419.827 C 59.693 417.92 60.89 417.553 62.479 417.732 C 69.5 418.525 76.519 419.342 83.549 420.043 C 90.174 420.705 96.805 421.375 103.449 421.785 C 110.755 422.236 118.079 422.393 125.395 422.685 C 129.22 422.836 133.045 423.004 136.87 423.16 C 137.281 423.176 137.694 423.162 138.524 423.162 C 138.206 422.168 138.005 421.342 137.678 420.57 C 136.514 417.821 135.266 415.108 134.133 412.347 C 133.554 410.936 133.918 410.369 135.43 410.231 C 136.133 410.168 136.933 410.227 137.568 410.504 C 145.641 414.028 153.727 417.523 161.736 421.186 C 168.924 424.475 176.33 427.143 183.974 429.535 C 184.624 431.207 183.836 432.473 182.446 433.215 C 179.452 434.816 176.387 436.297 173.292 437.695 C 169.207 439.543 165.016 441.16 160.959 443.066 C 155.325 445.715 149.762 448.518 144.193 451.303 C 142.41 452.195 140.745 453.328 138.947 454.184 C 138.183 454.549 137.189 454.683 136.346 454.572 C 134.983 454.396 134.692 453.919 135.06 452.498 C 135.786 449.689 136.629 446.91 137.443 444.127 C 137.766 443.023 138.141 441.938 138.565 440.61 C 137.753 440.61 137.197 440.561 136.652 440.618 C 132.018 441.109 127.391 441.679 122.752 442.109 C 118.197 442.531 113.626 442.762 109.071 443.178 C 101.946 443.83 94.829 444.561 87.71 445.271 C 83.671 445.676 79.63 446.066 75.599 446.539 C 71.396 447.031 67.205 447.617 63.007 448.16 C 62.925 448.171 62.841 448.173 62.759 448.188 C 61.357 448.436 59.849 448.335 59.338 446.926 C 59.053 446.14 59.577 444.836 60.117 444.016 C 61.761 441.522 63.592 439.152 65.346 436.732 C 65.786 436.125 66.311 435.551 66.612 434.881 C 67.202 433.566 67.349 432.361 66.375 430.962 C 63.86 427.354 61.568 423.591 59.147 419.827 Z " fill-rule="evenodd" fill="rgb(78,46,80)"/><path d=" M 180.798 431.332 C 178.123 432.896 175.736 434.145 173.208 435.152 C 168.504 437.026 163.777 438.852 159.129 440.857 C 156.313 442.072 153.618 443.57 150.886 444.977 C 147.122 446.914 143.375 448.887 139.615 450.835 C 139.273 451.012 138.895 451.119 138.094 451.43 C 138.538 449.727 138.824 448.387 139.241 447.09 C 139.976 444.797 140.802 442.53 141.569 440.248 C 142.198 438.377 141.762 437.878 139.807 438.068 C 130.614 438.963 121.421 439.855 112.226 440.713 C 104.523 441.432 96.81 442.041 89.113 442.809 C 83.985 443.318 78.877 444.023 73.759 444.635 C 70.952 444.969 68.146 445.313 65.334 445.604 C 64.453 445.693 63.555 445.617 62.241 445.617 C 63.23 444.105 64.049 442.895 64.826 441.657 C 66.457 439.055 67.997 436.393 69.715 433.851 C 70.482 432.717 70.267 432.073 69.494 431.04 C 67.023 427.738 64.727 424.305 62.028 420.441 C 63.487 420.441 64.345 420.377 65.19 420.453 C 71.645 421.033 78.097 421.643 84.55 422.242 C 88.105 422.574 91.655 422.977 95.217 423.225 C 104.165 423.85 113.114 424.454 122.068 424.971 C 127.717 425.296 133.375 425.44 139.029 425.681 C 139.886 425.717 140.733 425.77 141.239 424.906 C 141.781 423.98 141.742 423.15 141.2 422.117 C 139.746 419.338 138.492 416.453 136.973 413.217 C 137.956 413.477 138.573 413.555 139.115 413.797 C 144.046 416 148.932 418.313 153.896 420.438 C 162.15 423.973 170.303 427.766 178.906 430.438 C 179.429 430.6 179.907 430.906 180.798 431.332 Z " fill-rule="evenodd" fill="rgb(203,154,197)"/></g></svg>