<?xml version="1.0" encoding="UTF-8" standalone="no"?><!-- Generator: Gravit.io --><svg xmlns="http://www.w3.org/2000/svg" xmlns:xlink="http://www.w3.org/1999/xlink" style="isolation:isolate" viewBox="29.506 46.288 146.79 45.751" width="146.79pt" height="45.751pt"><g><path d=" M 173.584 66.264 C 161.957 60.498 150.754 54.943 139.229 49.228 C 139.03 52.484 138.794 55.282 138.709 58.084 C 138.642 60.296 137.835 61.128 135.693 60.905 C 134.783 60.81 133.869 60.697 132.956 60.695 C 128.133 60.685 123.31 60.688 118.486 60.73 C 116.66 60.745 114.834 60.947 113.008 60.943 C 109.184 60.933 105.361 60.825 101.538 60.787 C 96.718 60.74 91.899 60.695 87.081 60.695 C 80.259 60.696 73.43 60.581 66.616 60.816 C 61.557 60.992 56.528 61.496 51.437 61.254 C 45.887 60.992 40.314 61.215 34.751 61.226 C 34.106 61.227 33.461 61.226 32.605 61.226 C 32.623 67.843 31.365 74.241 32.269 80.784 C 33.02 80.872 33.585 81.017 34.144 80.991 C 39.952 80.727 45.759 80.425 51.568 80.154 C 59.131 79.802 66.693 79.409 74.259 79.145 C 81.416 78.895 88.578 78.8 95.736 78.618 C 103.483 78.42 111.23 78.216 118.977 77.982 C 124.298 77.823 129.618 77.596 134.94 77.427 C 135.938 77.396 136.938 77.53 137.939 77.541 C 138.961 77.553 139.467 78.165 139.65 79.041 C 139.784 79.683 139.688 80.369 139.77 81.025 C 140.1 83.681 140.457 86.334 140.862 89.431 C 152.173 81.965 162.16 73.442 173.584 66.264 Z  M 135.805 58.537 C 136.112 55.357 136.325 52.395 136.723 49.459 C 136.859 48.457 137.462 47.519 137.959 46.288 C 139.985 47.255 141.766 48.074 143.52 48.947 C 152.449 53.389 161.371 57.848 170.298 62.295 C 171.858 63.073 173.476 63.748 174.99 64.606 C 176.784 65.621 176.704 67.046 174.916 68.185 C 171.91 70.102 168.847 71.941 165.941 74.001 C 162.351 76.545 158.918 79.308 155.382 81.929 C 151.045 85.145 146.684 88.327 142.296 91.474 C 141.806 91.826 141.09 91.961 140.464 92.006 C 138.651 92.133 138.504 91.961 138.291 90.19 C 137.883 86.814 137.459 83.44 137.036 80.01 C 136.591 79.871 136.205 79.647 135.817 79.645 C 132.568 79.622 129.319 79.599 126.071 79.661 C 124.084 79.699 122.104 79.942 120.117 80.004 C 107.562 80.398 95.008 80.778 82.452 81.131 C 80.376 81.19 78.292 81.019 76.216 81.084 C 73.269 81.178 70.327 81.444 67.379 81.539 C 64.237 81.641 61.09 81.565 57.949 81.687 C 55.124 81.795 52.307 82.085 49.483 82.258 C 46.582 82.436 43.677 82.563 40.775 82.721 C 37.957 82.875 35.139 83.036 32.32 83.199 C 30.291 83.317 29.689 82.945 29.635 80.922 C 29.545 77.538 29.366 74.163 29.702 70.756 C 30.027 67.475 29.853 64.138 29.789 60.829 C 29.756 59.155 30.254 58.641 31.988 58.759 C 34.891 58.956 37.797 59.125 40.705 59.197 C 45.601 59.318 50.501 59.409 55.397 59.402 C 57.975 59.398 60.549 59.128 63.127 59.036 C 65.613 58.948 68.1 58.921 70.587 58.891 C 74.142 58.848 77.698 58.791 81.252 58.808 C 83.99 58.819 86.729 59.019 89.464 58.986 C 98.692 58.873 107.92 58.654 117.148 58.55 C 123.295 58.481 129.444 58.537 135.805 58.537 Z " fill-rule="evenodd" fill="rgb(78,46,80)"/><path d=" M 173.584 66.264 C 162.16 73.442 152.173 81.965 140.862 89.431 C 140.457 86.334 140.1 83.681 139.77 81.025 C 139.688 80.369 139.784 79.683 139.65 79.041 C 139.467 78.165 138.961 77.553 137.939 77.541 C 136.938 77.53 135.938 77.396 134.94 77.427 C 129.618 77.596 124.298 77.823 118.977 77.982 C 111.23 78.216 103.483 78.42 95.736 78.618 C 88.578 78.8 81.416 78.895 74.259 79.145 C 66.693 79.409 59.131 79.802 51.568 80.154 C 45.759 80.425 39.952 80.727 34.144 80.991 C 33.585 81.017 33.02 80.872 32.269 80.784 C 31.365 74.241 32.623 67.843 32.605 61.226 C 33.461 61.226 34.106 61.227 34.751 61.226 C 40.314 61.215 45.887 60.992 51.437 61.254 C 56.528 61.496 61.557 60.992 66.616 60.816 C 73.43 60.581 80.259 60.696 87.081 60.695 C 91.899 60.695 96.718 60.74 101.538 60.787 C 105.361 60.825 109.184 60.933 113.008 60.943 C 114.834 60.947 116.66 60.745 118.486 60.73 C 123.31 60.688 128.133 60.685 132.956 60.695 C 133.869 60.697 134.783 60.81 135.693 60.905 C 137.835 61.128 138.642 60.296 138.709 58.084 C 138.794 55.282 139.03 52.484 139.229 49.228 C 150.754 54.943 161.957 60.498 173.584 66.264 Z " fill-rule="evenodd" fill="rgb(114,204,234)"/></g></svg>