<?xml version="1.0" encoding="UTF-8" standalone="no"?><!-- Generator: Gravit.io --><svg xmlns="http://www.w3.org/2000/svg" xmlns:xlink="http://www.w3.org/1999/xlink" style="isolation:isolate" viewBox="102.376 188.903 104.067 31.83" width="104.067pt" height="31.83pt"><g><path d=" M 183.682 192.23 C 183.472 192.351 183.261 192.47 183.05 192.591 C 183.05 194.977 183.117 197.365 183.029 199.749 C 182.95 201.903 182.45 202.36 180.263 202.34 C 178.603 202.325 176.946 202.079 175.284 202.017 C 167.481 201.722 159.709 201.029 151.872 201.176 C 144.079 201.322 136.268 200.817 128.474 200.421 C 122.495 200.117 116.533 199.503 110.56 199.103 C 108.859 198.989 107.102 198.665 105.251 199.472 C 105.725 203.263 104.693 207.023 105.073 211 C 106.063 211 106.801 211.041 107.533 210.994 C 111.936 210.712 116.334 210.351 120.74 210.128 C 128.805 209.719 136.874 209.373 144.943 209.033 C 147.851 208.911 150.767 208.939 153.674 208.796 C 161.076 208.431 168.477 208.025 175.875 207.594 C 177.785 207.484 179.683 207.163 181.593 207.045 C 183.46 206.931 183.758 207.384 183.698 209.172 C 183.612 211.709 183.676 214.25 183.676 217.347 C 190.435 212.853 196.683 208.699 203.226 204.35 C 196.459 200.144 190.306 195.807 183.682 192.23 Z  M 180.854 209.556 C 178.985 209.556 177.492 209.509 176.001 209.565 C 173.101 209.676 170.202 209.841 167.302 209.99 C 157.186 210.507 147.071 211.055 136.953 211.533 C 132.221 211.757 127.478 211.768 122.75 212.027 C 119.099 212.227 115.462 212.667 111.82 212.995 C 109.501 213.204 107.183 213.462 104.859 213.583 C 103.069 213.676 102.907 213.508 102.533 211.753 C 102.38 211.035 102.36 210.272 102.385 209.534 C 102.502 206.13 102.648 202.729 102.794 199.328 C 102.906 196.732 103.414 196.342 106 196.593 C 109.56 196.938 113.125 197.241 116.691 197.522 C 122.162 197.955 127.632 198.414 133.109 198.747 C 136.433 198.949 139.77 198.95 143.102 199.018 C 151.334 199.185 159.569 199.295 167.8 199.512 C 171.87 199.621 175.937 199.913 180.313 200.138 C 180.439 197.53 180.694 195.077 180.627 192.631 C 180.584 191.057 180.905 189.871 182.468 188.903 C 184.025 189.803 185.688 190.71 187.296 191.705 C 193.233 195.382 199.15 199.09 205.08 202.78 C 206.888 203.906 206.896 204.895 205.112 206.075 C 199.438 209.826 193.768 213.58 188.104 217.347 C 186.601 218.347 185.188 219.497 183.625 220.388 C 182.488 221.039 181.836 220.779 181.601 219.516 C 181.255 217.672 181.216 215.77 181.081 213.89 C 180.98 212.498 180.933 211.102 180.854 209.556 Z " fill-rule="evenodd" fill="rgb(78,46,80)"/><path d=" M 183.682 192.23 C 190.306 195.807 196.459 200.144 203.226 204.35 C 196.683 208.699 190.435 212.853 183.676 217.347 C 183.676 214.25 183.612 211.709 183.698 209.172 C 183.758 207.384 183.46 206.931 181.593 207.045 C 179.683 207.163 177.785 207.484 175.875 207.594 C 168.477 208.025 161.076 208.431 153.674 208.796 C 150.767 208.939 147.851 208.911 144.943 209.033 C 136.874 209.373 128.805 209.719 120.74 210.128 C 116.334 210.351 111.936 210.712 107.533 210.994 C 106.801 211.041 106.063 211 105.073 211 C 104.693 207.023 105.725 203.263 105.251 199.472 C 107.102 198.665 108.859 198.989 110.56 199.103 C 116.533 199.503 122.495 200.117 128.474 200.421 C 136.268 200.817 144.079 201.322 151.872 201.176 C 159.709 201.029 167.481 201.722 175.284 202.017 C 176.946 202.079 178.603 202.325 180.263 202.34 C 182.45 202.36 182.95 201.903 183.029 199.749 C 183.117 197.365 183.05 194.977 183.05 192.591 C 183.261 192.47 183.472 192.351 183.682 192.23 Z " fill-rule="evenodd" fill="rgb(235,219,235)"/></g></svg>