<?xml version="1.0" encoding="UTF-8" standalone="no"?><!-- Generator: Gravit.io --><svg xmlns="http://www.w3.org/2000/svg" xmlns:xlink="http://www.w3.org/1999/xlink" style="isolation:isolate" viewBox="29.178 291.317 59.155 43.613" width="59.155pt" height="43.613pt"><g><path d=" M 33.279 321.049 C 38.987 320.286 44.506 319.71 50.086 319.71 C 52.23 319.71 54.402 319.323 56.511 318.881 C 59.178 318.318 59.506 318.438 59.818 321.127 C 59.883 321.689 59.761 322.269 59.795 322.836 C 59.96 325.594 60.148 328.352 60.363 331.682 C 69.007 325.001 77.161 318.699 85.508 312.248 C 76.78 306.146 68.325 300.234 59.833 294.299 C 59.738 294.543 59.582 294.768 59.572 294.998 C 59.436 298.432 58.853 301.84 59.163 305.304 C 59.36 307.5 58.877 307.954 56.633 307.92 C 51.646 307.844 46.659 307.705 41.672 307.543 C 39.349 307.469 37.031 307.192 34.709 307.165 C 33.202 307.147 32.242 308.103 32.124 309.572 C 32.019 310.883 31.957 312.223 32.11 313.52 C 32.4 315.977 32.858 318.411 33.279 321.049 Z  M 60.361 334.93 C 57.752 333.783 57.781 333.783 57.775 331.289 C 57.773 330.213 57.707 329.124 57.534 328.062 C 57.204 326.028 56.777 324.01 56.339 321.723 C 55.899 321.723 55.272 321.699 54.647 321.727 C 51.904 321.848 49.161 322.127 46.422 322.084 C 41.725 322.008 37.146 322.834 32.559 323.621 C 30.194 324.025 30.023 323.896 29.669 321.606 C 29.016 317.387 29.043 313.182 29.577 308.958 C 29.71 307.9 29.597 306.814 29.597 305.799 C 31.355 304.072 33.475 304.783 35.353 304.816 C 40.918 304.918 46.476 305.283 52.038 305.516 C 53.433 305.576 54.834 305.525 56.266 305.525 C 56.562 301.781 56.843 298.164 57.135 294.547 C 57.183 293.968 57.172 293.355 57.368 292.824 C 57.987 291.149 59.066 290.871 60.546 291.986 C 61.671 292.834 62.766 293.725 63.841 294.635 C 68.166 298.297 73.106 301.072 77.745 304.28 C 80.681 306.31 83.69 308.234 86.635 310.251 C 88.914 311.812 88.897 312.871 86.595 314.585 C 83.525 316.868 80.427 319.113 77.35 321.388 C 76.418 322.076 75.419 322.717 74.621 323.543 C 70.842 327.451 66.127 330.164 61.956 333.566 C 61.443 333.986 60.949 334.426 60.361 334.93 Z " fill-rule="evenodd" fill="rgb(78,46,80)"/><path d=" M 33.279 321.049 C 32.858 318.411 32.4 315.977 32.11 313.52 C 31.957 312.223 32.019 310.883 32.124 309.572 C 32.242 308.103 33.202 307.147 34.709 307.165 C 37.031 307.192 39.349 307.469 41.672 307.543 C 46.659 307.705 51.646 307.844 56.633 307.92 C 58.877 307.954 59.36 307.5 59.163 305.304 C 58.853 301.84 59.436 298.432 59.572 294.998 C 59.582 294.768 59.738 294.543 59.833 294.299 C 68.325 300.234 76.78 306.146 85.508 312.248 C 77.161 318.699 69.007 325.001 60.363 331.682 C 60.148 328.352 59.96 325.594 59.795 322.836 C 59.761 322.269 59.883 321.689 59.818 321.127 C 59.506 318.438 59.178 318.318 56.511 318.881 C 54.402 319.323 52.23 319.71 50.086 319.71 C 44.506 319.71 38.987 320.286 33.279 321.049 Z " fill-rule="evenodd" fill="rgb(235,219,235)"/></g></svg>