<?xml version="1.0" encoding="UTF-8" standalone="no"?><!-- Generator: Gravit.io --><svg xmlns="http://www.w3.org/2000/svg" xmlns:xlink="http://www.w3.org/1999/xlink" style="isolation:isolate" viewBox="218.22 141.957 44.119 179.677" width="44.119pt" height="179.677pt"><g><path d=" M 235.554 182.102 C 235.438 182.687 235.375 183.419 235.145 184.095 C 234.475 186.062 233.786 188.025 233.016 189.954 C 231.402 193.992 231.135 198.191 231.377 202.464 C 231.494 204.531 232.32 206.391 233.579 207.925 C 234.881 209.514 236.436 210.943 238.057 212.216 C 240.939 214.482 243.785 216.68 245.721 219.944 C 248.895 225.293 247.236 231.328 242.705 234.82 C 240.836 236.261 238.463 237.066 236.284 238.088 C 233.154 239.556 230.132 241.31 228.339 244.288 C 223.987 251.519 226.372 260.25 233.965 264.342 C 236.013 265.445 238.055 266.605 239.924 267.977 C 242.037 269.527 244.056 271.116 245.377 273.619 C 247.14 276.957 247.119 280.275 246.269 283.676 C 245.625 286.255 244.621 288.707 242.311 290.424 C 240.851 291.51 239.548 292.827 238.269 294.133 C 234.439 298.045 232.693 302.822 234.255 308.05 C 235.593 312.531 238.697 316.139 242.278 319.168 C 246.158 317.006 249.894 314.923 253.741 312.777 C 252.884 311.645 252.102 310.777 251.512 309.795 C 250.619 308.307 249.649 306.811 249.1 305.188 C 248.325 302.904 247.863 300.432 249.183 298.195 C 250.146 296.563 251.26 294.884 252.694 293.693 C 255.213 291.605 256.708 288.916 258.17 286.129 C 259.301 283.973 260.193 281.705 260.146 279.275 C 260.051 274.211 258.063 269.715 255.177 265.688 C 253.111 262.807 250.008 261.048 246.821 259.559 C 244.818 258.625 243.066 257.371 241.745 255.619 C 240.042 253.361 239.781 250.892 242.051 248.401 C 242.98 247.38 244.199 246.579 245.397 245.86 C 246.892 244.962 248.5 244.257 250.056 243.459 C 252.604 242.152 255 240.555 256.547 238.137 C 259.077 234.178 260.146 229.825 259.548 225.065 C 258.893 219.836 257.523 214.877 253.795 211.012 C 251.797 208.941 249.418 207.141 246.958 205.632 C 242.741 203.049 241.413 199.25 241.501 194.64 C 241.575 190.769 242.527 187.073 243.752 183.437 C 244.539 181.104 245.069 180.842 247.404 181.605 C 249.462 182.277 251.49 183.037 253.533 183.751 C 255.071 184.291 256.613 184.82 258.139 185.349 C 252.219 172.046 246.371 158.904 240.469 145.641 C 234.259 159.365 228.081 173.02 221.782 186.94 C 222.488 186.633 222.94 186.451 223.38 186.241 C 226.38 184.807 229.39 183.391 232.37 181.917 C 233.404 181.405 234.362 181.043 235.554 182.102 Z  M 232.442 184.628 C 229.875 185.858 227.652 186.941 225.414 187.992 C 223.685 188.804 221.956 189.623 220.19 190.351 C 218.815 190.918 218 190.367 218.272 188.885 C 218.535 187.458 219.094 186.04 219.759 184.739 C 221.416 181.493 223.388 178.399 224.902 175.094 C 227.632 169.14 230.114 163.073 232.708 157.059 C 234.678 152.492 236.69 147.943 238.621 143.361 C 238.984 142.498 239.355 141.903 240.379 141.961 C 241.339 142.016 242.164 142.19 242.551 143.257 C 242.947 144.35 243.565 145.369 243.891 146.477 C 245.918 153.371 249.427 159.632 252.256 166.182 C 254.002 170.22 255.743 174.266 257.637 178.237 C 259.023 181.152 260.656 183.951 262.176 186.792 C 260.994 189.433 261.008 189.396 258.401 188.422 C 254.981 187.143 251.54 185.922 248.1 184.698 C 247.489 184.481 246.843 184.369 245.865 184.12 C 245.456 185.648 244.943 187.037 244.73 188.468 C 244.378 190.83 244.082 193.217 244.015 195.599 C 243.913 199.253 245.757 201.907 248.793 203.787 C 251.631 205.543 254.313 207.478 256.404 210.12 C 259.251 213.716 260.892 217.83 261.657 222.325 C 262.134 225.113 262.375 227.894 261.859 230.708 C 260.861 236.147 258.586 240.819 253.764 243.875 C 251.664 245.207 249.396 246.272 247.245 247.529 C 246.179 248.152 245.093 248.817 244.222 249.673 C 242.831 251.041 242.828 252.568 243.958 254.167 C 245.259 256.006 247.208 256.957 249.129 257.957 C 250.381 258.609 251.625 259.281 252.846 259.991 C 256.803 262.297 258.734 266.166 260.602 270.082 C 262.379 273.809 262.551 277.746 262.174 281.758 C 262.143 282.088 262.159 282.456 262.016 282.738 C 259.99 286.693 258.854 291.16 255.293 294.232 C 254.545 294.878 253.933 295.688 253.291 296.447 C 250.57 299.678 250.347 303.717 252.758 307.194 C 253.928 308.881 255.216 310.486 256.732 312.504 C 256.793 313.293 256.361 314.084 255.003 314.778 C 251.164 316.738 247.475 318.988 243.722 321.117 C 242.361 321.889 240.583 321.844 239.628 320.664 C 237.286 317.766 234.734 314.94 232.95 311.709 C 229.85 306.092 231.114 298.248 235.797 293.465 C 237.48 291.746 239.214 290.055 241.08 288.541 C 244.998 285.364 246.411 276.905 241.294 272.271 C 239.406 270.561 237.149 269.25 235.034 267.795 C 232.851 266.293 230.349 265.127 228.486 263.305 C 222.517 257.465 222.127 247.179 228.084 241.004 C 230.525 238.472 233.702 236.933 236.813 235.335 C 238.794 234.316 240.747 233.182 242.525 231.85 C 244.762 230.176 245.604 225.657 244.302 222.863 C 243.06 220.198 241.35 217.874 238.933 216.088 C 237.062 214.707 235.223 213.259 233.509 211.69 C 230.122 208.588 228.708 204.704 228.897 200.089 C 229.079 195.627 230.078 191.393 231.648 187.251 C 231.932 186.506 232.115 185.723 232.442 184.628 Z " fill-rule="evenodd" fill="rgb(78,46,80)"/><path d=" M 235.554 182.102 C 234.362 181.043 233.404 181.405 232.37 181.917 C 229.39 183.391 226.38 184.807 223.38 186.241 C 222.94 186.451 222.488 186.633 221.782 186.94 C 228.081 173.02 234.259 159.365 240.469 145.641 C 246.371 158.904 252.219 172.046 258.139 185.349 C 256.613 184.82 255.071 184.291 253.533 183.751 C 251.49 183.037 249.462 182.277 247.404 181.605 C 245.069 180.842 244.539 181.104 243.752 183.437 C 242.527 187.073 241.575 190.769 241.501 194.64 C 241.413 199.25 242.741 203.049 246.958 205.632 C 249.418 207.141 251.797 208.941 253.795 211.012 C 257.523 214.877 258.893 219.836 259.548 225.065 C 260.146 229.825 259.077 234.178 256.547 238.137 C 255 240.555 252.604 242.152 250.056 243.459 C 248.5 244.257 246.892 244.962 245.397 245.86 C 244.199 246.579 242.98 247.38 242.051 248.401 C 239.781 250.892 240.042 253.361 241.745 255.619 C 243.066 257.371 244.818 258.625 246.821 259.559 C 250.008 261.048 253.111 262.807 255.177 265.688 C 258.063 269.715 260.051 274.211 260.146 279.275 C 260.193 281.705 259.301 283.973 258.17 286.129 C 256.708 288.916 255.213 291.605 252.694 293.693 C 251.26 294.884 250.146 296.563 249.183 298.195 C 247.863 300.432 248.325 302.904 249.1 305.188 C 249.649 306.811 250.619 308.307 251.512 309.795 C 252.102 310.777 252.884 311.645 253.741 312.777 C 249.894 314.923 246.158 317.006 242.278 319.168 C 238.697 316.139 235.593 312.531 234.255 308.05 C 232.693 302.822 234.439 298.045 238.269 294.133 C 239.548 292.827 240.851 291.51 242.311 290.424 C 244.621 288.707 245.625 286.255 246.269 283.676 C 247.119 280.275 247.14 276.957 245.377 273.619 C 244.056 271.116 242.037 269.527 239.924 267.977 C 238.055 266.605 236.013 265.445 233.965 264.342 C 226.372 260.25 223.987 251.519 228.339 244.288 C 230.132 241.31 233.154 239.556 236.284 238.088 C 238.463 237.066 240.836 236.261 242.705 234.82 C 247.236 231.328 248.895 225.293 245.721 219.944 C 243.785 216.68 240.939 214.482 238.057 212.216 C 236.436 210.943 234.881 209.514 233.579 207.925 C 232.32 206.391 231.494 204.531 231.377 202.464 C 231.135 198.191 231.402 193.992 233.016 189.954 C 233.786 188.025 234.475 186.062 235.145 184.095 C 235.375 183.419 235.438 182.687 235.554 182.102 Z " fill-rule="evenodd" fill="rgb(203,154,197)"/></g></svg>