<?xml version="1.0" encoding="UTF-8" standalone="no"?><!-- Generator: Gravit.io --><svg xmlns="http://www.w3.org/2000/svg" xmlns:xlink="http://www.w3.org/1999/xlink" style="isolation:isolate" viewBox="482.045 355.046 326.019 302.499" width="326.019pt" height="302.499pt"><g><path d=" M 542.639 591.617 L 538.404 591.035 C 535.83 590.682 533.651 589.06 532.578 586.696 C 531.502 584.326 531.721 581.617 533.163 579.449 L 546.391 559.57 C 526.242 551.914 511.52 539.885 505.265 522.49 C 498.738 504.34 498.429 483.831 508.496 452.683 C 517.263 425.556 539.063 399.122 570.853 380.889 C 600.937 363.635 637.628 354.236 671.518 355.101 C 673.809 355.159 676.013 355.238 678.259 355.342 C 725.005 357.505 756.839 369.855 772.877 392.05 C 786.674 411.144 788.877 437.612 779.426 470.719 C 770.81 500.899 751.767 525.948 724.355 543.157 C 693.812 562.332 654.801 570.973 608.406 568.839 C 608.183 568.829 607.962 568.822 607.742 568.817 L 604.296 571.841 C 606.714 572.661 608.584 574.669 609.184 577.251 C 609.933 580.481 608.506 583.77 605.634 585.435 L 487.962 657.544 L 542.639 591.617 Z " fill="rgb(0,0,0)"/><path d=" M 671.336 360.604 C 604.276 358.899 531.546 398.233 515.942 452.683 C 498.752 512.667 515.341 543.444 556.508 555.574 L 538.851 582.219 C 538.331 583.003 538.802 584.064 539.726 584.191 L 552.756 585.987 C 553.731 586.122 554.183 587.285 553.56 588.056 L 517.352 631.892 L 602.698 579.364 C 603.777 578.737 603.404 577.079 602.164 576.987 L 592.537 576.275 C 591.419 576.192 590.957 574.787 591.803 574.042 L 605.609 561.875 C 606.702 561.891 607.776 561.876 608.883 561.927 C 703.957 566.299 757.452 522.76 772.95 468.282 C 788.447 413.803 776.616 363.281 671.336 360.604 Z " fill="rgb(255,255,255)"/><path d=" M 539.726 584.191 L 563.925 587.231 L 543.061 591.253 L 539.726 584.191 Z " fill="rgb(0,0,0)"/><path d=" M 618.336 562.721 C 618.336 562.721 594.206 561.865 579.533 558.847 C 579.533 558.847 592.875 565.859 607.877 568.553 L 618.336 562.721 Z " fill="rgb(0,0,0)"/><path d=" M 778.487 434.666 C 774.838 432.994 771.193 431.336 767.57 429.713 C 767.143 429.521 766.577 429.339 766.124 429.251 C 765.947 429.218 765.774 429.189 765.602 429.171 C 762.985 428.886 760.881 430.4 760.483 432.848 C 759.88 436.637 759.276 440.436 758.67 444.25 C 755.594 438.978 751.35 434.17 746.063 429.974 C 740.535 425.582 734.416 422.306 727.854 420.263 C 725.414 419.503 722.959 418.94 720.556 418.596 C 719.772 418.481 718.99 418.392 718.211 418.326 C 715.133 418.06 712.094 418.155 709.177 418.607 C 703.202 419.532 697.859 421.862 693.278 425.532 C 692.303 426.315 691.362 427.16 690.46 428.068 C 689.478 424.735 688.499 421.4 687.523 418.063 C 687.373 415.078 687.324 411.578 684.369 411.12 C 672.421 409.222 660.24 407.552 648.177 406.168 C 648.07 406.156 647.922 406.142 647.805 406.137 C 645.236 406.003 643.039 407.666 642.461 410.189 C 639.986 421.292 637.496 432.632 635.043 443.972 C 631.026 432.813 626.959 421.584 622.927 410.51 C 622.054 408.086 619.877 406.456 617.232 406.36 C 617.23 406.361 617.229 406.36 617.227 406.36 C 604.689 406.369 591.99 406.695 579.48 407.334 C 576.371 407.484 574.044 410.154 574.181 413.407 C 574.335 417.173 574.491 420.939 574.646 424.704 C 572.33 422.003 569.798 419.641 567.077 417.652 C 561.619 413.669 555.474 411.119 548.787 410.115 C 547.615 409.941 546.424 409.822 545.225 409.749 C 532.669 422.371 521.542 433.288 517.037 449.1 C 508.194 480.145 507.28 504.61 516.385 519.164 C 530.722 542.082 553.711 545.192 563.652 543.727 C 563.652 543.727 556.124 537.517 555.359 525.608 C 555.388 525.596 555.417 525.585 555.446 525.573 C 561.556 523.05 567.046 519.454 571.753 514.878 C 574.119 512.576 576.28 510.047 578.215 507.32 C 578.285 508.876 578.355 510.432 578.425 511.988 C 578.499 513.573 579.158 515.031 580.288 516.095 C 581.34 517.085 582.754 517.638 584.167 517.614 C 584.257 517.611 584.347 517.607 584.437 517.603 C 584.643 517.589 584.925 517.553 585.117 517.515 C 595.173 515.562 605.336 513.806 615.336 512.287 C 618.254 511.834 620.294 509.098 619.981 506.046 C 619.934 506.049 619.887 506.053 619.84 506.056 C 619.828 505.259 619.726 503.919 619.498 501.582 C 620.704 505.278 621.908 508.978 623.104 512.66 C 623.895 515.115 626.184 516.834 628.756 516.851 C 628.756 516.851 628.756 516.851 628.758 516.851 C 628.985 516.848 629.297 516.82 629.551 516.785 C 635.158 515.898 640.771 515.079 646.387 514.324 C 648.596 514.037 650.36 512.439 650.875 510.251 C 650.875 510.251 650.924 510.046 650.926 510.046 C 651.699 506.761 653.092 500.906 654.696 494.248 C 654.847 499.236 654.973 503.061 655.026 504.68 C 655.117 507.682 657.404 510.233 660.353 510.631 C 669.681 511.873 679.086 513.277 688.322 514.808 C 688.483 514.835 688.708 514.862 689.04 514.881 C 690.508 514.936 691.921 514.396 692.915 513.404 C 693.934 512.387 694.474 510.937 694.401 509.421 C 694.342 508.168 694.282 506.916 694.223 505.663 C 696.649 508.073 699.303 510.214 702.157 512.062 C 703.579 512.983 705.048 513.824 706.559 514.586 C 662.938 550.701 590.071 549.539 590.071 549.539 C 615.874 552.945 648.176 554.063 674.817 546.075 C 748.849 523.878 759.112 497.32 772.998 468.112 C 778.113 457.354 778.269 445.365 778.487 434.666 Z  M 529.407 451.183 C 530.491 449.789 531.756 448.743 533.269 447.991 C 534.261 447.499 535.234 447.202 536.161 447.103 C 536.357 447.082 536.554 447.07 536.751 447.067 C 536.948 447.063 537.144 447.071 537.333 447.081 C 538.739 447.183 540.027 447.614 541.278 448.402 C 542.563 449.208 543.783 450.493 544.904 452.215 C 546.13 454.109 548.303 456.641 546.795 465.683 C 547.597 468.486 549.14 464.678 549.179 467.288 C 549.218 469.782 548.935 472.109 548.342 474.203 C 547.787 476.153 546.976 477.868 545.932 479.299 C 544.987 480.597 543.866 481.58 542.51 482.298 C 541.573 482.794 540.678 483.085 539.77 483.186 C 539.588 483.207 539.403 483.219 539.217 483.225 C 539.061 483.229 538.906 483.229 538.75 483.222 C 537.466 483.168 536.254 482.766 535.047 481.988 C 533.652 481.092 532.302 479.738 531.04 477.967 C 529.698 476.075 528.55 473.707 527.635 470.931 C 526.731 468.201 529.447 468.456 528.758 466.005 C 526.523 458.036 528.249 452.664 529.407 451.183 Z " fill="rgb(178,178,178)"/><path d=" M 533.21 506.183 C 532.179 506.221 531.149 506.226 530.128 506.187 C 523.684 505.961 517.525 504.342 511.847 501.345 C 506.177 498.345 500.985 493.924 496.429 488.179 C 491.82 482.362 488.164 475.227 485.554 466.967 C 482.859 458.429 481.72 450.04 482.125 442.059 C 482.541 433.806 484.366 426.093 487.52 419.167 C 490.73 412.121 495.247 405.918 500.939 400.754 C 506.639 395.595 513.288 391.764 520.717 389.379 C 524.53 388.158 528.351 387.381 532.082 387.072 C 533.334 386.967 534.606 386.912 535.857 386.911 C 538.053 386.909 540.248 387.069 542.385 387.383 C 549.312 388.41 555.679 390.979 561.336 394.976 C 564.157 396.973 566.781 399.341 569.183 402.045 C 569.018 398.286 568.853 394.527 568.689 390.767 C 568.543 387.519 570.952 384.861 574.171 384.724 C 587.127 384.134 600.279 383.859 613.264 383.898 C 613.266 383.899 613.267 383.899 613.269 383.898 C 616.009 384.003 618.265 385.638 619.172 388.062 C 623.358 399.13 627.58 410.355 631.75 421.509 C 634.279 410.2 636.848 398.89 639.401 387.818 C 639.997 385.301 642.27 383.648 644.932 383.793 C 645.052 383.8 645.206 383.814 645.316 383.826 C 657.811 385.255 670.426 386.971 682.802 388.91 C 685.861 389.38 688.393 392.087 688.555 395.064 C 688.745 398.659 688.934 402.255 689.124 405.85 C 690.057 404.949 691.03 404.104 692.04 403.33 C 696.78 399.684 702.311 397.382 708.498 396.481 C 711.517 396.041 714.664 395.959 717.852 396.235 C 718.659 396.304 719.469 396.398 720.281 396.514 C 722.769 396.868 725.312 397.437 727.839 398.207 C 734.636 400.269 740.975 403.568 746.703 407.971 C 752.181 412.18 756.579 416.992 759.768 422.268 C 760.392 418.462 761.015 414.674 761.637 410.896 C 762.046 408.453 764.223 406.954 766.933 407.247 C 767.111 407.267 767.291 407.294 767.474 407.329 C 767.943 407.419 768.529 407.602 768.971 407.795 C 779.839 412.525 790.868 417.487 801.754 422.538 C 803.331 423.266 804.689 424.54 805.48 426.028 C 806.278 427.535 806.438 429.151 805.917 430.461 C 799.498 446.533 793.027 463.117 786.698 479.737 C 786.027 481.525 784.275 482.612 782.16 482.601 C 783.053 484.083 783.736 485.636 784.193 487.241 C 784.838 489.501 785 491.782 784.678 494.027 C 784.365 496.213 783.566 498.275 782.302 500.169 C 781.027 502.074 779.423 503.634 777.534 504.814 C 775.639 505.997 773.545 506.788 771.313 507.169 C 769.702 507.443 768.022 507.519 766.325 507.395 C 765.746 507.353 765.165 507.288 764.581 507.199 C 761.971 506.794 759.538 505.925 757.246 504.606 C 754.919 503.273 752.927 501.579 751.33 499.568 C 750.286 498.25 749.427 496.866 748.755 495.432 C 747.183 495.919 744.806 496.615 743.057 496.929 C 740.614 497.376 738.033 497.66 735.392 497.778 C 732.864 497.897 730.231 497.878 727.571 497.728 C 727.446 497.72 727.321 497.712 727.196 497.704 C 726.212 497.644 725.225 497.559 724.242 497.454 C 722.344 497.248 720.412 496.944 718.498 496.549 C 712.288 495.272 706.499 492.987 701.31 489.728 C 698.354 487.874 695.603 485.725 693.089 483.311 C 693.152 484.562 693.215 485.812 693.277 487.063 C 693.353 488.575 692.796 490.022 691.742 491.033 C 690.714 492.022 689.252 492.551 687.731 492.492 C 687.387 492.472 687.154 492.443 686.988 492.416 C 677.423 490.854 667.682 489.414 658.022 488.141 C 654.969 487.735 652.598 485.177 652.501 482.181 C 652.443 480.566 652.311 476.745 652.149 471.767 C 650.494 478.406 649.057 484.247 648.26 487.522 C 648.258 487.521 648.208 487.725 648.208 487.725 C 647.676 489.908 645.852 491.497 643.564 491.775 C 637.75 492.509 631.938 493.306 626.132 494.168 C 625.869 494.202 625.546 494.228 625.311 494.231 C 625.309 494.23 625.309 494.23 625.309 494.23 C 622.645 494.205 620.274 492.479 619.453 490.026 C 618.211 486.345 616.96 482.648 615.707 478.954 C 615.946 481.289 616.052 482.625 616.066 483.421 C 616.115 483.419 616.163 483.415 616.212 483.412 C 616.538 486.461 614.429 489.181 611.408 489.624 C 601.054 491.104 590.531 492.819 580.119 494.729 C 579.921 494.768 579.629 494.801 579.415 494.815 C 579.322 494.819 579.229 494.822 579.135 494.825 C 577.672 494.843 576.207 494.287 575.116 493.294 C 573.945 492.227 573.262 490.77 573.184 489.188 C 573.109 487.635 573.035 486.081 572.961 484.527 C 570.96 487.242 568.724 489.757 566.276 492.047 C 561.406 496.597 555.725 500.167 549.4 502.663 C 545.14 504.345 540.851 505.444 536.665 505.923 C 535.523 506.053 534.361 506.142 533.21 506.183 Z  M 529.957 424.225 C 529.753 424.227 529.548 424.241 529.346 424.259 C 528.385 424.354 527.379 424.648 526.352 425.134 C 524.785 425.879 523.476 426.916 522.354 428.306 C 521.154 429.783 520.29 431.424 519.713 433.324 C 519.111 435.278 518.86 437.532 518.967 440.025 C 519.073 442.599 519.601 445.287 520.54 448.013 C 521.491 450.788 522.682 453.155 524.075 455.049 C 525.383 456.822 526.782 458.178 528.229 459.079 C 529.479 459.86 530.735 460.264 532.065 460.325 C 532.226 460.332 532.387 460.332 532.548 460.329 C 532.741 460.324 532.932 460.312 533.122 460.292 C 534.061 460.195 534.988 459.908 535.958 459.416 C 537.362 458.705 538.521 457.728 539.499 456.435 C 540.578 455.01 541.416 453.3 541.99 451.357 C 542.602 449.269 542.892 446.948 542.849 444.457 C 542.806 441.853 542.361 439.113 541.528 436.312 C 540.731 433.614 539.68 431.288 538.407 429.395 C 537.244 427.67 535.979 426.386 534.647 425.575 C 533.35 424.782 532.016 424.349 530.56 424.241 C 530.364 424.228 530.161 424.222 529.957 424.225 Z " fill="rgb(0,0,0)"/><path d=" M 534.294 516.31 C 533.26 516.35 532.226 516.356 531.201 516.321 C 524.734 516.108 518.552 514.494 512.852 511.494 C 507.161 508.492 501.949 504.059 497.374 498.295 C 492.746 492.459 489.075 485.297 486.453 477 C 483.746 468.426 482.6 459.997 483.004 451.973 C 483.419 443.678 485.248 435.919 488.41 428.953 C 491.628 421.865 496.16 415.616 501.87 410.416 C 507.588 405.215 514.258 401.352 521.713 398.937 C 525.538 397.7 529.372 396.911 533.117 396.592 C 534.374 396.482 535.65 396.426 536.905 396.421 C 539.108 396.414 541.312 396.569 543.456 396.881 C 550.408 397.897 556.798 400.464 562.477 404.468 C 565.309 406.468 567.943 408.842 570.355 411.554 C 570.188 407.777 570.021 403.998 569.855 400.22 C 569.708 396.955 572.123 394.279 575.354 394.133 C 588.356 393.51 601.555 393.2 614.587 393.21 C 614.589 393.21 614.591 393.21 614.592 393.21 C 617.342 393.309 619.607 394.948 620.518 397.381 C 624.725 408.498 628.968 419.771 633.159 430.972 C 635.692 419.598 638.264 408.224 640.821 397.087 C 641.418 394.557 643.699 392.89 646.37 393.028 C 646.491 393.034 646.645 393.048 646.756 393.06 C 659.296 394.466 671.96 396.159 684.382 398.08 C 687.454 398.544 687.51 402.056 687.67 405.051 C 688.689 408.401 689.711 411.748 690.737 415.093 C 691.673 414.184 692.65 413.338 693.663 412.553 C 698.418 408.877 703.969 406.547 710.178 405.628 C 713.21 405.178 716.368 405.087 719.568 405.358 C 720.377 405.425 721.19 405.516 722.005 405.633 C 724.504 405.981 727.056 406.549 729.593 407.315 C 736.416 409.374 742.782 412.67 748.534 417.085 C 754.035 421.302 758.453 426.132 761.658 431.427 C 762.282 427.601 762.905 423.789 763.526 419.989 C 763.936 417.533 766.121 416.017 768.841 416.307 C 769.02 416.325 769.2 416.354 769.384 416.388 C 769.855 416.477 770.444 416.66 770.887 416.853 C 781.799 421.582 792.874 426.541 803.805 431.593 C 805.39 432.323 804.537 424.361 805.328 425.86 C 806.124 427.375 808.511 438.231 807.99 439.549 C 801.556 455.726 795.07 472.412 788.727 489.14 C 788.054 490.938 786.295 492.037 784.172 492.03 C 785.071 493.516 785.756 495.077 786.217 496.69 C 786.865 498.96 787.03 501.249 786.707 503.512 C 786.394 505.709 785.594 507.785 784.326 509.692 C 783.046 511.608 781.438 513.182 779.542 514.374 C 777.64 515.568 775.539 516.368 773.299 516.755 C 771.681 517.034 769.994 517.115 768.291 516.996 C 767.71 516.954 767.126 516.89 766.539 516.802 C 763.92 516.397 761.476 515.533 759.175 514.213 C 756.838 512.879 754.837 511.179 753.233 509.162 C 752.184 507.838 751.32 506.45 750.645 505.009 C 749.067 505.502 746.682 506.207 744.926 506.528 C 742.474 506.982 739.883 507.276 737.232 507.399 C 734.694 507.523 732.05 507.513 729.38 507.367 C 729.255 507.36 729.129 507.352 729.004 507.345 C 728.017 507.286 727.026 507.205 726.038 507.1 C 724.133 506.897 722.193 506.597 720.272 506.204 C 714.037 504.936 708.225 502.65 703.015 499.387 C 700.046 497.528 697.283 495.376 694.758 492.954 C 694.822 494.212 694.886 495.469 694.949 496.726 C 695.027 498.247 694.467 499.701 693.41 500.72 C 692.379 501.714 690.911 502.253 689.385 502.196 C 689.04 502.177 688.806 502.15 688.639 502.122 C 679.036 500.573 669.258 499.151 659.561 497.891 C 656.496 497.488 654.115 494.925 654.016 491.913 C 653.958 490.289 653.822 486.45 653.658 481.446 C 652 488.124 650.56 493.996 649.762 497.291 C 649.76 497.291 649.709 497.497 649.709 497.497 C 649.177 499.692 647.346 501.293 645.05 501.577 C 639.214 502.327 633.381 503.14 627.554 504.023 C 627.29 504.057 626.966 504.085 626.73 504.088 C 626.728 504.088 626.728 504.088 626.728 504.088 C 624.054 504.067 621.673 502.339 620.848 499.875 C 619.599 496.179 618.342 492.465 617.083 488.754 C 617.323 491.099 617.431 492.444 617.445 493.244 C 617.494 493.241 617.543 493.237 617.592 493.234 C 617.921 496.296 615.805 499.039 612.773 499.489 C 602.381 500.999 591.82 502.747 581.371 504.692 C 581.171 504.73 580.878 504.766 580.664 504.78 C 580.57 504.783 580.477 504.787 580.383 504.79 C 578.915 504.813 577.444 504.256 576.349 503.261 C 575.173 502.192 574.486 500.728 574.407 499.138 C 574.332 497.577 574.257 496.015 574.182 494.453 C 572.175 497.186 569.931 499.721 567.476 502.027 C 562.589 506.612 556.889 510.213 550.541 512.736 C 546.267 514.436 541.963 515.551 537.761 516.041 C 536.615 516.175 535.449 516.264 534.294 516.31 Z  M 530.998 433.939 C 530.793 433.942 530.588 433.954 530.385 433.975 C 529.421 434.073 528.41 434.369 527.381 434.862 C 525.808 435.614 524.495 436.662 523.37 438.059 C 522.169 439.544 520.383 444.931 522.717 452.929 C 523.437 455.389 520.614 455.13 521.557 457.871 C 522.512 460.657 523.708 463.034 525.106 464.935 C 526.42 466.714 527.826 468.074 529.277 468.976 C 530.532 469.758 531.793 470.163 533.128 470.219 C 533.289 470.226 533.451 470.227 533.613 470.223 C 533.806 470.217 533.998 470.205 534.188 470.184 C 535.131 470.084 536.061 469.794 537.034 469.297 C 538.443 468.578 539.606 467.594 540.587 466.292 C 541.67 464.858 542.51 463.139 543.085 461.183 C 543.698 459.083 543.988 456.749 543.944 454.245 C 543.9 451.627 542.302 455.446 541.464 452.632 C 543.019 443.562 540.757 441.018 539.48 439.116 C 538.312 437.387 537.042 436.096 535.705 435.285 C 534.403 434.493 533.064 434.058 531.603 433.954 C 531.407 433.943 531.203 433.936 530.998 433.939 Z " fill="rgb(0,0,0)"/><path d=" M 719.968 436.775 C 720.109 443.848 720.248 450.925 720.382 458.004 C 720.387 458.223 720.55 458.435 720.774 458.509 C 723.526 459.415 726.278 460.333 729.03 461.261 C 729.275 461.343 729.446 461.579 729.419 461.813 C 729.296 462.92 728.95 466.022 728.76 467.734 C 728.11 467.973 727.247 468.058 726.156 467.987 C 725.061 467.921 724.013 467.764 723.004 467.523 C 717.277 466.154 713.256 463.41 710.92 459.125 C 708.58 454.82 707.606 449.685 708.075 443.706 C 708.307 440.715 708.981 438.111 710.102 435.904 C 711.225 433.7 712.613 431.913 714.26 430.553 C 715.91 429.196 717.762 428.315 719.813 427.916 C 721.859 427.516 723.915 427.606 725.977 428.178 C 729.089 429.042 731.634 430.418 733.599 432.249 C 735.396 433.926 736.903 435.882 738.124 438.107 C 738.288 438.403 738.673 438.519 738.893 438.319 C 744.239 433.518 749.669 428.889 755.177 424.443 C 755.333 424.316 755.36 424.085 755.24 423.881 C 752.501 419.27 748.679 415.039 743.763 411.256 C 738.69 407.354 733.088 404.435 727.019 402.603 C 721.126 400.819 715.453 400.312 710.07 401.101 C 704.658 401.898 699.863 403.904 695.724 407.092 C 691.572 410.292 688.249 414.599 685.749 419.943 C 685.319 420.862 684.968 421.846 684.604 422.818 C 684.104 413.219 683.599 403.622 683.089 394.024 C 683.076 393.777 682.868 393.552 682.611 393.514 C 670.125 391.575 657.644 389.898 645.166 388.49 C 644.93 388.463 644.726 388.601 644.675 388.821 C 640.892 405.276 637.164 421.843 633.501 438.507 C 633.399 438.973 632.742 438.973 632.571 438.513 C 626.472 422.031 620.304 405.525 614.077 388.989 C 614.001 388.785 613.802 388.649 613.587 388.646 C 600.568 388.626 587.557 388.92 574.552 389.529 C 574.287 389.543 574.085 389.762 574.097 390.028 C 574.584 401.323 575.08 412.617 575.583 423.906 C 574.289 419.9 572.707 416.184 570.743 412.838 C 567.331 407.029 563.175 402.338 558.256 398.86 C 553.297 395.354 547.743 393.105 541.592 392.201 C 535.396 391.297 528.922 391.881 522.245 394.036 C 515.517 396.206 509.552 399.655 504.441 404.292 C 499.301 408.965 495.284 414.511 492.412 420.827 C 489.534 427.162 487.918 434.121 487.536 441.625 C 487.154 449.127 488.242 456.829 490.706 464.687 C 493.162 472.522 496.517 479.064 500.691 484.38 C 504.843 489.668 509.449 493.626 514.504 496.337 C 519.527 499.021 524.85 500.44 530.52 500.651 C 536.146 500.858 541.798 499.8 547.546 497.518 C 553.258 495.253 558.257 492.081 562.626 487.965 C 566.968 483.868 570.496 479.08 573.233 473.545 C 574.98 470.002 576.315 466.165 577.314 462.079 C 577.726 471.003 578.142 479.923 578.564 488.842 C 578.578 489.139 578.844 489.355 579.129 489.303 C 589.55 487.389 599.991 485.683 610.45 484.189 C 610.7 484.155 610.874 483.943 610.846 483.688 C 610.431 479.906 607.4 452.429 605.443 434.959 C 605.379 434.381 606.198 434.253 606.387 434.811 C 612.515 452.717 618.577 470.593 624.562 488.436 C 624.639 488.669 624.871 488.813 625.104 488.778 C 630.921 487.914 636.746 487.115 642.577 486.381 C 642.763 486.359 642.906 486.255 642.949 486.073 C 643.759 482.521 652.707 446.21 655.703 435.185 C 655.843 434.661 656.642 434.824 656.648 435.383 C 656.837 451.936 657.768 478.617 657.896 482.276 C 657.905 482.525 658.1 482.722 658.347 482.755 C 668.016 484.056 677.683 485.51 687.352 487.115 C 687.64 487.162 687.879 486.957 687.864 486.67 C 687.513 479.637 687.159 472.6 686.802 465.568 C 688.254 468.674 689.928 471.563 691.884 474.178 C 695.256 478.687 699.247 482.372 703.874 485.302 C 708.473 488.213 713.491 490.206 718.981 491.353 C 721.578 491.896 724.19 492.245 726.821 492.41 C 729.443 492.572 731.964 492.598 734.388 492.486 C 736.804 492.38 739.109 492.121 741.308 491.718 C 743.184 491.378 746.186 490.427 747.004 490.167 C 747.149 490.119 747.228 490.01 747.249 489.858 C 749.319 475.376 751.401 460.956 753.488 446.599 C 753.524 446.354 753.339 446.092 753.074 446.01 C 742.225 442.626 731.375 439.417 720.523 436.384 C 720.225 436.302 719.962 436.487 719.968 436.775 Z  M 547.162 452.568 C 546.387 455.206 545.249 457.503 543.753 459.485 C 542.251 461.47 540.426 462.999 538.271 464.099 C 536.112 465.198 533.922 465.701 531.689 465.606 C 529.452 465.513 527.329 464.838 525.317 463.584 C 523.297 462.325 521.434 460.54 519.722 458.209 C 518.011 455.883 516.577 453.048 515.435 449.71 C 514.324 446.469 513.696 443.268 513.563 440.107 C 513.43 436.942 513.756 434.063 514.55 431.446 C 515.338 428.832 516.56 426.489 518.217 424.427 C 519.87 422.363 521.86 420.781 524.17 419.675 C 526.475 418.574 528.775 418.105 531.061 418.275 C 533.336 418.441 535.478 419.149 537.489 420.387 C 539.488 421.619 541.293 423.439 542.891 425.83 C 544.485 428.218 545.756 431.043 546.71 434.291 C 547.695 437.635 548.204 440.862 548.254 443.963 C 548.304 447.068 547.935 449.939 547.162 452.568 Z  M 776.644 483.024 C 775.57 481.601 774.204 480.378 772.546 479.356 C 770.885 478.334 769.158 477.657 767.368 477.33 C 765.579 477.003 763.836 477.001 762.154 477.316 C 760.466 477.634 758.927 478.258 757.542 479.201 C 756.15 480.14 755.023 481.356 754.148 482.837 C 753.239 484.375 752.706 485.972 752.547 487.623 C 752.385 489.267 752.564 490.873 753.081 492.423 C 753.592 493.978 754.392 495.427 755.463 496.79 C 756.535 498.149 757.875 499.297 759.486 500.229 C 761.095 501.165 762.759 501.758 764.482 502.032 C 766.207 502.307 767.874 502.303 769.499 502.025 C 771.117 501.748 772.622 501.171 774.012 500.294 C 775.398 499.418 776.575 498.258 777.536 496.806 C 778.461 495.414 779.039 493.919 779.265 492.325 C 779.49 490.727 779.381 489.135 778.93 487.547 C 778.478 485.955 777.717 484.445 776.644 483.024 Z  M 766.987 412.165 C 763.944 430.723 760.908 449.409 757.889 468.215 C 757.851 468.453 758.02 468.707 758.273 468.799 C 765.83 471.525 773.385 474.333 780.937 477.216 C 781.179 477.309 781.422 477.222 781.499 477.016 C 787.829 460.179 794.224 443.588 800.666 427.256 C 800.756 427.029 800.597 426.725 800.32 426.598 C 789.418 421.549 778.51 416.648 767.596 411.911 C 767.313 411.787 767.029 411.905 766.987 412.165 Z " fill="rgb(255,138,0)"/></g></svg>