<?xml version="1.0" encoding="UTF-8" standalone="no"?><!-- Generator: Gravit.io --><svg xmlns="http://www.w3.org/2000/svg" xmlns:xlink="http://www.w3.org/1999/xlink" style="isolation:isolate" viewBox="76.317 349.827 97.052 82.598" width="97.052pt" height="82.598pt"><g><path d=" M 131.738 432.425 C 129.965 432.425 128.206 432.18 126.489 431.684 C 122.874 430.639 119.679 428.511 117.374 425.636 L 108.524 425.032 C 104.138 424.734 100.558 420.992 100.011 416.134 C 99.959 415.688 99.935 415.201 99.94 414.701 C 99.969 413.009 100.372 411.4 101.104 409.993 C 99.657 408.374 98.723 406.259 98.459 403.913 C 98.404 403.428 98.379 402.93 98.386 402.434 C 98.431 399.742 99.423 397.219 101.129 395.401 C 99.456 393.408 98.529 390.69 98.639 387.803 C 98.659 387.293 98.711 386.783 98.794 386.283 C 99.185 383.973 100.24 381.893 101.77 380.346 L 87.606 375.376 C 83.215 373.811 80.641 368.962 81.473 363.841 C 81.555 363.338 81.671 362.835 81.818 362.343 C 82.687 359.444 84.615 357.061 87.108 355.798 L 87.11 355.798 C 88.384 355.153 89.743 354.828 91.1 354.828 C 92.065 354.828 93.028 354.992 93.957 355.324 L 136.88 370.387 C 138.403 369.849 139.953 369.578 141.509 369.578 C 141.878 369.578 142.247 369.594 142.616 369.624 C 150.191 370.243 155.738 377.034 157.937 380.213 C 158.105 380.383 158.254 380.568 158.384 380.77 C 158.615 381.13 163.859 389.408 162.858 400.435 L 171.118 403.352 C 172.421 403.812 173.304 405.002 173.366 406.383 C 173.385 406.807 173.325 407.227 173.187 407.631 C 172.926 408.369 172.433 408.964 171.818 409.358 L 167.124 426.644 L 167.234 426.886 C 167.584 427.726 167.58 428.647 167.227 429.485 C 166.897 430.293 166.249 430.945 165.413 431.293 C 164.995 431.467 164.556 431.555 164.115 431.555 C 163.679 431.555 163.242 431.469 162.825 431.297 L 148.294 425.309 C 143.146 429.967 137.364 432.425 131.738 432.425 Z " fill="rgb(0,0,0)"/><path d=" M 82.11 350.798 L 82.108 350.798 C 79.615 352.061 77.687 354.444 76.818 357.343 C 76.671 357.835 76.555 358.338 76.473 358.841 C 75.641 363.962 78.215 368.812 82.606 370.376 L 96.77 375.346 C 95.24 376.893 94.185 378.973 93.794 381.283 C 93.711 381.783 93.659 382.293 93.639 382.803 C 93.529 385.69 94.456 388.408 96.129 390.401 C 94.423 392.219 93.431 394.742 93.386 397.434 C 93.379 397.93 93.404 398.428 93.459 398.913 C 93.723 401.259 94.657 403.374 96.105 404.993 C 95.372 406.4 94.969 408.009 94.94 409.701 C 94.935 410.201 94.959 410.688 95.011 411.134 C 95.558 415.992 99.138 419.734 103.524 420.032 L 112.374 420.636 C 114.679 423.511 117.874 425.639 121.489 426.684 C 128.654 428.756 136.523 426.435 143.294 420.309 L 157.825 426.297 C 158.662 426.643 159.582 426.641 160.413 426.293 C 161.249 425.945 161.897 425.293 162.227 424.485 C 162.58 423.647 162.583 422.726 162.234 421.886 L 162.124 421.644 L 166.818 404.358 C 167.433 403.964 167.926 403.369 168.187 402.631 C 168.325 402.227 168.385 401.807 168.366 401.383 C 168.304 400.002 167.421 398.812 166.118 398.352 L 157.858 395.436 C 158.859 384.408 153.615 376.13 153.384 375.771 C 153.254 375.568 153.105 375.383 152.938 375.213 C 150.738 372.034 145.191 365.243 137.616 364.624 C 135.689 364.465 133.764 364.722 131.88 365.387 L 88.957 350.324 C 86.722 349.526 84.29 349.694 82.11 350.798 Z " fill="rgb(254,254,254)"/><path d=" M 79.73 358.321 C 79.623 358.679 79.541 359.038 79.482 359.396 C 78.922 362.827 80.54 366.187 83.402 367.206 L 117.208 379.069 L 103.92 376.119 C 100.646 375.393 97.459 377.957 96.803 381.849 C 96.741 382.217 96.704 382.583 96.69 382.944 C 96.558 386.42 98.579 389.553 101.545 390.211 L 106.696 391.354 L 102.35 391.058 C 99.149 390.84 96.502 393.722 96.439 397.496 C 96.434 397.854 96.451 398.205 96.49 398.549 C 96.799 401.286 98.472 403.585 100.684 404.409 C 99.106 405.46 98.033 407.431 97.994 409.763 C 97.988 410.104 98.005 410.44 98.042 410.771 C 98.399 413.933 100.658 416.491 103.432 416.68 L 113.86 417.391 C 118.763 424.93 130.95 427.935 142.22 416.362 L 158.793 423.192 L 164.672 401.549 L 153.818 397.717 C 155.479 388.857 152.304 381.508 150.874 378.77 L 150.875 378.767 L 150.848 378.721 C 150.475 378.01 150.219 377.605 150.219 377.605 L 150.095 377.535 C 147.787 374.104 140.558 364.931 131.655 369.011 L 87.502 353.517 C 84.342 352.391 80.862 354.541 79.73 358.321 Z " fill="rgb(236,174,113)"/><path d=" M 125.554 399.452 L 125.479 399.451 L 125.541 399.431 L 125.554 399.452 Z  M 119.671 400.624 C 119.76 400.699 119.861 400.756 119.969 400.789 C 120.042 400.813 121.679 401.317 124.007 400.453 C 123.785 401.826 123.175 403.023 122.256 403.867 C 122.052 404.055 121.825 404.227 121.577 404.38 C 121.194 404.62 120.747 404.797 120.25 404.905 C 119.819 404.998 119.463 405.031 119.127 405.009 L 102.183 403.853 C 101.751 403.823 101.3 403.704 100.802 403.489 C 98.966 402.698 97.615 400.72 97.36 398.451 C 97.342 398.288 97.329 398.123 97.321 397.959 C 97.315 397.809 97.313 397.658 97.314 397.511 C 97.344 395.741 98.017 394.123 99.162 393.071 C 100.046 392.259 101.158 391.854 102.291 391.931 L 106.543 392.217 L 116.549 394.438 C 117.304 398.565 119.65 400.607 119.671 400.624 Z  M 98.875 410.2 C 98.869 410.06 98.866 409.919 98.868 409.776 C 98.897 408.094 99.537 406.556 100.624 405.557 L 100.847 405.383 C 101.258 405.499 101.666 405.571 102.063 405.599 L 119.008 406.754 C 119.952 406.818 120.906 406.646 121.779 406.254 C 123.424 407.311 124.447 409.393 124.425 411.61 C 124.396 413.294 123.756 414.832 122.668 415.831 C 121.83 416.602 120.777 416.985 119.703 416.913 L 103.492 415.807 C 101.193 415.65 99.224 413.443 98.912 410.672 C 98.894 410.516 98.882 410.358 98.875 410.2 Z  M 103.73 376.974 L 116.95 379.905 L 119.578 380.827 C 117.476 384.62 116.38 388.218 116.32 391.528 C 116.314 391.853 116.318 392.168 116.333 392.473 L 116.336 392.556 L 116.338 392.599 L 101.734 389.356 C 99.248 388.806 97.455 386.064 97.564 382.98 C 97.578 382.646 97.611 382.314 97.666 381.994 C 97.974 380.16 98.93 378.583 100.288 377.669 C 101.339 376.961 102.563 376.714 103.73 376.974 Z  M 87.21 354.343 L 129.503 369.183 C 128.634 369.739 127.769 370.409 126.92 371.185 C 126.658 371.425 126.395 371.678 126.133 371.939 C 125.438 372.636 124.762 373.391 124.122 374.183 C 122.838 375.771 121.687 377.374 120.695 378.948 L 117.475 378.235 L 83.695 366.382 C 81.29 365.525 79.848 362.578 80.346 359.539 C 80.4 359.211 80.475 358.886 80.568 358.573 C 81.102 356.79 82.246 355.344 83.706 354.604 C 84.836 354.033 86.08 353.939 87.21 354.343 Z  M 78.892 358.069 C 78.777 358.455 78.685 358.853 78.619 359.256 C 77.981 363.183 79.869 366.876 83.112 368.031 L 103.404 375.152 C 101.986 375.01 100.556 375.378 99.31 376.217 C 97.557 377.397 96.329 379.397 95.939 381.704 C 95.873 382.104 95.831 382.511 95.815 382.912 C 95.686 386.307 97.339 389.289 99.941 390.561 C 99.228 390.833 98.562 391.246 97.978 391.783 C 96.482 393.158 95.602 395.235 95.565 397.483 C 95.559 397.864 95.577 398.256 95.621 398.647 C 95.906 401.177 97.196 403.362 99.109 404.595 C 97.872 405.908 97.151 407.76 97.119 409.75 C 97.113 410.132 97.13 410.507 97.173 410.868 C 97.585 414.525 100.192 417.337 103.373 417.553 L 113.368 418.234 C 115.377 421.143 118.387 423.292 121.862 424.297 C 128.571 426.237 136.056 423.722 142.429 417.395 L 158.46 424.001 C 158.676 424.091 158.914 424.091 159.129 424 C 159.345 423.91 159.514 423.742 159.601 423.527 C 159.692 423.312 159.693 423.074 159.603 422.857 C 159.513 422.64 159.343 422.472 159.126 422.384 L 142.553 415.554 C 142.22 415.417 141.844 415.494 141.593 415.752 C 135.59 421.915 128.575 424.417 122.348 422.616 C 119.722 421.856 117.442 420.404 115.703 418.394 L 119.584 418.658 C 121.141 418.765 122.656 418.219 123.853 417.119 C 125.292 415.798 126.138 413.8 126.174 411.639 C 126.217 409.089 125.14 406.717 123.343 405.243 L 123.44 405.156 C 124.919 403.797 125.796 401.751 125.852 399.534 C 127.676 398.362 129.36 396.51 130.869 394.012 C 130.768 399.003 132.742 402.562 136.62 404.36 C 136.833 404.458 137.069 404.468 137.289 404.388 C 137.509 404.307 137.684 404.146 137.781 403.936 C 137.879 403.726 137.891 403.488 137.81 403.269 C 137.73 403.048 137.569 402.871 137.356 402.772 C 131.725 400.159 132.098 393.73 133.388 388.84 C 133.907 387.526 134.399 386.102 134.849 384.609 C 134.985 384.174 134.757 383.7 134.323 383.535 C 133.896 383.372 133.411 383.569 133.22 383.982 C 133.212 383.999 132.413 385.739 131.757 388.209 C 129.909 392.882 127.7 396.134 125.189 397.877 C 124.889 398.086 124.599 398.265 124.285 398.43 C 122.487 399.377 121.104 399.239 120.667 399.159 C 120.236 398.722 118.829 397.115 118.275 394.282 C 118.21 393.958 118.164 393.612 118.124 393.255 C 118.101 393.037 118.083 392.814 118.07 392.585 C 118.056 392.274 118.046 391.945 118.05 391.608 C 118.102 388.433 119.231 384.913 121.407 381.146 L 122.193 379.85 C 123.148 378.339 124.255 376.802 125.484 375.28 C 126.183 374.415 126.903 373.62 127.624 372.92 C 127.884 372.668 128.145 372.429 128.406 372.2 C 129.53 371.213 130.679 370.436 131.82 369.885 C 132.203 369.703 132.596 369.542 133.021 369.395 C 134.327 368.942 135.646 368.767 136.944 368.873 C 141.702 369.261 145.663 373.152 148.148 376.349 C 148.606 376.937 149.038 377.533 149.431 378.122 C 149.76 378.612 149.976 378.965 150.056 379.101 C 151.465 381.788 154.567 388.968 152.96 397.547 C 152.872 397.976 153.109 398.395 153.527 398.541 L 164.381 402.373 C 164.836 402.534 165.337 402.295 165.499 401.837 C 165.535 401.731 165.551 401.62 165.546 401.509 C 165.53 401.151 165.301 400.843 164.963 400.724 L 154.807 397.138 C 156.588 386.007 151.187 377.491 150.955 377.131 C 150.896 377.039 150.819 376.959 150.724 376.892 C 148.825 374.086 143.784 367.677 137.09 367.129 C 135.25 366.979 133.405 367.294 131.603 368.066 L 87.794 352.693 C 86.212 352.128 84.479 352.252 82.916 353.043 C 81.03 353.998 79.564 355.83 78.892 358.069 Z " fill="rgb(0,0,0)"/></g></svg>