<?xml version="1.0" encoding="UTF-8" standalone="no"?><!-- Generator: Gravit.io --><svg xmlns="http://www.w3.org/2000/svg" xmlns:xlink="http://www.w3.org/1999/xlink" style="isolation:isolate" viewBox="197.852 364.956 108.355 67.736" width="108.355pt" height="67.736pt"><g><path d=" M 255.035 432.692 C 253.997 432.692 252.936 432.646 251.853 432.555 C 242.237 431.744 232.924 427.377 228.077 424.747 L 221.733 431.484 C 221.095 432.166 220.213 432.546 219.28 432.546 C 219.185 432.546 219.088 432.542 218.992 432.534 C 218.231 432.47 217.508 432.146 216.956 431.621 C 216.306 431.012 215.929 430.173 215.902 429.269 L 215.905 429 L 204.902 411.424 C 204.418 411.22 203.98 410.902 203.635 410.486 C 203.063 409.806 202.787 408.932 202.865 408.034 C 202.942 407.136 203.366 406.32 204.057 405.74 L 215.37 396.252 C 214.991 390.701 216.715 386.119 220.39 382.944 C 224.37 379.508 229.595 378.526 233.753 378.526 C 235.344 378.526 236.78 378.67 237.928 378.875 L 253.33 371.064 C 254.975 370.313 256.72 369.956 258.417 369.956 C 261.915 369.956 265.202 371.477 266.956 374.211 C 267.647 375.289 268.054 376.475 268.167 377.697 L 269.543 377.197 C 270.987 376.672 272.478 376.423 273.929 376.423 C 277.773 376.423 281.333 378.174 282.974 381.192 C 283.227 381.66 283.431 382.155 283.581 382.667 C 283.619 382.799 283.647 382.922 283.67 383.048 C 283.728 383.304 283.785 383.574 283.823 383.87 L 284.19 383.75 C 285.405 383.355 286.703 383.162 288.01 383.162 C 290.271 383.162 292.556 383.742 294.473 384.86 C 295.259 385.319 295.963 385.852 296.575 386.448 L 296.706 386.459 L 297.483 387.465 C 297.683 387.724 297.87 387.995 298.042 388.276 C 299.203 390.183 299.551 392.28 299.049 394.346 C 298.977 394.64 298.889 394.927 298.783 395.214 C 298.706 395.421 298.621 395.625 298.527 395.824 C 301.519 396.68 304.065 398.55 305.343 401.083 C 306.441 403.263 306.495 405.654 305.492 407.814 C 304.331 410.318 301.872 412.185 298.747 412.934 L 278.912 417.697 C 278.634 420.974 275.521 424.112 272.925 426.376 C 268.113 430.574 262.107 432.692 255.035 432.692 Z " fill="rgb(0,0,0)"/><path d=" M 300.343 396.083 C 299.065 393.55 296.519 391.68 293.527 390.824 C 293.621 390.625 293.706 390.421 293.783 390.214 C 293.889 389.927 293.977 389.64 294.049 389.346 C 294.551 387.28 294.203 385.183 293.042 383.276 C 292.87 382.995 292.683 382.724 292.483 382.465 L 291.706 381.459 L 291.575 381.448 C 290.963 380.852 290.259 380.319 289.473 379.86 C 286.449 378.096 282.509 377.672 279.19 378.75 L 278.823 378.87 C 278.785 378.574 278.728 378.304 278.67 378.048 C 278.647 377.922 278.619 377.799 278.581 377.667 C 278.431 377.155 278.227 376.66 277.974 376.192 C 275.714 372.035 269.813 370.281 264.543 372.197 L 263.167 372.697 C 263.054 371.475 262.646 370.289 261.956 369.211 C 259.352 365.15 253.366 363.767 248.33 366.063 L 232.928 373.875 C 228.779 373.134 220.893 373.192 215.39 377.944 C 211.715 381.119 209.991 385.701 210.37 391.252 L 199.057 400.74 C 198.366 401.32 197.942 402.136 197.865 403.034 C 197.787 403.932 198.063 404.806 198.635 405.486 C 198.98 405.902 199.418 406.22 199.902 406.424 L 210.905 424 L 210.902 424.269 C 210.929 425.173 211.306 426.012 211.956 426.621 C 212.508 427.146 213.231 427.47 213.992 427.534 C 215.029 427.621 216.03 427.236 216.733 426.484 L 223.077 419.747 C 227.924 422.377 237.237 426.744 246.853 427.555 C 255.317 428.269 262.407 426.19 267.925 421.376 C 270.521 419.112 273.634 415.974 273.912 412.697 L 293.747 407.934 C 296.872 407.185 299.331 405.318 300.492 402.814 C 301.495 400.654 301.441 398.263 300.343 396.083 Z " fill="rgb(254,254,254)"/><path d=" M 297.415 398.471 C 297.334 398.1 297.201 397.727 297.016 397.357 C 296.84 397.01 296.622 396.683 296.373 396.373 L 296.328 396.313 C 295.834 395.716 295.207 395.201 294.495 394.774 C 294.373 394.701 294.249 394.63 294.122 394.563 C 293.826 394.404 293.518 394.262 293.197 394.135 C 292.484 393.853 291.721 393.647 290.932 393.536 C 289.728 393.367 288.468 393.409 287.253 393.701 L 266.866 398.597 L 270.662 397.359 L 276.919 395.321 L 281.716 393.758 L 286.343 392.251 C 286.806 392.1 287.236 391.916 287.631 391.703 C 289.011 390.959 289.953 389.869 290.356 388.646 C 290.76 387.423 290.625 386.067 289.849 384.794 C 288.519 382.613 285.687 381.292 282.789 381.277 C 282.306 381.274 281.821 381.309 281.341 381.381 C 281.102 381.417 280.862 381.463 280.626 381.519 C 280.389 381.574 280.154 381.64 279.922 381.716 L 271.654 384.409 C 273.514 383.466 274.739 381.996 275.089 380.433 L 275.094 380.409 C 275.124 380.269 275.148 380.128 275.165 379.986 L 275.176 379.873 C 275.186 379.755 275.193 379.636 275.193 379.517 L 275.187 379.333 C 275.183 379.232 275.178 379.132 275.165 379.032 L 275.125 378.789 L 275.076 378.54 C 275.05 378.438 275.015 378.336 274.98 378.233 L 274.92 378.048 C 274.855 377.884 274.781 377.721 274.694 377.56 C 273.782 375.883 271.813 374.827 269.563 374.6 L 269.55 374.599 C 268.204 374.464 266.76 374.625 265.383 375.126 L 252.713 379.732 L 255.573 378.431 C 259.047 376.852 260.493 373.429 258.801 370.789 C 257.109 368.151 252.922 367.293 249.448 368.875 L 233.071 377.183 C 226.662 375.471 211.826 377.152 213.509 391.716 L 213.789 392.28 L 200.913 403.082 L 213.962 423.927 L 222.116 415.267 C 228.375 419.019 251.059 431.094 265.393 418.589 C 270.843 413.834 271.115 411.318 269.006 410.085 L 292.646 404.408 C 294.506 403.962 295.918 403.007 296.731 401.813 C 296.877 401.599 297.011 401.38 297.116 401.151 C 297.194 400.984 297.261 400.814 297.315 400.642 C 297.427 400.295 297.492 399.938 297.51 399.575 C 297.527 399.212 297.497 398.842 297.415 398.471 Z " fill="rgb(236,174,113)"/><path d=" M 275.776 381.033 L 275.776 381.032 L 275.776 381.033 Z  M 287.784 392.79 C 289.557 392.007 290.873 390.706 291.456 389.131 C 291.528 388.936 291.589 388.738 291.638 388.539 C 291.979 387.132 291.734 385.689 290.928 384.366 C 290.803 384.162 290.666 383.963 290.52 383.772 L 290.419 383.642 L 290.415 383.642 C 289.84 382.933 289.105 382.314 288.23 381.804 C 285.803 380.387 282.642 380.046 279.983 380.911 L 275.566 382.351 C 275.646 382.216 275.729 382.063 275.82 381.89 C 275.868 381.795 275.917 381.701 275.987 381.546 L 276.06 381.396 C 276.078 381.347 276.09 381.298 276.123 381.176 L 276.157 381.084 C 276.179 381.016 276.191 380.948 276.222 380.79 C 276.273 380.59 276.324 380.388 276.352 380.185 C 276.377 379.981 276.38 379.78 276.381 379.58 L 276.384 379.464 C 276.388 379.368 276.391 379.273 276.384 379.176 C 276.361 378.883 276.3 378.603 276.236 378.324 L 276.201 378.156 C 276.1 377.811 275.963 377.479 275.795 377.17 C 274.14 374.125 269.481 372.852 265.415 374.331 L 259.709 376.405 C 260.055 375.88 260.318 375.32 260.487 374.746 C 260.936 373.229 260.717 371.666 259.869 370.344 C 257.955 367.358 253.258 366.358 249.384 368.122 L 233.299 376.282 C 229.342 375.337 221.858 375.461 217.042 379.621 C 213.734 382.478 212.365 386.59 212.972 391.846 L 213.033 392.08 L 200.683 402.439 C 200.503 402.59 200.394 402.801 200.374 403.033 C 200.354 403.266 200.425 403.493 200.575 403.672 C 200.881 404.041 201.435 404.09 201.808 403.779 L 214.684 392.979 C 214.995 392.719 215.086 392.283 214.905 391.92 L 214.694 391.493 C 214.2 386.924 215.375 383.374 218.187 380.944 C 222.623 377.112 229.736 377.141 233.179 378.057 C 233.393 378.115 233.613 378.089 233.799 377.992 L 250.143 369.699 C 253.231 368.294 256.934 369.008 258.396 371.29 C 258.974 372.189 259.116 373.213 258.81 374.252 C 258.392 375.665 257.201 376.908 255.543 377.661 L 252.729 378.943 L 241.457 383.043 C 241.004 383.208 240.77 383.711 240.934 384.164 C 241.1 384.616 241.602 384.852 242.056 384.688 L 266.014 375.976 C 267.403 375.47 268.947 375.324 270.362 375.569 C 272.164 375.878 273.583 376.766 274.257 378.005 C 274.364 378.202 274.453 378.416 274.521 378.64 L 274.554 378.804 L 274.595 379.023 C 274.612 379.11 274.632 379.197 274.64 379.288 C 274.648 379.395 274.642 379.5 274.637 379.606 L 274.631 379.77 L 274.621 379.943 C 274.601 380.099 274.562 380.253 274.498 380.494 L 274.465 380.614 C 274.429 380.721 274.389 380.825 274.342 380.931 C 274.281 381.067 274.211 381.202 274.134 381.337 C 274.028 381.525 273.908 381.706 273.765 381.896 C 273.212 382.604 272.432 383.22 271.558 383.657 L 250.509 390.515 C 250.052 390.664 249.8 391.158 249.949 391.619 C 250.099 392.076 250.593 392.326 251.052 392.18 L 266.534 387.134 L 271.293 385.696 C 271.666 385.561 272.033 385.401 272.333 385.246 L 280.525 382.576 C 283.864 381.487 287.861 382.699 289.434 385.277 C 290.068 386.319 290.204 387.472 289.815 388.523 C 289.33 389.834 288.087 390.899 286.404 391.446 L 266.971 397.779 L 262.636 398.82 C 262.167 398.933 261.877 399.406 261.989 399.874 C 262.1 400.335 262.598 400.631 263.045 400.522 L 287.79 394.579 C 291.313 393.732 295.249 395.167 296.565 397.779 C 297.075 398.791 297.106 399.838 296.656 400.81 C 296.044 402.128 294.629 403.141 292.773 403.585 L 269.429 409.191 C 265.119 407.114 254.702 408.806 251.03 409.496 C 250.595 407.549 249.084 402.613 244.648 400 C 240.801 397.732 235.776 397.786 229.716 400.17 C 229.498 400.254 229.327 400.42 229.233 400.634 C 229.14 400.849 229.135 401.086 229.222 401.305 C 229.399 401.752 229.907 401.977 230.355 401.798 C 235.887 399.625 240.393 399.526 243.753 401.503 C 248.542 404.32 249.458 410.577 249.466 410.64 C 249.499 410.88 249.629 411.097 249.825 411.235 C 250.024 411.379 250.274 411.429 250.507 411.381 C 254.595 410.553 263.433 409.271 267.617 410.354 C 268.225 410.509 268.706 410.711 269.05 410.952 C 269.301 411.127 269.479 411.318 269.577 411.521 C 269.845 412.062 269.947 413.771 265.148 417.958 C 251.647 429.736 229.807 418.558 223.435 414.852 C 223.112 414.664 222.813 414.488 222.558 414.334 C 221.765 413.854 221.312 413.556 221.278 413.532 C 221.084 413.4 220.851 413.354 220.621 413.398 C 220.391 413.443 220.192 413.576 220.063 413.769 C 219.933 413.963 219.885 414.195 219.93 414.425 C 219.975 414.655 220.106 414.853 220.296 414.98 C 220.323 414.999 220.596 415.179 221.076 415.478 L 213.657 423.355 C 213.497 423.525 213.413 423.747 213.419 423.98 C 213.426 424.214 213.524 424.432 213.694 424.591 C 213.836 424.727 214.023 424.811 214.22 424.827 C 214.489 424.85 214.749 424.75 214.931 424.555 L 222.613 416.396 C 226.701 418.765 236.726 423.975 247.081 424.848 C 254.845 425.503 261.312 423.628 266.3 419.276 C 270.561 415.56 272.146 412.769 271.146 410.746 L 271.066 410.598 L 293.182 405.287 C 295.56 404.717 297.404 403.354 298.243 401.547 C 298.917 400.094 298.877 398.476 298.129 396.992 C 296.521 393.802 291.947 391.972 287.784 392.79 Z " fill="rgb(0,0,0)"/><path d=" M 228.789 391.57 C 228.389 391.834 228.275 392.376 228.537 392.778 C 228.685 393.007 228.926 393.15 229.197 393.174 C 229.389 393.189 229.583 393.142 229.747 393.035 C 229.923 392.921 234.036 390.142 230.768 383.198 C 230.668 382.985 230.49 382.824 230.268 382.746 C 230.048 382.669 229.812 382.681 229.604 382.779 C 229.393 382.879 229.232 383.055 229.153 383.274 C 229.074 383.494 229.085 383.732 229.185 383.943 C 231.789 389.478 228.926 391.479 228.789 391.57 Z " fill="rgb(0,0,0)"/></g></svg>