<?xml version="1.0" encoding="UTF-8" standalone="no"?><!-- Generator: Gravit.io --><svg xmlns="http://www.w3.org/2000/svg" xmlns:xlink="http://www.w3.org/1999/xlink" style="isolation:isolate" viewBox="331.374 352.637 83.739 93.302" width="83.739pt" height="93.302pt"><g><path d=" M 371.32 445.939 C 367.362 445.939 362.873 445.126 357.829 443.117 C 357.107 443.192 356.406 443.23 355.729 443.23 C 353.491 443.23 351.502 442.82 349.792 442.005 C 346.715 440.533 344.696 437.83 343.955 434.185 C 343.538 432.139 343.85 430.207 344.854 428.54 C 342.26 426.594 340.754 423.693 340.485 420.1 C 340.36 418.422 340.677 416.872 341.406 415.521 C 338.435 413.11 336.892 409.616 336.939 405.395 C 336.968 402.747 337.966 400.476 339.832 398.805 C 336.945 395.538 335.834 391.312 336.619 386.533 C 337.136 383.378 338.824 380.785 341.501 379.035 C 344.387 377.149 348.476 376.205 353.731 376.205 C 357.513 376.205 361.898 376.694 366.872 377.672 C 366.33 374.45 366.729 371.269 368.067 368.166 C 372.078 358.875 376.901 357.637 379.178 357.637 C 379.335 357.637 379.479 357.643 379.61 357.652 C 382.2 357.833 384.331 359.605 385.033 362.169 C 385.465 363.742 385.488 365.582 385.517 367.714 C 385.556 370.675 385.605 374.359 386.995 376.438 C 387.99 377.929 389.052 378.946 390.28 380.124 C 391.998 381.771 394.122 383.81 395.939 387.432 C 402.021 394.011 403.285 399.473 403.164 403.1 L 412.273 404.562 C 414.108 404.857 415.364 406.591 415.071 408.427 C 414.944 409.192 414.579 409.853 414.06 410.343 L 412.485 431.103 C 413.063 431.849 413.329 432.831 413.133 433.827 C 412.879 435.094 411.952 436.087 410.713 436.427 C 410.42 436.507 410.123 436.547 409.824 436.547 C 409.604 436.547 409.383 436.525 409.162 436.481 L 394.062 433.479 C 391.293 437.547 384.039 445.939 371.32 445.939 Z " fill="rgb(0,0,0)"/><path d=" M 407.273 399.563 L 398.164 398.1 C 398.285 394.473 397.021 389.011 390.939 382.432 C 389.122 378.81 386.998 376.771 385.28 375.124 C 384.052 373.946 382.99 372.929 381.995 371.438 C 380.605 369.359 380.556 365.675 380.517 362.714 C 380.488 360.582 380.465 358.742 380.033 357.169 C 379.331 354.605 377.2 352.833 374.61 352.652 C 372.567 352.505 367.354 353.237 363.067 363.166 C 361.729 366.269 361.33 369.45 361.872 372.672 C 349.986 370.334 341.463 370.791 336.501 374.035 C 333.824 375.785 332.136 378.378 331.619 381.533 C 330.834 386.313 331.945 390.538 334.832 393.805 C 332.966 395.476 331.968 397.747 331.939 400.396 C 331.892 404.616 333.435 408.11 336.406 410.521 C 335.677 411.872 335.36 413.422 335.485 415.1 C 335.754 418.693 337.26 421.594 339.854 423.54 C 338.85 425.207 338.538 427.139 338.955 429.185 C 339.696 432.83 341.715 435.533 344.792 437.005 C 347.021 438.067 349.721 438.44 352.829 438.117 C 374.086 446.582 385.431 433.813 389.063 428.479 L 404.162 431.481 C 404.682 431.585 405.203 431.566 405.713 431.427 C 406.952 431.087 407.879 430.094 408.133 428.827 C 408.329 427.831 408.063 426.849 407.485 426.103 L 409.06 405.343 C 409.579 404.853 409.944 404.192 410.071 403.427 C 410.364 401.591 409.108 399.857 407.273 399.563 Z " fill="rgb(254,254,254)"/><path d=" M 394.221 400.884 C 395.572 397.458 394.94 391.575 388.136 384.373 C 385.438 378.687 382.079 377.64 379.188 373.313 C 376.191 368.829 377.679 361.35 376.778 358.061 C 375.877 354.771 370.493 354.479 366.167 364.503 C 364.01 369.501 365.236 374.012 367.007 377.279 C 355.246 374.346 336.687 371.487 334.949 382.079 C 333.942 388.215 336.793 392.077 341.057 394.447 C 337.729 395.23 335.352 396.995 335.313 400.435 C 335.256 405.749 338.29 408.487 342.046 409.78 C 339.975 410.776 338.667 412.369 338.852 414.848 C 339.224 419.828 342.508 421.928 346.207 422.606 C 343.467 423.787 341.677 425.634 342.262 428.513 C 343.486 434.53 348.799 435.334 353.316 434.668 C 375.602 444.007 385.506 428.279 387.411 424.709 L 404.821 428.171 L 406.738 402.895 L 394.221 400.884 Z " fill="rgb(236,174,113)"/><path d=" M 362.189 416.195 C 361.984 418.054 360.747 418.956 358.819 419.811 C 358.026 420.162 357.104 420.511 356.224 420.836 L 355.898 420.956 C 354.889 421.326 353.414 421.656 351.962 421.836 C 351.641 421.876 351.313 421.91 350.979 421.938 C 350.136 422.004 349.29 422.02 348.462 421.982 C 347.644 421.944 346.91 421.86 346.218 421.725 C 344.896 421.465 343.752 421.029 342.82 420.43 C 340.955 419.229 339.914 417.329 339.725 414.782 C 339.627 413.492 339.991 412.462 340.838 411.635 C 341.18 411.301 341.613 410.993 342.128 410.72 C 345.521 411.792 349.109 411.713 350.963 411.566 C 351.313 411.538 351.65 411.506 351.976 411.468 C 353.06 411.342 354.039 411.164 354.808 410.954 C 356.227 410.564 357.323 410.259 358.346 409.906 C 359.327 410.314 360.191 410.95 360.85 411.752 C 361.874 412.997 362.354 414.545 362.199 416.109 L 362.189 416.195 Z  M 353.347 433.786 C 352.688 433.89 352.017 433.955 351.349 433.981 C 349.491 434.052 347.9 433.778 346.623 433.169 C 344.771 432.283 343.592 430.658 343.119 428.339 C 342.882 427.17 343.095 426.188 343.771 425.335 C 344.313 424.652 345.174 424.04 346.333 423.513 C 347.772 423.748 349.356 423.804 351.042 423.678 C 351.389 423.651 351.728 423.618 352.058 423.58 C 353.729 423.385 355.373 423.016 356.525 422.59 C 357.471 422.242 358.366 421.913 359.178 421.567 C 360.329 421.767 361.419 422.307 362.255 423.097 C 363.34 424.121 363.96 425.486 364 426.94 L 364.001 427.019 C 364.038 429.379 362.163 430.353 358.76 432.121 C 357.716 432.661 355.672 433.421 353.347 433.786 Z  M 358.234 408.095 C 357.717 408.286 357.123 408.479 356.365 408.699 C 355.735 408.884 355.065 409.068 354.346 409.266 C 353.681 409.448 352.828 409.606 351.881 409.724 C 351.564 409.763 351.236 409.796 350.895 409.823 C 349.104 409.974 346.402 410.013 343.694 409.355 C 343.133 409.218 342.624 409.066 342.143 408.891 C 341.021 408.484 340.047 407.966 339.245 407.348 C 337.184 405.758 336.156 403.436 336.188 400.444 C 336.205 398.909 336.742 397.727 337.828 396.832 C 338.55 396.237 339.54 395.765 340.771 395.428 L 340.938 395.39 L 340.964 395.385 C 343.627 396.8 346.933 397.784 350.793 398.31 L 351.081 398.349 C 351.322 398.383 351.563 398.416 351.804 398.443 C 354.787 398.778 358.023 398.822 360.723 398.565 C 360.826 398.695 360.925 398.827 361.02 398.964 C 362.096 400.53 362.501 402.395 362.162 404.212 L 362.144 404.308 C 361.78 406.132 360.686 407.193 358.234 408.095 Z  M 347.59 379.358 C 347.357 379.329 347.129 379.396 346.948 379.541 C 346.764 379.687 346.647 379.895 346.621 380.128 C 346.595 380.359 346.66 380.589 346.806 380.771 C 346.951 380.955 347.159 381.069 347.395 381.097 L 352.1 381.627 C 356.987 382.176 365.455 383.119 369.331 383.501 C 366.004 388.038 364.298 392.338 364.251 396.296 C 363.491 396.418 362.699 396.54 361.872 396.665 C 361.733 396.686 361.578 396.704 361.423 396.723 L 361.229 396.746 C 360.829 396.794 360.399 396.835 359.931 396.868 C 357.432 397.049 354.573 396.976 351.881 396.664 C 351.552 396.626 351.22 396.579 350.889 396.532 C 347.8 396.101 345.083 395.361 342.815 394.336 C 342.313 394.108 341.817 393.857 341.346 393.59 C 340.151 392.914 339.194 392.205 338.42 391.421 C 336.077 389.051 335.199 385.955 335.812 382.221 C 336.138 380.244 337.151 378.687 338.828 377.591 C 339.699 377.021 340.772 376.559 342.018 376.218 C 348.662 374.397 358.944 376.196 366.461 378.047 L 366.524 378.16 C 366.731 378.52 366.943 378.863 367.156 379.189 C 367.819 380.206 368.496 381.062 369.065 381.718 C 365.762 381.386 359.818 380.729 355.189 380.212 L 347.59 379.358 Z  M 406.877 402.031 L 395.363 400.182 C 396.12 397.24 396.066 391.53 388.858 383.866 C 387.202 380.434 385.263 378.571 383.55 376.929 C 382.271 375.701 381.062 374.542 379.916 372.827 C 378.115 370.133 378.061 366.04 378.017 362.747 C 377.991 360.786 377.969 359.094 377.622 357.83 C 377.198 356.282 375.977 355.253 374.432 355.146 C 373.254 355.061 369.112 355.471 365.363 364.156 C 363.71 367.986 363.74 371.969 365.452 376.003 C 356.078 373.804 343.965 372.143 337.87 376.127 C 335.766 377.503 334.492 379.458 334.086 381.938 C 333.377 386.256 334.416 389.86 337.175 392.651 C 337.705 393.187 338.302 393.688 338.99 394.177 C 338.099 394.533 337.336 394.97 336.716 395.482 C 335.228 396.707 334.461 398.37 334.438 400.423 C 334.399 403.993 335.656 406.789 338.175 408.733 C 338.753 409.179 339.399 409.573 340.141 409.932 C 339.943 410.082 339.771 410.23 339.613 410.384 C 338.394 411.578 337.844 413.103 337.979 414.913 C 338.212 418.037 339.522 420.389 341.873 421.901 C 342.469 422.284 343.146 422.613 343.892 422.882 C 343.286 423.302 342.787 423.76 342.4 424.247 C 341.397 425.513 341.063 427.007 341.404 428.687 C 341.992 431.574 343.494 433.613 345.868 434.748 C 347.812 435.675 350.269 435.948 353.173 435.559 C 375.232 444.687 385.677 429.479 387.866 425.691 L 404.65 429.029 C 404.785 429.057 404.92 429.052 405.053 429.016 C 405.373 428.928 405.614 428.67 405.68 428.342 C 405.773 427.869 405.465 427.408 404.992 427.313 L 387.581 423.851 C 387.201 423.775 386.823 423.957 386.64 424.297 C 385.04 427.293 376.17 441.642 356.378 434.891 C 357.58 434.546 358.73 434.107 359.569 433.672 C 363.036 431.872 365.778 430.446 365.751 426.999 L 365.749 426.891 C 365.696 424.97 364.882 423.17 363.456 421.823 C 362.854 421.256 362.14 420.78 361.36 420.428 C 362.837 419.443 363.635 418.253 363.891 416.663 L 363.902 416.664 L 363.975 415.983 L 363.965 415.98 C 364.078 414.057 363.459 412.171 362.202 410.641 C 361.694 410.022 361.096 409.484 360.42 409.037 C 362.396 408.003 363.466 406.63 363.858 404.656 L 363.883 404.534 C 364.284 402.385 363.858 400.191 362.683 398.311 C 363.253 398.224 363.803 398.137 364.342 398.051 C 364.397 398.541 364.477 399.015 364.578 399.463 C 366.104 406.21 372.301 409.274 372.563 409.401 C 372.981 409.604 373.533 409.412 373.732 408.996 C 373.835 408.786 373.849 408.549 373.772 408.328 C 373.695 408.107 373.537 407.929 373.328 407.828 C 373.271 407.8 367.616 404.963 366.286 399.077 C 366.167 398.556 366.085 397.998 366.039 397.422 C 366.014 397.1 365.999 396.775 365.999 396.448 C 366.004 392.427 367.958 387.949 371.805 383.141 C 372.099 382.773 372.052 382.244 371.699 381.936 C 371.643 381.886 370.311 380.692 368.944 378.725 C 368.762 378.46 368.577 378.185 368.397 377.896 L 368.293 377.723 C 368.09 377.393 367.892 377.046 367.701 376.682 C 365.571 372.643 365.325 368.662 366.971 364.85 C 369.588 358.787 372.552 356.773 374.31 356.891 C 375.113 356.947 375.706 357.458 375.935 358.292 C 376.222 359.339 376.243 360.93 376.266 362.773 C 376.313 366.293 376.372 370.674 378.461 373.799 C 379.712 375.671 381.047 376.953 382.338 378.192 C 383.507 379.313 384.715 380.472 385.815 382.063 C 386.364 382.857 386.891 383.787 387.379 384.826 L 387.72 385.21 C 387.889 385.385 388.058 385.56 388.21 385.73 C 395.327 393.674 393.986 399.092 393.406 400.563 C 393.309 400.81 393.328 401.084 393.46 401.315 C 393.591 401.548 393.817 401.706 394.081 401.748 L 406.602 403.758 C 407.075 403.834 407.523 403.508 407.603 403.033 C 407.679 402.557 407.353 402.107 406.877 402.031 Z " fill="rgb(0,0,0)"/><path d=" M 375.848 414.056 L 375.846 414.058 C 375.413 414.403 365.263 422.607 367.188 429.639 C 367.315 430.104 367.798 430.379 368.264 430.252 C 368.729 430.124 369.004 429.642 368.876 429.177 C 367.247 423.228 376.839 415.504 376.938 415.427 C 377.313 415.126 377.376 414.574 377.075 414.195 C 376.775 413.822 376.225 413.758 375.848 414.056 Z " fill="rgb(0,0,0)"/></g></svg>