<?xml version="1.0" encoding="UTF-8" standalone="no"?><!-- Generator: Gravit.io --><svg xmlns="http://www.w3.org/2000/svg" xmlns:xlink="http://www.w3.org/1999/xlink" style="isolation:isolate" viewBox="88.626 119.018 83.24 101.958" width="83.24pt" height="101.958pt"><g><path d=" M 131.211 220.976 C 129.709 220.976 128.409 220.008 127.978 218.568 L 124.064 205.523 C 120.224 207.359 116.876 208.069 113.972 208.068 C 106.679 208.068 102.198 203.59 99.839 201.232 C 93.386 194.779 91.703 184.669 96.005 178.214 C 96.42 177.591 96.858 177.037 97.316 176.554 C 96.158 175.365 95.349 173.804 95.028 172.06 C 94.36 168.422 93.449 156.175 109.78 151.276 C 112.613 150.426 115.365 150 118.007 150 L 118.017 150 C 116.849 148.208 115.443 146.474 113.84 145.272 C 107.774 140.724 105.336 135.212 105.078 131.571 C 104.889 128.911 105.833 127.37 106.658 126.545 C 108.324 124.879 110.037 124.018 112.134 124.018 C 114.776 124.018 118.027 125.386 122.555 128.234 C 122.974 127.312 123.537 126.693 124.04 126.29 C 125.643 125.001 127.216 124.326 128.976 124.326 C 132.037 124.326 135.663 126.366 140.996 130.763 C 141.34 130.464 141.681 130.246 141.988 130.088 C 143.224 129.451 144.363 129.124 145.5 129.124 C 148.868 129.124 152.213 131.996 157.962 138.2 C 168.171 149.216 170.955 171.822 171.187 173.86 C 171.57 175.686 173.526 186.413 168.334 192.115 C 166.913 193.675 165.093 194.715 162.97 195.196 L 166.843 208.105 C 167.377 209.888 166.361 211.772 164.58 212.307 C 164.259 212.403 163.932 212.451 163.607 212.451 C 163.049 212.451 162.497 212.311 161.994 212.036 C 161.751 211.904 161.528 211.745 161.329 211.563 L 134.071 219.381 C 133.651 220.057 132.996 220.588 132.182 220.833 C 131.866 220.928 131.54 220.976 131.211 220.976 Z  M 117.997 170.568 C 115.474 170.568 112.912 171.917 110.918 174.334 C 110.121 175.3 109.333 176.08 108.563 176.702 C 109.552 177.527 110.481 178.457 111.371 179.346 C 112.604 180.578 113.596 181.655 114.471 182.606 C 117.506 185.9 118.581 186.942 120.98 186.942 C 122.775 186.942 125.155 186.505 126.302 184.419 C 127.595 182.068 126.981 178.265 124.738 174.728 C 123.14 172.208 120.895 170.735 118.418 170.581 C 118.278 170.572 118.138 170.568 117.997 170.568 Z " fill="rgb(0,0,0)"/><path d=" M 121.302 179.419 C 120.155 181.505 117.775 181.942 115.98 181.942 C 113.581 181.942 112.506 180.9 109.471 177.606 C 108.596 176.655 107.604 175.578 106.371 174.346 C 105.481 173.457 104.552 172.527 103.563 171.702 C 104.333 171.08 105.121 170.3 105.918 169.334 C 108.023 166.782 110.761 165.421 113.418 165.581 C 115.896 165.735 118.14 167.208 119.738 169.729 C 121.981 173.265 122.595 177.068 121.302 179.419 Z  M 166.187 168.86 C 165.955 166.822 163.171 144.216 152.962 133.2 C 145.272 124.901 141.885 122.564 136.988 125.088 C 136.681 125.246 136.34 125.464 135.996 125.763 C 127.596 118.836 123.429 117.76 119.04 121.29 C 118.537 121.693 117.974 122.312 117.555 123.234 C 109.435 118.127 105.423 117.779 101.658 121.545 C 100.833 122.37 99.889 123.911 100.078 126.571 C 100.336 130.212 102.774 135.724 108.84 140.272 C 110.443 141.474 111.849 143.208 113.017 145 L 113.007 145 C 110.365 145 107.613 145.426 104.78 146.276 C 88.449 151.175 89.36 163.422 90.028 167.06 C 90.349 168.804 91.158 170.365 92.315 171.554 C 91.858 172.037 91.42 172.591 91.005 173.214 C 86.703 179.669 88.386 189.779 94.839 196.232 C 98.137 199.528 105.581 206.97 119.064 200.523 L 122.978 213.568 C 123.409 215.008 124.708 215.976 126.211 215.976 C 126.54 215.976 126.866 215.928 127.182 215.833 C 127.996 215.588 128.651 215.057 129.071 214.381 L 156.329 206.563 C 156.528 206.745 156.751 206.904 156.994 207.036 C 157.791 207.471 158.708 207.569 159.58 207.307 C 161.361 206.772 162.376 204.888 161.843 203.105 L 157.97 190.196 C 160.093 189.715 161.913 188.675 163.334 187.115 C 168.526 181.413 166.57 170.686 166.187 168.86 Z " fill="rgb(254,254,254)"/><path d=" M 158.61 204.075 L 153.988 187.063 C 153.822 187.048 153.666 187.044 153.495 187.022 L 158.61 204.075 Z " fill="rgb(236,174,113)"/><path d=" M 162.845 169.34 C 162.845 169.34 160.315 146.098 150.487 135.494 C 142.129 126.475 140.678 126.983 138.535 128.087 C 137.737 128.498 137.175 129.729 137.035 131.469 C 136.159 130.454 135.262 129.545 134.348 128.782 C 124.913 120.897 123.034 122.408 121.154 123.919 C 120.149 124.728 119.968 127.103 120.959 130.023 C 119.876 128.987 118.781 128.072 117.686 127.341 C 107.455 120.521 105.75 122.226 104.044 123.931 C 102.339 125.636 104.044 132.457 110.865 137.572 C 114.694 140.444 117.448 145.466 119.127 149.318 C 115.647 148.163 111.229 147.865 105.75 149.509 C 92.531 153.474 92.633 162.563 93.347 166.449 C 93.639 168.034 94.591 169.471 96.057 170.14 C 97.735 170.905 100.262 170.887 103.315 167.186 C 108.941 160.366 117.854 160.456 122.589 167.921 C 128.008 176.466 125.287 185.317 115.98 185.317 C 110.865 185.317 109.16 181.907 104.044 176.792 C 100.634 173.381 97.224 169.971 93.813 175.086 C 90.403 180.202 91.831 188.451 97.224 193.843 C 100.634 197.254 107.455 204.075 121.096 195.549 L 126.211 212.601 L 158 203.483 L 153.495 187.022 L 153.937 186.875 L 153.988 187.063 C 167.016 188.229 162.845 169.34 162.845 169.34 Z " fill="rgb(236,174,113)"/><path d=" M 115.98 184.442 C 112.37 184.442 110.587 182.507 107.632 179.299 C 106.772 178.366 105.798 177.308 104.65 176.161 C 102.29 173.8 99.854 171.344 97.174 171.623 C 95.659 171.772 94.321 172.747 93.085 174.601 C 89.42 180.1 90.966 188.823 96.605 194.462 C 99.989 197.846 106.993 204.853 120.583 196.883 L 125.373 212.852 C 125.485 213.225 125.822 213.476 126.211 213.476 L 126.463 213.438 C 126.925 213.3 127.188 212.811 127.05 212.349 L 121.934 195.297 C 121.855 195.037 121.657 194.825 121.403 194.73 C 121.144 194.633 120.863 194.662 120.632 194.807 C 107.581 202.964 101.245 196.628 97.842 193.225 C 92.772 188.155 91.322 180.401 94.541 175.572 C 95.468 174.181 96.386 173.459 97.347 173.364 C 99.208 173.181 101.345 175.33 103.425 177.41 C 104.534 178.519 105.495 179.563 106.345 180.485 C 109.511 183.922 111.603 186.192 115.98 186.192 C 120.138 186.192 123.351 184.514 125.026 181.467 C 127.117 177.666 126.482 172.427 123.328 167.453 C 120.98 163.751 117.555 161.58 113.684 161.338 C 109.649 161.097 105.621 163.016 102.64 166.629 C 100.431 169.307 98.337 170.221 96.42 169.343 C 95.292 168.829 94.465 167.688 94.208 166.291 C 93.559 162.755 93.408 154.125 106.001 150.347 C 110.6 148.966 114.845 148.863 118.62 150.039 C 119.06 150.176 119.482 150.329 119.891 150.493 C 126.027 152.953 128.729 158.205 128.84 158.426 C 128.945 158.637 129.126 158.793 129.349 158.867 C 129.571 158.939 129.808 158.922 130.014 158.817 C 130.445 158.601 130.62 158.074 130.405 157.644 C 130.374 157.581 127.188 151.318 119.804 148.656 C 118.132 144.881 115.332 139.829 111.39 136.873 C 106.779 133.415 104.516 129.056 104.317 126.27 C 104.25 125.324 104.452 124.761 104.663 124.55 C 106.091 123.124 107.568 121.649 117.2 128.069 C 118.042 128.631 118.933 129.34 119.848 130.177 C 120.327 130.616 120.804 131.086 121.279 131.577 C 129.789 140.369 137.278 156.534 137.354 156.696 C 137.548 157.12 138.087 157.32 138.515 157.124 C 138.727 157.026 138.888 156.852 138.969 156.632 C 139.05 156.413 139.041 156.175 138.942 155.963 C 138.601 155.223 130.494 137.787 121.393 129.222 C 121.212 128.227 121.139 127.236 121.174 126.274 C 121.209 125.326 121.47 124.789 121.703 124.601 C 123.275 123.336 124.902 122.027 133.787 129.453 C 134.583 130.119 135.41 130.939 136.242 131.891 C 136.571 132.266 136.896 132.659 137.218 133.064 C 144.792 142.589 150.674 159.914 150.733 160.088 C 150.884 160.534 151.388 160.79 151.842 160.639 C 152.298 160.484 152.545 159.987 152.392 159.53 C 152.134 158.763 146 140.706 137.944 131.187 C 137.98 130.894 138.026 130.629 138.082 130.398 C 138.306 129.477 138.67 129.002 138.936 128.865 C 140.653 127.979 141.789 127.396 149.846 136.088 C 159.176 146.157 161.873 168.532 161.99 169.528 C 162.013 169.631 164.2 179.853 160.19 184.254 C 158.712 185.876 156.497 186.515 153.601 186.154 C 153.308 186.12 153.016 186.233 152.826 186.458 C 152.635 186.685 152.571 186.99 152.656 187.274 L 157.771 204.326 C 157.907 204.78 158.393 205.053 158.861 204.913 C 159.323 204.774 159.586 204.285 159.448 203.823 L 154.7 187.997 C 157.568 188.092 159.848 187.23 161.485 185.432 C 166.181 180.275 163.732 169.312 163.714 169.245 C 163.61 168.284 161.04 145.593 151.129 134.899 C 142.98 126.106 141.001 125.833 138.134 127.31 C 137.396 127.69 136.832 128.473 136.491 129.585 C 135.946 129.027 135.424 128.541 134.909 128.11 C 125.641 120.365 123.135 121.205 120.606 123.238 C 119.884 123.818 119.476 124.846 119.425 126.209 C 119.409 126.641 119.412 127.082 119.432 127.526 C 119.007 127.195 118.585 126.89 118.171 126.613 C 108.12 119.912 105.72 121.019 103.425 123.313 C 102.77 123.968 102.475 125.033 102.572 126.394 C 102.781 129.344 104.942 134.225 110.34 138.272 C 113.547 140.677 115.985 144.756 117.55 147.998 C 113.843 147.157 109.794 147.381 105.498 148.67 C 91.549 152.855 91.752 162.608 92.487 166.607 C 92.847 168.565 94.045 170.183 95.694 170.936 C 97.57 171.789 100.533 171.933 103.99 167.743 C 106.604 164.575 110.087 162.868 113.574 163.085 C 116.872 163.291 119.811 165.175 121.85 168.39 C 124.615 172.75 125.245 177.438 123.493 180.624 C 122.139 183.086 119.471 184.442 115.98 184.442 Z " fill="rgb(0,0,0)"/></g></svg>