<svg xmlns="http://www.w3.org/2000/svg" width="200" height="200" fill="none" viewBox="0 0 200 200"><path fill="#fff" d="M146.171 100c15.016-2.97 29.791-10.309 38.806-19.953l10.235-10.949-14.716-2.842c-12.962-2.504-29.229.244-43.123 6.668 10.403-11.23 18.043-25.851 19.667-38.952l1.845-14.874-13.576 6.35c-11.958 5.594-23.503 17.378-30.969 30.742 1.816-15.2-.597-31.52-6.984-43.073L100.106 0l-7.25 13.117c-6.387 11.554-8.8 27.874-6.985 43.073-7.465-13.364-19.01-25.149-30.968-30.742l-13.576-6.35 1.844 14.874c1.625 13.1 9.265 27.722 19.668 38.952-13.894-6.424-30.162-9.171-43.124-6.668L5 69.098l10.234 10.949C24.25 89.691 39.024 97.03 54.041 100c-15.016 2.97-29.792 10.308-38.807 19.953L5 130.902l14.715 2.842c12.962 2.504 29.23-.244 43.124-6.668-10.403 11.23-18.043 25.851-19.668 38.952l-1.844 14.873 13.575-6.349c11.959-5.594 23.504-17.378 30.969-30.742-1.816 15.199.597 31.519 6.984 43.073l7.25 13.117 7.25-13.117c6.387-11.554 8.8-27.874 6.985-43.073 7.465 13.364 19.01 25.149 30.968 30.742l13.575 6.349-1.844-14.873c-1.625-13.101-9.265-27.722-19.667-38.952 13.894 6.424 30.161 9.171 43.123 6.668l14.715-2.842-10.234-10.949c-9.014-9.644-23.789-16.983-38.805-19.953Z"/></svg>