<svg xmlns="http://www.w3.org/2000/svg" width="200" height="200" fill="none" viewBox="0 0 200 200"><path fill="#fff" fill-rule="evenodd" d="M184.977 80.047c-9.015 9.644-23.79 16.983-38.806 19.953 15.016 2.97 29.791 10.309 38.805 19.953l10.234 10.949-14.715 2.842c-12.962 2.503-29.229-.244-43.123-6.668 10.402 11.23 18.042 25.851 19.667 38.952l1.844 14.873-13.575-6.349c-11.958-5.593-23.503-17.378-30.968-30.742 1.815 15.199-.598 31.519-6.985 43.073L100.105 200l-7.25-13.117c-6.387-11.554-8.8-27.874-6.984-43.073-7.465 13.364-19.01 25.148-30.969 30.742l-13.575 6.349 1.844-14.873c1.625-13.101 9.265-27.722 19.668-38.952-13.895 6.424-30.162 9.172-43.124 6.668L5 130.902l10.234-10.949c9.015-9.645 23.79-16.983 38.807-19.953-15.017-2.97-29.792-10.309-38.807-19.953L5 69.098l14.715-2.842c12.962-2.503 29.23.244 43.124 6.668-10.403-11.23-18.043-25.851-19.668-38.952l-1.844-14.874 13.576 6.35C66.86 31.041 78.406 42.826 85.87 56.19c-1.816-15.2.598-31.52 6.984-43.073L100.106 0l7.25 13.117c6.387 11.554 8.8 27.874 6.984 43.073 7.466-13.364 19.011-25.148 30.969-30.742l13.576-6.35-1.845 14.874c-1.624 13.1-9.264 27.722-19.667 38.952 13.894-6.424 30.161-9.172 43.123-6.668l14.716 2.842-10.235 10.949ZM81.254 118.696c10.278 10.278 26.943 10.278 37.221 0 10.278-10.278 10.278-26.943 0-37.22-10.278-10.28-26.942-10.28-37.22 0-10.279 10.277-10.279 26.942 0 37.22Z" clip-rule="evenodd"/></svg>