<svg xmlns="http://www.w3.org/2000/svg" width="60" height="60" fill="none" viewBox="0 0 60 60"><path fill="#fff" d="M55.1 26.1c5.1-3.1 4.1-6.5-1.9-6.3 4.1-4.4 2.3-7.3-3.4-5.6 2.9-5.3.3-7.7-4.8-4.5 1.4-5.8-1.7-7.5-5.8-3.1-.1-6.1-3.6-6.8-6.5-1.4-1.7-5.9-5.3-5.9-6.6.1-3.2-5.1-6.5-4.1-6.3 1.9-4.4-4.1-7.3-2.3-5.6 3.5-5.3-2.8-7.7-.3-4.5 4.8-5.8-1.4-7.5 1.7-3.1 5.8-5.9.2-6.8 3.5-1.6 6.3-5.6 1.7-5.4 5.2.4 6.5-5.1 3.1-4.1 6.5 1.9 6.3-4.1 4.4-2.3 7.3 3.4 5.6-2.9 5.3-.3 7.7 4.8 4.5-1.4 5.8 1.7 7.5 5.8 3.1.1 6.1 3.6 6.8 6.5 1.4 1.7 5.9 5.3 5.9 6.6-.1 3.2 5.1 6.5 4.1 6.3-1.9 4.4 4.1 7.3 2.3 5.6-3.5 5.3 2.8 7.7.3 4.5-4.8 5.8 1.4 7.5-1.7 3.1-5.8 5.9-.2 6.8-3.5 1.6-6.3 5.6-1.8 5.4-5.2-.4-6.5Z"/></svg>