<svg xmlns="http://www.w3.org/2000/svg" width="200" height="200" fill="none" viewBox="0 0 200 200"><path fill="#fff" d="m100 0 2.665 74.64 18.126-72.455-12.911 73.563 32.794-67.103-27.924 69.271 46.029-58.818-41.716 61.952 57.251-47.963L120.63 85.01 186.603 50l-63.308 39.628 71.811-20.53-70.163 25.6 74.509-5.15L125.5 100l73.952 10.453-74.509-5.151 70.163 25.6-71.811-20.53L186.603 150l-65.973-35.011 53.684 51.924-57.251-47.963 41.716 61.952-46.029-58.818 27.924 69.271-32.794-67.103 12.911 73.563-18.126-72.455L100 200l-2.665-74.64-18.126 72.455 12.911-73.563-32.794 67.103 27.924-69.271-46.029 58.818 41.716-61.952-57.251 47.963 53.684-51.924L13.397 150l63.308-39.628-71.81 20.53 70.162-25.6-74.51 5.151L74.5 100 .548 89.547l74.51 5.151-70.164-25.6 71.81 20.53L13.399 50 79.37 85.011 25.686 33.087l57.25 47.963-41.714-61.952L87.25 77.916 59.326 8.646 92.12 75.747 79.21 2.185 97.335 74.64 100 0Z"/></svg>