<svg xmlns="http://www.w3.org/2000/svg" width="56" height="56" fill="none" viewBox="0 0 56 56"><path fill="#fff" d="M45.6 23.5c-.1-.2-.1-.5-.2-.7 2.7-2.4 8.5-3.9 8 1.8C60.3 18.3 45 9 40.9 15.7c-.2-.2-.3-.3-.5-.4 1-3.5 5.4-8 7.9-2.7 2.8-9-15.3-9.3-15.3-1.3-.2-.1-.4-.1-.6-.1-1-3.4.5-9.9 5.4-6.4-2-9.2-18-.4-13.9 6.5-.2 0-.4.1-.6.2-2.6-2.5-4.5-8.8 1.5-8.3-6.3-6.9-15.7 8.5-8.8 12.6-.2.1-.3.3-.5.5-3.5-.9-8.1-5.4-2.7-7.9-8.9-2.8-9.3 14.9-1.6 15.3-.1.2-.1.5-.2.7-3.5.8-9.4-.8-6.1-5.5-9 2-.8 17.2 6 14.2.1.3.1.5.2.8-2.7 2.3-8.3 3.7-7.8-1.9-6.7 6.1 7.5 15.1 12.1 9.4l.6.6c-1.3 3.3-5.3 7-7.7 2-2.7 8.6 13.8 9.3 15.2 2.3.3.1.6.2.9.2.5 3.5-1.2 8.5-5.7 5.4 1.9 8.8 16.6 1.1 14.3-5.6l.9-.3c2.2 2.8 3.2 8-2.2 7.5 6.1 6.7 15-7.5 9.5-12.1l.6-.6c3.3 1.3 6.9 5.3 2 7.6 8.7 2.7 9.3-14.3 2-15.3.1-.3.1-.5.2-.8 3.5-.6 9 1 5.7 5.6 9.1-2.4.8-17.8-6.1-14.4Z"/></svg>