<svg xmlns="http://www.w3.org/2000/svg" fill="#FFFFFF" id="Capa_1" width="327.523" height="327.524" x="0" y="0" version="1.1" viewBox="0 0 327.523 327.524"><path d="M327.381 112.058c-.162-1.044-.493-2.066-.896-3.05-.09-.213-.09-.43-.186-.646a.25.25 0 0 1-.036-.048c0-.024-.012-.036-.024-.051l-36.221-76.91c-.084-.177-.24-.336-.336-.516-.126-.216-.168-.48-.307-.694-.276-.468-.654-.832-.979-1.249-.33-.429-.631-.892-.997-1.272-.54-.564-1.159-1.045-1.789-1.514-.396-.312-.769-.657-1.201-.91-.732-.441-1.525-.756-2.33-1.057-.402-.153-.792-.387-1.213-.504a14.29 14.29 0 0 0-3.891-.553H63.509c-1.267 0-2.495.177-3.69.489-.417.111-.798.328-1.21.469-.732.276-1.483.517-2.17.91-.439.253-.799.591-1.208.868-.589.417-1.198.816-1.721 1.321-.369.363-.663.792-.991 1.201-.387.454-.84.865-1.156 1.381l-49.19 76.912c-.183.3-.27.64-.436.958-.141.252-.375.468-.498.744-.129.289-.135.592-.258.868a16.448 16.448 0 0 0-.64 2.138 16.626 16.626 0 0 0-.288 1.717 14.89 14.89 0 0 0-.027 2.165c.045.592.087 1.174.18 1.75.129.708.352 1.372.577 2.054.204.58.387 1.159.661 1.706.09.189.129.405.219.6.258.48.639.856.955 1.288.252.375.405.769.693 1.105l148.676 175.607c2.564 3.026 6.407 5.176 10.238 5.067.048 0 .097.024.129.024.214.012.418.012.634.012h.03c1.285 0 2.546-.24 3.759-.564.36-.114.685-.228 1.045-.366a14.302 14.302 0 0 0 2.594-1.225c.276-.162.57-.324.841-.505.979-.679 1.897-1.459 2.69-2.401L324.15 123.773c.191-.228.3-.504.468-.745.24-.303.541-.555.745-.898.216-.339.324-.72.504-1.083.253-.465.492-.934.679-1.438.282-.732.475-1.475.643-2.219.108-.505.229-.985.276-1.489.096-.829.06-1.637 0-2.459-.036-.486-.013-.94-.084-1.384z"/></svg>