<svg xmlns="http://www.w3.org/2000/svg" width="59" height="62" fill="none" viewBox="0 0 59 62"><path fill="#fff" d="M18.6 40.1c-5 1-14.6.5-18.6-4 4.3 2.9 12.8.1 16.8-1.9C10.9 32.4 2.9 28.9 1 20.7c2.9 4.4 10.2 8.4 15.3 6.4-6.4-6-9.4-11.4-8.6-19 1 6 7.9 12.1 12.9 14.1-2-10.1-1.1-16.1 4.4-21.8-4.7 7.8-.9 15.2 2.1 19.3C30 12.3 34 7.6 41.8 3.6c-5.9 5-9.1 10.7-7.9 16.3 6.7-5.2 13.2-10.6 22.5-8.1-5.4-1.5-14.9 7.1-16.3 11.9 5.8-1.5 14.5-.9 18.4 4.1-4.5-1.7-12.4-1-16.4 2 6.7 1.3 9.7 4.2 15.1 12.2-4.7-5.8-14.8-8-18.3-6.3C42 38.8 50.6 44.6 49.4 55 47.9 46 39.1 42.7 36 40.9c1.2 6.2 2.2 13.9-3.1 21.2 3.1-6.3.6-13.7-2.7-18.7-1.7 7.2-5 13.1-12 16.1 4-4 4.8-9.6 5.8-15.6-7 4-13.1 7.7-21.6 5.9 7.1-.2 12.1-4.7 16.2-9.7Z"/></svg>