<svg xmlns="http://www.w3.org/2000/svg" width="66" height="63" fill="none" viewBox="0 0 66 63"><path fill="#fff" d="M49.1 32.9c6.9-.5 12.2-1.1 16.4-1.5-6.7-.5-13.8-.1-17.2-.5 3.6-1.9 13.1-5.1 16.6-6-5.5 1.4-14 3.1-17.5 3.2 5.9-2.4 7.3-3.5 14.6-6.8-5.5 1.5-11 3.3-15.1 4.2 1.9-1.4 9.3-6.2 12.3-8-2.6 1.5-8.7 4.4-12.5 6.1 1.7-2.6 5-6 10-10.3 0 .1.2.2.1.1s-.1-.2-.1-.1c-4.6 3.3-9.1 6.4-11.9 7.8 2.1-2.5 5.6-7.3 9.9-12.5-5.7 5.6-8.6 8.7-11.8 11 1.1-3.8 4.9-12.2 6.7-15.2-2.8 4.6-7 11.2-9.4 13.8.4-3.5 1.6-8.4 3.6-15.1-1.9 5-3.9 10.7-5.5 13.5.1-3.8 2.1-14.2 2.4-16.1-1.3 6.7-3.8 12.8-5.2 16 0-3.5-.1-10.2.7-16-.5 4-2.5 14.4-3.1 16.4-.5-3-.4-10.1-.7-15.9-.4 8.2-1.1 13.4-1.9 16.1-1-4-3.7-11.1-5-16.6.9 4.1 2.1 13.2 2.2 17-2.3-3.5-5.2-8.7-8.5-14.6 2.5 5.3 5.5 12 6.9 15.5C23.7 15 17.3 6.7 14.7 3.1c3.8 6.3 6.2 10.3 9.6 17-1.2-1.2-7.2-6.2-10.9-11.6 5.2 7.6 6.6 9.8 8.9 13.8-4.2-2.8-5.9-4.4-13.7-10.1 2 1.7 9.5 10.1 11.5 11.6-3.9-1.9-14.8-6.9-17-8.5 3.8 2.7 10.5 6.6 15.4 10-3.9-.8-10.9-3.5-15.5-4.8 2.6.8 12.4 6.3 14.4 7.1-3.5-.7-14-2.9-17.4-3.6 8.3 3.7 11.9 4.1 15.7 5.5-5.4.3-14.8.2-14.8.2 4.9.6 10.8 1.5 13.5 2.4-2.8.8-6.8 1.7-12 2.7 4.1-.3 9-.2 12.6-.4-3.9 1.1-7 1.6-12 2.9 0-.1 0-.1 0 0s0 .1 0 0c6.7-.2 8.2-.5 13.1-.7-3.3 1.9-7.3 4.8-11.2 6 5.9-1.8 7.3-1.8 12.8-3.4-2.2 2.1-4.3 3.4-12.1 8.2 0-.1-.1-.1 0 0s.1.1 0 0c5.2-2.4 9.2-4 12.2-4.8-2.6 2.5-6.3 5.5-9.5 8 4.8-3.8 9.9-6.8 12.2-7.7-2 2.8-5.5 6.6-10.5 11.5 4.5-4.4 8.1-7.6 10.9-9.6-1.2 2.6-3.1 5.9-5.6 9.9-.1 0-.1-.1 0 0s.1 0 0 0c3.1-4.1 6.5-7.6 8.9-9.3-1.8 4.2-1.9 6.9-5.1 12.4 3.9-6.7 4.8-7.1 7.5-11-.6 3.4-1.8 6.4-3.4 13.3 1.5-4.1 4.8-9.2 6.1-12.2-.4 3.6-1.1 8.5-1.8 12.6-.1 0-.2 0 0 0s.1 0 0 0c1.6-6 2.4-9.9 3.8-12.6.6 3.3 1.8 7.9 1.4 14.3.3-6 1-10.9 1.6-14.3.9 3 1.7 6.5 3.1 13.4-.5-5.5-.7-10.4-.5-13.3 1.2 2.8 3.1 7.6 4.2 12.8-1.3-5.8-2-10.4-1.9-13.6 1.7 2.5 3.9 6.4 6.6 12.3-2.9-6.5-4.1-10.6-5.2-14.2 2.3 1.9 3.7 3.7 10.2 10.2-2-3.2-6.6-9-8.4-11.9 2.1 1.9 8.2 6.3 10.5 9.1-5.3-6.5-8-10.1-8.2-10.7 2.3.8 4.2 2.7 13.6 7.7-3.6-2.9-9.7-7.6-11.7-9.6 2.7.9 9.2 3 13.3 5.1 1.2.7 0 .1 0 0 .1-.1 0-.1 0 0-4.9-3.2-9.4-5.4-11.6-7.4 3 .7 8.1 2 13.9 3.9-6.1-2-10.1-4.2-13-6 4.5 0 7 .4 14.2 1-7.1-2.1-11.3-2.8-14.3-3.8Z"/></svg>