<svg xmlns="http://www.w3.org/2000/svg" width="55" height="58" fill="none" viewBox="0 0 55 58"><path fill="#fff" d="M19.9 20.1C21.1 18.9 16.4.7 16.4.7l5.3 11.7c3.5 7.1 5.9 6 7.7.9l3.7-9.7-.8 9.8c-.3 3.9.8 6.3 5.6 1.1L46.7 6l-7 10.6c-1.6 2.9-4.5 7.5 5 5.6l10.1-1.3-9 4.3c-5.5 1.6-7.1 4.1-1.8 6.1l9.5 4.9-10.7-1.4c-5.1-.9-2.1 1.7 3.8 8l7.3 7.9-10.3-7.6c-7.5-6.3-11.1-6.7-6.9 3.1l3 10.6-5.3-9c-2.8-4.7-5.2-10.4-7.3-1.2L24 58l1-15.3c.4-3.9-1.8-3.8-4.4-1l-8.9 8 5.9-9c4.3-6.5-.3-5.8-7-4.8L.3 37.1 9 33.8c7.6-2.5 7.8-3.8 4.2-5.8L2.9 23.9l7.7.7c3.9.3 8.5 1 1.7-5.8L1.1 7.7S18 22 19.9 20.1Z"/></svg>