<svg xmlns="http://www.w3.org/2000/svg" width="61" height="61" fill="none" viewBox="0 0 61 61"><path fill="#fff" d="m60.6 30.1-14.1 1.1 13.8 3.1-14.1-.8 13.2 5-13.9-2.9 12.4 7-13.3-4.9 11.2 8.6-12.4-6.7 9.9 10.1-11.4-8.4 8.4 11.5-10.2-10 6.7 12.5-8.6-11.2 4.9 13.3L36.2 45 39 58.9l-5-13.2.9 14.1L31.7 46l-1.1 14.1L29.4 46l-3.1 13.8.9-14.1-5.1 13.2L25 45l-6.9 12.4L23 44.1l-8.7 11.2L21 42.8l-10.1 10 8.4-11.5-11.4 8.4 9.9-10.1-12.5 6.7 11.3-8.6-13.3 4.9 12.3-7-13.8 2.9 13.2-5-14.1.8 13.8-3.1L.6 30.1l14.1-1.2L.9 25.8l14.1.9-13.2-5.1 13.8 2.9-12.3-6.9 13.3 4.8-11.3-8.6 12.5 6.7-9.9-10.1 11.4 8.4-8.4-11.4L21 17.3 14.3 4.8l8.6 11.3-4.8-13.3L25 15.1 22.1 1.3l5.1 13.2L26.3.4l3.1 13.8L30.6 0l1.1 14.2L34.9.4 34 14.5l5-13.2-2.8 13.8 6.9-12.3-4.9 13.3 8.6-11.3-6.7 12.5 10.2-9.9-8.4 11.4 11.4-8.4-9.9 10.1 12.4-6.7-11.2 8.6 13.3-4.8-12.4 6.9 13.9-2.9-13.2 5.1 14.1-.9-13.8 3.1 14.1 1.2Z"/></svg>