<svg xmlns="http://www.w3.org/2000/svg" width="54" height="54" fill="none" viewBox="0 0 54 54"><path fill="#fff" d="M53.2 27.1c0 .4-3.1.7-3.1 1.1 0 .4 3 1 3 1.4 0 .4-3.1.4-3.2.8-.1.4 2.9 1.3 2.9 1.6-.1.4-3.2.1-3.2.5-.1.4 2.8 1.5 2.7 1.9-.1.4-3.2-.2-3.3.2-.1.4 2.6 1.8 2.5 2.1-.1.4-3.1-.5-3.3-.1-.2.4 2.5 2 2.3 2.4-.2.3-3.1-.7-3.3-.4-.2.3 2.3 2.2 2.1 2.6-.2.3-3-1-3.2-.7-.2.3 2.1 2.4 1.8 2.7-.2.3-2.9-1.3-3.1-1-.2.3 1.8 2.6 1.6 2.9-.3.3-2.8-1.6-3-1.3-.3.3 1.6 2.8 1.3 3-.3.3-2.6-1.8-2.9-1.6-.3.2 1.3 2.9 1 3.1-.3.2-2.4-2-2.7-1.8-.3.2 1 3 .7 3.2-.3.2-2.2-2.3-2.6-2.1-.3.2.8 3.1.4 3.3-.3.2-2-2.4-2.4-2.3-.4.2.5 3.1.1 3.3-.4.1-1.8-2.6-2.1-2.5-.4.1.2 3.2-.2 3.3-.4.1-1.5-2.8-1.9-2.7-.4.1-.1 3.2-.5 3.2-.4.1-1.3-2.9-1.6-2.9-.4.1-.4 3.2-.8 3.2s-1-3-1.4-3c-.4 0-.7 3.1-1.1 3.1-.4 0-.7-3.1-1.1-3.1-.4 0-1 3-1.4 3-.4 0-.4-3.1-.8-3.2-.4-.1-1.3 2.9-1.6 2.9-.4-.1-.1-3.2-.5-3.2-.4-.1-1.5 2.8-1.9 2.7-.4-.1.2-3.2-.2-3.3-.4-.1-1.8 2.6-2.1 2.5-.4-.1.5-3.1.1-3.3-.4-.2-2 2.5-2.4 2.3-.3-.2.7-3.1.4-3.3-.3-.2-2.2 2.3-2.6 2.1-.3-.2 1-3 .7-3.2-.3-.2-2.4 2.1-2.7 1.8-.3-.2 1.3-2.9 1-3.1-.3-.2-2.6 1.8-2.9 1.6-.3-.3 1.6-2.8 1.3-3-.3-.3-2.8 1.6-3 1.3-.3-.3 1.8-2.6 1.6-2.9-.2-.3-2.9 1.3-3.1 1-.2-.3 2-2.4 1.8-2.7-.2-.3-3 1-3.2.7-.2-.3 2.3-2.2 2.1-2.6-.2-.3-3.1.8-3.3.4-.2-.3 2.4-2 2.3-2.4-.2-.4-3.1.5-3.3.1-.1-.4 2.6-1.8 2.5-2.1-.1-.4-3.2.2-3.3-.2-.1-.4 2.8-1.5 2.7-1.9-.1-.4-3.2-.1-3.3-.5-.1-.4 2.9-1.3 2.9-1.6-.1-.4-3.2-.4-3.2-.8s3-1 3-1.4c0-.4-3.1-.7-3.1-1.1 0-.4 3.1-.7 3.1-1.1 0-.4-3-1-3-1.4 0-.4 3.1-.4 3.2-.8.1-.4-2.9-1.3-2.9-1.6.1-.4 3.2-.1 3.3-.5.1-.4-2.8-1.5-2.7-1.9.1-.4 3.2.2 3.3-.2.1-.4-2.6-1.8-2.5-2.1.1-.4 3.1.5 3.3.1.2-.4-2.5-2-2.3-2.4.2-.3 3.1.7 3.3.4.2-.3-2.3-2.2-2.1-2.6.2-.3 3 1 3.2.7.2-.3-2.1-2.4-1.8-2.7.2-.3 2.9 1.3 3.1 1 .2-.3-1.8-2.6-1.6-2.9.3-.3 2.8 1.6 3 1.3.3-.3-1.6-2.8-1.3-3 .3-.3 2.6 1.8 2.9 1.6.3-.2-1.3-2.9-1-3.1.3-.2 2.4 2 2.7 1.8.3-.2-1-3-.7-3.2.3-.2 2.2 2.3 2.6 2.1.3-.2-.8-3.1-.4-3.3.3-.2 2 2.4 2.4 2.3.4-.2-.5-3.1-.1-3.3.4-.1 1.8 2.6 2.1 2.5.4-.1-.2-3.2.2-3.3.4-.1 1.5 2.8 1.9 2.7.4-.1.1-3.2.5-3.2.4-.1 1.3 2.9 1.6 2.9.4-.1.4-3.2.8-3.2s1 3 1.4 3c.4 0 .7-3.1 1.1-3.1.4 0 .7 3.1 1.1 3.1.4 0 1-3 1.4-3 .4 0 .4 3.1.8 3.2.4.1 1.3-2.9 1.6-2.9.4.1.1 3.2.5 3.2.4.1 1.5-2.8 1.9-2.7.4.1-.2 3.2.2 3.3.4.1 1.8-2.6 2.1-2.5.4.1-.5 3.1-.1 3.3.4.2 2-2.5 2.4-2.3.3.2-.7 3.1-.4 3.3.3.2 2.2-2.3 2.6-2.1.3.2-1 3-.7 3.2.3.2 2.4-2.1 2.7-1.8.3.2-1.3 2.9-1 3.1.3.2 2.6-1.8 2.9-1.6.3.3-1.6 2.8-1.3 3 .3.3 2.8-1.6 3-1.3.3.3-1.8 2.6-1.6 2.9.2.3 2.9-1.3 3.1-1 .2.3-2 2.4-1.8 2.7.2.3 3-1 3.2-.7.2.3-2.3 2.2-2.1 2.6.2.3 3.1-.8 3.3-.4.2.3-2.4 2-2.3 2.4.2.4 3.1-.5 3.3-.1.1.4-2.6 1.8-2.5 2.1.1.4 3.2-.2 3.3.2.1.4-2.8 1.5-2.7 1.9.1.4 3.2.1 3.2.5.1.4-2.9 1.3-2.9 1.6.1.4 3.2.4 3.2.8s-3 1-3 1.4c.1.4 3.1.7 3.1 1.1Z"/></svg>