<svg xmlns="http://www.w3.org/2000/svg" width="63" height="41" fill="none" viewBox="0 0 63 41"><path fill="#fff" d="M62.7 20.5c0-2-2.5-3.6-5.6-3.6h-4.4l3.8-1.4c2.7-1 3.6-3.2 2.1-4.9-1.6-1.7-5-2.3-7.7-1.3l-3.8 1.4 2.2-2.4c1.6-1.7.6-3.9-2.1-4.9-2.7-1-6.2-.4-7.7 1.3l-2.2 2.4V4.3c0-2-2.5-3.6-5.6-3.6-3.1 0-5.6 1.6-5.6 3.6v2.8l-2.2-2.4c-1.6-1.7-5-2.3-7.7-1.3-2.7 1-3.6 3.2-2.1 4.9l2.2 2.4-3.8-1.4c-2.7-1-6.2-.4-7.7 1.3-1.6 1.7-.6 3.9 2.1 4.9l3.8 1.4H6.3c-3.1 0-5.6 1.6-5.6 3.6s2.5 3.6 5.6 3.6h4.4l-3.8 1.4c-2.7 1-3.6 3.2-2.1 4.9 1.6 1.7 5 2.3 7.7 1.3l3.8-1.4-2.2 2.4c-1.6 1.7-.6 3.9 2.1 4.9 2.7 1 6.2.4 7.7-1.3l2.2-2.4v2.8c0 2 2.5 3.6 5.6 3.6 3.1 0 5.6-1.6 5.6-3.6v-2.8l2.2 2.4c1.6 1.7 5 2.3 7.7 1.3 2.7-1 3.6-3.2 2.1-4.9l-2.2-2.4 3.8 1.4c2.7 1 6.2.4 7.7-1.3 1.6-1.7.6-3.9-2.1-4.9l-3.8-1.4h4.4c3.1 0 5.6-1.6 5.6-3.6Z"/></svg>