<svg xmlns="http://www.w3.org/2000/svg" width="66" height="40" fill="none" viewBox="0 0 66 40"><path fill="#fff" d="M32.8 39.1c-2.2 0-4.2-3.3-6.3-3.5-2.2-.3-4.9 2.4-7 1.9-2.2-.6-3.2-4.2-5.1-5.1-2.1-.9-5.6.7-7.2-.6C5.3 30.4 6.1 26.7 5 25 3.8 23.1.2 21.9.2 19.7c0-2.2 3.6-3.4 4.8-5.3 1.1-1.7.3-5.4 2.2-6.8 1.6-1.2 5.1.4 7.2-.6 1.9-.8 2.9-4.5 5.1-5.1 2-.5 4.7 2.1 7 1.9 2.1-.3 4.1-3.5 6.3-3.5s4.2 3.3 6.3 3.5c2.2.3 4.9-2.4 7-1.9 2.2.6 3.2 4.2 5.1 5.1 2.1.9 5.6-.7 7.2.6 1.9 1.4 1.1 5.1 2.2 6.8 1.2 1.9 4.8 3.1 4.8 5.3 0 2.2-3.6 3.4-4.8 5.3-1.1 1.7-.3 5.4-2.2 6.8-1.6 1.2-5.1-.4-7.2.6-1.9.8-2.9 4.5-5.1 5.1-2 .5-4.7-2.1-7-1.9-2.1.3-4.1 3.5-6.3 3.5Z"/></svg>