<svg xmlns="http://www.w3.org/2000/svg" width="55" height="53" fill="none" viewBox="0 0 55 53"><path fill="#fff" d="M17.1 45.5c-.7-1.3-1.3-2.6-2.6-3.3-2.6-.7-4.6 2-5.9 3.3-.7-4 1.3-7.9-.7-11.9-2-2-4.6.7-6.6.7.7-4 5.9-6.6 4-11.2-.7-1.3-2.6-2.6-5.3-2.6 2.6-2 5.9-3.3 8.6-5.3 3.3-2.6 0-5.3-1.3-7.3 4-.7 7.9 1.3 11.9-.7 2-1.3 0-4.6.7-6.6 2.6 2 5.9 4 8.6 5.3 3.3 1.3 5.3-2.6 5.3-5.3 2 2 3.3 4 4 6.6.7 1.3 1.3 2.6 2.6 3.3 2.6.7 4.6-2 5.9-3.3 0 3.3-.7 6.6 0 9.9.7 4.6 5.3 2 7.9 1.3-2 3.3-4.6 7.3-5.3 11.2 2 .7 4 2 5.9 2.6-2.6 2-5.9 3.3-8.6 5.3-3.3 2.6 0 5.9 2 7.3-4 .7-8.6-1.3-12.6.7-2 1.3 0 4.6-.7 6.6-3.3-1.3-5.3-4-8.6-5.3-3.3-.7-5.3 2.6-5.3 5.3-1.3-2-2.6-4.6-3.9-6.6Z"/></svg>