<svg xmlns="http://www.w3.org/2000/svg" width="61" height="58" fill="none" viewBox="0 0 61 58"><path fill="#fff" d="M27.3 51.6c-.7-4.4-3-4.9-5.8-1.4 1-2.4-3.8.6-5.4 3.4 1.6-2.8 1.3-8.5-.3-6.4 1.6-4.2-.2-5.8-4.5-4 2.2-1.6-3.5-1.4-6.4.3 2.9-1.7 5.5-6.7 2.9-5.7 3.5-2.9 2.8-5.2-1.7-5.9 2.8-.4-2.2-3.1-5.6-3.1 3.4 0 8.3-2.8 5.6-3.1 4.6-.7 5.3-3 1.7-5.9 2.6 1 0-4-3-5.7 2.9 1.7 8.6 1.9 6.4.3 4.3 1.7 6 .1 4.5-4 1.7 2.1 2-3.6.3-6.4 1.6 2.8 6.5 5.8 5.4 3.4 2.8 3.5 5.1 3 5.8-1.4.4 2.6 3.3-2.3 3.3-5.5 0 3.2 2.9 8.1 3.3 5.5.7 4.4 3 4.9 5.8 1.4-1 2.4 3.8-.6 5.4-3.4-1.6 2.8-1.3 8.5.3 6.4-1.6 4.2.2 5.8 4.5 4-2.2 1.6 3.5 1.4 6.4-.3-2.9 1.7-5.5 6.7-2.9 5.7-3.5 2.9-2.9 5.2 1.7 5.9-2.8.4 2.2 3.1 5.6 3.1-3.4 0-8.3 2.8-5.6 3.1-4.6.7-5.3 3-1.7 5.9-2.6-1 0 4 3 5.7-2.9-1.7-8.6-1.9-6.4-.3-4.3-1.7-6-.1-4.5 4-1.7-2.1-2 3.6-.3 6.4-1.6-2.8-6.5-5.8-5.5-3.4-2.8-3.5-5.1-3-5.8 1.4-.4-2.6-3.3 2.3-3.3 5.5.1-3.2-2.8-8.1-3.2-5.5Z"/></svg>