<svg xmlns="http://www.w3.org/2000/svg" width="200" height="200" fill="none" viewBox="0 0 200 200"><path fill="#fff" d="M100 200c-6.597 0-12.674-1.649-18.23-4.948-5.381-3.125-9.721-7.378-13.02-12.76-3.125-5.556-4.688-11.632-4.688-18.23 0-8.333 1.91-15.277 5.73-20.833 3.82-5.555 9.722-12.066 17.708-19.531 5.903-5.382 8.854-10.504 8.854-15.365v-4.687h-4.687c-5.382 0-12.76 5.382-22.136 16.146-9.201 10.764-20.4 16.145-33.594 16.145-6.597 0-12.673-1.562-18.229-4.687-5.382-3.299-9.722-7.639-13.02-13.021C1.563 112.674 0 106.597 0 100c0-6.597 1.563-12.587 4.688-17.969 3.298-5.555 7.638-9.896 13.02-13.02 5.556-3.3 11.632-4.948 18.23-4.948 13.02 0 24.131 5.295 33.333 15.885 9.201 10.59 16.666 15.885 22.396 15.885h4.687v-4.166c0-4.862-2.951-9.983-8.854-15.365l-5.99-5.469c-4.34-3.993-8.333-8.767-11.979-14.323-3.646-5.729-5.469-12.586-5.469-20.572 0-6.598 1.563-12.587 4.688-17.97 3.299-5.555 7.639-9.895 13.02-13.02C87.327 1.649 93.404 0 100 0c6.597 0 12.587 1.65 17.969 4.948 5.555 3.299 9.896 7.639 13.021 13.02 3.298 5.383 4.947 11.372 4.947 17.97 0 13.02-5.295 24.131-15.885 33.333-10.59 9.201-15.885 16.666-15.885 22.396v4.166h4.166c5.903 0 13.368-5.295 22.396-15.885 8.854-10.59 19.965-15.885 33.334-15.885 6.597 0 12.586 1.649 17.968 4.947 5.556 3.125 9.896 7.379 13.021 12.76C198.351 87.154 200 93.23 200 100c0 6.597-1.649 12.674-4.948 18.229-3.125 5.382-7.465 9.722-13.021 13.021-5.382 3.125-11.371 4.687-17.968 4.687-8.16 0-15.191-1.996-21.094-5.989-5.729-3.993-12.153-9.809-19.271-17.448-5.382-5.903-10.504-8.854-15.365-8.854h-4.166v4.687c0 6.424 5.295 13.889 15.885 22.396 10.59 8.507 15.885 19.618 15.885 33.333 0 6.598-1.649 12.674-4.947 18.23-3.125 5.382-7.379 9.635-12.761 12.76C112.847 198.351 106.771 200 100 200Z"/></svg>