<svg xmlns="http://www.w3.org/2000/svg" width="200" height="200" fill="none" viewBox="0 0 200 200"><g clip-path="url(#clip0_104_106)"><path fill="#fff" fill-rule="evenodd" d="M101.604.86c-.777-1.295-2.654-1.295-3.43 0L79.31 32.308a2 2 0 0 1-2.498.812L43.068 18.764c-1.39-.59-2.908.512-2.775 2.017l3.225 36.529a2 2 0 0 1-1.544 2.125l-35.738 8.22c-1.471.34-2.051 2.124-1.06 3.263l24.081 27.657a2 2 0 0 1 0 2.627l-24.08 27.657c-.992 1.139-.412 2.924 1.06 3.262l35.737 8.221a2 2 0 0 1 1.544 2.125l-3.225 36.529c-.133 1.505 1.386 2.608 2.775 2.017l33.745-14.356a2 2 0 0 1 2.498.812l18.862 31.448c.777 1.296 2.654 1.295 3.431 0l18.862-31.448a2 2 0 0 1 2.498-.812l33.745 14.356c1.389.591 2.908-.512 2.775-2.017l-3.225-36.529a2 2 0 0 1 1.544-2.125l35.738-8.221c1.471-.338 2.051-2.123 1.06-3.262l-24.081-27.657a2.001 2.001 0 0 1 0-2.627l24.081-27.657c.991-1.139.411-2.924-1.06-3.262l-35.738-8.221a2 2 0 0 1-1.544-2.125l3.225-36.53c.133-1.504-1.386-2.607-2.775-2.016L122.964 33.12a2 2 0 0 1-2.498-.812L101.604.86ZM100 150c27.614 0 50-22.386 50-50s-22.386-50-50-50-50 22.386-50 50 22.386 50 50 50Z" clip-rule="evenodd"/></g></svg>