<svg xmlns="http://www.w3.org/2000/svg" width="200" height="200" fill="none" viewBox="0 0 200 200"><path fill="#fff" fill-rule="evenodd" d="M103.143 0a4 4 0 0 1 4 4v38.675c0 4.396 6.062 5.575 7.709 1.498l14.487-35.858a4 4 0 0 1 5.208-2.21l5.828 2.354a4 4 0 0 1 2.21 5.207L127.14 51.895c-1.633 4.04 3.455 7.408 6.537 4.327l29.154-29.155a4 4 0 0 1 5.657 0l4.445 4.445a4 4 0 0 1 0 5.656L146.752 63.35c-3.125 3.126.38 8.264 4.43 6.494L185.11 55.02a4 4 0 0 1 5.267 2.063l2.517 5.76a4 4 0 0 1-2.064 5.267l-39.096 17.082c-3.972 1.735-2.733 7.665 1.601 7.665H196a4 4 0 0 1 4 4v6.286a4 4 0 0 1-4 4h-42.664c-4.335 0-5.573 5.93-1.602 7.665l39.096 17.082a4 4 0 0 1 2.064 5.266l-2.517 5.76a3.999 3.999 0 0 1-5.267 2.064l-33.928-14.823c-4.05-1.77-7.555 3.368-4.43 6.494l26.181 26.18a4 4 0 0 1 0 5.657l-4.445 4.445a4 4 0 0 1-5.657 0l-29.154-29.155c-3.082-3.081-8.17.287-6.537 4.327l15.445 38.229a4 4 0 0 1-2.21 5.207l-5.828 2.355a4.001 4.001 0 0 1-5.208-2.211l-14.487-35.858c-1.647-4.077-7.709-2.898-7.709 1.498V196a4 4 0 0 1-4 4h-6.286a4 4 0 0 1-4-4v-38.675c0-4.396-6.062-5.575-7.709-1.498l-14.487 35.858a4 4 0 0 1-5.208 2.211l-5.828-2.355a4 4 0 0 1-2.21-5.207l15.446-38.229c1.632-4.04-3.456-7.408-6.538-4.327L37.17 172.933a4 4 0 0 1-5.657 0l-4.445-4.445a4 4 0 0 1 0-5.657l26.18-26.181c3.126-3.125-.379-8.263-4.429-6.493L14.89 144.98a3.999 3.999 0 0 1-5.267-2.064l-2.517-5.76a3.999 3.999 0 0 1 2.064-5.266l39.096-17.082c3.971-1.735 2.733-7.665-1.602-7.665H4a4 4 0 0 1-4-4v-6.286a4 4 0 0 1 4-4h42.664c4.335 0 5.574-5.93 1.602-7.665L9.17 68.11a4 4 0 0 1-2.064-5.267l2.517-5.76a4 4 0 0 1 5.267-2.063l33.928 14.823c4.05 1.77 7.555-3.368 4.43-6.494L27.067 37.17a4 4 0 0 1 0-5.657l4.445-4.445a4 4 0 0 1 5.657 0l29.154 29.155c3.082 3.081 8.17-.287 6.538-4.327l-15.446-38.23a4 4 0 0 1 2.21-5.207l5.828-2.355a4 4 0 0 1 5.207 2.21l14.488 35.86c1.647 4.076 7.71 2.897 7.71-1.5V4a4 4 0 0 1 4-4h6.285ZM100 142.857c23.669 0 42.857-19.188 42.857-42.857 0-23.67-19.188-42.857-42.857-42.857-23.67 0-42.857 19.188-42.857 42.857S76.33 142.857 100 142.857Z" clip-rule="evenodd"/></svg>