<svg xmlns="http://www.w3.org/2000/svg" width="200" height="200" fill="none" viewBox="0 0 200 200"><path fill="#fff" fill-rule="evenodd" d="M107.143 4a4 4 0 0 0-4-4h-6.286a4 4 0 0 0-4 4v38.675c0 4.396-6.062 5.575-7.709 1.498L70.661 8.315a4 4 0 0 0-5.208-2.21l-5.828 2.354a4 4 0 0 0-2.21 5.207l15.446 38.229c1.632 4.04-3.457 7.408-6.538 4.327L37.17 27.067a4 4 0 0 0-5.657 0l-4.445 4.445a4 4 0 0 0 0 5.657l26.18 26.18c3.126 3.126-.379 8.264-4.429 6.494L14.89 55.02a4 4 0 0 0-5.267 2.063l-2.517 5.76A4 4 0 0 0 9.17 68.11l39.096 17.082c3.972 1.735 2.733 7.665-1.602 7.665H4a4 4 0 0 0-4 4v6.286a4 4 0 0 0 4 4h42.664c4.334 0 5.573 5.93 1.602 7.665L9.17 131.89a3.999 3.999 0 0 0-2.064 5.266l2.517 5.76a3.999 3.999 0 0 0 5.267 2.064l33.928-14.823c4.05-1.77 7.555 3.368 4.43 6.494l-26.181 26.18a4 4 0 0 0 0 5.657l4.445 4.445a4 4 0 0 0 5.657 0l29.154-29.155c3.082-3.081 8.17.287 6.538 4.327l-15.446 38.229a4 4 0 0 0 2.21 5.207l5.828 2.355a4 4 0 0 0 5.207-2.211l14.488-35.858c1.647-4.077 7.71-2.898 7.71 1.498V196a4 4 0 0 0 4 4h6.285a4 4 0 0 0 4-4v-38.675c0-4.396 6.062-5.575 7.709-1.498l14.487 35.858a4.001 4.001 0 0 0 5.208 2.211l5.828-2.355a4 4 0 0 0 2.21-5.207l-15.445-38.229c-1.633-4.04 3.455-7.408 6.537-4.327l29.154 29.155a4 4 0 0 0 5.657 0l4.445-4.445a4 4 0 0 0 0-5.657l-26.181-26.18c-3.125-3.126.38-8.264 4.43-6.494l33.928 14.823a3.999 3.999 0 0 0 5.267-2.064l2.517-5.76a4 4 0 0 0-2.064-5.266l-39.096-17.082c-3.971-1.735-2.733-7.665 1.602-7.665H196a4 4 0 0 0 4-4v-6.286a4 4 0 0 0-4-4h-42.664c-4.335 0-5.574-5.93-1.602-7.665L190.83 68.11a4 4 0 0 0 2.064-5.267l-2.517-5.76a4 4 0 0 0-5.267-2.063l-33.928 14.823c-4.05 1.77-7.555-3.368-4.43-6.494l26.181-26.18a4 4 0 0 0 0-5.657l-4.445-4.445a4 4 0 0 0-5.657 0l-29.154 29.155c-3.082 3.08-8.17-.287-6.537-4.327l15.445-38.229a4 4 0 0 0-2.21-5.207l-5.828-2.355a4 4 0 0 0-5.208 2.21l-14.487 35.86c-1.647 4.076-7.709 2.897-7.709-1.5V4Z" clip-rule="evenodd"/></svg>