<svg xmlns="http://www.w3.org/2000/svg" width="200" height="200" fill="none" viewBox="0 0 200 200"><path fill="#fff" fill-rule="evenodd" d="M100 100s12.5-33.474 12.5-57.143C112.5 19.187 106.904 0 100 0S87.5 19.188 87.5 42.857C87.5 66.527 100 100 100 100Zm0 0s33.474-12.5 57.143-12.5C180.812 87.5 200 93.096 200 100s-19.188 12.5-42.857 12.5c-23.648 0-57.081-12.477-57.143-12.5Zm0 0s-12.5 33.474-12.5 57.143C87.5 180.812 93.096 200 100 200s12.5-19.188 12.5-42.857c0-23.648-12.477-57.081-12.5-57.143Zm0 0s-33.474 12.5-57.143 12.5C19.187 112.5 0 106.904 0 100s19.188-12.5 42.857-12.5C66.527 87.5 100 100 100 100Z" clip-rule="evenodd"/></svg>