<svg xmlns="http://www.w3.org/2000/svg" width="200" height="200" fill="none" viewBox="0 0 200 200"><path fill="#fff" fill-rule="evenodd" d="M0 158.405c46.157-14.588 56.186-4.56 41.597 41.595 26.956-46.155 89.85-46.155 116.806 0-14.579-46.155-4.549-56.183 41.597-41.595-46.146-26.955-46.146-89.845 0-116.8-46.146 14.578-56.176 4.55-41.597-41.605-26.956 46.155-89.85 46.155-116.805 0C56.185 46.155 46.157 56.183 0 41.606 46.157 68.56 46.157 131.45 0 158.405ZM100 137c20.435 0 37-16.565 37-37 0-20.434-16.565-37-37-37-20.434 0-37 16.566-37 37 0 20.435 16.566 37 37 37Z" clip-rule="evenodd"/></svg>