<svg xmlns="http://www.w3.org/2000/svg" width="200" height="200" fill="none" viewBox="0 0 200 200"><g clip-path="url(#clip0_105_323)"><path fill="#fff" fill-rule="evenodd" d="M106.973 87.6c-3.058 5.439-10.888 5.439-13.946 0L50.469 11.921C47.469 6.59 51.323 0 57.442 0h85.116c6.119 0 9.972 6.588 6.973 11.921l-42.558 75.68ZM87.6 106.973c5.439-3.058 5.439-10.888 0-13.946L11.921 50.468C6.588 47.47 0 51.323 0 57.441v85.117c0 6.119 6.588 9.972 11.921 6.973l75.68-42.558Zm19.373 5.427c-3.058-5.439-10.888-5.438-13.946 0l-42.558 75.679c-3 5.333.854 11.921 6.973 11.921h85.116c6.119 0 9.972-6.589 6.973-11.921L106.973 112.4Zm5.427-19.373c-5.439 3.058-5.439 10.888 0 13.946l75.679 42.558c5.333 2.999 11.921-.854 11.921-6.973V57.442c0-6.118-6.589-9.972-11.921-6.973L112.4 93.027Z" clip-rule="evenodd"/></g></svg>