<svg xmlns="http://www.w3.org/2000/svg" width="200" height="200" fill="none" viewBox="0 0 200 200"><g clip-path="url(#clip0_105_553)"><path fill="#fff" fill-rule="evenodd" d="M58.658 147.786a13.223 13.223 0 0 0-6.44-6.441C30.116 131.123 12.633 116.382 3.3 107.542c-4.401-4.17-4.401-10.91 0-15.08 9.333-8.841 26.816-23.582 48.916-33.804a13.218 13.218 0 0 0 6.441-6.44C68.88 30.116 83.621 12.633 92.461 3.3c4.17-4.401 10.911-4.401 15.081 0 8.84 9.333 23.581 26.816 33.803 48.916a13.223 13.223 0 0 0 6.441 6.441c22.101 10.222 39.584 24.963 48.916 33.803 4.402 4.17 4.402 10.911 0 15.081-9.332 8.84-26.815 23.581-48.916 33.803a13.229 13.229 0 0 0-6.441 6.441c-10.222 22.101-24.963 39.584-33.803 48.916-4.17 4.402-10.91 4.402-15.08 0-8.841-9.332-23.582-26.815-33.804-48.916Zm41.344-11.025c20.301 0 36.759-16.458 36.759-36.759 0-20.302-16.458-36.76-36.759-36.76-20.302 0-36.76 16.458-36.76 36.76 0 20.301 16.458 36.759 36.76 36.759Z" clip-rule="evenodd"/></g></svg>