<svg xmlns="http://www.w3.org/2000/svg" width="200" height="200" fill="none" viewBox="0 0 200 200"><g clip-path="url(#clip0_103_17)"><path fill="#fff" d="M97.812 1.846c.424-2.461 3.952-2.461 4.376 0l4.675 27.134c.373 2.164 3.316 2.536 4.214.534l11.262-25.117c1.022-2.279 4.439-1.4 4.239 1.09l-2.207 27.447c-.176 2.188 2.582 3.282 3.949 1.566l17.143-21.521c1.555-1.953 4.647-.25 3.835 2.112l-8.95 26.035c-.714 2.075 1.686 3.822 3.436 2.5l21.946-16.573c1.991-1.504 4.563.916 3.19 3.002L153.789 53.04c-1.206 1.832.685 4.122 2.708 3.279l25.37-10.585c2.302-.96 4.193 2.024 2.345 3.702L163.851 67.93c-1.623 1.474-.36 4.164 1.809 3.85l27.2-3.93c2.468-.357 3.559 3.005 1.353 4.17l-24.312 12.84c-1.938 1.023-1.382 3.942.796 4.18l27.322 2.97c2.479.27 2.7 3.797.275 4.376l-26.735 6.378c-2.132.509-2.318 3.475-.267 4.247l25.726 9.685c2.334.879 1.673 4.351-.82 4.308l-27.478-.484c-2.191-.039-3.107 2.788-1.312 4.047l22.514 15.791c2.042 1.433.54 4.631-1.864 3.967l-26.494-7.315c-2.113-.583-3.702 1.926-2.276 3.593l17.887 20.905c1.623 1.897-.626 4.62-2.79 3.378L150.539 151.2c-1.902-1.091-4.064.944-3.096 2.913l12.136 24.705c1.101 2.242-1.753 4.319-3.54 2.578l-19.701-19.199c-1.57-1.531-4.17-.099-3.721 2.05l5.623 26.952c.51 2.446-2.771 3.747-4.069 1.615l-14.316-23.505c-1.142-1.874-4.015-1.135-4.114 1.058l-1.244 27.508c-.112 2.495-3.613 2.938-4.341.549l-8.032-26.333c-.641-2.099-3.607-2.099-4.248 0l-8.032 26.333c-.728 2.389-4.229 1.946-4.341-.549l-1.244-27.508c-.1-2.193-2.972-2.932-4.114-1.058L65.83 192.814c-1.298 2.132-4.579.831-4.069-1.615l5.623-26.952c.449-2.149-2.15-3.581-3.721-2.05l-19.7 19.199c-1.788 1.741-4.642-.336-3.541-2.578l12.136-24.705c.968-1.969-1.195-4.004-3.096-2.913l-23.846 13.687c-2.164 1.242-4.413-1.481-2.79-3.378l17.887-20.905c1.426-1.667-.163-4.176-2.276-3.593l-26.494 7.315c-2.404.664-3.906-2.534-1.864-3.967l22.514-15.791c1.795-1.259.879-4.086-1.312-4.047l-27.478.484c-2.493.043-3.154-3.429-.82-4.308l25.726-9.685c2.051-.772 1.865-3.738-.267-4.247L1.706 96.387c-2.425-.579-2.204-4.106.275-4.376l27.322-2.97c2.178-.238 2.734-3.157.796-4.18L5.787 72.02c-2.206-1.165-1.115-4.527 1.353-4.17l27.2 3.93c2.17.314 3.432-2.376 1.809-3.85L15.788 49.437c-1.848-1.678.043-4.662 2.345-3.702l25.37 10.584c2.023.844 3.914-1.446 2.708-3.278L31.08 30.055c-1.373-2.086 1.199-4.506 3.19-3.002l21.946 16.574c1.75 1.321 4.15-.426 3.436-2.502l-8.95-26.034c-.812-2.362 2.28-4.065 3.835-2.112L71.68 34.5c1.367 1.716 4.125.622 3.95-1.566L73.421 5.487c-.2-2.49 3.217-3.369 4.239-1.09l11.263 25.117c.897 2.002 3.84 1.63 4.213-.534l4.675-27.134Z"/></g></svg>